<?xml version="1.0" encoding="utf-8"?>
<!-- Generator: Adobe Illustrator 26.1.0, SVG Export Plug-In . SVG Version: 6.00 Build 0)  -->
<svg version="1.1" id="Capa_1" xmlns="http://www.w3.org/2000/svg" xmlns:xlink="http://www.w3.org/1999/xlink" x="0px" y="0px"
	 viewBox="0 0 157.6 164.5" style="enable-background:new 0 0 157.6 164.5;" xml:space="preserve">
<style type="text/css">
	.Arqueado:_x0020_verde{fill:url(#SVGID_1_);stroke:#FFFFFF;stroke-width:0.25;stroke-miterlimit:1;}
	.st0{fill:#E0BFCC;}
	.st1{fill:#72401C;}
	.st2{fill:#BD651B;}
	.st3{clip-path:url(#SVGID_00000168082232852551602740000016264393438564930176_);fill:none;}
	.st4{clip-path:url(#SVGID_00000168082232852551602740000016264393438564930176_);}
	.st5{fill:#94510B;}
	.st6{clip-path:url(#SVGID_00000114042443814414607250000001784590693885078713_);fill:none;}
	.st7{clip-path:url(#SVGID_00000114042443814414607250000001784590693885078713_);}
	.st8{fill:#CEB3BA;}
	.st9{clip-path:url(#SVGID_00000111190567123985722060000003835373629683278749_);fill:#96500B;}
	.st10{fill:#F06141;}
	.st11{fill:#4D4135;}
	.st12{fill:#FFFFFF;}
	.st13{fill:#97928C;}
	.st14{clip-path:url(#SVGID_00000018224382306514077490000005059296152334335381_);fill:#302F2D;}
	.st15{fill:#EF5813;}
</style>
<linearGradient id="SVGID_1_" gradientUnits="userSpaceOnUse" x1="-201.804" y1="165.1275" x2="-201.0969" y2="164.4204">
	<stop  offset="0" style="stop-color:#1EAB4B"/>
	<stop  offset="0.9831" style="stop-color:#19361A"/>
</linearGradient>
<rect class="st0" width="157.6" height="164.5"/>
<polyline class="st1" points="15.5,114 132.1,127.6 132.1,123.6 15.5,110.1 "/>
<g>
	<g>
		<path class="st2" d="M98.2,55.1c2.3-1.3,4.6-2.7,7-4c0.8-0.4,1.6-0.8,2.3-1.4c0.7-0.6,1.2-1.4,1.8-2.1c1.7-2,3-4.5,4.2-6.8
			c1-1.8,1.5-4.1,2.6-5.8c0,0,7.3-11.4,11.1-10.1c3.8,1.3,2.3,15.1-12.6,27.4c0,0,9.2-3.6,12.7-7.4c0,0,5.5-6.8,5.2,2
			c-0.2,8.7-19.8,14.2-19.8,14.2s-1.1,1,0.9,1.7c0,0,13.1-6.2,12.7-2.5c-0.5,3.7-10.5,7.1-15.3,7.7c0,0-3.1,0.7-1.4,1.5
			c0,0,6.3-1.4,6.1,1.6c-0.1,3-15.2,6.3-15.2,6.3l-4.2-1.1L98.2,55.1z"/>
		<g>
			<defs>
				<path id="SVGID_00000029740299370183775420000006449698093659573162_" d="M98.2,55.1l9.2-5.4c0,0,4.6-4.7,8.7-14.7
					c0,0,7.3-11.4,11.1-10.1c3.8,1.3,2.3,15.1-12.6,27.4c0,0,9.2-3.6,12.7-7.4c0,0,5.5-6.8,5.3,2c-0.2,8.7-19.8,14.2-19.8,14.2
					s-1.1,1,0.9,1.7c0,0,13.1-6.2,12.7-2.5c-0.5,3.7-10.5,7.1-15.3,7.7c0,0-3.1,0.7-1.4,1.5c0,0,6.3-1.4,6.1,1.6
					c-0.1,3-15.2,6.3-15.2,6.3l-4.2-1.1L98.2,55.1z"/>
			</defs>
			<clipPath id="SVGID_00000043426750002076084070000010033470163348232607_">
				<use xlink:href="#SVGID_00000029740299370183775420000006449698093659573162_"  style="overflow:visible;"/>
			</clipPath>
			<path style="clip-path:url(#SVGID_00000043426750002076084070000010033470163348232607_);fill:none;" d="M98.2,55.1l9.2-5.4
				c0,0,4.6-4.7,8.7-14.7c0,0,7.3-11.4,11.1-10.1c3.8,1.3,2.3,15.1-12.6,27.4c0,0,9.2-3.6,12.7-7.4c0,0,5.5-6.8,5.3,2
				c-0.2,8.7-19.8,14.2-19.8,14.2s-1.1,1,0.9,1.7c0,0,13.1-6.2,12.7-2.5c-0.5,3.7-10.5,7.1-15.3,7.7c0,0-3.1,0.7-1.4,1.5
				c0,0,6.3-1.4,6.1,1.6c-0.1,3-15.2,6.3-15.2,6.3l-4.2-1.1L98.2,55.1z"/>
			<g style="clip-path:url(#SVGID_00000043426750002076084070000010033470163348232607_);">
				<g>
					<path class="st5" d="M129.4,24.7c1.3,7.5-1.6,16-6,22c-0.4,0.6-2.7-0.9-2.3-1.4c4.4-5.9,7.3-14.3,6-21.7
						C126.9,23.1,129.2,23.9,129.4,24.7z"/>
					<path class="st5" d="M132.8,39.3c3.3,4.2-0.3,12-2,16.3c-0.5,1.2-2.8-0.1-2.3-1.4c0.9-2.2,1.7-4.4,2.3-6.7
						c0.6-2.1,1.6-5.6,0.1-7.5C129.7,38.7,132,38.3,132.8,39.3z"/>
					<path class="st5" d="M127.9,58.4c-0.7,2.7-1.1,5.1-3.6,6.6c-0.5,0.3-2.5-0.8-2.2-1.5c0.8-1.6,1.6-3.1,2.1-4.8
						c0.2-0.6,2.5,0.6,2.3,1.4c-1,4.8-5.3,7.4-9.8,7.6c-0.7,0-7.2,0.3-6.4,0.3c4.3-0.2,12.9-4.6,13.8-9.2c0.8,0.5,1.5,0.9,2.3,1.4
						c-0.5,1.7-1.3,3.2-2.1,4.8c-0.7-0.5-1.5-1-2.2-1.5c2.4-1.4,2.7-3.9,3.4-6.4C125.7,56.5,128.1,57.6,127.9,58.4z"/>
					<path class="st5" d="M117.3,69.8c-1.2,3.1-5.2,6-8.2,6.5c-0.8,0.1-2.8-1.5-1.7-1.7c2.8-0.5,6.5-3.3,7.6-6.2
						C115.2,67.7,117.6,68.9,117.3,69.8z"/>
				</g>
			</g>
		</g>
	</g>
	<g>
		<path class="st2" d="M81.3,56.3c-3.2-2.5-6.5-4.9-9.7-7.4c-1.1-0.8-2.3-1.5-3.2-2.5c-1-1-1.4-2.2-2-3.3c-1.9-3.1-3.1-6.7-4.1-10
			c-0.8-2.7-0.8-5.7-1.9-8.2c0,0-7.2-16.9-14-16.4c-6.8,0.5-10,18.6,9.3,38.9c0,0-13.7-7.5-17.7-13.5c0,0-6.1-10.4-9.4,0.8
			C25.2,46.1,55,59.2,55,59.2s1.5,1.7-2.2,1.9c0,0-19-12.1-19.7-7.3C32.4,58.6,47.4,66.2,55,68.5c0,0,4.7,1.9,1.6,2.3
			c0,0-9.7-3.8-10.7,0.1c-1,3.9,22.4,12.9,22.4,12.9l7.3-0.1L81.3,56.3z"/>
		<g>
			<defs>
				<path id="SVGID_00000131360393968566855800000006152952502509406652_" d="M81.3,56.3l-12.9-9.8c0,0-5.6-7.4-8.1-21.6
					c0,0-7.2-16.9-14-16.4c-6.8,0.5-10,18.6,9.3,38.9c0,0-13.7-7.5-17.7-13.5c0,0-6.1-10.4-9.4,0.8C25.2,46.1,55,59.2,55,59.2
					s1.5,1.7-2.2,1.9c0,0-19-12.1-19.7-7.3C32.4,58.6,47.4,66.2,55,68.5c0,0,4.7,1.9,1.6,2.3c0,0-9.7-3.8-10.7,0.1
					c-1,3.9,22.4,12.9,22.4,12.9l7.3-0.1L81.3,56.3z"/>
			</defs>
			<clipPath id="SVGID_00000072992140259306342590000007725799827286239379_">
				<use xlink:href="#SVGID_00000131360393968566855800000006152952502509406652_"  style="overflow:visible;"/>
			</clipPath>
			<path style="clip-path:url(#SVGID_00000072992140259306342590000007725799827286239379_);fill:none;" d="M81.3,56.3l-12.9-9.8
				c0,0-5.6-7.4-8.1-21.6c0,0-7.2-16.9-14-16.4c-6.8,0.5-10,18.6,9.3,38.9c0,0-13.7-7.5-17.7-13.5c0,0-6.1-10.4-9.4,0.8
				C25.2,46.1,55,59.2,55,59.2s1.5,1.7-2.2,1.9c0,0-19-12.1-19.7-7.3C32.4,58.6,47.4,66.2,55,68.5c0,0,4.7,1.9,1.6,2.3
				c0,0-9.7-3.8-10.7,0.1c-1,3.9,22.4,12.9,22.4,12.9l7.3-0.1L81.3,56.3z"/>
			<g style="clip-path:url(#SVGID_00000072992140259306342590000007725799827286239379_);">
				<g>
					<path class="st5" d="M42.8,7.6c-5.2,9.1-3.9,20.9,0.8,29.9c0.5,0.9,4.7-0.3,4.4-1C43.3,27.6,42.1,16,47.2,7
						C47.5,6.4,43.4,6.7,42.8,7.6z"/>
					<path class="st5" d="M31.1,25.3c-7.2,4.3-4.5,15.4-3.4,21.5c0.3,1.6,4.7,0.7,4.4-1c-0.5-3.1-0.9-6.2-1-9.3
						c-0.1-2.8-0.2-7.7,3-9.6C36.5,25.4,32.9,24.2,31.1,25.3z"/>
					<path class="st5" d="M31.2,51.2c0,3.6-0.3,6.9,3.1,9.6c0.7,0.6,4.5-0.2,4.2-1.2c-0.6-2.3-1.2-4.5-1.4-6.8c0-0.8-4.3-0.1-4.4,1
						c-0.4,6.5,5.7,11.1,12.8,12.8c1.1,0.2,11.8,2.7,10.3,2.4c-6.9-1.6-19.2-10-18.8-16.1c-1.5,0.3-2.9,0.7-4.4,1
						c0.1,2.3,0.8,4.6,1.4,6.8c1.4-0.4,2.8-0.8,4.2-1.2c-3.3-2.6-2.9-5.8-2.8-9.2C35.6,49.5,31.2,50.1,31.2,51.2z"/>
					<path class="st5" d="M43.9,69.1c0.6,4.3,6,9.3,10.7,10.9c1.2,0.4,5.2-1.1,3.5-1.7c-4.4-1.6-9.3-6.3-9.9-10.3
						C48.1,67,43.7,67.8,43.9,69.1z"/>
				</g>
			</g>
		</g>
	</g>
	<path class="st2" d="M75.7,92.4l-4.1,3.4c0,0-11,9-8.3,12.1c0,0,1.6,1.8,6-3.6c0,0-4.9,8.4-2.5,10.2c2.4,1.8,6.2-9.5,6.2-9.5
		s-0.5,11.5,2.7,11.5c3.3,0,1.1-12,1.1-12s1.5,9.1,5.6,7.6C86.7,110.6,75.7,92.4,75.7,92.4"/>
	<g>
		<path class="st8" d="M84.3,24.1c0,0-14.6-1.5-19.8,11.3c-5.1,12.8-4.1,45.7-1.8,49c0,0,2.3,10.6,13.1,12.9
			c10.8,2.3,19.5-16.9,19.5-16.9S117.4,25.4,84.3,24.1z"/>
		<g>
			<defs>
				<path id="SVGID_00000028323112633435710530000016562527507887202177_" d="M84.3,24.1c0,0-14.6-1.5-19.8,11.3
					c-5.1,12.8-4.1,45.7-1.8,49c0,0,2.3,10.6,13.1,12.9c10.8,2.3,19.5-16.9,19.5-16.9S117.4,25.4,84.3,24.1z"/>
			</defs>
			<clipPath id="SVGID_00000065068289951624298100000001980190477100078505_">
				<use xlink:href="#SVGID_00000028323112633435710530000016562527507887202177_"  style="overflow:visible;"/>
			</clipPath>
			<path style="clip-path:url(#SVGID_00000065068289951624298100000001980190477100078505_);fill:#96500B;" d="M61.6,82.8
				c0,0,1.3-37.8,5.9-36.7l41.9-7.4l-21.1-19l-25.7,4.9l-5.9,55.2L61.6,82.8z"/>
		</g>
	</g>
	<g>
		<path class="st10" d="M79,31.4c0,0-6.1-1.1-6.7,4.6c-0.2,2.2-1.3,4.1-3.1,5.4c-1.3,0.9-2.7,0.7-2.3,2.5c0.3,1.4,1.4,3,2.1,4.2
			c2.5,4.3,5.5,8.2,9.7,11c2.1,1.4,4.5,2.5,6.7,3.6c2.7,1.4,3.3,1.8,5.9,0.3c1.7-0.9,3.2-1.5,4.6-2.9c1.8-1.9,3.1-4.3,4.3-6.6
			c0.9-1.8,1.7-3.7,2.2-5.6c0.6-2,2.3-4.8,1.5-6.9c-0.8-2.1-4-3.3-4-5.8c0-1.8-7.8-7.9-10.4-0.4c0,0-1.8,2.1-4.4,0
			C85.2,34.8,84.3,31.6,79,31.4z"/>
		<path class="st10" d="M79,31.4c0,0-6.1-1.1-6.7,4.6c-0.2,2.2-1.3,4.1-3.1,5.4c-1.3,0.9-2.7,0.7-2.3,2.5c0.3,1.4,1.4,3,2.1,4.2
			c2.5,4.3,5.5,8.2,9.7,11c2.1,1.4,4.5,2.5,6.7,3.6c2.7,1.4,3.3,1.8,5.9,0.3c1.7-0.9,3.2-1.5,4.6-2.9c1.8-1.9,3.1-4.3,4.3-6.6
			c0.9-1.8,1.7-3.7,2.2-5.6c0.6-2,2.3-4.8,1.5-6.9c-0.8-2.1-4-3.3-4-5.8c0-1.8-7.8-7.9-10.4-0.4c0,0-1.8,2.1-4.4,0
			C85.2,34.8,84.3,31.6,79,31.4z"/>
		<path class="st10" d="M79,31.4c0,0-6.1-1.1-6.7,4.6c-0.2,2.2-1.3,4.1-3.1,5.4c-1.3,0.9-2.7,0.7-2.3,2.5c0.3,1.4,1.4,3,2.1,4.2
			c2.5,4.3,5.5,8.2,9.7,11c2.1,1.4,4.5,2.5,6.7,3.6c2.7,1.4,3.3,1.8,5.9,0.3c1.7-0.9,3.2-1.5,4.6-2.9c1.8-1.9,3.1-4.3,4.3-6.6
			c0.9-1.8,1.7-3.7,2.2-5.6c0.6-2,2.3-4.8,1.5-6.9c-0.8-2.1-4-3.3-4-5.8c0-1.8-7.8-7.9-10.4-0.4c0,0-1.8,2.1-4.4,0
			C85.2,34.8,84.3,31.6,79,31.4z"/>
		<path class="st10" d="M79,31.4c0,0-6.1-1.1-6.7,4.6c-0.2,2.2-1.3,4.1-3.1,5.4c-1.3,0.9-2.7,0.7-2.3,2.5c0.3,1.4,1.4,3,2.1,4.2
			c2.5,4.3,5.5,8.2,9.7,11c2.1,1.4,4.5,2.5,6.7,3.6c2.7,1.4,3.3,1.8,5.9,0.3c1.7-0.9,3.2-1.5,4.6-2.9c1.8-1.9,3.1-4.3,4.3-6.6
			c0.9-1.8,1.7-3.7,2.2-5.6c0.6-2,2.3-4.8,1.5-6.9c-0.8-2.1-4-3.3-4-5.8c0-1.8-7.8-7.9-10.4-0.4c0,0-1.8,2.1-4.4,0
			C85.2,34.8,84.3,31.6,79,31.4z"/>
	</g>
	<g>
		<g>
			<path class="st11" d="M84.2,37.2c0,2.1-1.7,3.8-3.8,3.8c-2.1,0-3.8-1.7-3.8-3.8c0-0.7,0.2-1.4,0.6-2c0.7-1.1,1.9-1.8,3.3-1.8
				C82.5,33.4,84.2,35.1,84.2,37.2z"/>
			<path class="st11" d="M77.1,35.2c0,0-1.5,0.5-2.4-1.3c0,0,0.3,4.8,4.2,6.9l0.3-2.8L77.1,35.2z"/>
		</g>
	</g>
	<g>
		<g>
			<path class="st11" d="M91.2,37.3c0,1.8,1.5,3.3,3.3,3.3c1.8,0,3.3-1.5,3.3-3.3c0-0.6-0.2-1.2-0.5-1.7c-0.6-0.9-1.6-1.6-2.8-1.6
				C92.6,34,91.2,35.5,91.2,37.3z"/>
			<path class="st11" d="M97.3,35.6c0,0,1.3,0.4,2-1.2c0,0,0.4,3.8-2.9,5.5l-0.9-2L97.3,35.6z"/>
		</g>
	</g>
	<path class="st12" d="M94.2,35.9c0,0.5-0.4,0.9-0.9,0.9c-0.5,0-0.9-0.4-0.9-0.9c0-0.5,0.4-0.9,0.9-0.9
		C93.8,35.1,94.2,35.4,94.2,35.9z"/>
	<path class="st12" d="M80.6,35.9c0,0.5-0.4,0.9-0.9,0.9c-0.5,0-0.9-0.4-0.9-0.9c0-0.5,0.4-0.9,0.9-0.9
		C80.2,35.1,80.6,35.4,80.6,35.9z"/>
	<g>
		<path class="st13" d="M89.6,39.6c-2.6-0.2-5.3,1.3-5.6,4.2c-0.2,2.4,1.8,3.3,3.8,3.4c2.7,0.1,5-1.4,7.5-2.2
			c0.7-0.2-2.9-4.3-3.2-4.5C91.4,40,90.5,39.7,89.6,39.6z"/>
		<g>
			<defs>
				<path id="SVGID_00000176740372214048901850000008033718011137189271_" d="M89.6,39.6c-2.6-0.2-5.3,1.3-5.6,4.2
					c-0.2,2.4,1.8,3.3,3.8,3.4c2.7,0.1,10-3,7.5-2.2c-0.4,0.1,2.4-0.5-3.2-4.5C91.4,40,90.5,39.7,89.6,39.6z"/>
			</defs>
			<clipPath id="SVGID_00000111151532410511849570000001307670146897310863_">
				<use xlink:href="#SVGID_00000176740372214048901850000008033718011137189271_"  style="overflow:visible;"/>
			</clipPath>
			<path style="clip-path:url(#SVGID_00000111151532410511849570000001307670146897310863_);fill:#302F2D;" d="M84,43.8
				c0,0,2.7,2.5,11.6,1l0.9,1.6L90.8,48h-6.7L84,43.8z"/>
		</g>
	</g>
	<path class="st15" d="M79.4,43c0,1.5-1.7,2.7-3.9,2.7c-2.1,0-3.9-1.2-3.9-2.7c0-1.5,1.7-2.7,3.9-2.7C77.7,40.4,79.4,41.6,79.4,43z"
		/>
	<path class="st15" d="M103.2,42.7c0,1.5-1.7,2.7-3.9,2.7c-2.1,0-3.9-1.2-3.9-2.7c0-1.5,1.7-2.7,3.9-2.7
		C101.5,40,103.2,41.2,103.2,42.7z"/>
</g>
</svg>
