<?xml version="1.0" encoding="utf-8"?>
<!-- Generator: Adobe Illustrator 26.1.0, SVG Export Plug-In . SVG Version: 6.00 Build 0)  -->
<svg version="1.1" id="Capa_1" xmlns="http://www.w3.org/2000/svg" xmlns:xlink="http://www.w3.org/1999/xlink" x="0px" y="0px"
	 viewBox="0 0 157.6 164.5" style="enable-background:new 0 0 157.6 164.5;" xml:space="preserve">
<style type="text/css">
	.Arqueado:_x0020_verde{fill:url(#SVGID_1_);stroke:#FFFFFF;stroke-width:0.25;stroke-miterlimit:1;}
	.st0{fill:#E0BFCC;}
	.st1{fill:#72401C;}
	.st2{fill:#E6DEBA;}
	.st3{clip-path:url(#SVGID_00000016757179765014131410000016298062872961806003_);fill:#C2C0B4;}
	.st4{fill:#E5DCBB;}
	.st5{clip-path:url(#SVGID_00000178184026280682059460000010124597755825697178_);fill:#98948B;}
	.st6{clip-path:url(#SVGID_00000178184026280682059460000010124597755825697178_);fill:#494A44;}
	.st7{fill:#5F4842;}
	.st8{fill:#FFFFFF;}
	.st9{fill:#F15B0F;}
	.st10{fill:#97928C;}
	.st11{clip-path:url(#SVGID_00000056387575728939858000000014764833468271259784_);fill:#302F2D;}
	.st12{clip-path:url(#SVGID_00000080198717709444999350000000802526077040105879_);fill:#C1BEB7;}
	.st13{fill:#98948B;}
	.st14{clip-path:url(#SVGID_00000039837210518524146400000016646000022159580602_);fill:#827F78;}
	.st15{fill:#464540;}
	.st16{fill:#1A171B;}
</style>
<linearGradient id="SVGID_1_" gradientUnits="userSpaceOnUse" x1="-201.804" y1="165.1275" x2="-201.0969" y2="164.4204">
	<stop  offset="0" style="stop-color:#1EAB4B"/>
	<stop  offset="0.9831" style="stop-color:#19361A"/>
</linearGradient>
<rect class="st0" width="157.6" height="164.5"/>
<polyline class="st1" points="15.5,114 132.1,127.6 132.1,123.6 15.5,110.1 "/>
<g>
	<g>
		<path class="st2" d="M31,91.1l-2,1.1c0,0-15,12.3-16.4,16.9c0,0-3.2,4.1-1.2,5.9c1.9,1.8,9.2-2.1,11-6c0,0-4.6,9.2-1.5,11
			c3.1,1.8,9.3-4.5,14.1-17.1L31,91.1z"/>
		<g>
			<defs>
				<path id="SVGID_00000039132094889754840660000010241871827991166849_" d="M31,91.1l-2,1.1c0,0-15,12.3-16.4,16.9
					c0,0-3.2,4.1-1.2,5.9c1.9,1.8,9.2-2.1,11-6c0,0-4.6,9.2-1.5,11c3.1,1.8,9.3-4.5,14.1-17.1L31,91.1z"/>
			</defs>
			<clipPath id="SVGID_00000169537587493054485910000013830583580421213342_">
				<use xlink:href="#SVGID_00000039132094889754840660000010241871827991166849_"  style="overflow:visible;"/>
			</clipPath>
			<path style="clip-path:url(#SVGID_00000169537587493054485910000013830583580421213342_);fill:#C2C0B4;" d="M11.8,107.6
				c0,0,0.7,5.9,4.8,7.4c4.2,1.6-5.5,1.6-5.5,1.6l-3.9-4L11.8,107.6z"/>
			<path style="clip-path:url(#SVGID_00000169537587493054485910000013830583580421213342_);fill:#C2C0B4;" d="M20.5,112.7
				c0,0,0.2,5.9,6.3,1.6c0,0,3.6-3.8,5.3-6l0.7,14l-10.7,0.7l-2.6-1.6l-1-3.8L20.5,112.7z"/>
		</g>
	</g>
	<path class="st4" d="M98.4,52.3c0,0,13.9,7.9,10.9,27.1c0,0-2,19.6-7.7,27.3c0,0-5,8.4-17.4,8.7c0,0-19.4,3.5-38.2-4.7
		c0,0-16.6-8.7-17.9-20.1c0,0-2.2-9.2,3.5-17.4c0,0,7.5-18.6,24.4-38.5l21.8-7.9l18.9,4.7C96.7,31.4,101.4,43.9,98.4,52.3z"/>
	<g>
		<defs>
			<path id="SVGID_00000047778123062633889330000006131352184070352013_" d="M72.1,16c0,0-5.2,8-9.5,10.9c0,0-6.8,3.3-6.7,8.4
				c0,0-1.2,12.1,9.7,18.5c-0.5-7.9-2.8-21.6,9.4-22c1.1,0,2.5,0.4,3.5,0.9c1.1,0.5,1.9,1.3,2.6,2.3c1.3,1.9,2.2,4.2,2.5,6.4
				c0.2,1.4-0.1,2.8-0.1,4.2c0,1.4,0.1,2.7,0.1,4.1c0,0.3,0,0.7,0,1l4.3-0.6c0,0-2.1-15.8,7.8-17.6c0,0-0.3-10.1-19.9-19.1
				c0,0,1.7,5.9-2.8,9L72.1,16z"/>
		</defs>
		<clipPath id="SVGID_00000165930260841590053960000008840092755303731858_">
			<use xlink:href="#SVGID_00000047778123062633889330000006131352184070352013_"  style="overflow:visible;"/>
		</clipPath>
		<path style="clip-path:url(#SVGID_00000165930260841590053960000008840092755303731858_);fill:#98948B;" d="M72.1,16
			c0,0-5.2,8-9.5,10.9c0,0-6.8,3.3-6.7,8.4c0,0-1.2,12.1,9.7,18.5c-0.5-7.9-2.8-21.6,9.4-22c7-0.2,9.4,9.6,8.4,12.9l0.2,5.9l4.3-0.6
			c0,0-2.1-15.8,7.8-17.6c0,0-0.3-10.1-19.9-19.1c0,0,1.7,5.9-2.8,9L72.1,16z"/>
		<polygon style="clip-path:url(#SVGID_00000165930260841590053960000008840092755303731858_);fill:#494A44;" points="82.3,42.2 
			88.7,41.6 88.7,48.9 83,49.4 		"/>
	</g>
	<g>
		<path class="st7" d="M78.3,45.1c0,2-1.4,3.5-3.2,3.5s-3.2-1.6-3.2-3.5c0-2,1.4-3.5,3.2-3.5S78.3,43.1,78.3,45.1z"/>
		<circle class="st8" cx="73.8" cy="43.7" r="0.8"/>
	</g>
	<g>
		<path class="st7" d="M96.7,43.3c0,1.7-1.1,3-2.5,3c-1.4,0-2.5-1.3-2.5-3c0-1.7,1.1-3,2.5-3C95.6,40.3,96.7,41.7,96.7,43.3z"/>
		<path class="st8" d="M93.9,42.6c0,0.4-0.3,0.8-0.8,0.8c-0.4,0-0.8-0.3-0.8-0.8c0-0.4,0.3-0.8,0.8-0.8
			C93.5,41.8,93.9,42.1,93.9,42.6z"/>
	</g>
	<path class="st9" d="M72,49.9c0,1.6-1.7,2.9-3.7,2.9c-2,0-3.7-1.3-3.7-2.9c0-1.6,1.7-2.9,3.7-2.9C70.4,46.9,72,48.3,72,49.9z"/>
	<path class="st9" d="M99.1,49.3c0,1.3-1.3,2.3-2.9,2.3c-1.6,0-2.9-1-2.9-2.3c0-1.3,1.3-2.3,2.9-2.3C97.8,47,99.1,48,99.1,49.3z"/>
	<g>
		<path class="st10" d="M87.7,48.2c-2.8-0.2-5.7,1.5-6,4.6c-0.3,2.6,2,3.6,4.2,3.7c2.9,0.1,5.5-1.5,8.2-2.4c0.8-0.3-3.2-4.6-3.5-4.8
			C89.7,48.6,88.7,48.3,87.7,48.2z"/>
		<g>
			<defs>
				<path id="SVGID_00000017505150593562137400000006661070661542414776_" d="M87.7,48.2c-2.8-0.2-5.7,1.5-6,4.6
					c-0.3,2.6,2,3.6,4.2,3.7c2.9,0.1,5.5-1.5,8.2-2.4c0.8-0.3-3.2-4.6-3.5-4.8C89.7,48.6,88.7,48.3,87.7,48.2z"/>
			</defs>
			<clipPath id="SVGID_00000024686599664281345610000001986960518725749663_">
				<use xlink:href="#SVGID_00000017505150593562137400000006661070661542414776_"  style="overflow:visible;"/>
			</clipPath>
			<path style="clip-path:url(#SVGID_00000024686599664281345610000001986960518725749663_);fill:#302F2D;" d="M81.7,51.3
				c0,0,2.6,3.8,12.2,2.2l1.2,2.2L89,57.4h-7.3V51.3z"/>
		</g>
	</g>
	<g>
		<defs>
			<path id="SVGID_00000007423685338901192560000012596893737666368933_" d="M98.4,52.3c0,0,13.9,7.9,10.9,27.1c0,0-2,19.6-7.7,27.3
				c0,0-5,8.4-17.4,8.7c0,0-19.4,3.5-38.2-4.7c0,0-16.6-8.7-17.9-20.1c0,0-2.2-9.2,3.5-17.4c0,0,7.5-18.6,24.4-38.5l21.8-7.9
				l18.9,4.7C96.7,31.4,101.4,43.9,98.4,52.3z"/>
		</defs>
		<clipPath id="SVGID_00000059286167117446503240000000190840475073186724_">
			<use xlink:href="#SVGID_00000007423685338901192560000012596893737666368933_"  style="overflow:visible;"/>
		</clipPath>
		<path style="clip-path:url(#SVGID_00000059286167117446503240000000190840475073186724_);fill:#C1BEB7;" d="M28.7,78.1
			c0,0,8.9,33.3,43.2,32.1c0,0,23.9,3.3,36.7-22v25.3l-30.6,7.1l-34.8-7.7L20.8,92.1L28.7,78.1z"/>
	</g>
	<g>
		<path class="st13" d="M41.6,57.1c0,0,23.7-15.2,23.3,2.9c-0.4,18.1-14.7,42.8-26,45.5C38.9,105.5,22.5,77.7,41.6,57.1z"/>
		<g>
			<defs>
				<path id="SVGID_00000037652765790774940770000010853272089606181305_" d="M41.6,57.1c0,0,23.7-15.2,23.3,2.9
					c-0.4,18.1-14.7,42.8-26,45.5C38.9,105.5,22.5,77.7,41.6,57.1z"/>
			</defs>
			<clipPath id="SVGID_00000008127163014157342160000008124389208260076191_">
				<use xlink:href="#SVGID_00000037652765790774940770000010853272089606181305_"  style="overflow:visible;"/>
			</clipPath>
			<path style="clip-path:url(#SVGID_00000008127163014157342160000008124389208260076191_);fill:#827F78;" d="M31.8,87
				c0,0,1.5,11.3,10.1,11.3c8.6,0,19.4-20.2,23-30.3l10.1,18.7l-29.5,30l-26.9-11.2L31.8,87z"/>
		</g>
	</g>
	<g>
		<path class="st15" d="M56,66.5c-6.3,3-10,10.2-12.6,16.2c-2.9,6.7-5.4,14.4-5.1,21.8c0,0.9,2.4,0.3,2.4-0.6
			c-0.3-6.4,1.8-13.1,4.1-19.1c2.3-6,5.9-14.3,12.2-17.3C58.5,66.9,57.1,66,56,66.5z"/>
		<path class="st15" d="M41.8,67.8c-6.6,6.7-6.4,18.2-6.5,26.9c0,1.3,2.4,1,2.4-0.2c0-8.4-0.3-19.6,6-26
			C44.8,67.5,42.6,67,41.8,67.8z"/>
	</g>
	<g>
		<g>
			<path class="st16" d="M64.1,115.4c0.8,0.4,1.1,1.9,1.2,2.7c0.2,1-0.6,2.3-1.5,2.9c-1,0.7,0.5,1.1,1.1,0.7c1-0.7,2.3-2.2,2.2-3.5
				c-0.1-1.2-0.5-3.1-1.7-3.7C64.9,114.1,63.3,114.9,64.1,115.4z"/>
			<path class="st16" d="M67.8,115.8c1.1,1.5,1,4.2-0.4,5.5c-0.3,0.3-0.2,0.6,0.2,0.7c0.4,0.1,0.9-0.1,1.3-0.3
				c1.8-1.5,2-4.8,0.6-6.6C69.1,114.5,67.4,115.1,67.8,115.8z"/>
			<path class="st16" d="M71,115.6c1.1,1.9-0.2,4.2-0.8,6c-0.2,0.6,1.6,0.4,1.8-0.2c0.7-2.2,1.9-4.3,0.7-6.5
				C72.3,114.4,70.6,115,71,115.6z"/>
			<path class="st16" d="M75.7,115c0.1,0.9,0.4,1.8,0.7,2.7c0.4,1.2,0.1,2.4-0.4,3.5c-0.4,0.9,1.4,0.9,1.7,0.2
				c0.4-1.1,0.7-2.2,0.6-3.4c-0.1-1.2-0.8-2.2-0.9-3.4C77.4,113.7,75.6,114.1,75.7,115z"/>
			<path class="st16" d="M79.1,115.8c0.6,1.8,1.8,4.5,0.4,6.2c-0.4,0.6,1.3,0.4,1.6,0c1.5-1.9,0.4-4.6-0.3-6.6
				C80.7,114.7,78.9,115.3,79.1,115.8z"/>
			<path class="st16" d="M81.7,115.8c0.6,1.8,1.8,4.5,0.4,6.2c-0.4,0.6,1.3,0.4,1.6,0c1.5-1.9,0.4-4.6-0.3-6.6
				C83.3,114.7,81.6,115.3,81.7,115.8z"/>
		</g>
		<g>
			<path class="st16" d="M64.1,115.4c0.8,0.4,1.1,1.9,1.2,2.7c0.2,1-0.6,2.3-1.5,2.9c-1,0.7,0.5,1.1,1.1,0.7c1-0.7,2.3-2.2,2.2-3.5
				c-0.1-1.2-0.5-3.1-1.7-3.7C64.9,114.1,63.3,114.9,64.1,115.4z"/>
			<path class="st16" d="M67.8,115.8c1.1,1.5,1,4.2-0.4,5.5c-0.3,0.3-0.2,0.6,0.2,0.7c0.4,0.1,0.9-0.1,1.3-0.3
				c1.8-1.5,2-4.8,0.6-6.6C69.1,114.5,67.4,115.1,67.8,115.8z"/>
			<path class="st16" d="M71,115.6c1.1,1.9-0.2,4.2-0.8,6c-0.2,0.6,1.6,0.4,1.8-0.2c0.7-2.2,1.9-4.3,0.7-6.5
				C72.3,114.4,70.6,115,71,115.6z"/>
			<path class="st16" d="M75.7,115c0.1,0.9,0.4,1.8,0.7,2.7c0.4,1.2,0.1,2.4-0.4,3.5c-0.4,0.9,1.4,0.9,1.7,0.2
				c0.4-1.1,0.7-2.2,0.6-3.4c-0.1-1.2-0.8-2.2-0.9-3.4C77.4,113.7,75.6,114.1,75.7,115z"/>
			<path class="st16" d="M79.1,115.8c0.6,1.8,1.8,4.5,0.4,6.2c-0.4,0.6,1.3,0.4,1.6,0c1.5-1.9,0.4-4.6-0.3-6.6
				C80.7,114.7,78.9,115.3,79.1,115.8z"/>
			<path class="st16" d="M81.7,115.8c0.6,1.8,1.8,4.5,0.4,6.2c-0.4,0.6,1.3,0.4,1.6,0c1.5-1.9,0.4-4.6-0.3-6.6
				C83.3,114.7,81.6,115.3,81.7,115.8z"/>
		</g>
		<g>
			<path class="st16" d="M64.1,115.4c0.8,0.4,1.1,1.9,1.2,2.7c0.2,1-0.6,2.3-1.5,2.9c-1,0.7,0.5,1.1,1.1,0.7c1-0.7,2.3-2.2,2.2-3.5
				c-0.1-1.2-0.5-3.1-1.7-3.7C64.9,114.1,63.3,114.9,64.1,115.4z"/>
			<path class="st16" d="M67.8,115.8c1.1,1.5,1,4.2-0.4,5.5c-0.3,0.3-0.2,0.6,0.2,0.7c0.4,0.1,0.9-0.1,1.3-0.3
				c1.8-1.5,2-4.8,0.6-6.6C69.1,114.5,67.4,115.1,67.8,115.8z"/>
			<path class="st16" d="M71,115.6c1.1,1.9-0.2,4.2-0.8,6c-0.2,0.6,1.6,0.4,1.8-0.2c0.7-2.2,1.9-4.3,0.7-6.5
				C72.3,114.4,70.6,115,71,115.6z"/>
			<path class="st16" d="M75.7,115c0.1,0.9,0.4,1.8,0.7,2.7c0.4,1.2,0.1,2.4-0.4,3.5c-0.4,0.9,1.4,0.9,1.7,0.2
				c0.4-1.1,0.7-2.2,0.6-3.4c-0.1-1.2-0.8-2.2-0.9-3.4C77.4,113.7,75.6,114.1,75.7,115z"/>
			<path class="st16" d="M79.1,115.8c0.6,1.8,1.8,4.5,0.4,6.2c-0.4,0.6,1.3,0.4,1.6,0c1.5-1.9,0.4-4.6-0.3-6.6
				C80.7,114.7,78.9,115.3,79.1,115.8z"/>
			<path class="st16" d="M81.7,115.8c0.6,1.8,1.8,4.5,0.4,6.2c-0.4,0.6,1.3,0.4,1.6,0c1.5-1.9,0.4-4.6-0.3-6.6
				C83.3,114.7,81.6,115.3,81.7,115.8z"/>
		</g>
		<g>
			<path class="st16" d="M64.1,115.4c0.8,0.4,1.1,1.9,1.2,2.7c0.2,1-0.6,2.3-1.5,2.9c-1,0.7,0.5,1.1,1.1,0.7c1-0.7,2.3-2.2,2.2-3.5
				c-0.1-1.2-0.5-3.1-1.7-3.7C64.9,114.1,63.3,114.9,64.1,115.4z"/>
			<path class="st16" d="M67.8,115.8c1.1,1.5,1,4.2-0.4,5.5c-0.3,0.3-0.2,0.6,0.2,0.7c0.4,0.1,0.9-0.1,1.3-0.3
				c1.8-1.5,2-4.8,0.6-6.6C69.1,114.5,67.4,115.1,67.8,115.8z"/>
			<path class="st16" d="M71,115.6c1.1,1.9-0.2,4.2-0.8,6c-0.2,0.6,1.6,0.4,1.8-0.2c0.7-2.2,1.9-4.3,0.7-6.5
				C72.3,114.4,70.6,115,71,115.6z"/>
			<path class="st16" d="M75.7,115c0.1,0.9,0.4,1.8,0.7,2.7c0.4,1.2,0.1,2.4-0.4,3.5c-0.4,0.9,1.4,0.9,1.7,0.2
				c0.4-1.1,0.7-2.2,0.6-3.4c-0.1-1.2-0.8-2.2-0.9-3.4C77.4,113.7,75.6,114.1,75.7,115z"/>
			<path class="st16" d="M79.1,115.8c0.6,1.8,1.8,4.5,0.4,6.2c-0.4,0.6,1.3,0.4,1.6,0c1.5-1.9,0.4-4.6-0.3-6.6
				C80.7,114.7,78.9,115.3,79.1,115.8z"/>
			<path class="st16" d="M81.7,115.8c0.6,1.8,1.8,4.5,0.4,6.2c-0.4,0.6,1.3,0.4,1.6,0c1.5-1.9,0.4-4.6-0.3-6.6
				C83.3,114.7,81.6,115.3,81.7,115.8z"/>
		</g>
	</g>
</g>
</svg>
