<?xml version="1.0" encoding="utf-8"?>
<!-- Generator: Adobe Illustrator 26.1.0, SVG Export Plug-In . SVG Version: 6.00 Build 0)  -->
<svg version="1.1" id="Capa_1" xmlns="http://www.w3.org/2000/svg" xmlns:xlink="http://www.w3.org/1999/xlink" x="0px" y="0px"
	 viewBox="0 0 157.6 164.5" style="enable-background:new 0 0 157.6 164.5;" xml:space="preserve">
<style type="text/css">
	.Arqueado:_x0020_verde{fill:url(#SVGID_1_);stroke:#FFFFFF;stroke-width:0.25;stroke-miterlimit:1;}
	.st0{fill:#E0BFCC;}
	.st1{fill:#72401C;}
	.st2{clip-path:url(#SVGID_00000104676693072440252170000008687468310372015012_);fill:#177398;}
	.st3{clip-path:url(#SVGID_00000104676693072440252170000008687468310372015012_);fill:#DEDFE1;}
	.st4{clip-path:url(#SVGID_00000104676693072440252170000008687468310372015012_);fill:#FDC238;}
	.st5{clip-path:url(#SVGID_00000104676693072440252170000008687468310372015012_);fill:#186E91;}
	.st6{clip-path:url(#SVGID_00000104676693072440252170000008687468310372015012_);fill:#302D26;}
	.st7{clip-path:url(#SVGID_00000104676693072440252170000008687468310372015012_);fill:#31302C;}
	.st8{fill:#4C91A1;}
	.st9{clip-path:url(#SVGID_00000152961691408740492300000007494960601831939494_);}
	.st10{fill:#15759B;}
	.st11{fill:#544039;}
	.st12{fill:#FFFFFF;}
	.st13{fill:#F0580D;}
	.st14{fill:#97928C;}
	.st15{clip-path:url(#SVGID_00000158021468503469169570000003170815132027069353_);fill:#312E29;}
	.st16{fill:#2E2D28;}
	.st17{fill:#404041;}
</style>
<linearGradient id="SVGID_1_" gradientUnits="userSpaceOnUse" x1="-201.804" y1="165.1275" x2="-201.0969" y2="164.4204">
	<stop  offset="0" style="stop-color:#1EAB4B"/>
	<stop  offset="0.9831" style="stop-color:#19361A"/>
</linearGradient>
<rect class="st0" width="157.6" height="164.5"/>
<polyline class="st1" points="15.5,114 132.1,127.6 132.1,123.6 15.5,110.1 "/>
<g>
	<g>
		<defs>
			<path id="SVGID_00000168085950676292361160000003901581425522802872_" d="M54.7,79.3l5.9-5.7c0,0,6.1-5.7,2.5-19.5
				c-3.6-13.8,18.4-18.3,18.4-18.3s21.4-6.8,27.8,20.1c6.9,29-29.3,53-54.5,45.2c0,0-15.5-4.6-16.6-9.3c-1.1-4.7-1.1-0.2-1.1-0.2
				L54.7,79.3z"/>
		</defs>
		<clipPath id="SVGID_00000103986666677801812320000013399768657338970240_">
			<use xlink:href="#SVGID_00000168085950676292361160000003901581425522802872_"  style="overflow:visible;"/>
		</clipPath>
		<path style="clip-path:url(#SVGID_00000103986666677801812320000013399768657338970240_);fill:#177398;" d="M105.9,46.4L96.8,35
			H79.1c0,0-16.8,8.8-17.7,9.1c-0.9,0.3-4.9,10.6-4.9,10.6L105.9,46.4z"/>
		<path style="clip-path:url(#SVGID_00000103986666677801812320000013399768657338970240_);fill:#DEDFE1;" d="M63.2,52.5
			c0,0,2.5-9.9,19-10.7c16.5-0.8,23.3,3.7,23.3,3.7l4.8,13.9l-11,8.4l-24.6,4.6L64.3,69l-3.7-9.1L63.2,52.5z"/>
		<path style="clip-path:url(#SVGID_00000103986666677801812320000013399768657338970240_);fill:#FDC238;" d="M37.3,96.3
			c0-1.1-1.4-8.3,0-8c1.4,0.3,25.9-2.4,25.9-2.4l3.9-12.5l3.5-2.1l13.2,1.4l14.7-5l9.9-6.3h4.7l-2.5,19.5L96.9,98l-32.5,8.3L42,101
			L37.3,96.3z"/>
		<polygon style="clip-path:url(#SVGID_00000103986666677801812320000013399768657338970240_);fill:#186E91;" points="72.6,70.1 
			67.9,75.4 56.1,72.2 60.2,63.5 		"/>
		<path style="clip-path:url(#SVGID_00000103986666677801812320000013399768657338970240_);fill:#302D26;" d="M64,65.7
			c0,0,7.8,5,16.7,4.3v-5.3l2.8-3.8l2.5,2.5c0,0,4.9,7.3,12.1,2c0,0,6.1-3.3,10.4-9l2.1,1.3l-1.1,5.7c0,0-20.2,21.3-46.8,5.3
			l-2.1-3.1H64z"/>
		<path style="clip-path:url(#SVGID_00000103986666677801812320000013399768657338970240_);fill:#31302C;" d="M89.9,47.9
			c0,0,0-4.4,16-1.5l7.2,4.5h-5.1C107.9,50.9,94,48.1,89.9,47.9z"/>
		<path style="clip-path:url(#SVGID_00000103986666677801812320000013399768657338970240_);fill:#31302C;" d="M62.3,60.3h0.8h1.1
			c0,0,6.3-5.3,7.7-5.6c1.4-0.3,2.5-1.4,2.5-1.4L72,52.2c0,0-9.4,0.9-11,5.3"/>
	</g>
	<g>
		<path class="st8" d="M39.8,94.1l-6.9,3.3c0,0-4.4,3.5-6.2,0.5c-1.8-3,3.1-3.8,3.1-3.8l5.4-2.3c0,0-11.3,3.6-13,0
			c-1.6-3.7,11-3,11-3s-9.1-0.9-10.1-4.3c-1-3.4,9.6,0.5,9.6,0.5s-5.5-4.2-2.8-5.7c2.8-1.5,12,6.3,12,6.3s6.4-4.6,7.4-6.5
			c1.1-2.1,4.1-3.8,6.1-4.8c3.2-1.7,7.6-2.7,10.8-0.5c1.8,1.2,3.1,3.6,3.8,5.6c1.1,3.2-1.2,7.3-2.9,10c-1.7,2.7-4.2,4.8-7.3,5.9
			c-3.1,1.2-7.2,1.2-10.5,0.5c0,0-7.6-1.8-9.8-5.4C39.5,90.4,38.5,90.5,39.8,94.1z"/>
		<g>
			<defs>
				<path id="SVGID_00000108270790752522415370000003519109289398934707_" d="M39.8,94.1l-6.9,3.3c0,0-4.4,3.5-6.2,0.5
					c-1.8-3,3.1-3.8,3.1-3.8l5.4-2.3c0,0-11.3,3.6-13,0c-1.6-3.7,11-3,11-3s-9.1-0.9-10.1-4.3c-1-3.4,9.6,0.5,9.6,0.5
					s-5.5-4.2-2.8-5.7c2.8-1.5,12,6.3,12,6.3s6.4-4.6,7.4-6.5c1.1-2.1,4.1-3.8,6.1-4.8c3.2-1.7,7.6-2.7,10.8-0.5
					c1.8,1.2,3.1,3.6,3.8,5.6c1.1,3.2-1.2,7.3-2.9,10c-1.7,2.7-4.2,4.8-7.3,5.9c-3.1,1.2-7.2,1.2-10.5,0.5c0,0-7.6-1.8-9.8-5.4
					C39.5,90.4,38.5,90.5,39.8,94.1z"/>
			</defs>
			<clipPath id="SVGID_00000041989559871427703750000005322800187885098919_">
				<use xlink:href="#SVGID_00000108270790752522415370000003519109289398934707_"  style="overflow:visible;"/>
			</clipPath>
			<g style="clip-path:url(#SVGID_00000041989559871427703750000005322800187885098919_);">
				<polygon class="st10" points="25.4,89.6 31.5,96.7 39.3,92.4 40.6,93.2 39.5,94.5 26.7,99.9 20.5,90.7 				"/>
				<g>
					<path class="st10" d="M53.2,85.7c-1.6,4.9-8.5,6.5-13.1,5.9c-0.6-0.1-1.2,0.7-0.4,0.8c5,0.6,12.9-1.2,14.6-6.7
						C54.5,85.1,53.3,85.2,53.2,85.7z"/>
					<path class="st10" d="M50.3,84.2c-2.7,0.8-5.1,3.3-8,3.2c-0.5,0-1.3,0.7-0.5,0.7c3.3,0.1,5.6-2.4,8.6-3.3
						C51.1,84.6,51,83.9,50.3,84.2z"/>
				</g>
			</g>
		</g>
	</g>
	<path class="st11" d="M76.9,52.4c0.4,1.9-0.5,3.7-2,4c-1.5,0.3-3.1-0.9-3.5-2.8c-0.4-1.9,0.5-3.7,2-4
		C74.9,49.2,76.5,50.5,76.9,52.4z"/>
	<path class="st11" d="M90.8,49c0.4,2.1-0.7,4-2.5,4.4c-1.8,0.4-3.7-1-4.1-3c-0.4-2.1,0.7-4,2.5-4.4C88.5,45.6,90.3,46.9,90.8,49z"
		/>
	<path class="st12" d="M75.7,52c0,0.6-0.5,1.1-1.1,1.1s-1.1-0.5-1.1-1.1c0-0.6,0.5-1.1,1.1-1.1S75.7,51.4,75.7,52z"/>
	<path class="st13" d="M75.2,59.1c0,1.4-1.7,2.4-3.9,2.4c-2.2,0-3.9-1.1-3.9-2.4c0-1.4,1.7-2.4,3.9-2.4
		C73.5,56.6,75.2,57.7,75.2,59.1z"/>
	<path class="st13" d="M97.4,51.9c0.5,1.2-0.6,2.9-2.6,3.8c-2,0.8-4,0.5-4.5-0.7c-0.5-1.2,0.6-2.9,2.6-3.8
		C94.8,50.4,96.9,50.7,97.4,51.9z"/>
</g>
<path class="st12" d="M89.4,48.2c0,0.6-0.5,1.1-1.1,1.1s-1.1-0.5-1.1-1.1c0-0.6,0.5-1.1,1.1-1.1S89.4,47.6,89.4,48.2z"/>
<g>
	<path class="st14" d="M80.6,58c2.4-1.1,5.6-0.5,6.8,2.1c1,2.2-0.7,3.7-2.6,4.5c-2.6,1.1-5.4,0.4-8,0.5c-0.8,0,1.4-5,1.6-5.3
		C78.9,59,79.7,58.4,80.6,58z"/>
	<g>
		<defs>
			<path id="SVGID_00000103254157436256040890000013949827409851474068_" d="M80.6,58c2.4-1.1,5.6-0.5,6.8,2.1
				c1,2.2-0.7,3.7-2.6,4.5c-2.6,1.1-10.7,0.6-8,0.5c0.4,0-2.5,0.4,1.6-5.3C78.9,59,79.7,58.4,80.6,58z"/>
		</defs>
		<clipPath id="SVGID_00000129916530806747375860000014360919762921176728_">
			<use xlink:href="#SVGID_00000103254157436256040890000013949827409851474068_"  style="overflow:visible;"/>
		</clipPath>
		<path style="clip-path:url(#SVGID_00000129916530806747375860000014360919762921176728_);fill:#312E29;" d="M87.4,60
			c0,0-1.8,3.3-10.9,4.9l-0.3,1.8l6.1-0.4l6.5-2.3L87.4,60z"/>
	</g>
</g>
<polygon class="st16" points="80.8,64.7 80.8,66 86.5,65.8 86.5,64.1 85.5,63.1 "/>
<g>
	<path class="st17" d="M69.9,101.8c2,3.1,3.2,6,2.6,9.8c-0.4,3-2.2,5.7-2.5,8.8c0,0.2,1.2,0,1.2-0.3c0.3-3.4,2.1-6.3,2.6-9.7
		c0.5-3.3-1-6.2-2.8-8.9C70.9,101.1,69.8,101.6,69.9,101.8z"/>
	<path class="st17" d="M71.8,114.7c1.4,1.8,2.5,3.9,2.4,6.3c0,0.4,1.2,0.2,1.2-0.2c0.1-2.5-1-4.7-2.5-6.6
		C72.7,113.9,71.5,114.3,71.8,114.7z"/>
	<path class="st17" d="M71.6,113.6c2.7,1.3,5.4,3.6,6,6.7c0,0.2,1.2-0.1,1.2-0.3c-0.7-3.1-3.3-5.5-6.1-6.8
		C72.4,113,71.5,113.5,71.6,113.6z"/>
	<path class="st17" d="M76.5,101.2c2.7,4.8,4.2,9.4,1,14.4c-0.2,0.3,0.3,0.5,0.5,0.5c2.4,0,1.9,4.2,1.9,5.7c0,0.6,1.2,0.4,1.2-0.1
		c0-2.4,0.4-6.4-3-6.4c0.2,0.2,0.3,0.3,0.5,0.5c3.3-5.2,1.8-10-1.1-15C77.4,100.2,76.2,100.6,76.5,101.2z"/>
	<path class="st17" d="M78.3,115.7c2.7,0.5,5.2,2.5,5.3,5.4c0,0.6,1.2,0.3,1.2-0.1c-0.1-3.2-2.8-5.4-5.8-6
		C78.5,114.9,77.6,115.5,78.3,115.7z"/>
</g>
</svg>
