<?xml version="1.0" encoding="utf-8"?>
<!-- Generator: Adobe Illustrator 26.1.0, SVG Export Plug-In . SVG Version: 6.00 Build 0)  -->
<svg version="1.1" id="Capa_1" xmlns="http://www.w3.org/2000/svg" xmlns:xlink="http://www.w3.org/1999/xlink" x="0px" y="0px"
	 viewBox="0 0 157.6 164.5" style="enable-background:new 0 0 157.6 164.5;" xml:space="preserve">
<style type="text/css">
	.Arqueado:_x0020_verde{fill:url(#SVGID_1_);stroke:#FFFFFF;stroke-width:0.25;stroke-miterlimit:1;}
	.st0{fill:#E0BFCC;}
	.st1{fill:#72401C;}
	.st2{fill:#90D7ED;}
	.st3{fill:#47969D;}
	.st4{clip-path:url(#SVGID_00000165925020959655602380000000914993059430498178_);}
	.st5{fill:#74A8BD;}
	.st6{clip-path:url(#SVGID_00000145771708246377643380000001696939463420576388_);}
	.st7{fill:#F6921E;}
	.st8{fill:#60B4CC;}
	.st9{clip-path:url(#SVGID_00000160882777210337697570000005504678079027521951_);fill:#4991A7;}
	.st10{fill:#584646;}
	.st11{fill:#FFFFFF;}
	.st12{fill:#EC5413;}
	.st13{fill:#4F453B;}
	.st14{fill:#F49E31;}
	.st15{fill:#231F20;}
</style>
<linearGradient id="SVGID_1_" gradientUnits="userSpaceOnUse" x1="-201.804" y1="165.1275" x2="-201.0969" y2="164.4204">
	<stop  offset="0" style="stop-color:#1EAB4B"/>
	<stop  offset="0.9831" style="stop-color:#19361A"/>
</linearGradient>
<rect class="st0" width="157.6" height="164.5"/>
<polyline class="st1" points="15.5,114 132.1,127.6 132.1,123.6 15.5,110.1 "/>
<g>
	<g>
		<g>
			<path class="st2" d="M102.6,77.3c0,0,5.3,0.7,10.5,6.1c5.3,5.4,6.3,6.3,6.3,6.3s5.9,2.9-1.7,7c0,0-7.8,5.1-19.3,1L102.6,77.3z"/>
			<g>
				<path class="st3" d="M106.5,88.9c2.4,4.5,8.1,6.2,12.9,5.9c0.4,0,1.3-0.7,0.5-0.7c-4.5,0.2-9.9-1.3-12.2-5.6
					C107.5,88.2,106.4,88.6,106.5,88.9z"/>
				<path class="st3" d="M110.6,87.9c3.3,1.2,6.4,3,9.7,4.4c0.3,0.1,1.4-0.3,1-0.5c-3.3-1.4-6.3-3.2-9.7-4.4
					C111.2,87.2,110.1,87.7,110.6,87.9z"/>
			</g>
			<g>
				<defs>
					<path id="SVGID_00000019636257078488936720000001725120334589977250_" d="M102.6,77.3c0,0,5.3,0.7,10.5,6.1
						c5.3,5.4,6.3,6.3,6.3,6.3s5.9,2.9-1.7,7c0,0-7.8,5.1-19.3,1L102.6,77.3z"/>
				</defs>
				<clipPath id="SVGID_00000176736177347428854530000014913313089720301709_">
					<use xlink:href="#SVGID_00000019636257078488936720000001725120334589977250_"  style="overflow:visible;"/>
				</clipPath>
				<g style="clip-path:url(#SVGID_00000176736177347428854530000014913313089720301709_);">
					<g>
						<path class="st5" d="M95.2,97.8c3.3,0.9,6.6,1.2,10.1,1.2c3.6,0,6.9,0.6,10.4,0c1.8-0.3,4.3-2.1,0.9-1.5
							c-3,0.5-6.2-0.3-9.3-0.3c-2.8,0-5.5-0.4-8.2-1.2C98.1,95.8,94,97.4,95.2,97.8z"/>
					</g>
				</g>
			</g>
		</g>
		<g>
			<path class="st2" d="M59.5,72.7c0,0-8.5,2.7-13.8,8.1c-5.4,5.4-6.4,6.3-6.4,6.3s-6.1,2.9,1.7,7c0,0,8,5.1,19.8,1L59.5,72.7z"/>
			<g>
				<path class="st3" d="M51.2,86.3c-2.3,4.2-7.6,5.7-12.1,5.4c-0.4,0-1.3,0.6-0.5,0.7c5,0.3,11.1-1.4,13.6-6.1
					C52.6,85.8,51.4,85.9,51.2,86.3z"/>
				<path class="st3" d="M47.5,84.9c-3.4,1.2-6.6,3-9.9,4.4c-0.8,0.3-0.1,0.6,0.4,0.4c3.3-1.4,6.5-3.2,9.9-4.4
					C48.8,85,48,84.7,47.5,84.9z"/>
			</g>
			<g>
				<defs>
					<path id="SVGID_00000021105852408518242290000011626356441927461794_" d="M60.8,72.3c0,0-9.7,3.2-15.1,8.6
						c-5.4,5.4-6.4,6.3-6.4,6.3s-6.1,2.9,1.7,7c0,0,8,5.1,19.8,1V72.3z"/>
				</defs>
				<clipPath id="SVGID_00000067198813820809270620000009905903317636170645_">
					<use xlink:href="#SVGID_00000021105852408518242290000011626356441927461794_"  style="overflow:visible;"/>
				</clipPath>
				<g style="clip-path:url(#SVGID_00000067198813820809270620000009905903317636170645_);">
					<g>
						<path class="st5" d="M64,95.3c-3.4,0.9-6.8,1.2-10.3,1.2c-3.7,0-7,0.6-10.7,0c-1.9-0.3-4.4-2.1-1-1.5c3.1,0.5,6.4-0.3,9.5-0.3
							c2.9,0,5.6-0.4,8.4-1.2C61.1,93.3,65.3,94.9,64,95.3z"/>
					</g>
				</g>
			</g>
		</g>
		<g>
			<path class="st7" d="M83.8,105.2c-2.1,1.7-1.8,5.3-1.6,7.7c0.1,1.3,0.7,2.6,1.1,3.8c0.6,1.6,0.5,3.4,0.8,5.1
				c0.1,0.5-1.1,0.4-1.2-0.1c-0.3-2.1-0.4-4-1.1-6c-0.6-1.7-0.9-3.1-0.9-4.9c-0.1-2.2,0.2-4.7,2-6.2
				C83.2,104.3,84.3,104.8,83.8,105.2z"/>
			<path class="st7" d="M82.9,115.9c-1.6,1.8-3.3,4.6-2.5,7c0.2,0.6-1,0.6-1.1,0.1c-0.9-2.7,0.8-5.7,2.6-7.7
				C82.1,115,83.2,115.5,82.9,115.9z"/>
			<path class="st7" d="M82,115.8c-1.2,0.1-2.2,1.4-2.9,2.3c-1,1.2-1.4,2.5-1.4,4c0,0.7-1.2,0.5-1.2-0.1c0-1.9,0.5-3.3,1.7-4.7
				c0.9-1,2-2.3,3.4-2.4C82.2,114.9,82.8,115.8,82,115.8z"/>
		</g>
		<g>
			<path class="st7" d="M65.4,105.2c2,1.7,1.7,5.3,1.5,7.7c-0.1,1.3-0.7,2.6-1.1,3.8c-0.5,1.6-0.5,3.4-0.8,5.1
				c-0.1,0.5,1.1,0.4,1.1-0.1c0.3-2.1,0.4-4,1.1-6c0.5-1.7,0.8-3.1,0.9-4.9c0.1-2.2-0.1-4.7-1.9-6.2C66,104.3,65,104.8,65.4,105.2z"
				/>
			<path class="st7" d="M66.3,115.9c1.5,1.8,3.2,4.6,2.4,7c-0.2,0.6,0.9,0.6,1.1,0.1c0.8-2.7-0.8-5.7-2.4-7.7
				C67,115,66,115.5,66.3,115.9z"/>
			<path class="st7" d="M67.1,115.8c1.1,0.1,2.1,1.4,2.8,2.3c0.9,1.2,1.3,2.5,1.3,4c0,0.7,1.1,0.5,1.1-0.1c0-1.9-0.5-3.3-1.6-4.7
				c-0.8-1-1.9-2.3-3.2-2.4C66.9,114.9,66.4,115.8,67.1,115.8z"/>
		</g>
		<g>
			<g>
				<path class="st8" d="M85.2,34.9c0,0,14.8-0.5,17.8,16.3c1.5,8.4,1.9,16.9,2,25.4c0.1,7.2-0.2,14.1-5.3,19.6
					c-2.3,2.5-5.5,5-8.5,6.5c-2.9,1.4-6.1,2.2-9.3,2.5c0,0-21.5,0.7-22.1,0c-0.7-0.7-10-0.8-4.2-11.5c0,0,2.5-2.8,1.5-9.5
					C57.1,84.4,58.4,31.4,85.2,34.9z"/>
				<g>
					<defs>
						<path id="SVGID_00000021824140427772658750000005533375499470095288_" d="M85.2,34.9c0,0,14.8-0.5,17.8,16.3
							c1.5,8.4,1.9,16.9,2,25.4c0.1,7.2-0.2,14.1-5.3,19.6c-2.3,2.5-5.5,5-8.5,6.5c-2.9,1.4-6.1,2.2-9.3,2.5c0,0-21.5,0.7-22.1,0
							c-0.7-0.7-10-0.8-4.2-11.5c0,0,2.5-2.8,1.5-9.5C57.1,84.4,58.4,31.4,85.2,34.9z"/>
					</defs>
					<clipPath id="SVGID_00000145015971928723102140000000372091831819253941_">
						<use xlink:href="#SVGID_00000021824140427772658750000005533375499470095288_"  style="overflow:visible;"/>
					</clipPath>
					<path style="clip-path:url(#SVGID_00000145015971928723102140000000372091831819253941_);fill:#4991A7;" d="M53.7,95.8
						c0,0,1.3,0,1.3,0c0.1,0,1.7,2.3,1.9,2.4c2.9,2.4,7.3,2.5,10.9,2.3c10-0.4,18.8-2.1,27-8c1.6-1.1,3.2-2.3,4.7-3.6
						c0.7-0.6,5-3.6,5-4.5l0.6,10.4l-10.4,18.3l-24.1-3.5l-25-4.5L53.7,95.8z"/>
				</g>
			</g>
			<path class="st10" d="M96.2,50c0,2.1-1.5,3.8-3.3,3.8c-1.8,0-3.3-1.7-3.3-3.8c0-2.1,1.5-3.8,3.3-3.8C94.7,46.2,96.2,47.9,96.2,50
				z"/>
			<path class="st10" d="M82,50c0,2.1-1.2,3.8-2.6,3.8c-1.5,0-2.6-1.7-2.6-3.8c0-2.1,1.2-3.8,2.6-3.8C80.8,46.2,82,47.9,82,50z"/>
			<path class="st11" d="M81.3,48.5c0,0.5-0.4,0.9-0.9,0.9c-0.5,0-0.9-0.4-0.9-0.9c0-0.5,0.4-0.9,0.9-0.9
				C80.8,47.5,81.3,47.9,81.3,48.5z"/>
			<path class="st11" d="M95.2,48.5c0,0.5-0.4,0.9-0.9,0.9c-0.5,0-0.9-0.4-0.9-0.9c0-0.5,0.4-0.9,0.9-0.9
				C94.8,47.5,95.2,47.9,95.2,48.5z"/>
			<path class="st12" d="M77.8,55.7c-0.2,1.4-1.9,2.4-3.8,2.1c-1.9-0.3-3.2-1.7-3-3.1c0.2-1.4,1.9-2.4,3.8-2.1
				C76.6,52.8,78,54.3,77.8,55.7z"/>
			<path class="st12" d="M101.4,54.9c0.2,1.4-1.2,2.9-3.2,3.2c-2,0.3-3.9-0.5-4.1-2c-0.2-1.4,1.2-2.9,3.2-3.2
				C99.3,52.6,101.1,53.5,101.4,54.9z"/>
			<g>
				<path class="st13" d="M89.1,59.4c0,0,0.2,2.9-0.5,3.4l-5.2,1.7l-3.1-1.5L80,62.5l0.1-0.6l4-4.1L89.1,59.4z"/>
				<path class="st14" d="M80,62c0,0,3-2.6,6.7-2.6c3.7,0,5.6,1.3,5.6,1.3s-0.1-5.5-4.9-5.6C82.6,55,80,62,80,62z"/>
				<path class="st14" d="M79,61.6c0,0,4.1,2.3,10.1,0.6c0,0-1.3,3.1-5,3.2C80.4,65.6,79,61.6,79,61.6z"/>
			</g>
		</g>
	</g>
	<g>
		<path class="st15" d="M44.5,61.9c0,0-1.9,1.8-3.8,4.6c-1.9,2.8-3.8,6.7-3.8,11c0,0.5,0,1,0.1,1.6c0,0.2,0.2,0.3,0.3,0.3
			c0.2,0,0.3-0.2,0.3-0.3c-0.1-0.5-0.1-1-0.1-1.5c0-4.1,1.8-7.9,3.7-10.7c0.9-1.4,1.9-2.5,2.5-3.3c0.3-0.4,0.6-0.7,0.8-0.9
			c0.1-0.1,0.2-0.2,0.2-0.2l0.1-0.1c0.1-0.1,0.1-0.3,0-0.4C44.9,61.8,44.7,61.8,44.5,61.9z"/>
		<path class="st15" d="M44.6,58c0,0-1.7,0.6-3.6,2.1c-1.9,1.5-4.1,3.9-4.9,7.4c0,0.2,0.1,0.3,0.2,0.4c0.2,0,0.3-0.1,0.4-0.2
			c0.8-3.4,2.9-5.7,4.7-7.1c0.9-0.7,1.8-1.2,2.4-1.5c0.3-0.2,0.6-0.3,0.8-0.4c0.1,0,0.2-0.1,0.2-0.1l0.1,0c0.2-0.1,0.2-0.2,0.2-0.4
			C45,58,44.8,58,44.6,58z"/>
	</g>
</g>
</svg>
