<?xml version="1.0" encoding="utf-8"?>
<!-- Generator: Adobe Illustrator 26.1.0, SVG Export Plug-In . SVG Version: 6.00 Build 0)  -->
<svg version="1.1" id="Layer_1" xmlns="http://www.w3.org/2000/svg" xmlns:xlink="http://www.w3.org/1999/xlink" x="0px" y="0px"
	 viewBox="0 0 377.3 339.9" style="enable-background:new 0 0 377.3 339.9;" xml:space="preserve">
<style type="text/css">
	.st0{fill:#EAA122;}
	.st1{fill:#E98924;}
	.st2{fill:#CB7A29;}
	.st3{fill:#1C75BC;}
</style>
<g>
	<g>
		<g>
			
				<rect x="177.8" y="-71.3" transform="matrix(0.6663 -0.7457 0.7457 0.6663 -63.7814 197.6581)" class="st0" width="22.3" height="482.9"/>
			<path class="st1" d="M348.2,308.9c-1.2,1.3-6.7-1.7-12.4-6.8c-5.7-5.1-9.3-10.2-8.1-11.6c1.2-1.3,6.7,1.7,12.4,6.8
				C345.8,302.4,349.4,307.6,348.2,308.9z"/>
			
				<rect x="193.8" y="-78.5" transform="matrix(0.6663 -0.7457 0.7457 0.6663 -56.2975 200.0414)" class="st2" width="3.1" height="482.9"/>
			<path class="st1" d="M376.2,322.4c2.4,2.1,0.9,7.5-3.2,12.1c-4.1,4.6-9.4,6.6-11.7,4.5c-2.4-2.1-0.9-7.5,3.2-12.1
				C368.6,322.3,373.8,320.3,376.2,322.4z"/>
			<path class="st3" d="M366.3,313l-0.6,0.7c-1.1-1-5.2,1.2-9.4,5.9c-4.2,4.7-5.9,9.1-4.8,10l-0.6,0.7c-2-1.7,1-7.2,4.7-11.4
				C359.3,314.8,364.4,311.2,366.3,313z"/>
			<path class="st3" d="M329,279.7l-0.6,0.7c-1.1-1-5.2,1.2-9.4,5.9c-4.2,4.7-5.9,9.1-4.8,10l-0.6,0.7c-2-1.7,1-7.2,4.7-11.4
				C322,281.4,327.1,277.9,329,279.7z"/>
			<path class="st3" d="M299.5,253.3l-0.6,0.7c-1.1-1-5.2,1.2-9.4,5.9c-4.2,4.7-5.9,9.1-4.8,10l-0.6,0.7c-2-1.7,1-7.2,4.7-11.4
				C292.5,255.1,297.6,251.6,299.5,253.3z"/>
			<path class="st3" d="M295.7,249.9l-0.6,0.7c-1.1-1-5.2,1.2-9.4,5.9c-4.2,4.7-5.9,9.1-4.8,10l-0.6,0.7c-2-1.7,1-7.2,4.7-11.4
				C288.7,251.7,293.8,248.2,295.7,249.9z"/>
			<path class="st3" d="M291.9,246.5l-0.6,0.7c-1.1-1-5.2,1.2-9.4,5.9c-4.2,4.7-5.9,9.1-4.8,10l-0.6,0.7c-2-1.7,1-7.2,4.7-11.4
				C284.9,248.3,290,244.8,291.9,246.5z"/>
			<path class="st3" d="M288.1,243.1l-0.6,0.7c-1.1-1-5.2,1.2-9.4,5.9c-4.2,4.7-5.9,9.1-4.8,10l-0.6,0.7c-2-1.7,1-7.2,4.7-11.4
				C281.1,244.9,286.1,241.3,288.1,243.1z"/>
			<path class="st3" d="M284.3,239.7l-0.6,0.7c-1.1-1-5.2,1.2-9.4,5.9c-4.2,4.7-5.9,9.1-4.8,10l-0.6,0.7c-2-1.7,1-7.2,4.7-11.4
				C277.3,241.5,282.3,237.9,284.3,239.7z"/>
			<path class="st3" d="M280.5,236.3l-0.6,0.7c-1.1-1-5.2,1.2-9.4,5.9c-4.2,4.7-5.9,9.1-4.8,10l-0.6,0.7c-2-1.7,1-7.2,4.7-11.4
				C273.5,238.1,278.5,234.5,280.5,236.3z"/>
			<path class="st3" d="M276.6,232.9l-0.6,0.7c-1.1-1-5.2,1.2-9.4,5.9c-4.2,4.7-5.9,9.1-4.8,10l-0.6,0.7c-2-1.7,1-7.2,4.7-11.4
				C269.7,234.6,274.7,231.1,276.6,232.9z"/>
			<path class="st3" d="M272.8,229.4l-0.6,0.7c-1.1-1-5.2,1.2-9.4,5.9c-4.2,4.7-5.9,9.1-4.8,10l-0.6,0.7c-2-1.7,1-7.2,4.7-11.4
				C265.8,231.2,270.9,227.7,272.8,229.4z"/>
			<path class="st3" d="M269,226l-0.6,0.7c-1.1-1-5.2,1.2-9.4,5.9c-4.2,4.7-5.9,9.1-4.8,10l-0.6,0.7c-2-1.7,1-7.2,4.7-11.4
				C262,227.8,267.1,224.3,269,226z"/>
			<path class="st3" d="M265.2,222.6l-0.6,0.7c-1.1-1-5.2,1.2-9.4,5.9c-4.2,4.7-5.9,9.1-4.8,10l-0.6,0.7c-2-1.7,1-7.2,4.7-11.4
				C258.2,224.4,263.3,220.9,265.2,222.6z"/>
			<path class="st3" d="M214.9,177.7l-0.6,0.7c-1.1-1-5.2,1.2-9.4,5.9c-4.2,4.7-5.9,9.1-4.8,10l-0.6,0.7c-2-1.7,1-7.2,4.7-11.4
				C207.9,179.5,213,175.9,214.9,177.7z"/>
			<path class="st3" d="M184.4,150.4l-0.6,0.7c-1.1-1-5.2,1.2-9.4,5.9c-4.2,4.7-5.9,9.1-4.8,10l-0.6,0.7c-2-1.7,1-7.2,4.7-11.4
				C177.4,152.2,182.4,148.7,184.4,150.4z"/>
			<path class="st3" d="M130.6,102.4l-0.6,0.7c-1.1-1-5.2,1.2-9.4,5.9c-4.2,4.7-5.9,9.1-4.8,10l-0.6,0.7c-2-1.7,1-7.2,4.7-11.4
				C123.6,104.2,128.7,100.6,130.6,102.4z"/>
			<path class="st3" d="M87.6,63.9L87,64.6c-1.1-1-5.2,1.2-9.4,5.9c-4.2,4.7-5.9,9.1-4.8,10l-0.6,0.7c-2-1.7,1-7.2,4.7-11.4
				C80.6,65.7,85.6,62.2,87.6,63.9z"/>
			<path class="st3" d="M52.9,32.9l-0.6,0.7c-1.1-1-5.2,1.2-9.4,5.9c-4.2,4.7-5.9,9.1-4.8,10l-0.6,0.7c-2-1.7,1-7.2,4.7-11.4
				C45.9,34.7,50.9,31.2,52.9,32.9z"/>
			<path class="st2" d="M374.5,326.2c1.5,1.4,0.6,4.9-2.1,8c-2.7,3-6.1,4.3-7.7,3c-1.5-1.4-0.6-4.9,2.1-8
				C369.5,326.2,372.9,324.9,374.5,326.2z"/>
			<path class="st1" d="M16.7,1.4c3.1,2.8,2.4,8.8-1.7,13.3s-9.9,6-13.1,3.2c-3.1-2.8-2.4-8.8,1.7-13.3S13.6-1.4,16.7,1.4z"/>
			<path class="st2" d="M12.9,2.6c1.7,1.5,0.6,5.4-2.3,8.6c-2.9,3.3-6.7,4.8-8.3,3.3c-1.7-1.5-0.6-5.4,2.3-8.6
				C7.5,2.6,11.3,1.1,12.9,2.6z"/>
			<g>
				<path class="st1" d="M62.6,49.7C64,51,64.2,53,63,54.3c-1.2,1.3-3.2,1.4-4.6,0.1c-1.4-1.2-1.5-3.3-0.4-4.6
					C59.2,48.6,61.3,48.5,62.6,49.7z"/>
				<path class="st1" d="M58,49.9c-0.4,0.5-0.7,1.1-0.7,1.8c0.1-0.4,0.3-0.7,0.6-1c1.2-1.3,3.2-1.4,4.6-0.1c0.8,0.8,1.2,1.8,1.1,2.8
					c0.4-1.2,0.1-2.6-1-3.6C61.3,48.5,59.2,48.6,58,49.9z"/>
			</g>
			<g>
				<path class="st1" d="M103.9,86.6c1.4,1.2,1.5,3.3,0.4,4.6c-1.2,1.3-3.2,1.4-4.6,0.1c-1.4-1.2-1.5-3.3-0.4-4.6
					C100.5,85.5,102.5,85.4,103.9,86.6z"/>
				<path class="st1" d="M99.3,86.8c-0.4,0.5-0.7,1.1-0.7,1.8c0.1-0.4,0.3-0.7,0.6-1c1.2-1.3,3.2-1.4,4.6-0.1
					c0.8,0.8,1.2,1.8,1.1,2.8c0.4-1.2,0.1-2.6-1-3.6C102.5,85.4,100.5,85.5,99.3,86.8z"/>
			</g>
			<g>
				<path class="st1" d="M153.2,130.6c1.4,1.2,1.5,3.3,0.4,4.6c-1.2,1.3-3.2,1.4-4.6,0.1c-1.4-1.2-1.5-3.3-0.4-4.6
					C149.7,129.5,151.8,129.4,153.2,130.6z"/>
				<path class="st1" d="M148.6,130.8c-0.4,0.5-0.7,1.1-0.7,1.8c0.1-0.4,0.3-0.7,0.6-1c1.2-1.3,3.2-1.4,4.6-0.1
					c0.8,0.8,1.2,1.8,1.1,2.8c0.4-1.2,0.1-2.6-1-3.6C151.8,129.4,149.7,129.5,148.6,130.8z"/>
			</g>
			<g>
				<path class="st1" d="M137.2,116.3c1.4,1.2,1.5,3.3,0.4,4.6c-1.2,1.3-3.2,1.4-4.6,0.1c-1.4-1.2-1.5-3.3-0.4-4.6
					C133.7,115.2,135.8,115.1,137.2,116.3z"/>
				<path class="st1" d="M132.6,116.5c-0.4,0.5-0.7,1.1-0.7,1.8c0.1-0.4,0.3-0.7,0.6-1c1.2-1.3,3.2-1.4,4.6-0.1
					c0.8,0.8,1.2,1.8,1.1,2.8c0.4-1.2,0.1-2.6-1-3.6C135.8,115.1,133.7,115.2,132.6,116.5z"/>
			</g>
			<g>
				<path class="st1" d="M192.9,166.2c1.4,1.2,1.5,3.3,0.4,4.6c-1.2,1.3-3.2,1.4-4.6,0.1c-1.4-1.2-1.5-3.3-0.4-4.6
					C189.5,165,191.6,165,192.9,166.2z"/>
				<path class="st1" d="M188.4,166.3c-0.4,0.5-0.7,1.1-0.7,1.8c0.1-0.4,0.3-0.7,0.6-1c1.2-1.3,3.2-1.4,4.6-0.1
					c0.8,0.8,1.2,1.8,1.1,2.8c0.4-1.2,0.1-2.6-1-3.6C191.6,165,189.5,165,188.4,166.3z"/>
			</g>
			<path class="st2" d="M340.1,297.3c-5.7-5.1-11.2-8.1-12.4-6.8c-0.2,0.3-0.3,0.7-0.2,1.2c2-0.1,6.8,2.7,11.6,7.1
				c4.6,4.1,7.8,8.2,8.3,10.4c0.3,0,0.6-0.1,0.8-0.3C349.4,307.6,345.8,302.4,340.1,297.3z"/>
		</g>
	</g>
</g>
</svg>
