<?xml version="1.0" encoding="utf-8"?>
<!-- Generator: Adobe Illustrator 26.1.0, SVG Export Plug-In . SVG Version: 6.00 Build 0)  -->
<svg version="1.1" id="Layer_1" xmlns="http://www.w3.org/2000/svg" xmlns:xlink="http://www.w3.org/1999/xlink" x="0px" y="0px"
	 viewBox="0 0 669.2 189.2" style="enable-background:new 0 0 669.2 189.2;" xml:space="preserve">
<style type="text/css">
	.st0{fill:#6B4B4A;}
	.st1{fill:#0C1A3D;}
	.st2{fill:#DFCDB0;}
	.st3{fill:#36272A;}
	.st4{fill:#543D41;}
	.st5{fill:#220B08;}
	.st6{fill:#0B183B;}
	.st7{fill:#A58E81;}
	.st8{fill:#240B08;}
	.st9{fill:#54322E;}
	.st10{fill:#A38076;}
	.st11{fill:#E3CAA7;}
	.st12{fill:#724338;}
	.st13{fill:#C0AD91;}
	.st14{fill:#8D6752;}
	.st15{fill:#44383F;}
	.st16{fill:#5C4142;}
	.st17{fill:#8D7D7A;}
	.st18{fill:#B69A8D;}
	.st19{fill:#594E4C;}
	.st20{fill:#5E4343;}
	.st21{fill:#3D1C17;}
	.st22{fill:#7F716C;}
	.st23{fill:#342622;}
	.st24{fill:#805957;}
	.st25{fill:#9F806F;}
	.st26{fill:#BAA295;}
	.st27{fill:#7A4944;}
	.st28{fill:#2D2320;}
	.st29{fill:#8C8187;}
	.st30{fill:#AB9B97;}
	.st31{fill:#775357;}
	.st32{fill:#775F50;}
	.st33{fill:#A58E8F;}
	.st34{fill:#A48F8C;}
	.st35{fill:#887777;}
	.st36{fill:#D3D9DD;}
	.st37{fill:#D18367;}
	.st38{fill:#B5B5B9;}
	.st39{fill:#261510;}
	.st40{fill:#EAEAE9;}
	.st41{fill:#E1D4C8;}
	.st42{fill:#A98473;}
	.st43{fill:#03080D;}
	.st44{fill:#222D56;}
	.st45{fill:#181626;}
	.st46{fill:#BA845F;}
	.st47{fill:#0D1213;}
	.st48{fill:#161516;}
	.st49{fill:#825A3F;}
	.st50{fill:#05112E;}
	.st51{fill:#63595E;}
	.st52{fill:#5F5D62;}
	.st53{fill:#E8DAC4;}
	.st54{fill:#D5C2A4;}
	.st55{fill:#B7A389;}
	.st56{fill:#C4B39D;}
	.st57{fill:#A38F78;}
	.st58{fill:#5F4949;}
	.st59{fill:#563637;}
	.st60{fill:#413237;}
	.st61{fill:#090C07;}
	.st62{fill:#2F1E23;}
	.st63{fill:#AFBEA6;}
	.st64{fill:#81797E;}
	.st65{fill:#0D1B40;}
	.st66{fill:#856D70;}
	.st67{fill:#515667;}
	.st68{fill:#3B2627;}
	.st69{fill:#633D39;}
	.st70{fill:#2E2428;}
	.st71{fill:#3D2A2D;}
	.st72{fill:#260B08;}
	.st73{fill:#1B1310;}
	.st74{fill:#0C0E08;}
	.st75{fill:#201916;}
	.st76{fill:#35303A;}
	.st77{fill:#534A53;}
	.st78{fill:#AAA2A6;}
	.st79{fill:#C3CFC6;}
	.st80{fill:#2E2A2C;}
	.st81{fill:#F4E4BB;}
	.st82{fill:#724B42;}
	.st83{fill:#BC9E8C;}
	.st84{fill:#CCA893;}
	.st85{fill:#774D46;}
	.st86{fill:#6A4845;}
	.st87{fill:#784E47;}
	.st88{fill:#764C44;}
	.st89{fill:#764C47;}
	.st90{fill:#764F47;}
	.st91{fill:#764D45;}
	.st92{fill:#402011;}
	.st93{fill:#3E1E10;}
	.st94{fill:#B2886F;}
	.st95{fill:#C7AE85;}
	.st96{fill:#6C1E17;}
	.st97{fill:#896A5F;}
	.st98{fill:#B49980;}
	.st99{fill:#5B4034;}
	.st100{fill:#452D21;}
	.st101{fill:#291B14;}
	.st102{fill:#7D534C;}
	.st103{fill:#E1DDCD;}
	.st104{fill:#3D2926;}
	.st105{fill:#896453;}
	.st106{fill:#472B27;}
	.st107{fill:#090E06;}
	.st108{fill:#0A0C03;}
	.st109{fill:#110C07;}
	.st110{fill:#3F2416;}
	.st111{fill:#37170C;}
	.st112{fill:#6D615D;}
	.st113{fill:#472A2A;}
	.st114{fill:#4C321F;}
	.st115{fill:#422B29;}
	.st116{fill:#15100D;}
	.st117{fill:#B59B8E;}
	.st118{fill:#B29372;}
	.st119{fill:#CFAC98;}
	.st120{fill:#70473F;}
	.st121{fill:#835144;}
	.st122{fill:#754C42;}
	.st123{fill:#E8D0AD;}
	.st124{fill:#E3CDAA;}
	.st125{fill:#C3A686;}
	.st126{fill:#83251E;}
	.st127{fill:#212749;}
	.st128{fill:#711813;}
	.st129{fill:#7E4138;}
	.st130{fill:#292025;}
	.st131{fill:#3F2C32;}
	.st132{fill:#AF988F;}
	.st133{fill:#9B6E49;}
	.st134{fill:#7C553D;}
	.st135{fill:#5A3F32;}
	.st136{fill:#81593D;}
	.st137{fill:#613F3B;}
	.st138{fill:#AC826C;}
	.st139{fill:#A57551;}
	.st140{fill:#6A4537;}
	.st141{fill:#90644F;}
	.st142{fill:#D6CBB7;}
	.st143{fill:#CDAB74;}
	.st144{fill:#977356;}
	.st145{fill:#91765D;}
	.st146{fill:#16130C;}
	.st147{fill:#632D1B;}
	.st148{fill:#F6F1DC;}
	.st149{fill:#91756A;}
	.st150{fill:#BDA891;}
	.st151{fill:#866C5B;}
	.st152{fill:#423740;}
	.st153{fill:#817375;}
	.st154{fill:#B1A29C;}
	.st155{fill:#695B5C;}
	.st156{fill:#51404A;}
	.st157{fill:#816E64;}
	.st158{fill:#DCD7A8;}
	.st159{fill:#0E0D06;}
	.st160{fill:#DDC7A9;}
	.st161{fill:#462E2D;}
	.st162{fill:#3F2925;}
	.st163{fill:#4A2F2D;}
	.st164{fill:#4D342E;}
	.st165{fill:#131007;}
	.st166{fill:#251208;}
	.st167{fill:#1C0E04;}
	.st168{fill:#583C38;}
	.st169{fill:#734C44;}
	.st170{fill:#66433B;}
	.st171{fill:#7B564E;}
	.st172{fill:#452B23;}
	.st173{fill:#412016;}
	.st174{fill:#47200F;}
	.st175{fill:#14140E;}
	.st176{fill:#4A3519;}
	.st177{fill:#A27D64;}
	.st178{fill:#FBFAEE;}
	.st179{fill:#CAB49D;}
	.st180{fill:#A08066;}
	.st181{fill:#482A21;}
	.st182{fill:#0E100B;}
	.st183{fill:#251C1A;}
	.st184{fill:#261A17;}
	.st185{fill:#090903;}
	.st186{fill:#856E63;}
	.st187{fill:#AB9079;}
	.st188{fill:#39201A;}
	.st189{fill:#4C2724;}
	.st190{fill:#3E2627;}
	.st191{fill:#301F1E;}
	.st192{fill:#5B332F;}
	.st193{fill:#6F4B43;}
	.st194{fill:#725249;}
	.st195{fill:#644033;}
	.st196{fill:#9D6346;}
	.st197{fill:#1B1A16;}
	.st198{fill:#8B7D7C;}
	.st199{fill:#4E4049;}
	.st200{fill:#523538;}
	.st201{fill:#5B4145;}
	.st202{fill:#544044;}
	.st203{fill:#0A0905;}
	.st204{fill:#320A06;}
	.st205{fill:#7C3C1B;}
	.st206{fill:#8D7168;}
	.st207{fill:#452B25;}
	.st208{fill:#452A23;}
	.st209{fill:#61413D;}
	.st210{fill:#806059;}
	.st211{fill:#5A311E;}
	.st212{fill:#281C11;}
	.st213{fill:#402A22;}
	.st214{fill:#8A7D76;}
	.st215{fill:#1D1D18;}
	.st216{fill:#604437;}
	.st217{fill:#C6BFAE;}
	.st218{fill:#DED2BB;}
	.st219{fill:#6C6267;}
	.st220{fill:#362928;}
	.st221{fill:#342528;}
	.st222{fill:#47393F;}
	.st223{fill:#2B0A05;}
	.st224{fill:#3E2622;}
	.st225{fill:#3A2724;}
	.st226{fill:#2D1D1A;}
	.st227{fill:#523936;}
	.st228{fill:#5B3D3A;}
	.st229{fill:#37211B;}
	.st230{fill:#63423B;}
	.st231{fill:#0F0D07;}
	.st232{fill:#5A3934;}
	.st233{fill:#6B4B44;}
	.st234{fill:#100C04;}
	.st235{fill:#1A0F08;}
	.st236{fill:#59403F;}
	.st237{fill:#1B100A;}
	.st238{fill:#170E07;}
	.st239{fill:#875A46;}
	.st240{fill:#493B33;}
	.st241{fill:#080D05;}
	.st242{fill:#4F2A28;}
	.st243{fill:#A0756E;}
</style>
<g>
	<path class="st0" d="M132.3,91.7c15.8-3.3,31.7-6.5,47.7-9.1c23-3.8,45.9-8.1,68.9-11.4c10.1-1.5,20.1-3.8,30.2-5.1
		c4.2-0.5,8.3-1.9,13.2-1.7c-1.6,2.7-3.9,3-5.9,3.4c-15.3,2.5-30.2,6.6-45.4,9.5c-11.6,2.2-23.2,4.7-34.7,7.3
		c-11.2,2.5-22.6,3.9-33.6,7.1c-14.2,2.7-28.3,5.8-42.4,8.9c-1.3,0.3-2.7,0.5-4,0.8c-2.8-0.3-6.2-3.3-6.2-5.7c0-2.1,1.9-2.2,3.1-2.3
		C126.4,93.1,129.3,92.1,132.3,91.7z"/>
	<path class="st1" d="M657.8,30.1c0.3,0.3,0.5,0.6,0.8,0.9c0.7,2.1-0.6,2.7-2.2,2.8c-2,0.1-3.9,0.6-5.8,1.3c-3,1-3.2,1.8-1,3.9
		c0.6,0.6,1.4,1,1.8,1.9c0.2,0.9,0.1,1.7-0.1,2.6c-0.7,2.5-1.7,2.8-3.5,1c-1-1-1.7-2.1-2.9-2.9c-2-1.9-4.9-3-5.4-6.2
		c0.2-0.8,0.8-1.2,1.5-1.4c0.6,0,1.1,0,1.7,0.1c-0.5-0.2-1.1-0.2-1.5-0.6c-0.7-0.9-1.3-1.8,0.2-3.3c-2,0.6-3,4.3-4.9,1.8
		c-2-2.5,1.4-3.1,2.3-4.3c-2.3,0.5-2.7,3.6-5,4.6c-3.7,0.1-5.8-3.1-8.7-4.5c-1-0.5-1.7-1.5-3.5-2.2c1.3,2,2.9,2.9,4.3,3.3
		c3.5,1.1,5.2,4.2,7.5,6.6c0.7,0.7,1.2,1.7,0.2,2.6c-0.8,0.7-1.7,0.3-2.4-0.2c-2.4-1.8-5.2-2.9-7.7-4.6c-3.4-2.4-6.9-4-11.4-3.9
		c-3.2,0-6.6-1.1-9.5-3c-4.2-2.6-8.7-5-13.8-5.3c-0.4,0-0.8,0-1.2,0c-1.2-0.1-2.4-0.5-3.6-0.8c-4.7-1.5-5.5-5-1.9-8.6
		c1.6-0.6,3.2-0.8,4.6,0.4c1,2.6,3.7,2.9,5.6,2.7c8.4-0.8,15.8,2.2,23.5,4.7c2.3,0.8,4.9,0.9,6-2.3c0.1-0.2,0.3-0.4,0.4-0.6
		c1.4-2.3,4.6,0.1,6.2-2.9c1.4-2.7,4.6-1.3,7.1-0.5c3.8,1.9,8.2,0,11.9,2.1l0,0c0.9,2.1-1,2-2,2.5c-1.1,0.5-3.3,0.1-3,1.9
		c0.4,1.9,2.4,1.8,4,1.5c2.5-0.4,4.9-0.3,7,1.5l0.1,0.1c0.7,2.1-1,2.2-2.2,2.4c-1.3,0.3-2.7,0.2-4,0.5c-0.8,0.2-1.9,0.4-1.9,1.5
		c0,1.2,1,1.6,2,1.8c1.8,0.3,3.7,0.1,5.5,0.2C654.5,29.1,656.3,28.8,657.8,30.1z"/>
	<path class="st2" d="M132.3,91.7c-3.9,1-7.7,2.1-12.2,3.3c2.8,1.6,2,5.9,6.1,5.6c0.5,2.3,1.5,4.5,1,7c-2.8,1.7-6.3,1.4-8.7,2.7
		c0,0-0.7,0.1-0.6,0c4.8-1.1,5.4,1.4,4.1,5c-1.1,2.9-3.8,3.8-6.7,3.9c-1.4,0-2.7,0-4,0.5c-1.6,0.6-2.6,1.4-1.7,3.4
		c1,2.2,0.2,4.9,1.9,7.1c1,1.3-0.3,3.1-1,4.5c-0.7,1.5-1,3.1-2.1,4.3c-1.1,0.2-1.7-0.4-2.1-1.3c-0.1-0.2-0.2-0.5-0.2-0.7
		c1-3.7-0.3-6.7-2.8-9.4c-0.1-1.8,0.9-3.9-1.9-4.6c-0.4-0.1,0.1,0.1-0.2-0.3c0,0-7.2-7.3-7.2-7.3c-0.1-0.4,0-0.7,0.3-1
		c3.5-1.1,5.8-3,5.3-7.2c-0.2-2.1,1.9-2.7,3.6-3c4-0.8,8.2-1,11.8-3.3c0.7-0.4,2-0.2,1.9-1.4c-0.1-1.1-1-1.6-1.9-2.1
		c-1-0.5-2.3-0.3-2.9-1.4c0.8-1.8,2.6-2.5,4.1-2.7C121.3,92.6,126.8,92.2,132.3,91.7z"/>
	<path class="st3" d="M4.8,150.1c-0.1-0.7-0.1-1.4-0.2-2.1c-0.8-2.7,1.2-2.5,2.8-2.4c1.8,0.1,3.1,1.3,4.6,2.1
		c1.1,0.7,1.9,1.6,2.3,2.8c0.4,0.9,1,1.3,2,1.2c4.1-0.4,6.3,2.2,8.2,5.3c2,3.3,4.8,5.8,8.1,7.7c1.9,0,3.5-0.9,5.1-1.9
		c4.8-2.8,8-2.2,11.9,2.2c1,4.6,3.1,9,2.7,13.9c-1.4,1.2-2.2-0.2-3.2-0.7c-2.9-1.7-5.8-3.4-9.4-2.8c-2,0.3-3.1-1.2-4.3-2.5
		c-2.8-3.2-4.2-4.6-8.8-2.2c-6.3,3.1-10,1.1-11.7-5.7c-0.5-2.2-1.5-3-3.7-2c-0.7,0.3-1.4,0.4-2.1-0.1C9.1,158.2,7.1,154.1,4.8,150.1
		z"/>
	<path class="st4" d="M409.6,43.7c2-0.3,4-0.6,5.9-0.9c17.5-1.8,34.8-5.5,52.3-7.2c6.2-0.6,12.3-1.7,18.4-2.6c1-0.1,2-0.2,2.9,0.2
		c0.9,0.5,0.9,1.2,0.2,1.8c-1.8,1.7-3.8,2.8-6.4,2.4c-4.6-0.7-8.9-0.4-12.4,3.4c-1.3,1.4-3.4,2.4-5.5,2c-6.7-1.1-13.1,0.4-19.5,2.2
		c-1.2,0.4-2.5,0.2-3.7,0.5c-1.5,0.4,0.4,1,0,1.6c-1.8,2-4.5,1.6-6.7,1.8c-12.2,1.1-24.2,2.8-36.3,4.5c-3.3,0.5-5.8-1.2-6.7-4.1
		c-0.5-1.6,0.1-2.3,1.5-2.8l0,0C399.1,45.5,404.4,44.8,409.6,43.7z"/>
	<path class="st5" d="M578.3,89.3c5.7,0.3,11.3,1.2,16.5,3.9c0.7,0.4,1.9,0.2,1.9,1.4c0,1.1-0.9,1.7-1.8,2.2c-2.1,1-4.3,1-6.6,1
		c-1.5,0-3.1-0.2-3.3,2c-1.3,0.2-2.5,0.4-3.8,0.6c-0.5-3.9-3.8-3.7-6.2-3.8c-3.7-0.1-7.3-1.1-11-1c-3.7,0.1-6.2-2.1-8-5.1
		c-1.5-1.5-3-0.2-4.5-0.1c-1.4,0-2.8,0.8-4.3,0.4c-0.3-0.1-0.7-0.3-0.9-0.5c-0.3-2,1.5-2,2.6-2.4c1.5-0.5,3.1-0.6,4.6-1.2
		c0.9-0.4,2-0.6,2.1-1.8c0.1-1.1-0.7-1.8-1.5-2.4c-4-2.8-4-2.8-2.1-6.9c0.8-1.7,2.5-2.2,3.9-3.1c1-0.2,1.8,0.1,2.5,0.7
		c1.4,1.8,1.5,4.1,2.3,6.2c0.2,0.3,0.4,0.5,0.5,0.8c0.5,0.7,1.2,1.3,1.7,1.9c2.3,1.9,4.8,1.8,7.6,1.5c4.1-0.5,8.1-1.9,12.3-0.6
		c0.8,1.5-0.5,1.2-1.2,1.4c-3.2,1.1-6.8,0.8-10,2.6C573.3,89.9,576.1,88.4,578.3,89.3z"/>
	<path class="st6" d="M645.1,40.6c2.6,0.2,2.5,3.1,4.6,4.2c1.2-1.1,0.4-3.1,1.4-4.3c2.7-2.9,9.1-3.2,11.8-0.7
		c0.1,0.5,0.2,0.9,0.3,1.4c0.3,0.9-0.2,1.5-0.9,1.9c-2.2,0.1-4.4,0.3-6.6,0.7c-3.4,0.3-2,2.8-2,4.5c0,1.8,1.1,2.6,2.9,2.6
		c2,0,3.9-0.5,5.9-0.7c1.5-0.2,3-0.3,4.3,0.6c0.2,0.3,0.4,0.6,0.4,1c0,0.4-0.1,0.8-0.4,1c-1.7,1-3.6,0.9-5.4,1.4
		c-2.3,0.5-4,1.4-5.4,3.5c-1.8,2.8-3.1,2.8-6,0.5c-0.8-1.4-1.7-2.9-3.5-3.1c-2.5-0.3-4.6-0.8-5.4-3.7c-0.2-0.9-1.4-0.9-2.3-0.9
		c-6.3,0.4-11.3-2.2-15.7-6.5c-0.6-0.6-1.5-0.9-2.2-1.3c-0.3-0.2-0.6-0.4-0.8-0.6c-0.6-1.3-1.5-2.2-3.1-1.8c-0.5,0-1-0.2-1.4-0.7
		c-0.3-1.6,0.4-2.9,1-4.3c0.7-1.5,2-2.5,3.6-1.9c2.4,1,5.2,1.2,7.1,3.1C632.4,41.8,638.2,43.4,645.1,40.6z"/>
	<path class="st7" d="M393.9,46.7c-1.6,1.3-0.6,2.6,0.1,3.8c1,1.8,2.5,2.2,4.4,2c5.4-0.7,10.8-1.5,16.3-2.1
		c8.6-1.1,17.3-2.1,25.9-3.1c0.5-0.1,0.9-0.3,1.4-0.5c2-1.7,4.7-1.7,7-2c21.6-2.1,43-5.8,64.6-7.7c2.5-0.2,5-0.3,7.4-1
		c3.5-1.3,7.3-0.8,10.9-1.6c11.8-1.3,23.7-2.8,35.5-4.3c2.7-0.5,5.4-0.3,8-1.2c1.4-0.4,1.2-2.1,2.2-2.7c1.8,0.3,2.7,1.4,2.6,3.2
		c-0.6,2.5-3.2,2.2-4.7,3.3c-2.5,1.2-5.2,1.6-8,1.5c-13.7,1.2-27.2,3.4-40.9,5c-2.8,0.4-5.7,0.4-8.5,1c-8.9,0.8-17.7,2.6-26.6,3.5
		c-15.3,1.5-30.6,4-45.9,5.6c-8.1,0.5-16,2.1-24,3.1c-6.9,0.8-13.8,1.7-20.8,2.2c-1.4,0.1-2.7,0.5-4,1c-1.2,0.5-2.4,0.9-3.7,0.7
		c-1.8-0.7-4,0.2-5.5-1.6c0-0.1-0.1-0.3,0-0.4c3.9-3.6,3.6-4.6-1.5-6.4c0.2-1,0.5-1.9,0.7-2.9c0.2-0.8-0.1-1.9,1.1-2.1
		c1.4-0.2,0.8,1,1.1,1.7C390,46.7,392.2,46,393.9,46.7z"/>
	<path class="st8" d="M546.1,90c0.2,0.1,0.5,0.1,0.7,0.1c-0.8,2.7-3.4,1.9-5.2,2.4c-2.6,0.8-5.8-0.2-7.7,2.5
		c1.3,2.6,3.6,1.7,5.6,1.5c1.4-0.1,2.5-1,3.8-1.5c1.3-0.5,2.7-0.6,4-0.9c2.9-0.6,4.2,0.5,4.3,3.4c2.8,3.3,2.8,5-0.3,6.7h0
		c-2.4,1.4-5.1-0.3-7.6,0.7l-0.3,0l-0.3,0.1c-5.5,0.2-11,0.4-16.3-2c-3.4-1.5-5.2-4.6-8.1-6.4c-1.5-1.6,1.1-4.1-1.1-5.6
		c-1.3-3.1-4.8-4.9-4.9-8.7c0.2-1,0.8-1.6,1.8-1.9c0.4,0,0.7,0,1.1,0.1c2.1,1,3.5,2.7,4.7,4.6c1.4,2.4,3,3.9,6,2.7
		c0.7-0.3,1.5,0,2.1,0.5c0.7,2.6,2,3.8,4.9,2.7c3.2-1.2,6.6-1.2,9.9-1.8C544.1,89.2,545.2,89.1,546.1,90z"/>
	<path class="st9" d="M12.2,148.6c-1.4-0.2-2.4-1-3.6-1.6c-1.5-0.9-3.2-1.5-4,1c-1-2.7-1.4-5.5-1.6-8.3c2.4,0.6,3-0.9,2.9-2.8
		c-0.1-2.8-0.1-5.5,1.9-7.7c0.3-0.4,0.7-1.1,0.4-1.4c-2.2-2.5-1-6.8-4.6-8.6c1.6-0.9,3.4-1.4,5.2-1.5c4-0.9,8.2,0,12.2-2.3
		c2.8-1.6,6.2,0.9,8.8,2.6c1.8,1.1,1,3.4,0.6,5.2c-0.4,1.9-1.4,3.1-3.6,3c-1.7-0.2-3-1-4.1-2.3c-0.5-0.5-0.8-1.4-1.7-1.2
		c-0.6,0.1-0.5,0.6-0.4,1.2c0.9,4.8-1.8,8.3-5.1,10.9c-4.7,3.8-4.9,3.5-3,9.3C13.2,145.7,13.6,147.3,12.2,148.6z"/>
	<path class="st10" d="M172.5,90.8c7.6-2.6,15.5-3.5,23.2-5.1c10.6-2.3,21.1-4.8,31.7-6.8c19.7-3.7,39-8.8,58.8-12.1
		c1.7-0.3,3.3-1,4.9-1.7c-4.1-0.4-7.9,1.6-12,1.1c6.8-2.2,14-2.5,21-3.7c1.9-0.4,3.9-0.5,5.9-0.8c1.3-0.4,2.5-0.6,3.9,0
		c-0.3,1.8-2,1.4-2.7,2.2c-1.8,1.9-4.2,2-6.4,2.3c-3,0.4-4.3,1.7-3.7,4.7c-0.5,1.1-0.3,2.7-2,3.1c-1.6-1.3-1.4-3.6-2.8-5.1
		c-1.3-1-2.7-0.3-3.9,0.1c-4.2,1.3-8.4,2.1-12.8,2.7c0.3,1.8,2.3,3.1,1.6,5.1c-0.6,0.8-1.4,1.2-2.5,1c-1.7-1.1-1.6-3.2-2.7-4.6
		c-5.2-0.6-10,0.7-14.8,2.7c-0.5,0.3-1,0.5-1.5,0.6c-3.9-0.1-7.6,1-11.5,1.4c-1.8,0.2-2.5,1.5-3.2,2.8c-5.3-1.8-10.1,0.9-15.2,1.2
		c0,1.8,1.2,3.1,0.6,4.6c-0.4,0.9-0.8,1.7-1.9,1.7c-0.4-0.2-0.7-0.7-1-1.1c-1-1.4-0.4-4.2-3-4.1c-3.3,0.2-6.6,1.1-9.6,2.6
		c-0.8,0.4-0.5,1.3-0.3,2c0.3,1,1,2,0.5,3.2c-1,0.8-2,0.6-3,0.1c-2.7-4.7-2.7-4.7-8.3-3.6c-2.2,0.4-4.4,0.8-6.5,1.6
		c-6.2,1.9-12.6,2.7-19,3.5C173.6,92,172.9,91.6,172.5,90.8z"/>
	<path class="st11" d="M579.8,29.5c0.1-1.6-1.5-2-2.1-3.1c-0.5-0.2-1-0.5-1.1-0.9c-0.8-4.3-3.9-6.7-7.2-8.9c3.5-0.8,2.9-2.8,1.5-5
		c0.5-1.6,1.4-3.4-1.4-3.8c1.3-1.7,3-2.9,3.3-5.5c0.4-2.7,3.5-2.3,5.7-2c2.3,0.4,1.4,2.3,1,3.6c-0.9,3,0.1,4.2,3.2,3.9
		c1.1-0.1,2.2,0,3.3,0c-0.6,2.7-3.4,1.5-4.8,2.8c0.3,0.6,0.9,1,0.9,1.7c-2.6,4.3-1.8,6.4,2.9,7.2c1.1,0.2,2.2,0.1,3,1.1
		c1.1,0.9,0.8,1.9-0.2,2.4c-1.8,1-0.3,1.8,0,2.7c0.2,0.5,0.2,1.1,0.1,1.6c-0.6,1.5-0.2,3.1-0.5,4.6c-0.3,1.4-1.1,2.4-2.5,2.8
		c-4.4,0.2-4.8-0.1-5.2-4C579.6,30.2,579.6,29.8,579.8,29.5z"/>
	<path class="st12" d="M26.3,125.5c4,0.5,3.3-2.9,3.8-5c0.5-2.2-1.3-2.5-3-2.7c-0.9-0.1-1.9-0.5-2.7-1.1c-1.7-1.2-3-1.5-4.4,0.5
		c-1.2,1.9-3.3,1.7-5.1,1.3c-2-0.5-3.9-0.5-5.9-0.7c5.3-1.5,10.6-3,15.9-4.5c2.6-0.5,5-1.6,7.6-2.1c1-0.3,2-0.6,2.9-0.9
		c2.4-0.9,3.5,0.4,4.1,2.5c1.3,4.4,2,8.9,2.8,13.4c-0.2,1.8-1.2,3-2.8,3.6c-1.9,0.7-3.4,1.8-4.5,3.5c-1.3,1.9-2.2,1-2.6-0.7
		c-0.3-1.3-0.1-2.8-1.8-3.4C29,128.2,26.8,127.8,26.3,125.5z"/>
	<path class="st13" d="M111.8,96c1.2,0.1,2.7-0.2,3.7,0.3c1.4,0.8,3,2.2,3,4c0,2.4-2.2,0.6-3.2,1.3c-3.9,2.9-8.6,2.8-13,3.7
		c-1.2,0.2-2.3,0.6-2.2,2.4c0.3,6,0.2,6-6.1,7.2c-2.3-5.3-4.7-10.5-3.9-16.6c4.2,2.1,8.2,0.1,12.2-0.5
		C105.6,97.4,108.7,96.6,111.8,96z"/>
	<path class="st14" d="M90.2,98.4c0.9,5.6,3.4,10.9,3.9,16.6l0,0.1c-0.9,0.9-1.9,1.4-3.2,0.8c-1.7-1.4-2.1-3.3-2.5-5.3
		c-0.7-3.7-2.4-5-6.1-5.1c-3.2-0.1-6.1,1.2-8.1,3.2c-2.5,2.5-5.7,3.8-8.5,5.7c-2.3,0.9-4.4,2.1-7,2.1c-0.4-0.4-0.6-1-0.6-1.6
		c0.2-1.2,1.2-1.8,2.2-2.4c4.1-0.7,2.6-3.3,1.8-5.6c1.9-1.9,4.4-1.5,6.7-1.8c0.5,0-0.2-0.8-0.1-0.4c-2.8,0.7-5.6,1.2-8.4,1.4
		c-1-0.5-1.3-1.3-0.9-2.4c4.6-1.1,9.5-1.9,14-1.4c3.4,0.4,6.4,0.2,9.6-0.4c3.1-0.5,4.6-1.7,3.5-5.1c-0.8-2.5-1.2-5.1-1.6-7.7
		c-0.1-1-0.6-2.5,1.1-2.7c1.3-0.2,1.6,1.1,1.8,2C88.6,91.8,89.4,95.1,90.2,98.4z"/>
	<path class="st15" d="M527.5,22.4c2.1,1.2,3.9-0.1,5.9-0.5c3.4-1.3,7.1,0.4,10.5-0.8c5.6-0.9,11.2-1.9,16.8-2.8
		c2.2-0.4,4.4-0.6,6.6-1c2.9-1.6,4.6,0.8,6.5,2.1c1.1,0.7,0.5,1.8-0.3,2.5c-1,1-2.4,1.3-3.7,1.5c-13.3,2.2-26.8,3.1-40.2,4.8
		c-1,0.1-2,0.3-2.8-0.5C526.8,26.1,526.6,24.1,527.5,22.4z"/>
	<path class="st16" d="M340.5,56.3c6.3-1.2,12.6-2.5,18.9-3.7c1-0.5,2.1-0.4,3.1-0.1c1.3,3-0.3,5.4-1.5,7.9
		c-5.9,1.8-11.7,3.4-17.9,3.8c-4.8-0.7-6.4-3.5-4.2-7C339.5,57,340.2,56.8,340.5,56.3z"/>
	<path class="st17" d="M489.8,34c-8.5,0.4-16.7,2.1-25.1,3.1c-11.1,1.4-22.2,2.9-33.2,4.2c-5.3,0.6-10.5,2-15.9,1.5
		c5.1-1.8,10.5-1.5,15.8-2.6c9.1-1.9,18.3-3.6,27.5-5.3c1.3-0.2,2.7-0.2,4.1-0.3c6.5,0.2,12.8-1.2,19.1-2.2c10.6-1.7,21.2-3,31.8-4
		c1.2-0.1,2.5-0.1,3.6,0.7c0.4,0.3,0.5,0.7,0.3,1.2c-0.6,0.7-1.3,1.1-2.2,1.3c-7.9,1.6-15.9,2.5-24,3.1
		C490.9,34.7,490.3,34.5,489.8,34z"/>
	<path class="st18" d="M343,63.2c6.1-0.2,11.8-3,17.9-3.2c0.4-0.2,0.7-0.1,1,0.3c0.2,0.6,0.1,1.2-0.3,1.6c-0.3,0.3-0.6,0.5-1,0.6
		c-6,1.1-12,2.4-18,3.9c-1.4,0-2.6,0.6-4,0.7c-1.3,0.1-2.6,0.5-3.9,0.8c-5,1.2-10.1,1.8-15,3.3c-1.9,1-3.9,0.3-5.8,0.5
		c-0.4,0-0.7-0.1-1-0.2c-0.6-0.4-1.1-0.9-0.9-1.7c0.3-0.6,0.9-1,1.3-1.5c0.9-1.8,0-3.2-1.1-4.5c-1.7-0.8-3.7,0.9-5.2-0.7
		c-0.2-1.9,1.9,0,2.1-1.5c-1-0.1-2.1-0.2-3.1-0.2c6.3-2.4,13.1-2.3,19.7-3.7c3-0.6,6.3,0,9.2-2c0.9-0.6,3.6,0.4,5.6,0.4
		c-0.2,0.3-0.4,0.6-0.6,0.8c-1.5,0.5-2.7,1.5-4.3,1.7c-0.4,0.1-0.7,0.1-1.1,0.1c-5.4,0.3-10.4,2.4-15.6,3.3
		c-1.2,0.2-2.7,0.4-2.1,2.3c0.5,1.5,1.3,2.7,3.2,2.5c3.1-0.4,6.2-0.9,9.2-1.5c2.3-0.5,4.6-0.9,6.9-1.4c0.3-0.2,0.6-0.3,0.9-0.5
		c0.9-0.4,1.5-2.2,3-0.5C340.5,64,341.9,63.6,343,63.2z"/>
	<path class="st19" d="M517.5,29.4c-11.7,0.8-23.3,2.5-34.9,4c-5.6,0.8-11.3,1.3-16.9,1.9c-1,0.1-2,0.3-2.8-0.6
		c16.1-2.7,32.1-5.4,48.2-8.2c2.6-0.4,5.4,0,6.9-3.3c0.8-1.9,3.2,0.4,4.8-0.6c0.8,1.3-0.3,1.9-1,2.6c-0.3,0.2-0.6,0.4-0.9,0.5
		C518.9,26.1,519,28.4,517.5,29.4z"/>
	<path class="st20" d="M386.2,47.9c3.5-1.7,4.8,0.6,5.5,3.3c0.9,3.3-2,2.6-3.7,3.2c-2.9,2.7-6.9,1.4-10.2,2.7
		c-1.5,0.6-3.4,0.6-5.1,1.1c-3,0.9-4.7-0.6-5.7-3.3s-0.4-3.7,2.4-4c3.7-0.4,7.2-1.1,10.8-1.9C382.3,48.6,384.3,48.3,386.2,47.9z"/>
	<path class="st21" d="M3.8,119.2c2.2,0.4,5.6-0.3,3.3,3.9c-0.2,0.3,0.1,1.1,0.4,1.4c3.7,2.4,2.3,4.6,0,7.1
		c-1.1,1.2-0.6,3.1-0.3,4.7c0.2,1.2,0.1,2.1-0.4,3.2c-1.1,2.3-2.3,2-3.5,0.1l0,0c-1-5.3-1.5-10.6-2.8-15.8
		C-0.6,120.8,0.3,119.1,3.8,119.2z"/>
	<path class="st22" d="M526.7,27.1c4.2,1.1,8.2-0.5,12.3-0.9c9.5-0.9,19-2.3,28.5-3.5c0.1,0,0.2,0,0.4,0c2-0.2,5.6-0.1,5.4-1.9
		c-0.2-2-3.1-3.8-6-3.3c0.4-1,1.5-0.6,2.2-0.9c5.7,0.8,7.1,5.2,8.3,9.9c-0.3,1.2,0.6,2.7-0.9,3.6c-2.4-5.2-2.5-5.2-8.4-4.7
		c-1.4,0.1-2.7,0.5-4,0.7c-11.4,0.9-22.7,3.3-34.1,4.3c-1.2,0.1-2.5,0.3-3.7,0.3c-0.8,0-1.6-0.1-2.4-0.5c-1.5-1.3-2.2-3-2.7-4.9
		l0.1-0.4C526,22.9,527.1,23.4,526.7,27.1z"/>
	<path class="st23" d="M40.1,109.7c0.4,0,0.9-0.1,1.3-0.1c2.9-1.1,3.6,1.1,4.6,3c1.9,5.1,2.6,10.4,3.2,15.8c-0.2,1.5,0.3,3.7-1.7,4
		c-2.5,0.4-3.4-2-4.8-3.5c-1.5-5.4-1.9-11-3.5-16.4C39.1,111.5,39.3,110.5,40.1,109.7z"/>
	<path class="st24" d="M662.9,39.9c-4-1.4-7.9,0-11.8,0.7c-1.3,0-2.3-0.9-3.2-1.7c-2.1-2-1.6-4.2,1.3-4.6c2.7-0.5,5.1-2,8-1.4
		c1,0.2,1.2-1,1.4-1.8C660.1,33.9,662.4,36.5,662.9,39.9z"/>
	<path class="st25" d="M380.4,48.9c-3.2,1.6-6.7,1.5-10,2.3c-1.1,0.3-3.3-0.2-2.7,1.9c0.6,1.8,0.5,5.1,4,4.2
		c5.4-1.3,10.9-2.3,16.4-3c1.6,1.2,3.7-0.3,5.2,1.1c-0.1,0.2-0.2,0.3-0.4,0.5c-2,1.2-4.4,0.2-6.4,1.3c-4.8,1.5-9.7,2.2-14.6,3.2
		c-1.2,0-2.3,0.5-3.4,0.6c-2.3-0.1-4.5,1.6-6.8,0.4c0-0.5,0-1,0-1.5c-0.1-0.4,0-0.8,0.3-1c4.2-2.6,4.2-3.1,0.5-6.4c-1,0-2-0.1-3-0.1
		c1.3-1,3.6-0.6,3.9-3c0-0.1,0.8-0.4,0.9-0.3c4.1,3.3,8.1-0.2,12.1-0.1C377.6,49.3,379,48.7,380.4,48.9z"/>
	<path class="st26" d="M40.1,109.7c1.2,6.3,2.3,12.5,3.5,18.8c3.2,4.2,3.1,9.3,4,14.2c1.1,5.2,1.7,10.4,2.4,15.6
		c-0.1,1.3,0.1,2.7-1.6,3.2c-1.1-0.8-1.4-2-1.6-3.2c-1-5.2-2.4-10.3-3.3-15.5c-1.2-5.2-2.6-10.4-2-15.9c-1-4.6-2.1-9.2-2.9-13.8
		c-0.3-2.1-1.3-2.8-3.2-2.7C36.8,108.7,38.6,110.2,40.1,109.7z"/>
	<path class="st27" d="M657.8,30.1c-3.5,0-7,0.1-10.5,0c-1,0-2.2,0.3-2.9-1c-1.8-3.1-1.7-3.7,2-4.5c1.6-0.3,3.2-0.5,4.8-0.5
		c1.1,0,2-0.2,2.2-1.5C655.1,25,657,27.2,657.8,30.1z"/>
	<path class="st28" d="M526.7,27.1c-0.1-4.5-3.5-1.5-5.3-2.4c0.3-0.9,1.5-1.2,1.4-2.3c1.5-3.8,3.2-7.6,2.7-11.9
		c-0.1-1.2,0.2-1.9,1.4-2.3c0.8-0.3,1.7-0.7,2.4,0c0.8,0.8,0.7,1.9,0.2,2.8c-2,3.5-2.1,7.4-2,11.3C527.5,24,529.6,26,526.7,27.1z"/>
	<path class="st27" d="M653.3,22.6c-2.5-0.7-5.1-0.9-7.7-0.3c-0.4,0.1-0.7,0.2-1.1,0.2c-2.3,0.1-3.7-1.5-4.2-3.1
		c-0.5-1.9,1.8-1.7,3-2.4c1.3-0.7,3.5,0.5,3.9-1.9C649.3,17.6,651.3,20.1,653.3,22.6z"/>
	<path class="st29" d="M613.4,8.9c5.9-0.7,11.9-1,17.7-2.2c3.8-0.8,6.7,0.7,9.8,2.1c0.7,0.3,1.1,1,1.2,1.8c-0.4,0.3-0.8,0.4-1.2,0.3
		c-4.9-1.4-10-0.8-14.9-0.4c-4.1,0.4-7.9,0.2-11.8-0.7C613.8,9.6,613.6,9.3,613.4,8.9z"/>
	<path class="st30" d="M540.8,18.9c6.9-2.9,12.8-7.5,19.3-11c1-0.5,1.7-1,2.6-0.2c0.3,0.3,0.7,0.9,0.6,1.3c-0.2,1.1-1.3,0.9-2.1,1.1
		c-5.1,1.4-8.7,5.5-13.4,7.7c-1.6,0.7-3,1.7-4.8,1.9C542.3,19.2,541.4,19.8,540.8,18.9z"/>
	<path class="st31" d="M641.4,10.6c0.3,0,0.5,0,0.8,0c1.7,1.5,3.5,3,5.2,4.6c-2.8,0-5.6-0.1-8.4,0c-1.8,0.1-3-0.6-4.4-1.5
		c-2-1.3-2.3-2.6,0.4-3.2C637.1,9.9,639.3,9.4,641.4,10.6z"/>
	<path class="st32" d="M45.1,112.7c-0.8-1.6-1.7-3-3.8-3.1c0.3-0.3,0.5-0.5,0.8-0.8c2.6-0.5,5-1.5,7.5-2.1c3.3-0.9,6.5-1.9,9.8-2.8
		c0.2,0.7,0.5,1.3,0.7,2c-1.2,2.4-3.1,3.6-5.9,3.6C50.9,109.4,47.6,110,45.1,112.7z"/>
	<path class="st29" d="M580,10.5c-0.8-1.1-0.8-1.4,0.1-1.3c2.2,0.2,4.1-0.3,5.9-1.5c5.4-0.5,10.5,1.6,15.9,1.4
		c3.8-0.2,7.7,0.4,11.5-0.2c0.1,0.1,0.2,0.3,0.3,0.5c-1,2.2-3.1,1.4-4.8,1.6c-1.3,0.2-2.7,0-4,0c-4.5,0.4-9.1,0-13.7,0.6
		C587.8,12.1,583.7,11.2,580,10.5z"/>
	<path class="st33" d="M667,51.9c-0.1-0.2-0.2-0.5-0.2-0.7c-1.6-0.7-3.4-0.7-5.1-0.5c-2.1,0.2-2.3-0.8-2.3-2.4
		c0.6-2,0.9-4.2,2.8-5.6c0.3-0.5,0.6-0.9,0.9-1.4c2.9,2.9,3.4,6.9,4.6,10.5C667.6,52.1,667.3,52.1,667,51.9z"/>
	<path class="st34" d="M667,51.9c0.2,0,0.5,0,0.8-0.1c0.5,1.3,1,2.5,1.4,3.8c0,0.6-0.2,1.2-0.1,1.8c0.6,3.9-1.3,4.8-4.6,4.1
		c-0.6-1.4,0.7-2.9-0.8-4.7c-1.2-1.4,1.4-3.2,3.1-4.2C666.9,52.4,667,52.1,667,51.9z"/>
	<path class="st9" d="M4.8,150.1c4,3.4,4.9,7.8,4.4,12.8c1.3,2,1.1,3.8-0.9,5.3c-1.3-3.2,0.6-6.6-0.7-9.9c-0.5-1.2-0.4-2.8-2.1-3.2
		C5.3,153.5,5.1,151.8,4.8,150.1z"/>
	<path class="st35" d="M540.8,18.9c0.8,0.1,1.7-0.2,2.2,0.7c-0.7,0.4-1.5,0.8-2.6,1.4c1.4,0.1,2.4,0.1,3.4,0.2
		c-3.4,2.1-7,1.1-10.5,0.8C535.6,20.3,538.4,20.1,540.8,18.9z"/>
	<path class="st36" d="M265.7,147.9c2.3-2.1,5.4-1.9,8.2-2.6c2.2-0.5,4.5-0.8,6.8-1.2C276,146.6,270.8,147,265.7,147.9z"/>
	<path class="st9" d="M0.3,123.9c1.9,5.1,2.6,10.4,2.8,15.8C1.5,134.6,0.8,129.2,0.3,123.9z"/>
	<path class="st7" d="M409.6,43.7c-5.1,1.7-10.4,2.6-15.8,2.9C398.9,44.7,404.3,44.1,409.6,43.7z"/>
	<path class="st36" d="M220.7,156.1c3.3-1.8,6.9-2.2,10.5-2.2C227.9,155.8,224.3,156.2,220.7,156.1z"/>
	<path class="st37" d="M569.4,7.7c1.1,0.2,2.5-2,3.1-0.1c0.3,1.1,0.6,3.4-1.7,3.9C569.5,10.6,569.2,9.2,569.4,7.7z"/>
	<path class="st36" d="M243.9,151.6c2.6-1.5,5.4-1.6,8.3-1.5C249.6,151.7,246.8,151.7,243.9,151.6z"/>
	<path class="st26" d="M32.5,111.2c-2.4,1.1-4.8,2.2-7.6,2.1C27.3,112,29.7,111,32.5,111.2z"/>
	<path class="st38" d="M543.7,105c2.4-1.5,5.1-0.2,7.6-0.7c-0.7,2.2-2.3,1-3.6,0.9C546.4,105.2,545.1,105.1,543.7,105z"/>
	<path class="st26" d="M49.7,106.6c-2.3,1.3-4.8,2.2-7.5,2.1C44.5,107.6,47,106.6,49.7,106.6z"/>
	<path class="st36" d="M200.4,159.8c1.6-1.2,3.4-1.5,5.3-1.4C204.4,160.6,202.2,159.6,200.4,159.8z"/>
	<path class="st39" d="M146.9,169.5c-0.9,0-1.8,0.1-2.7,0.1c-2,0.6-2.1-0.4-1.4-1.9c0.5-1,1.9-1.1,2.5-2.4c-2.9-0.9-5.8,1.7-8.5-0.1
		c-1.4-1.5-1.1-3.5-1.1-5.3c0-3.8,0-7.6-0.5-11.4c0-0.7,0.1-1.3,0.4-2c0.2-0.4,0.6-0.7,1-0.9c27-5.9,54.3-10.6,81.3-16.2
		c10.5-2.2,21.1-3.7,31.5-6.2c1.6-0.4,3.2-0.7,4.8,0c1.1,1.9-0.6,2-1.6,2.3c-1.9,0.6-3.8,1.3-5.3,2.6c-0.3,0.8,0.4,0.8,0.8,1
		c1.9,0.9,3.5,2,3,4.5c-0.3,1.6-3.8,3.6-5.8,3.3c-1.4-0.2-2.4-0.9-2.5-2.4c-0.1-1.5-1-2.8-2.3-2.2c-4.2,1.8-9,0.6-13.2,2.3
		c1.8,3.3,1,5.2-2.3,6c-2.8,0.7-4.3-0.6-3.9-3.5c0.2-1.2,1-2.5-0.5-3.3c-1.4-0.7-3,0-3.7,1c-2.5,3.3-5.7,3-9.3,2.9
		c-4.6-0.1-9.4,0.7-13.7,2.9c-1.7,0.9-3.2,1.3-4.9,0.1c-1.4-0.9-2.9-0.8-4.3-0.2c-1.9,0.8-2.5,2.7-2.1,4.4c0.4,1.7,2.1,0.4,3.2,0.4
		c2,0,3.9-1,5.9-0.7c1.1,0.1,2.3,0.4,2.5,1.8c0.2,1.4-0.8,2-1.9,2.5c-1.3,0.6-2.8,0.8-4.1,1.5c5.9-0.8,11.7-2.5,17.5-3.7
		c8.9-1.8,17.4-5.5,26.6-5.5c2.3,0,4.7-0.6,6.8-1.8c2.8-1.5,5.8-1.2,8.8-0.7c1.3,0.2,2.9,0.5,3,2.3c0.1,1.5-1.2,2-2.3,2.6
		c-0.6,0.3-1,0.7-1.6,0.9c-0.5,0.2-1.1,0.3-1.7,0.4c-9,0.1-17.7,2.2-26.5,4c-5.7,1.2-11.2,3.6-17.1,3.6c-0.5,0-1,0.1-1.5,0.3
		c-7.8,3.5-16,4.1-24.4,4.5c-1.5,0-3.4,0.5-3.8-1.3c-0.5-2.1,1.8-2.2,3.9-3c-5,0.7-9.4,1.1-13.6,2.1c-4.8,1.1-10,0.3-14.7,2.1
		c-1.5,0.6-3.9,0.3-4.2,1.9c-0.3,1.7,2,2.1,3.5,2.7c1.2,0.5,2.2,1.1,2.6,2.5c-0.9,1.9,0.8,2.2,1.7,3
		C150.5,169.7,148.1,168.5,146.9,169.5z"/>
	<path class="st40" d="M74.4,184.6c0.9-2,3-1.7,4.5-2c10.8-2.4,21.7-4.6,32.6-6.7c5-0.9,10.1-1.1,15.1-1.9c3.2-0.5,6.6-0.7,9.4-2.8
		c1.7-1.5,3.5-1.6,5.2,0.1c-1.4,1.6-3.2,2.5-5.2,2.8c-6.3,0.7-12.3,2.7-18.5,3.5c-4.9,0.7-10.2,0.9-14.5,4.3
		c-0.2,0.1-0.5,0.3-0.7,0.3c-9-1.6-17.4,2-26.1,2.8C75.7,185,75.1,184.7,74.4,184.6z"/>
	<path class="st41" d="M141.2,171.3c-1.7,0-3.5,0-5.2-0.1c-0.6-0.1-1.1-0.1-1.7-0.2c-0.1-0.3-0.1-0.6,0-0.9c0.2-0.3,0.4-0.5,0.7-0.8
		c1.2-1.1,0.3-3.6,2.5-4.1c2.2-0.4,4.4-0.9,6.6-1.2c1.1-0.1,2.7-1.1,3.1,0.7c0.4,1.7-0.8,2.4-2.3,2.6c-1.5,0.2-3,0.8-0.8,2.3
		C143.7,171,142.4,171.1,141.2,171.3z"/>
	<path class="st36" d="M146.9,169.5c0.8-2,3-0.9,4.2-2c3.7-2.1,7.4-3.4,11.6-1.7c0.8,0.1,1.7,0.1,2.5,0.2c-1.4,1.5-3.4,1.5-5.1,1.6
		C155.7,168.1,151.5,170.5,146.9,169.5z"/>
	<path class="st42" d="M172.5,90.8c0.6,0.1,1.3,0.2,1.7,0.9c-0.3,0.4-0.6,0.7-1.1,1c-5.1,2.4-5.1,2.4-2.5,7.1
		c-1,1.3-2.2,1.2-3.6,0.8c-0.2-0.1-0.5-0.2-0.6-0.4c-1.4-5.6-5.3-4.8-9.4-3.8c-1.5,0.4-3.1,0.4-1.8,2.6c0.4,0.8,0.3,1.7-0.1,2.5
		c-0.4,0.6-1,1-1.8,1c-0.3-0.1-0.6-0.4-0.9-0.7c-1.2-1.1-0.9-4.1-2.9-3.8c-2.8,0.4-5.9,0.9-7.7,3.7c-0.4,0.6-0.8,1.2-1.4,1.5
		c-1.8-1-3-3-5.8-2.3c-2.2,0.6-3.5,1.3-3.7,3.5c0.1,0.7-1.3-0.7-0.8,0.6c0.8,2,0.3,3.4-2.1,3.6c-0.6-0.2-0.9-0.6-1-1.2
		c-0.5-1.2-0.6-2.8-1.4-3.7c-1.5-1.6,0.4-2.1,0.6-3.1c8.8-2.9,18-4,27.1-6C159.6,93.2,165.9,91.3,172.5,90.8z"/>
	<path class="st43" d="M645.1,40.6c-2.7,1.7-4.8,3-8.7,2.1c-4.4-1-7-3.5-10.2-5.8c-1.9-1.4-4.5-1.5-6.6-2.8c-0.8-0.5-2,0.5-2.3,1.9
		c-0.3,1.3-0.9,2.5-1.4,3.8c0.5,2.3-0.7,4.6-0.5,6.9c0.2,2,0.1,3.8,1.7,5.4c1.7,1.8,0.7,3.4-1.1,4.5c-2.3,0.5-4.6-0.1-6.9,0.4
		c-2.1,0.4-3-1.2-3.7-2.8c-0.5-0.9-0.7-1.8,0-2.8c0.9-0.9,1.6-2.1,3-2.2c1.7,0.5,2.6,0.1,2.6-1.9c0-3,1-5.8,0.9-8.7
		c-0.2,1.3-0.7,2.5-1.5,3.7c-1.7,1.8-3.5,3.2-5.7,4.3c-1.3,0.7-2.6,0.9-4,0.6c-4.8-1.5-5-2-2.6-6.6c1.3-1.4,3.6-0.6,5-2.5
		c-1.5-1.2-3.1-0.4-4.5-0.1c-1.7,0.3-3.4,0.9-4.9-0.5c-1.1-2.2,0.2-3.7,1.5-5.2c0.8-1.1,1.9-2.4,1.1-3.6c-0.7-1.1-2.3-0.7-3.5-0.5
		c-2.8,0.3-5.7,0.8-5.4-3.5c0.2-1.5,1.2-2.8,1.3-4.4c3.7-1,6.8,1.2,9.7,2.7c3.8,1.9,7.4,4.2,11.6,5.3c0.4,0.1,0.7,0.4,1.1,0.3
		c9-1.4,14.5,5.5,21.3,9.3c0.2,0.1,0.5,0,1.7-0.1c-3-2.8-4.4-6.2-8.1-7.6c-2-0.8-3.9-1.7-5.3-3.3c-0.5-0.6-1.4-1.4-0.6-2.2
		c0.6-0.7,1.4-0.2,2,0.2c2.8,1.8,5.5,3.7,8.2,5.6c1,0.7,2,1.5,3.4,1.4c1.6,1.9,3.3,3.6,6,3.8C641.5,37.2,643.3,38.9,645.1,40.6z"/>
	<path class="st44" d="M604.5,10.1c3-0.5,6.2,0.6,9.2-0.7c8.1,0.9,16.1-0.6,24.2-0.4c1.3,0,2.8-0.1,3.5,1.6
		c-2.1,0.3-4.1,0.7-6.2,0.8c-2.9,0.2-0.7,1.5-0.6,2.3c-3.3-1-6.6-1.8-6.9,3.4c-0.1,0.9-1.4,1.3-1.6,0.6c-0.5-2.2-1.6-2.2-3-1.1
		c-1.6,1.2-1.8,2.6,0.2,3.8c-1.4,1.1-2,0.4-2.7-0.1c-0.8-0.4-0.9-0.4-1.5,0.8c-0.3,0.8-0.7,0.5-1,0.3c-2.6-1.8-5.9-1.5-8.7-3.1
		c-4.3-2.5-9.2-2.9-14.1-2.5c-3,0.2-5.9-0.5-8.7-1.4c-1.6-0.5-1.6-1.1,0-1.6c1.7-1.2,3.4-0.3,5,0c4.6,1,8.8,0.3,12.9-1.9
		C604.8,10.9,604.5,10.4,604.5,10.1z"/>
	<path class="st45" d="M604.5,10.1c0.3,0.6,1.9,0.9,0.4,1.9c-3.8,2.5-7.9,3-12.2,2.4c-2.1-0.3-4.1-0.9-6.1-1.4
		c-1.4-1.3-3-0.5-4.6-0.7c-0.7-0.6-1.4-1.2-2.1-1.8c3.5-0.3,7-1.7,10.3,0.4c0.3,0.2,0.8,0.3,1,0.2C595.5,8.1,600.2,10.5,604.5,10.1z
		"/>
	<path class="st6" d="M639.8,35.5c-3.9,1.8-5.1-0.8-6-3.8c1.9-2.3,3.7-4.6,7.3-6c-0.8,2.1-2.2,2.5-3.3,3.2c-1,0.7-1.9,1.6-0.8,2.7
		c1.1,1.1,1.3-0.5,1.9-0.9c0.6-0.4,1.1-1,1.8-1.4c0.8-0.5,1.6-1,2.2,0.3c0.6,1.2-0.4,1.1-1.1,1.3c-1.5,0.4-0.2,1.5-0.4,2.2
		c0.4,0.5,0.5,1,0.1,1.5C640.7,34.7,640.1,34.8,639.8,35.5z"/>
	<path class="st46" d="M588.7,20.3c0.6,1.7-0.4,3.1-0.8,4.6c-0.1,0.4-0.3,0.6-0.7,0.7c-2.5-1.9-2.5-1.9,0.1-3.2
		c0.8-0.4,0.6-1.2,0.7-1.9C588.2,20.5,588.5,20.4,588.7,20.3z"/>
	<path class="st43" d="M641.4,34.6c0-0.5,0-1-0.1-1.5c0.1,0,0.2,0,0.4,0c1.2,0.2,2.7-0.6,3.7,0.7c0.1,0.1-0.1,0.7-0.3,0.9
		C643.8,36.1,642.6,34.5,641.4,34.6z"/>
	<path class="st47" d="M162.7,165.8c-3.9,0.6-7.8,1.1-11.6,1.7c-1.4-0.1-3.4,0.2-2.4-2.4c2.4-4.2,5.9-5.4,10.8-5.9
		c8.3-0.8,16.7-0.5,24.9-2.4c5.5-1.3,11-2.1,16.4-4c3.5-1.2,7.7-1.6,11.6-2.2c6.9-1.1,13.6-3.3,20.7-4.1c4.1-0.4,8.5-0.7,12.4-2.5
		c0.5,0,1,0,1.5,0c3.5-1.6,7.3-1.6,10.9-2.1c14.7-2.2,29.1-5.6,43.4-9.3c10.1-2.7,20.4-4.5,31-4.4c2.3,0,4.4-0.8,6.1-2.4
		c1.6-1.5,3.4-2,5.5-1.4c1.6,0.5,3.2,0.4,4.8-0.2c4-1.5,8.3-1.6,12.4-2.7c1.9-0.5,3.8-1,5.2-2.7c-1.1-1.5-2.4-0.8-3.5-0.7
		c-4.7,0.2-6.8-1.5-7.9-6.2c-0.4-1.6,0-3,1.4-4c1.7-1.1,3.5-0.9,5.3,0.2c1.2,0.7,1.6,2.2,3.4,3c0.2-5.6,4-5.9,8.2-5.6
		c5.6,0.4,10.5-1.6,15.3-4.2c4.6-2.1,9.3-1.5,13.9-0.5c2.6,0.6,4.5,0.6,6.4-1.4c2.5-2.6,4.7-2.4,6.7,0.6c1.4,2.1,2.5,2.7,4.1,0.4
		c0.9-1.3,2.1-1.2,3.3-0.5c2.2,1.2,4.1,0.9,6.3-0.5c2.9-2,5-1,5.4,2.6c0.3,3.1,1.8,3.4,4.2,3c3.3-0.4,6.5-1.5,9.8-2.2
		c8.9-1.8,17.7-4,26.8-5c3.7-0.4,7.4-1.4,10.9-2.4c4.5-1.3,9-2,13.6-2.3c2-0.6,4.3-0.8,4-3.8c-1.2-3.3-3.5-6.4-0.6-10
		c1.2-1.5-2.3-2.6-1.1-4.6c1.7-0.9,3.5-1.5,5.5-1c1.4,0.7,2.3,1.8,2.9,3.2c-0.3,1.4-1.2,2.8-0.3,4.3c0.3,1,0.1,2.4,1.3,2.9
		c3,1.4,4,4.5,6.2,6.6c4.5,1,1.9,3.2,0.8,5.1c-9.1,3-18.7,4.2-28.1,6.1c-9.9,1.9-19.8,3.9-29.7,5.9c-1.8,0.4-3.7,0.4-5.3,1.5
		c-9.5,1.6-18.9,3.1-28.3,4.9c-28.1,5.4-55.9,11.8-84,17.2c-23.5,4.5-47.2,7.9-70.7,12.6c-35.5,7.1-71,13.8-106.6,20.7
		C164.6,165.1,163.7,165.5,162.7,165.8z"/>
	<path class="st48" d="M135.3,170.3c-0.3,0-0.6,0.1-0.9,0.1c-2.7,0.8-5.5-0.2-8.1,0.5c-13.5,1.1-26.6,4.2-39.5,8.2
		c-12,3.7-24.6,4.2-36.9,6c-9,1.3-18.1,2.4-27.1,3.4c-1.5,0.2-4.1,2-4.2-1.9c0-1-1.8-0.7-2.6-0.5c-3.5,0.5-4.9-1-5.2-4.5
		c-0.5-4.5-1.5-9-2.2-13.6c0.7-1.7,1.1-3.5,0.9-5.3c5.6-2.6,5.5-2.5,6.8,3.8c0.5,2.7,2.1,4.4,5.2,4.5c1.8,0,3.5-0.4,5.1-1.1
		c5.8-2.4,6.3-2.5,10.1,2.5c1.4,1.9,2.6,2.3,4.9,1.9c3.2-0.6,5.8,1.6,8.5,3.2c0.8,0.5,1.3,1.5,2.4,1.6c2.3-1.3,4.9-1.7,7.5-1.6
		c5.2,0.2,10.4-0.8,15.6-0.9c2.6-0.1,4.8-1.3,6.9-2.5c7.4-4.3,15.3-7.1,23.7-8.5c2.8-0.1,5.4-0.9,8.2-0.9c0.6-0.1,1.3-0.1,2,0
		c3.1,0.1,6.1,0.1,9.2,0c1.8-0.1,3.5,0.1,5.3,0.3c1,0.2,1.9,0.4,2.9,0.6C136.6,166.1,137,167.1,135.3,170.3z"/>
	<path class="st49" d="M126.3,171c2.7-1,5.4-0.8,8.1-0.5c0,0.2,0,0.4-0.1,0.5C131.6,171,129,171,126.3,171z"/>
	<path class="st50" d="M648.7,63.9c-1.4,0.8-1.2,2.6-2.1,3.7c-1.1,1.5,1.5,3.7-0.8,5.1c-3.4,1.9-7.3,2.6-10.8,4.3
		c-6.6,4.3-14.1,3.1-21.3,3.4c-5.1,0.2-10.2,0.1-15.2,0.5c-1.6-1.9,0.4-2,1.2-2.2c3.6-0.9,7.3-1.6,11.1-1.3
		c4.8,0.3,9.3-0.9,13.9-2.1c-3.4-1.6-7.3-2.5-8-7c-0.3-1.7-1.7-3.9,1.8-4c0.2,0,0.6-0.1,0.6-0.3c1.7-4.9,3.2-0.8,4.8,0.1
		c0.8,0.8,1.6,1.6,2.8,1.8c2.6-0.3,1.9-2.9,2.7-4.3c2.1-4.1,3.7-4.4,6.7-0.8c3-3.9,7.6-4.4,10.8-1c1.2,1.4,2.2,0.4,3.4,0.2
		C652.5,62.2,652.4,62.5,648.7,63.9z"/>
	<path class="st51" d="M648.7,63.9c0.2-1.4,4.1-1.2,1.6-3.7c-0.7-0.7-0.7-1.5,0-2.2c2.4,1.8,4,1.9,5.3-1.4c1.5-3.9,5.7-2.6,8.5-3.9
		c0.7-0.3,1.7,0,2.6,0c-0.8,1.6-2.7,2.6-2.7,4.7c1.2,1.1,1.8-1.1,3.2-0.4c-0.2,2-2.7,2.7-2.8,4.7C659.3,63.1,654.2,64.7,648.7,63.9z
		"/>
	<path class="st52" d="M650.3,72.1c-1.5,0-3,0-4.5,0c1.1-1.3-1.1-3.3,0.8-4.5c0.2,2.3,2,1.5,3.1,1.3c2.1-0.5,4.2-0.7,6.3-0.4
		c0.5,0.1,1.3,0.5,1.4,1c0.3,1-0.7,1.1-1.3,1.3C654.2,71.2,652.2,71.7,650.3,72.1z"/>
	<path class="st53" d="M127,107.3c0.2,0.2,0.5,0.5,0.7,0.8c0.6,0.7,1.1,1.4,1.4,2.3c0.5,1.2,0.9,2.4,0.7,3.8c-0.5,2,0.7,3.6,1.2,5.4
		c1,3.6,1.1,6.8-1.2,9.9c-0.7,1-0.7,1.9-0.2,3.1c1.3,3.4,0.2,5.6-3.4,6.1c-3.9,0.5-7.5,1.1-10.9,3.3c-2.7,1.7-6.3-0.2-7.2-3.1
		c-0.4-2.5,1.5-4.1,2-6.3c0.2-0.7,0.7-2,0.7-2c-3.8-1.7-0.8-5.6-2.7-7.9c-1.3-1.6-0.8-2.8,1.1-3.3c2-0.6,3.6-1.9,6-1.1
		c1.6,0.5,3.7-0.5,5-1.9c1.2-1.4,1.8-3.1,0.9-4.8c-1-1.8-2.4-0.3-3.7-0.1c-1,0.2-2,1-3.3-0.4C118.6,109.4,122.6,107.6,127,107.3z"/>
	<path class="st54" d="M108.2,138.9c2.8,3.1,5.8,3.6,8.7,0.9c2.4-2.2,5.1-1.5,7.7-1.9c5.1-0.7,5.8-1.6,3.2-5.7
		c-0.8-1.2,0.1-1.7,0.6-2.2c3.6-4.3,2.5-8.9,0.6-13.4c-0.4-1-0.9-1.8,0.3-2.5c3.1,0.8,1.8,3.9,2.8,5.7c0.3,0.7,0.6,1.4,0.8,2.2
		c0.5,3.7,1.8,7.3,2.5,11c-0.1,3.9,0.2,7.8,1.1,11.7c0.1,0.7-0.1,1.2-0.5,1.8h0c-0.9,1.1-2.1,1.5-3.5,1.7c-2.7,0.4-5.4,1-7.7,2.6
		c-1.8,1.3-3.8,0.8-5.8,0.9c-2.3,0.1-4.7-0.2-7,0.6c-0.4,0.1-0.8,0.2-1.2,0.2c-2.8,0.5-5.5,0.8-8.3,1.3c-1.8,0.3-3.7,0.8-5-1
		c0.5-1.7,2.2-1.5,3.5-2c0.5-0.1,1.1-0.2,1.7-0.3c3.1-0.8,6.5-0.2,9.5-2.4c-1.5-2.7-3.1-5.2-5.4-7.4c-1-1-2.6-2.2-0.1-3.5
		C107.2,137.9,107.7,138.4,108.2,138.9z"/>
	<path class="st55" d="M106.7,137.4c-0.2,0.4-0.7,1.2-0.6,1.2c3.4,2.5,4.8,7,8.5,9.4c-3.3,3.2-7.7,2.6-11.7,3.6
		c-1.3-5.1-3.1-10.1-3.8-15.3c0.2-1.4,0.6-2.4,2.3-2.2c0.9,0.1,2.2,0.7,2.1-1c-0.1-1.4-0.3-3.1-2.2-3.4c-1.1-0.2-2.2,0.3-3.2-0.5
		c-1-1.1-1.3-2.4-1.1-3.8c0.5-1.3,0.4-3.4,2.3-3.2c1.7,0.1,2.9,1.7,3.8,3.1c0.5,0.7-0.1,1.7,0.6,2.4
		C107.5,130,107.9,133.4,106.7,137.4z"/>
	<path class="st56" d="M103.7,127.6c-0.8-0.4-0.7-1.3-1.1-1.9c-2.1-3.4-3.3-3.5-5.2-0.2c-2.9-1.3-1.6-5-3.9-7
		c-0.4,4.4,2.8,8.1,1.6,12.3c-0.4,0.7-1,1.2-1.6,1.6c-2.9,1-5.7,0.7-8.6,0c-0.2-2.1,1.4-2.3,2.8-2.6c3.7-0.9,4.3-1.9,2.8-5.3
		c-1.2-2.7-2-5.4-0.4-8.1c0.2-0.3,0.6-0.5,0.9-0.7c1-0.2,2-0.3,3-0.5c0.4,0.2,0.9,0.6,1.3,0.6c4.2-0.6,6,1.6,6.1,5.5
		c0.1,3.1,2.3,1.7,4,1.8C105.5,124.8,103.1,125.7,103.7,127.6z"/>
	<path class="st57" d="M105.9,166.6c-2.8,0.8-5.7,1.4-8.4,2.4c-4.1,1.4-8.3,2.4-12,4.9c-4.5,2.9-9.3,4.3-14.7,4.4
		c-6.2,0.1-12.4,0.7-18.6,1.1c-1.1-4.7-2.2-9.4-3.3-14.1c-0.4-1.2-2.1-2.3-0.5-3.8c1-0.9,0.5-2.1,0.8-3.2c0.4-0.1,0.8,0.1,1.1,0.4
		c1.9,4,2,8.4,2.8,12.6c0.9,4.5,1.1,4.9,5.8,4.7c4.6-0.2,9.1-0.9,13.7-0.8c1.7,0,3.2-0.6,3.9-2.3c2-2.8,4.1-5.4,4.6-9.1
		c0.3-2.8,2.4-4.5,5.7-4.2c1.1,0.1,2.2-0.2,3.3-0.6c1.3-0.5,2.6-0.9,3.8,0.3c0.9,0.9,0.5,1.8,0.2,2.8c-0.6,1.7-1.9,2.5-3.5,2.1
		c-3-0.7-2.8,0.8-2.2,2.8c0.4-0.5,0.9-1.1,1.5-1.2c2.4-0.4,4.2-1.1,4.5-4c0.1-1.5,1.4-2.7,3.2-2.5c2.2,0.7,2.2,2.9,3.1,4.5
		c0.2,0.2,0.5,0.4,0.8,0.6c1.5,0.8,2.2-0.7,3.3-1.1c1.3-0.4,2.1,0.2,2.7,1.3C108.1,166.2,106.6,166.1,105.9,166.6z"/>
	<path class="st58" d="M12.2,148.6c0-2.2,0.1-4.3-1.6-6.3c-1.6-1.9-0.2-6.3,3.1-7.3c4.7-1.4,3.6-6.6,6.9-8.6
		c0.1-0.1-0.2-1.2-0.6-1.6c-1.2-1.3-1.2-2.5,0.4-3.4c1.8-0.9,2.3,0.6,2.9,1.9c-2.2,2,0.3,3.3,0.9,4.8c0.6,1.8,2.6,3.4,0.2,5.2
		c-3.9,0.8-6.2,3.7-6.1,7.8c0,1.2,0.5,2.5-0.7,3.4c-0.8,0.7-2.2,0.6-2.8,2.1c3.7,0.7,7.1-2.5,10.7-0.6c2.4,2.3,3.6,5.1,3.5,8.5
		c-0.1,3.7,0.8,7.1,3.6,9.7c0.2,0.6,0.2,1.2-0.2,1.7c-3.4-1.2-5.5-4-7.7-6.6c-1.1-1.2-1.7-2.7-2.6-4c-0.9-1.4-2.4-2.1-4-2.5
		C14.7,151.9,14,151.5,12.2,148.6z"/>
	<path class="st59" d="M32.5,165.9c0-0.6-0.1-1.1-0.1-1.7c-1.4-1.7-0.8-3.5-0.1-5.2c1.1-1.8,1.3-4,1.7-6c0.5-2.6,1.8-4.1,4.6-2.5
		c-0.8-3.2,0.9-5.3,3-7.4c0.9-0.9,1.7-1.3,2.8-0.4c1.3,6.2,2.6,12.5,3.9,18.7c0.2,1.3,0.3,2.5,0.5,3.8c-3.6-2.8-7.1-4.5-11.3-0.8
		C36.4,165.3,34.5,166.7,32.5,165.9z"/>
	<path class="st60" d="M489.8,34c9.3-1.4,18.6-2.1,27.8-3.9c0.6-0.5,1.3-0.6,2.1-0.2c1.5,3.2-2.5,3.1-3,5.4c1.2,1.4,3.7-0.1,4.8,1.8
		c-7.8,0.9-15.5,1.9-23.3,2.8c-11,1.4-22,2.8-32.9,4.2c-7.8,1-15.5,1.8-23.3,2.7c-1.1-0.1-2.2-0.2-3.3-0.3c0.5-1.5,1.7-1.8,2.7-1.9
		c5.8-0.8,11.5-2.4,17.2-3.5c1.5-0.3,3.2,0,4.7,0.5c3.5,1.2,5.8-0.4,8-2.8c2.4-2.7,5.7-3,9-2.5C483.9,36.8,487,36.4,489.8,34z"/>
	<path class="st43" d="M597.9,80.4c-5,1-10,2-15,3c-4.6,0.5-9.2,0.6-13.6,1.7c-2.7,0.7-4.5-0.7-6.7-1.2c-0.8-0.2-0.7-1.2-0.7-2
		c0.9-1.5,2.4-1.7,3.9-1.7c3.4-0.1,6.5-1.2,9.7-2.2c2.2-0.7,3.3-2.1,3.3-4.3c0-2.3,0.6-4.4,2.5-6c0.9-0.7,1-1.6,0.5-2.6
		c-0.6-1.1-1.2-2.2-0.3-3.5c5-1.8,8.8,1.3,8.5,7c-0.4,6-0.4,6,5.7,5.5c2.2-0.2,4.4-0.8,6.6-1.2c5-1.1,5-1.1,3.8-6.1
		c-0.2-2.2-1.3-4.4,0-6.6c1.9-1.6,4.2-1,6.3-1c1.7,0,3.4,0.2,4.8-1.1c2-1.8,4.4-2,7.2-1.6c-3.2-1.2-5.5-10.4-3.8-14.4
		c1.4-0.1,2.6,0.3,3.7,1.4c4.2,4.4,9.3,6.7,15.5,6.2c1.4-0.1,3.4-0.7,2.9,2.3c-0.3,1.7,1.4,1.8,2.8,2c2.4,0.3,5.2,0.4,5.2,4
		c0,0.7,0,1.5,0,2.2c-2.4,2.5-3.7,2.4-4.5-0.6c-0.3-1.3-1-1.1-1.9-1c-2.6,0.3-5.7-0.8-7,2.6c-0.3,0.6-0.3,1.4-0.4,2.1
		c-0.4-0.2-0.7-0.3-0.8-0.4c-0.7-1.6-1-4.3-3.2-3.8c-2.5,0.6-2.4,3.6-3.2,5.7c-0.4,0.9,0.3,2.4-1.3,2.6c-1.1,0.2-1.6-0.4-1.7-1.5
		c-1.6-1.8-0.1-3.4,0.3-5.1c-2,0.5-1.5,2.6-2.6,3.6c-2.1,0.6-1.9-1.9-3.1-2.5c-1.3,1.3,0.2,2.9-0.4,4.2c-1.5,0.2-1.8-1.5-3-1.5
		c0.4,6.1,1.4,7.7,10.2,9.1c-1.8,2-3.7,2.9-6.2,3.4c-7.3,1.4-14.8,0.1-22,2.1C598.9,79.8,598.3,79.8,597.9,80.4z"/>
	<path class="st61" d="M546.1,90c-5.1,0.8-10.4,0.8-15.2,3c-0.8,0.4-1.8,0.6-1.7-0.3c0.1-1.6-3.5-2-1.1-4.1c2.6-2.6,6.2-2.3,9.3-3.2
		c1.8-0.5,3.7-0.6,5.5-1.1c0.8-0.2,1.9-0.5,1.8-1.5c0-0.8-1-1-1.7-1.3c-3.2-1.5-6.1-3.9-9.8-4.5c-1.2-0.2-1.8-1.2-2.2-2.3
		c-0.4-1.9-0.5-3.7,0.3-5.5c3.2-3.1,7.4-2.4,11.2-3.1c2.2,0.4,3.3,2,3.9,4.1c0.2,0.4,0.9-0.1,0.4,0c-0.2,0.1-0.2,0-0.3-0.2
		c-1-1.7,0-3.1,0.8-4.4c5.8-2,11.7-3.8,17.9-3.6c1.4,1.9-0.1,2.9-1.4,3.9c-2.7,1.1-5,2.5-5,5.9c0,0.7-0.3,1.4-1,1.8
		c-0.7-0.2-1.4-0.5-2.2-0.7c-0.2,0-0.5-0.1-0.7-0.2c-1.4-1.2-3.2-2.1-4.6-0.5c-1.5,1.6,0.9,2.5,1.4,3.7c0.5,0.1,1.1,0,1.4,0.2
		c0.8,0.7,0,1.1-0.5,1.2c-1.2,0.4-2,1-1.8,2.4c0.2,1.4,1.4,1.3,2.5,1.6c1.9,0.5,3.2,2.1,3.4,3.9c0.2,1.8-1.8,2-3.2,2.6
		C551.4,88.8,548.4,88.3,546.1,90z"/>
	<path class="st62" d="M558,73.6c0.2-3.8,0.3-7.6,5.3-8.2c0.2,0.4,0.1,0.8-0.3,0.9c-0.5,0.1-0.5,0.1-0.1,0.1
		c4.2,0.3,8.3,1.4,12.6,0.5c1.9-0.4,3.3-1.1,3-3.4c-0.1-1.4,0.2-2.5,2-2.4c0.3,0.1,0.6,0.3,0.8,0.7c0.1,0.4,0,0.8,0.2,1.1
		c1.9,2.4,3.2,4.6-0.8,6.5c-1.5,0.7-1.1,2.7-1,4.1c0.3,3.1-1.4,4.4-4,5.4c-4.5,1.8-9.4,2-14,3c-1-0.1-1.5-0.5-1.5-1.5
		c1.6-1.5,3.6-1.5,5.6-1.3c2.7,0.3,5.1-0.9,7.5-1.9c1.3-0.6,1.5-1.5,0.1-2c-3.5-1.5-7.2-2.8-11.1-2.6c-1.8,0.1-2.5,0.9-1.8,2.6
		c0.6,1.8,1.3,3.6-0.2,5.3C558.2,78.6,558.9,75.8,558,73.6z"/>
	<path class="st63" d="M552,75.8c-2.5,0.4-2.8-1.7-3.1-3.2c-0.4-1.8,1.4-1.7,2.4-2.1c1.5-0.5,3.1-1.2,3.9,1.1
		c0.1,0.5,0.5,0.9,0.7,1.3C555.3,74.9,553.3,74.9,552,75.8z"/>
	<path class="st64" d="M556.5,89.5c-3.2,0.7-6.4,1.5-9.6,2.2c-0.3,1.6-1.4,2.2-3,2.1c-3.9-0.2-7.7,0.8-11.4,1.7
		c-1.5-1.7-0.4-2.1,1.2-2.6c4.3-1.3,9-0.9,13.2-2.8c2.3-0.4,4.5-0.8,6.8-1.2C554.6,88.9,555.8,88,556.5,89.5z"/>
	<path class="st65" d="M620.3,42.1c-0.1,4,2.3,7.7,1.6,11.8c-0.3,1.5,1.1,1.6,2.3,1.7c1.3,0.1,2.7-0.5,4.2,0.9
		c-3.6,1.6-7.9-0.6-10.9,2.2c-1.4-0.4-1.7-1.4-1.7-2.6c1.1-1.3,3-2.7-0.4-3.6c-0.7-0.2-1-0.7-1-1.4c0.1-3.8-0.9-7.8,1.5-11.2
		c0.5,0,0.9,0,1.4,0C618.1,40.9,618.1,43.1,620.3,42.1L620.3,42.1z"/>
	<path class="st66" d="M662.2,42.7c-0.7,1.8-1.3,3.6-2,5.5c-1,0.8-0.2,2.4-1.6,3.1c-2.1,1-4.4,0.1-4.8-2.2c-0.3-2.2-0.1-4.4,1.7-6.1
		C657.8,42.8,660,41.2,662.2,42.7z"/>
	<path class="st51" d="M655.6,42.9c-0.3,1.7-0.7,3.4-0.7,5.1c-0.1,1.1-0.5,2.7,1.3,3c1.5,0.2,2.7,0,3.2-1.8c0.1-0.4,0.6-0.8,0.8-1.1
		c0,1-0.5,2.1,1.6,2c1.6-0.1,3.6-0.4,5,1c-3.5-0.4-6.9,0.6-10.3,0.9c-1.5,0.1-2.4-0.4-3.1-1.4c-1.5-2-1.1-4.5-1-6.7
		C652.5,42.6,654.4,43,655.6,42.9z"/>
	<path class="st43" d="M620.3,42.2c-1.7-0.2-1.2,2-2.8,2.4c-0.1-1.6-0.2-3.1-0.2-4.7C620.2,38.1,620.3,40,620.3,42.2z"/>
	<path class="st67" d="M649.8,48c1.4,1.9,2.2,3.2,0.5,4.6c-0.5,0.4-1.3,0.9-1.6,0.3C647.6,51.3,648.9,50,649.8,48z"/>
	<path class="st68" d="M445.6,48.3c23-3,46-5.9,69-8.9c1.2-0.2,2.5-0.1,3.7-0.2c0.1,0.2,0.2,0.6,0,0.7c-2.8,2.3-4.2,4.5,0.2,6.7
		c1,0.5,0.9,1.7-0.3,2.3c-6,1.5-12.3,1.6-18.4,2.4c-9.2,1.2-18.4,2.6-27.7,3.4c-8,0.7-16,1.8-24,2.6c-3.1-0.7-5.6-3.9-5.6-6.7
		C442.6,48.5,444.2,48.6,445.6,48.3z"/>
	<path class="st69" d="M445.6,48.3c-0.8,0.8-3,1-2.1,2.4c1.3,2,0.7,5.5,4.3,5.7c-2,3.3-4.7,1.3-7.2,1c-4.4-2-8.8-3-12.9,0.8
		c-2.2,2.9-5.7,2.4-8.6,2.8c-5.2,0.8-10.3,1.6-15.5,2.1c-4.9,0.5-8.4-3.2-7.4-8.3c2.8-2.1,6.3-1.3,9.4-1.7
		C418.9,51.4,432.3,49.9,445.6,48.3z"/>
	<path class="st70" d="M526.5,38.3c8.6-1.2,17.2-2.4,25.8-3.5c5.2-0.7,10.4-1.1,15.5-1.6c2.3,3,4.7,5.9,8.7,6.5
		c1,0.2,2.7-0.2,2.5,1.8c-4.1,1.6-8.5,1.7-12.7,2.2c-11.2,1.4-22.4,2.5-33.6,3.5c-0.9-0.1-1.3-0.8-1.3-1.6
		C531.5,42,529.3,40,526.5,38.3z"/>
	<path class="st71" d="M525.8,29.6c10.8-1.4,21.5-2.9,32.3-4.2c2.2-0.3,4.4-0.3,6.7-0.5c0.7,0.5,1.6,1.4,1.1,2.1c-1.7,2.6,0.8,3,2,4
		c-5.8,0.8-11.5,1.8-17.2,2.5c-6.3,0.8-12.6,1.3-18.9,1.9C529.7,33.6,526.2,33.2,525.8,29.6z"/>
	<path class="st72" d="M526.5,38.3c4.8,0.6,6.7,3.5,5.3,8.3c-2.8,2.2-9.7,3-12.7,1.4c-0.1-0.1-0.1-0.2-0.2-0.3c-6-4-6-4-0.6-8.5
		C521,38.4,523.8,38.6,526.5,38.3z"/>
	<path class="st73" d="M525.8,29.6c1.1,2.8,5.1,2.7,6,5.8c-3.3,1.3-7,0.6-10.4,1.6c-1.3,0-2.7-0.1-4-0.2c-0.9-0.1-2.2,0.4-2.6-0.8
		c-0.4-1.3,0.7-1.9,1.6-2.6c1.2-1,3-1.3,3.5-3c0.9-1.4,2.1-1.8,3.7-1C524.3,29.4,525.1,29.5,525.8,29.6z"/>
	<path class="st74" d="M579.1,40.7c-3.4,0.1-6.8,0.4-8.5-3.5c-0.2-0.5-1.2-0.9-1.9-1c-3.3-0.2-2.4-1.5-0.9-3
		c2.7,0.2,5.1-0.5,7.5-1.4c2.2-0.6,3.7,0.2,4.8,2c0.9,1.5,0.6,3.1,0.3,4.8c-0.1,0.5-0.1,1-0.2,1.5C580,40.5,579.7,40.9,579.1,40.7z"
		/>
	<path class="st75" d="M568,31c-1.7-0.3-3.7,0.3-5.3-1.7c2.5-0.7,3.2-2.2,2.2-4.4c2.6-1.2,5.4-0.7,8.1-1.1c2.8-0.4,4.1,2.1,3.8,6.1
		C573.8,30.6,570.9,31,568,31z"/>
	<path class="st25" d="M396.2,54.9c0.5,1.5,0.8,3.1,1.5,4.5c0.9,1.9,2.3,3.2,4.7,2.9c7.3-1,14.7-2,22-2.8c1.7-0.2,1.8-1.9,3.2-2.4
		c0.5,2.5,1.9,5,0.6,7.7c-3.9-3.5-8.6-2.4-13-1.8c-5.4,0.7-11,0.3-16,2.9c-0.7,0.3-1.5,0.1-2.1-0.4c-0.2-0.3-0.4-0.6-0.5-1
		c0-0.4,0.2-0.7,0.5-0.8c-0.2-0.1-0.3,0.2-0.5,0.2c-0.5-0.1-0.8-0.5-1-0.9c-0.4-1-0.5-2-0.8-2.9c-0.1-1.7-1.9-2.8-1.6-4.6l0.1-0.1
		C394.3,55.8,395.3,55.3,396.2,54.9z"/>
	<path class="st22" d="M579.7,34c-1.2-1.2-2.6-2-4.3-2.2c1.1-1.5,3.5-0.3,4.4-2.3c0.1,0.2,0.1,0.4,0.2,0.6
		C580.3,31.4,580.6,32.7,579.7,34z"/>
	<path class="st76" d="M531.9,75c0.8,1.8,2.6,1,3.9,1.3c3.5,0.9,5.7,4.1,9.3,4.7c0.9,0.1,1.5,0.8,1.6,1.9c0,1.1-0.9,1.5-1.7,1.7
		c-4.4,1.1-8.9,2.2-13.3,3.2c-1.2,0.3-2.4,0.5-3.6,0.8c-2.1-1-3.7,2.8-6,0.5c-0.8-0.9-1.9-1.3-2.4-2.6c-0.8-2.2-2.9-3.6-4.4-5.3
		c2.6-3.9,6.9-3.5,10.8-3.7C528.5,77.4,530.4,76.8,531.9,75z"/>
	<path class="st77" d="M531.9,75c0.4,3.4-2.3,3.8-4.3,3.6c-4.5-0.5-8.5,0.5-12.3,2.5c-0.3,0-0.5-0.1-0.8-0.1c0.4-2.4-1-3.9-2.7-5.3
		c-0.5-1.1-1.8-2.1-0.7-3.5c6.7-2,13.5-3.6,20.6-3.2C531.8,71.1,531.9,73,531.9,75z"/>
	<path class="st78" d="M532.5,95.5c0.1-1.5,1.3-1.6,2.4-1.7c3.2-0.3,6.2-1.9,9.5-0.9c1.3,0.4,1.6-0.9,2.5-1.3
		c0.2,0.5,0.5,0.9,0.7,1.4c-0.6,2.3-3.2,1.7-4.5,3C539,99,535.6,98.8,532.5,95.5z"/>
	<path class="st79" d="M512.3,75.7c2.2,1.2,5.1,2,2.2,5.3c-0.5,0.5-1,1-1.4,1.5c-2,1.5-2.8-0.1-3.8-1.4c-2.4-1.8-0.1-2.7,0.8-3.9
		C510.5,76.4,511,75.5,512.3,75.7z"/>
	<path class="st80" d="M509.3,81.2c1.2,0.5,2,2.2,3.8,1.4c1,2.1,2,4.2,3.8,5.7c0.8,0.7,1.4,1.4,0.6,2.5c-1.7-0.1-2.8-1.3-3.4-2.6
		c-0.6-1.5-1.3-2.4-3-2.7C508.7,85,509.5,82.8,509.3,81.2z"/>
	<path class="st64" d="M543.1,96.1c1-1.8,3.2-1.7,4.5-3c4.2-0.8,4.2,1.8,3.6,4.7c-0.6-2.3-1.7-3.3-4.2-2.4
		C545.8,95.8,544.4,95.8,543.1,96.1z"/>
	<path class="st81" d="M24.2,132.9c1.4-1.4,0.3-2.5-0.5-3.6c-1.3-2-2.3-4.1-2.8-6.4c1-0.8,1.6,0.5,2.4,0.4c0.7,1.1,1.8,1.7,2.9,2.2
		c1.6,1,3.1,1.9,4.7,2.9c1.2,0.8,2.1,1.7,1.8,3.3c-0.3,1.6,0.6,3,0.5,4.6c-2.7,2.1-5.9,1.6-9,2C22.6,136.4,22.2,134.7,24.2,132.9z"
		/>
	<path class="st82" d="M170.4,99.3c-3.1-0.1-3.1-3-3.5-4.8c-0.4-2,2.2-1.3,3.3-1.9c1.2-0.6,2.6-0.7,3.9-1c6.5-1.2,13-2.5,19.5-3.7
		c0.1,0.1,0.3,0.3,0.5,0.4c0.9,1.9,1.6,3.8,0.8,5.8c-3.6,2.7-7.9,2.8-12,3c-1.6,0.1-2-1-2.7-3.9c0.1,1.8,1.2,3.9-1.1,5.1
		c-1.8,1-3.8,1-5.7,1.6C172.3,100,171.3,100.1,170.4,99.3z"/>
	<path class="st83" d="M312.1,70.2c0.2,0.4,0.5,0.7,0.7,1.1c-0.1,0.2-0.2,0.3-0.3,0.5c-2.5,1.6-5.4,1.9-8.2,2.2
		c-1.6,0.2-3.2,0.7-4.6,1.4c-1,0.4-1.5,1.6-2.6,1.6c-1.8-0.6-3.7-0.9-5.6-0.1c-4.2,0.8-8.5,1.5-12.7,2.4c-1.9,0.6-3.9,0.4-5.7,1.1
		c-3.8,1.4-7.8,1.5-11.7,2.6c-1.2,0.4-1.9,1.8-3.3,1.7c-1.1-0.1-2.1-0.3-3.2-0.2c-3.4,0-6.5,1.4-9.7,2.1c-1.1,0.5-0.9,3.2-3.1,2
		c-0.8-0.4-1.3-1.1-1.8-1.8c-0.4-0.6-0.6-1.2-0.7-2c0.4-1.2-0.7-3,1.6-3.2c1.9,1.2,3.9,1.5,6,0.7c3-1.3,6.8-0.4,9.4-3
		c0.4-0.4,0.9-0.6,1.4-0.6c1.9,1.2,3.8,0.7,5.7,0.2c2.5-0.6,5-1.4,7.5-1.8c1.1-0.1,2.2-0.6,3.2,0.2c0.8-0.2,1.5-0.5,2.3-0.7
		c5-1.9,10.3-2.5,15.4-3.6c0.9-0.1,1.7-0.1,2.4,0.5c1.5-0.4,0.5-2.3,1.7-2.9c3.8,1.2,7.4,0.1,11-0.9C309,69.4,310.8,68.2,312.1,70.2
		z"/>
	<path class="st84" d="M240.1,85c0.2,0.4,0.5,0.9,0.8,1.3c-0.3,0.5-0.9,0.8-1.4,1c-3.9,0.9-7.8,2-11.8,2.9c-1.1,0.2-2.2,0.3-3.3,0.7
		c-0.5,0.2-1.1,0.3-1.7,0.3c-2.9,0.7-5.9,0.7-8.8,1.5c-1.6,1-2.9,2.9-5.1,0.9c-0.6-0.5-1.6,0.3-2.3,0.6c-2.3,0.9-4.7,1.3-7.1,1.5
		c-1.7,0-3.2,0.6-4.9,1c-0.4,0.1-0.7,0.2-1.1,0.2c-3.2,0.4-6.3,0.9-9.3,2.1c-1.5,1.5-3.5,0.2-5.1,0.7c-1.6,0.2-3.1,0.8-4.7,0.5
		c-0.5-0.2-0.9-0.6-1-1.2c0.2-0.2,0.4-0.4,0.6-0.5c3.8-0.4,7.9-0.5,5.7-7c1.5,6,5.1,4.7,8.6,3.8c2.1-0.5,4.4-0.5,6.4-1.5
		c0.2-1.2,1.1-1.4,2.1-1.5c4.1-0.1,7.9-2.3,12.1-1.5c0.7-0.6,1.4-0.4,2.2-0.2c4.2-2.1,8.5-4.3,13.5-2.8c0.5-0.5,0.9-1,1.4-1.5
		C230.6,86,235.2,83.6,240.1,85z"/>
	<path class="st85" d="M292.7,73.8c-5.3,1-10.4,3.1-15.8,2.8c-0.2-2.1-3.2-3.8-2.1-5.5c0.9-1.4,3.9-1,5.9-1.4
		c3.2-0.6,6.4-1.6,9.6-2.4c1-0.3,2.1-0.9,3,0.4C292.4,69.7,292.8,71.7,292.7,73.8z"/>
	<path class="st86" d="M312.1,70.2c-4.1-0.3-7.8,1.8-11.9,2.2c-1.9,0.2-3.1,0-3.8-1.7c-2-4.1,0.3-4.9,3.8-5.5
		c2.2-0.3,4.7-0.4,6.7-1.9c2,0.6,3.9-1.5,6-0.1c-0.5,2.2-0.8,4.3,0.8,6.2C313.2,69.6,312.7,69.9,312.1,70.2z"/>
	<path class="st87" d="M257.3,79.7c0,1.4-0.8,2.1-2.1,2.1c-3.1-0.1-5.9,0.9-8.7,1.8c-2.6,0.8-4.3,0.5-5.6-1.8
		c-0.4-0.4-0.4-0.9,0-1.3c0.3-1-1.5-2.5,0.2-2.9c4.9-0.9,9.6-3.2,14.8-1.7C257.3,76.8,257,78.4,257.3,79.7z"/>
	<path class="st88" d="M240.9,80.4c0,0.4,0,0.9,0,1.3c-0.9,0.9,0.8,2.5-0.8,3.2c-3.9,0.7-7.7,1.4-11.6,2.1c-1,0.2-2,0.2-2.7-0.7
		c0.4-1.9-1.1-3.2-1.8-5.1c4.6-1,9.2-2,13.8-3C239.6,77.9,239.3,80.6,240.9,80.4z"/>
	<path class="st89" d="M271.7,78.1c-3.5,0.8-6.9,1.5-10.4,2.3c-1.5,0.4-2.6,0-3.2-1.4c-0.8-1.1-1.6-2.3-1.5-3.8
		c5.2-2.6,10.6-4.2,16.5-2.9C272,74.1,273,76.3,271.7,78.1z"/>
	<path class="st90" d="M224.5,87.9c-4.5,0.9-9,1.9-13.5,2.8c-2.5-6-2.5-6,3.8-7.7c0.6-0.2,1.2-0.3,1.8-0.4
		C223.2,81,223.4,81.1,224.5,87.9z"/>
	<path class="st91" d="M208.8,90.9c-4.1,1-8,2.6-12.4,2.3c-1.3-1.6-1.8-3.6-2.8-5.4l0,0c3.7-1.9,7.9-1.6,11.8-2.8
		c1.3-0.4,1.8,0.6,2.1,1.5C208.1,88.1,208.4,89.5,208.8,90.9z"/>
	<path class="st92" d="M292.7,73.8c-1.6-1.7-1.4-4.1,0.6-6c0.5,1.9,2.1,3.6,1.4,5.8C294.1,73.6,293.4,73.7,292.7,73.8z"/>
	<path class="st93" d="M271.7,78.1c0-2-1.1-4.4,1.4-5.8c0.5,1.7,1,3.4,1.6,5.1C273.6,77.6,272.6,77.8,271.7,78.1z"/>
	<path class="st94" d="M256.6,75.2c0.8,1.2,2,2.2,1.5,3.8c-0.2,0.2-0.5,0.5-0.7,0.7c-1-1.1-1.4-2.4-1.5-3.8
		C256.1,75.7,256.3,75.4,256.6,75.2z"/>
	<path class="st46" d="M579.6,40c-0.4-0.2-0.6-0.4-0.4-0.9c2.6-1.1,5.6-1.6,5.9-5.3c1.9-1,1.4-2.7,1.3-4.3c-0.1-1-0.5-2,0.8-2.5
		c0.9,1.1,2,1.2,3.3,1c1.7-0.2,3.5-0.2,4.5,1.7c-1.2,1.7-3.3,1.4-5,2.1c-2.8,1.1-3,3.4-0.7,6.1c0.7,1.9-0.1,3.7-0.5,5.5
		c-0.4,1-0.7,2.1-1.9,2.6c-1.5-0.6-1.5-2.6-3-3.1C582.3,42.3,580.5,41.9,579.6,40z"/>
	<path class="st95" d="M585.1,33.9c1,4.5,0.2,5.3-5.9,5.3c0.6-1.7,1-3.4,0.5-5.2c0.1-1.3,0.1-2.6,0.2-3.9
		C580.5,33,581.9,34.6,585.1,33.9z"/>
	<path class="st96" d="M594.9,30.1c-1.8-1-3.9-1.4-5.9-1.6c-1-0.1-1.6-0.4-1.8-1.4c0-0.5,0-1,0-1.5c0.2-0.2,0.5-0.5,0.7-0.7
		c0.1,2,0.5,3.5,3,2.4c0.5-0.2,1.2-0.2,1.8-0.1c1.8,0.3,4.4-1.2,5.4,0.7c0.8,1.5-1,3.4-2,5C595.4,32.2,595,31.2,594.9,30.1z"/>
	<path class="st97" d="M33.3,135.8c-0.8-0.6-1.6-1.1-1.1-2.4c0.9-2-0.1-3.5-1.3-5.1c3.4,0.5,1.8,3.4,2.9,6.2
		c0.3-5.6,5.9-4.3,7.6-7.7c1,5.3,2,10.5,3,15.8c-2.7-0.5-2.5,2.6-4.3,3.5c-3,1.5,0.1,3,0.7,4.4c0.2,0.7,1,1.3,0,1.8
		c-0.7,0.4-1.1-0.4-1.6-0.7c-0.9-1.6-3.6-1.6-3.5-4c0.4-1.2,1.3-2.1,2.2-3c2.5-2.4,2.3-4.3-0.5-6.5
		C36.1,137.3,34.3,137.3,33.3,135.8z"/>
	<path class="st56" d="M65.3,114.2c0.2-0.6,0.4-1.5,0.7-1.6c4.6-1,7.1-5.1,11-7.2c6.2-3.2,11.1-0.9,12.5,5.9c0.3,1.4,1,2.8,1.6,4.2
		l-0.2,0.2c-4.5,1.7-8.9,3.8-13.8,3.7c-1.3,0-2,0.9-3.1,0.9c-1.2-1.4-2.4-2.5-4.5-2.6c-1.8,0-2.9-1.7-4-3.1
		C65.4,114.5,65.4,114.4,65.3,114.2z"/>
	<path class="st98" d="M45.1,112.7c-0.1-1.8,0.4-2.6,2.5-3.2c4.2-1.1,9-0.4,12.6-3.7c3.1-0.8,6.2-1.5,9.4-0.5
		c-2.4,0.6-4.8,1.2-7.2,1.9c-0.5,1.1-1.7,1.1-2.6,1.6c-1.8,0.8-1.3,3-2.7,4c-0.5,0.1-1.1,0.2-1.4-0.3c-0.6-1.1-0.9-2.2-2.6-1.4
		c-1.6,0.7-1.8,1.9-1.5,3.3c0.6,3.2,1.3,6.3,1.7,9.5c0.2,1.2,0.4,2.5-0.2,3.6c-2.1,1.5-1.9,4.4-3.6,6.1c-2.3-1.4,0-3.8-1.3-5.4
		C47.6,123.1,46.5,117.8,45.1,112.7z"/>
	<path class="st99" d="M58.8,116.4c1.9-1.6,4.1-2.3,6.6-2.2l0.1,0c1.9,2.2,2.8,4.7,1.9,7.6c-1.3,1.8-3.4,1.8-5.3,2.4
		c-1.6,0.5-2.7-0.5-3.1-1.9C58.4,120.4,57,118.4,58.8,116.4z"/>
	<path class="st56" d="M58.8,116.4c-0.6,2.3,0.9,4.2,1.2,6.4c0.1,0.8,0.8,1.5,1.5,0.9c1.6-1.3,3.9-0.7,5.3-2.2
		c1.7-1.6,3.6-2.6,6-1.8c0.5,0.6,1.4,0.7,1.9,1.4c-0.8,2.2-2.9,2-4.5,2.5c-1.4,0.4-2.9,0.6-4.3,1c-2.9,0.6-4.2,2.1-3.4,5.2
		c0.2,0.8,0.2,1.7,0.1,2.5c-0.1,0.6-0.4,1.1-0.8,1.5c-2.5-0.9-2.9-3.5-3.1-5.3c-0.5-4.2-1.9-8.2-2.2-12.3c-0.1-0.9-0.1-1.7,0.4-2.5
		c1.5-0.9,1.4,0.5,1.9,1.2C58.7,115.3,58.7,115.9,58.8,116.4z"/>
	<path class="st99" d="M59.3,108c0.9-0.8,2-0.6,3.1-0.8c3.6,3.7,3.3,4.7-1.5,6C59.7,111.7,59.5,109.8,59.3,108z"/>
	<path class="st100" d="M59.3,108c1.8,1.4,1.8,3.2,1.6,5.2c-0.7,0.5-1.4,1.1-2.1,1.6c-1.1,0.2-0.8-1.2-1.6-1.4
		c-0.1-0.1-0.2-0.3-0.2-0.4c0-0.2,0-0.3,0.1-0.3C57.1,110.9,56.6,108.6,59.3,108z"/>
	<path class="st101" d="M362.4,52.7c3.9-1.2,3.1,2.6,4.1,4.1c1.3,2.2-1.4,1.5-2.2,2.2c-0.7,0.6-2-0.1-2.7,1l-0.3,0.1l-0.3,0
		C360.5,57.4,362.4,55.2,362.4,52.7z"/>
	<path class="st102" d="M343,63.2c-0.9,0.9-2.4,1.1-3.1,0.4c-1.6-1.6-1.5,0.9-2.4,0.8c-1.7-1.8-3.1-3.8-2.2-6.5
		c1.5-0.3,2.9-1.2,4.5-0.9C337.8,59.9,339.2,62.7,343,63.2z"/>
	<path class="st103" d="M523.5,29.3c-1.2,0.3-2.4,0.7-3.7,1c-0.7-0.1-1.5-0.2-2.2-0.2c0-0.2,0-0.5-0.1-0.7c0.5-2.1,0.1-5,3.8-4.2
		C523.1,26,523.5,27.5,523.5,29.3z"/>
	<path class="st104" d="M342.2,65.4c6.2-1.2,12.5-2.5,18.7-3.7c0.7,3.6,3.2,6,6,8c-5.2,2.5-11,2.9-16.5,4.1
		c-0.9,0.2-1.7,0.4-2.6,0.5c-1.9,0.3-4.1,0.6-4.9-1.5C342,70.6,339.8,68.2,342.2,65.4z"/>
	<path class="st105" d="M342.2,65.4c-0.6,2.7,1,4.9,1.7,7.3c0.4,1.2,1.7,1,2.6,0.8c6.9-1.4,13.8-2.4,20.5-4.4
		c0.8-1.3,2.4-1.2,3.4-1.7c-1.6-2.1-3.1-4.2-2.1-7.2c1.1-0.2,2.3-0.5,3.4-0.7c0.2,0.3,0.5,0.6,0.6,0.9c1.9,6.9,2.6,6.3,9.3,4.8
		c1.9-0.4,3.9-0.9,5.8-1.5c2.9-0.4,5.7-2,8.7-0.9c0.2,0.3,0.5,0.6,0.8,1l0,0c0,0.3,0,0.5-0.1,0.8c-1,1-2.5,0.8-3.7,1.3
		c-4.2,1.1-8.5,1.9-12.7,3c-2.2,0.5-3.9,1.1-3.9,4c0,2.1-2.2,2.6-3.1,1.1c-2.3-4-5.4-2.3-8.5-1.8c-5.1,1-10.1,2.4-15.2,3.6
		c-2.1,0.5-3.5,1.1-2.8,3.7c0.4,1.3,0.3,2.5-1.5,2.7c-1.5-0.1-1.9-1.3-2.4-2.4c-0.7-1.4-1.6-2.3-3.3-2.3c-2.5,0-4.7,1.6-7.3,1
		c-0.8-0.3-1.4-0.7-1.8-1.4c0.7-2,2.5-1.5,3.9-1.8c1.4-0.3,2.9-0.4,4.2-1c1.5-1.1,0.9-2.4,0.4-3.6c-0.5-1.5-1.5-2.8-1-4.5
		C339.5,66,340.9,65.7,342.2,65.4z"/>
	<path class="st106" d="M339.9,75.2c-2.9,1.4-6.3,0.8-9.3,2c-2.2,2.2-5.2,2-7.9,2.4c-1.6,0.2-2.7-0.9-3.3-2.5
		c-0.4-2.2-2-4.2-0.7-6.6c5.1-2,10.6-2.2,15.8-3.6C335.8,70.2,336.6,73.5,339.9,75.2z"/>
	<path class="st102" d="M337,64.7c-6,1.2-12.1,2.6-18.2,3.5c-3.1,0.5-2.9-3-3.7-4.8c-1-2.1,1.3-1.8,2.5-2c5.7-1.1,11.2-3.2,17.1-3.5
		C335.1,60.3,333.9,63.2,337,64.7z"/>
	<path class="st107" d="M368.2,60.3c0.5,1.4,0.7,3,1.4,4.2c2,3.3,0.7,4.5-2.7,4.7c-4.5-0.1-6.3-2.3-6-7.4c0.2-0.1,0.5-0.1,0.7-0.2
		C363.8,61.1,366,60.7,368.2,60.3z"/>
	<path class="st108" d="M312.9,71.3c0.2,0,0.5,0,0.8,0c2.4-0.8,3.6,0.7,4.5,2.6c0.7,1.4,1.1,2.9,1.4,4.5c-0.1,2.2-1.5,2.9-3.5,2.9
		c-2.7-1.1-5.4-5-5.2-7.7c0.1-1.5,1.1-1.7,2.2-2.1L312.9,71.3z"/>
	<path class="st109" d="M339.9,75.2c-3.6-0.2-6.4-4.4-5.3-8.2c1.2-0.2,2.4-0.5,3.6-0.7c0.9,2.1,1.7,4.2,2.7,6.3
		C341.5,73.9,341.2,74.7,339.9,75.2z"/>
	<path class="st110" d="M313.8,69.3c-3.1-1-3.4-3.2-0.8-6.2C313.5,65.1,316.8,66.8,313.8,69.3z"/>
	<path class="st111" d="M337,64.7c-4.1-0.2-4.4-1.2-2.3-6.8c0.2,0,0.4,0,0.6,0c0.7,2.2,1.5,4.3,2.2,6.5
		C337.3,64.6,337.1,64.7,337,64.7z"/>
	<path class="st105" d="M318.8,78.3c-0.6-1.5-1.4-2.9-1.8-4.4c-0.5-1.9-1.6-2.7-3.4-2.6c1.5-1.9,3.6,0.9,5.2-0.7
		c0.5,2,1.1,4,1.6,6.1C319.8,77.1,319.7,78,318.8,78.3z"/>
	<path class="st112" d="M48.2,128.4c1.6,1.4,0,3.8,1.4,5.3c1.8,2,2.6,4.3,1.9,7c-1.8,1.4-1.9-1.3-3.2-1.2c-1.2,0.7-0.5,2.6-1.8,3.3
		c-1.1-4.7-1.2-9.6-3.1-14.2c0.4,0.3,0.7,0.6,1.1,0.9c0.9,0.9,1.5,2.7,3,2.2C48.9,131.2,47.8,129.4,48.2,128.4z"/>
	<path class="st113" d="M387.1,64.7c-3.5,1.6-7.4,1.9-11,2.8c-1.6,0.4-2.6-0.5-3.1-1.9c-0.7-2-2-3.8-1.4-6c4.9-1.1,9.8-2.2,14.7-3.3
		c0.1,0.1,0.2,0.3,0.3,0.4C386.7,59.4,386.6,62.1,387.1,64.7z"/>
	<path class="st114" d="M393.1,55.6c1.2,1.2,2.3,2.5,2.4,4.4c-2.1,2.6-3.5,2.8-4.9,0.1c-1-1.9-2.5-2.6-4.1-3.6l-0.2-0.3
		C388.5,55.1,390.8,55.6,393.1,55.6z"/>
	<path class="st115" d="M46.6,142.7c0-0.1,0-0.2,0-0.4c0.3-1.7-0.9-4.2,1.6-4.7c2.4-0.5,1.6,2.5,2.9,3.5c0.2,0.1,0.4,0.2,0.5,0.3
		c2.4,5.4,2.9,11.2,3.2,17.1c-1.8,3.3-3.5,0.4-5.2-0.1c-0.2,0-0.4-0.1-0.6-0.2C48.3,153,47.4,147.9,46.6,142.7z"/>
	<path class="st116" d="M388.6,102.1c-5.2,3.7-10.9,5.1-17.2,4.5c-3.4-0.3-5.7,0.5-5.3,4.5c0.1,0.9,0,1.8-1.1,2.1
		c-1.3,0.3-1.8-0.6-2.1-1.6c-0.4-1.2-1.3-2.2-2.3-2.9c-1.3-1-2.9-1-4.2-0.1c-1.3,0.9-1.1,2-0.4,3.5c2.3,5.3,2.2,5.4,8.3,4.4
		c1.6-0.3,3.3-0.2,3.8,1.4c0.5,1.6-1,2.2-2.3,2.9c-6.1,3.1-13,3.5-19.5,4.7c-3.6,0.7-7,0.2-10.1,2.9c-1,0.9-3.1,1.1-4.6,1
		c-13.8-0.4-26.9,3-40,6.9c-5.1,1.5-10.5,1.8-15.6,3.2c-3.8,1-7.7,2.1-11.4,2.5c-5.9,0.6-11.7,2.8-17.7,1.9c0.2-0.3,0.4-0.6,0.6-0.9
		c0.8-0.9,3.1-0.5,2.6-2c-0.4-1.4-2.4-1.2-3.9-1.6c-4.1-1-7.4,1.6-11.1,2.5c-4.7,1-9.5,0.5-14.3,1.9c-4.6,1.4-9.4,2.7-14.1,3.7
		c-3.7,0.8-7.5,1.2-11.2,2.5c-2.7,0.9-5.3,2-8.3,1.5c-0.8-0.1-2,0.4-2.2-0.8c-0.2-1.4,1.1-1.3,2.1-1.5c1.6-0.4,3.1-0.8,4.7-1.3
		c0.7-0.2,1.6-0.3,1.5-1.3c-0.1-1.2-1.2-1.2-2-1.1c-2.6,0.4-5.2,0.8-7.8,1.5c-0.9,0.2-1.5,0.7-2.3,0c-0.8-0.7-0.6-1.4-0.4-2.3
		c0.7-3,1.4-5.8,5.3-5.8c0.4,0,0.9-0.2,1.1-0.1c5.7,3.8,10.2-2.4,15.5-1.7c0.7,0.1,1.5-0.6,2.1-0.5c4.8,0.9,9.2,0.3,12.7-3.5
		c1.2-1.4,2.9-1.5,4.3-0.1c1.3,1.3,1.1,2.6,0.1,4c-0.7,0.9-0.8,1.8,0.1,2.7c1.1,1,2.1,0.1,3.1-0.1c1.2-0.3,2.2-0.8,2.5-2
		c0.2-1-0.9-1-1.5-1.1c-0.8-0.2-1.5-0.5-1.5-1.4c0-1.1,0.9-1.4,1.8-1.5c1.6-0.3,3.2-0.5,4.8-0.8c2.8-0.5,5.7-0.1,8.5-1.6
		c2.1-1.1,4.2,0.8,3.8,3.1c-0.1,0.7,0,1.1,0.6,1.5c2,1.3,3.1-1.1,4.8-1c0.9,0,1.5-1.1,1.4-1.9c-0.1-1.5-1.4-2.3-2.6-2.9
		c-1-0.6-2.5,0.4-3.5-0.9c2.6-3.3,6.5-4,10-5.5c1-2.3,3.3-1.8,5-2.2c2.9-0.8,6-1.1,9-1.6c5-0.4,10.1,0,15.1-1.3
		c2-0.5,3.4,0.1,3.9,2.3c0.2,0.8,0.1,1.7,1.1,2.7c1.6-7.1,7.1-7.2,12.5-7.4c2.2-0.1,4-0.9,6.1-1.6c5.6-1.9,11.5-2.9,17.3-4
		c4.4-0.8,8.9-1.1,13.3-2.1c3-0.7,6.2,0.1,9.2,0.8c0.6,2.9,0.1,5.8-1,8.5c-0.7,1.8-2.4,2.4-4.4,1.9c-0.7-0.2-1.5-0.3-2.1,0.4
		c-0.2,0.3-0.2,0.7,0.1,1c0.7,0.6,1.4,0.2,2-0.1c2.2-1.4,4.6-1.5,7.2-1.7c3.1-0.2,3.1-0.9,2.3-3.8c-0.7-2.4-2.2-4.1-3.5-6
		c-0.3-2.6,1.1-3.3,3.4-3.1c3.6,0.4,7.2-0.1,10.4-1.9c1-0.7,2-1.4,3.2-1.2c4,1.2,7.8,1.5,12-0.1
		C380.4,101.4,384.5,100.3,388.6,102.1z"/>
	<path class="st117" d="M268.6,120.8c-4.7,1-9.5,1.9-14.2,2.9c-15.2,2.9-30.4,5.8-45.6,8.8c-23,4.5-46,9.1-69,13.6
		c-1.2,0.2-2.5,0.3-3.7,0.4c-0.1-0.5-0.1-1-0.2-1.6c0.1-0.2,0.2-0.4,0.3-0.5c1.1-1.1,2.7-1.2,4.1-1.5c6.9-1.1,13.7-2.5,20.5-4.1
		c20.9-3.7,41.7-8.4,62.6-12.1c2.1-0.4,4.2-0.7,6.2-1.4c37.3-7,74.5-14.8,111.9-21.8c2.4-0.2,4.7-0.5,7-1.3c0.4-0.1,0.8-0.3,1.1-0.4
		c7.2-1.4,14.5-2.8,21.8-3.8c1.2,0.1,2.7,0,3.2,1.6c-1.5,2.8-4.4,2.1-6.8,2.9c-16.1,2.3-32,5.8-48,8.9c-13,2.6-26.1,5.2-39.1,7.7
		C276.7,120,272.6,120.4,268.6,120.8z"/>
	<path class="st116" d="M245.4,144.1c-1.7,2-4.1,2.7-6.6,2.9c-2.4,0.2-4.8,1.2-6.9,1c-7.4-0.7-13.8,3.3-20.9,3.8
		c-4.9,0.4-10,1.8-15,3c-6.5,1.5-12.9,4.6-19.7,4.2c-7.3-0.4-14.2,2.5-21.5,1.6c-1.1-0.1-1.8,0.7-2.4,1.6c-0.9,1.3-1.8,2.7-3.7,2.9
		c-0.9-3.4-4.5-2.6-6.7-4.2c-2.2-1.8-1.5-2,0.1-2.9c3.3-1.9,7.2-2.9,10.6-3c8.1-0.3,15.9-2.4,23.9-3.2c0.6-0.1,1.4-0.2,1.6,0.5
		c0.4,0.9-0.4,1.4-1.1,1.6c-0.9,0.4-1.9,0.5-2.9,0.8c-0.8,0.2-2,0.1-1.7,1.4c0.3,1.1,1.4,0.9,2.2,0.6c1.8-0.7,3.7-0.4,5.6-0.4
		c6.3-0.2,12.5-1.1,18.3-3.6c3.4-1.5,7-0.7,10.5-2.2c5.2-2.2,11.1-3.3,16.5-4.1C232.1,145.3,238.6,142.9,245.4,144.1z"/>
	<path class="st49" d="M135.3,170.3c1.2-2.7,0.4-4-2.6-3.8c-0.7,0-1.4-0.4-2.1-0.5c0.6-0.9,1.4-0.8,2.4-0.6c0.2-0.1,0.1-0.1-0.3-0.1
		c-4.7-0.6-4.7-0.6-2.5-4.9c0.5-1,0.9-2,1.5-2.9c1-1.2,0.6-2-0.8-2.5c-2-0.6-2.8-1.9-2.4-3.9c1.2-4,4.7-2.6,7.4-3.1
		c1.2,4.5,0.5,9.1,0.8,13.6c0.1,1.3-0.5,2.8,0.9,3.8c-1.1,1-0.9,2.3-0.9,3.6C136.7,169.8,136.5,170.5,135.3,170.3z"/>
	<path class="st118" d="M135.9,147.9c-1,0-0.2,2.5-1.9,1.4c-2.4-1.5-3.6-0.1-4.9,1.5c-0.2,0.2-0.3,0.4-0.5,0.5
		c-3.2,3-14.3,3.1-16.8,0.2c0.4-0.2,0.9-0.6,1.3-0.6c8.2,1.2,15.1-3.7,22.9-4.5C136,146.9,135.9,147.4,135.9,147.9z"/>
	<path class="st119" d="M173.3,99.1c0.3,0.2,0.6,0.5,0.8,0.7c-1,1.5-2.6,1.6-4.1,1.9c-1.1,0.1-2.1,0.5-3.2,0.7
		c-2.6,0.4-5,1.4-7.6,1.8c-1.5,0.2-2.4,1.1-2.7,2.6c-0.6,1.1-1.4,0.8-2.2,0.3c-3.5-2.7-6.9-0.7-10.3,0.4c-0.7,0.5-1.4,1.1-2.2,1.2
		c-3,0.2-6.3-0.8-8.6,2.1c-0.2,0.8-0.5,1.7-1.4,2.1c-2.1,0.4-1.8-2.5-3.5-2.5c-0.7-0.6-0.6-1.5-0.6-2.3c2.2-0.2,2.5-1.5,1.7-3.3
		c-0.1-0.3-0.8-1.2,0.4-1.1c0.3,0,0.5,0.4,0.8,0.7c3.6,2,6.8,0.8,9.8-1.5c0.2-0.5,0.5-1,0.8-1.5c1.8,2.2,4.1,2.3,6.6,1.7
		c1.8-0.5,3.5-1.3,5.4-0.9c0.5-0.2,0.9-0.5,1.4-0.7c4-0.8,7.8-2.7,12-1.7c1.3-0.1,2.7,0.5,3.9-0.5C171.4,99.2,172.4,99.1,173.3,99.1
		z"/>
	<path class="st120" d="M166.6,99.8c-4,0.5-7.7,2.8-12,1.7c-0.1-1,0.1-2.2-0.4-2.8c-2.2-2.6-0.6-2.9,1.6-3.2
		c1.6-0.2,3.2-0.3,4.7-0.8c3.8-1.5,5.5,0,5.8,3.7C166.3,98.8,166.5,99.3,166.6,99.8z"/>
	<path class="st121" d="M153.2,102.1c-2.9,1.9-6.2,2-9.5,2.5c-2.1,0.3-2.2-1.7-2.6-3.2c-0.1-2.9,2.3-2.6,4.1-3.2
		C151.2,96.2,151.1,96.2,153.2,102.1z"/>
	<path class="st122" d="M140.4,102.9c0,1,0.2,2.1-1,2.4c-2.2,0.6-4.5,1.1-6.8,1.4c-1.6,0.2-2.1-0.9-1.9-2.3c0.2-1.7-1-3.9,2.3-4.2
		C136,99.8,139.2,98.4,140.4,102.9z"/>
	<path class="st123" d="M606.2,60.1c-0.9,2.3,1,4.4,0.6,6.7c-1.9,2.7-4.5,2.5-7.1,1.6c-2.2-0.8-2.4-2.5-1.8-4.5c0.9-2,0.5-4,0.1-6
		c-0.4-1.8-0.4-3.6,0-5.4c0.4-1.2,0.3-2.4,0.2-3.6c-0.2-2.1,0.7-3.1,2.8-2.2c1.3,0,2.6,0.1,3.7-0.7c3.9,0.4,4.2,1.7,1.3,5.9
		c-0.7,0.6-0.7,1.2,0,1.8c0.9,1.1,0,3.5,2.7,3.4c1,0,0.9,1.3,0.1,2C608.1,59.6,606.9,59.4,606.2,60.1z"/>
	<path class="st124" d="M594.9,30.1c1.6,0.4,1.3,1.7,1.3,2.9c-1.3,1.3-2.7,2.6-2.1,4.7c1.1,0.8,2.5,0,3.7,0.5
		c0.1,0.1,0.2,0.2,0.2,0.3c-1.1,4.9-0.4,10.2-3.1,14.8c-0.5,0.8-0.8,1.6-1.9,1.6c-0.7,0-1.1-0.7-1.1-1.3c0-3.7-2.2-6.4-4.1-9.3
		c-0.1-0.2,0.1-0.5,0.2-0.7c0.3-2,0.5-4,0.8-6c-1-2.2-0.6-4.2,0.8-6C590.9,29.6,593.1,30.3,594.9,30.1z"/>
	<path class="st125" d="M588,43.6c3.8,2.5,4.7,6.4,5.1,10.7c1.1-3.5,4.2-6.2,2.9-10.5c-0.4-1.5,1.2-3.5,1.9-5.3
		c1.8,0.2,1.2,1.3,0.9,2.3c0,0.1,0,0.2-0.1,0.4c-1.5,4.1-1.5,4.1,2.3,5.4c-1.1,0.2-2.7-0.1-1.9,2c0.5,1.4,0.6,2.8-0.2,4.2
		c-2.1-1-2.7,0.4-2.8,2c-0.2,2.9-1.8,4.7-4.2,6c-0.4,0.2-0.7,0.3-1.1,0.3c-1.8,0-3.7,0.6-5-1.2c0-0.4,0.2-0.7,0.5-1
		c1.2-0.7,2.7-0.7,3.8-1.5c1.3-1,0.8-2.5,0.7-3.8c-0.1-1.5-1.4-1.7-2.5-1.7c-2.2,0-4.1-0.2-4-3.1c0.3-1.4,0.5-2.8,2.3-3
		C587,45.1,587.5,44.3,588,43.6z"/>
	<path class="st126" d="M606.2,60.1c0-1.7,2.3-0.8,2.6-2.6c-2.9,0.1-3.4-1.6-2.9-4c1,2,2.1,3.4,4.8,2.3c1.4-0.5,3.3,0.1,5,0.2
		c0.5,0.9,1.1,1.7,1.7,2.6c-0.5,1.5-1.5,2.2-3.1,1.8C611.6,59.7,608.9,60.3,606.2,60.1z"/>
	<path class="st127" d="M609.7,42c0.8-2,1.5-4,2.3-6c1.2,4.9,0.6,9.6-0.7,14.2c-0.9,3.1-1.9-0.1-2.9-0.4
		C608.8,47.2,608.8,44.5,609.7,42z"/>
	<path class="st128" d="M598.7,40.8c-0.6-0.7,0.4-1.9-0.9-2.3c-1.2-0.6-2.8,0.8-3.7-0.8c2.3,0.2,4.4-0.5,6.6-1.1
		c1.9-0.5,3.7-0.1,4,1.5c0.4,1.7-1.8,1.9-3.1,2.4C600.8,40.8,599.7,40.7,598.7,40.8z"/>
	<path class="st129" d="M609.7,42c0.2,2.7,1.1,5.5-1.3,7.8c-1.2,0.3-1.1,2-2.5,2c0.8-2.2,2.7-4.7-1.3-5.9
		C606.3,44.6,608,43.3,609.7,42z"/>
	<path class="st45" d="M624.9,10.9c-2.6,1.8-4.8,4.2-8.2,1c-1.5-1.4-5-0.5-7.5-1C614.4,10.9,619.6,10.9,624.9,10.9z"/>
	<path class="st130" d="M367.6,101.5c2.2-0.6,4.7-0.3,6.7-1.7c2.6-2.5,6.1-1.8,9.1-2.6c7.5-1.9,15-3.3,22.7-4.3c0.9,0,1.8,0,2.5,0.5
		c3.1,2.1,6.1,1.1,9.3,0.1c4.5-1.3,9.1-2.4,13.7-3.1c1.5-0.2,2.5,0.1,3.1,1.8c0.8,2.3,2.1,4.4,2.6,7.7c0.5-2.2-0.4-3.2-0.7-4.4
		c-0.8-3.6,1.9-6.5,5.4-5.2c3.5,1.4,6.8,1,10.2,0c3.5-1,7.2-0.2,10.8-0.8c3.9-0.6,7.8-1.1,11.8-0.1c1.3,0.3,2.7-0.5,4-1
		c1.3-0.5,2.7-1,4-0.6c2.2,0.7,4,0.5,6-0.9c1.7-1.1,3.7-0.9,3.8,1.6c0.1,3.2,2,4,4.6,4.2c1.1,0.1,2.3,0,3.1,1.1
		c-2.7,1.6-5.8,0.4-8.7,1.4c-9.2,2.9-18.8,4-28.2,5.5c-7.5,1.2-14.8,3.5-22.2,5.1c-1.9,0.4-3.9,0.6-5.8,0.7
		c-1.6,0.1-2.2-0.8-2.1-2.4c0.1-1,0.3-2.1,0-2.9c-0.7-2-1.9-3.2-3.7-1c-2.2,2.6-4.7,2.5-7.2,0.8c-1.3-0.9-2.1-1.5-2.4,0.7
		c-0.3,1.8-1.7,1.9-3.1,1.9c-1.7,0-2-1-2.1-2.4c-0.1-1.7-1.5-2.2-2.8-2.6c-1.3-0.4-2,0.6-2.6,1.6c-1.9,2.8-4,3-7.3,1.9
		c-4.3-1.5-9-1.4-13.5,0.1c-5.1,0.3-10.1,0.7-15,3c-2.8,1.3-6.2,0.2-9-1.5C365.4,102.6,367.1,102.8,367.6,101.5z"/>
	<path class="st131" d="M500.4,93.9c-1.5,0-3,0.2-4.5-0.1c-2.4-0.5-5.2-1.1-4-4.8c0.2-0.6,0.2-1.3-0.5-1.6c-0.7-0.4-1.5-0.4-2.1,0.3
		c-1.9,2.4-4,2.6-6.5,1c-0.1-0.1-0.3-0.1-0.4,0c-5,2.7-10.6,0.6-15.7,1.8c-2.5,0.6-5.1,0.5-7.2,0.4c-4.5-0.4-8.5,1.5-12.8,1.7
		c-1.5,0.1-2.7,0.3-4-0.9c-1.3-1.2-3-1.1-4.4,0.1c-1.3,1.3-1.5,2.8-0.3,4.3c0.2,0.3,0.6,0.6,0.6,0.9c0.1,1.3,0.2,2.7,0.1,4
		c0,0.1-1,0.3-1.3,0.1c-1.4-0.7-1.6-2.1-1.6-3.5c0-1.4-0.4-2.5-1.4-3.3c-1.2-0.9-1.2-2-0.1-4.1c-3.4,2.4-6.8,2.3-9.7,2.9
		c-4,0.8-7.9,2.3-12,2.8c-2.3,0.3-3.8-2.4-6.2-2.2c0.4-1.9,2-1.6,3.2-1.9c12.2-2.9,24.6-4.8,36.9-7.2c6.7-1.3,13.4-2.7,20.1-4.1
		c1.5-0.3,2.9-0.5,4.4-0.5c2.3,0.3,3.1,1.4,2,3.6c-1,2.1-0.5,3.2,1.9,2.7c6.5-1.4,13-1.7,19.7-0.9c2.8,0.4,4.5-2.4,6.1-4.4
		c1.1-0.3,1.5,0.4,1.2,1.2c-0.9,3.1,0.9,5.1,2.7,7.1C505.2,92.8,503.2,93.7,500.4,93.9z"/>
	<path class="st132" d="M471.7,81c-13.8,2.6-27.7,5.2-41.5,7.9c-7.9,1.6-16,2.4-23.8,4.8c-10.7,2-21.4,4-32.2,5.9
		c-0.9-0.9-2.2-0.5-3.2-0.8c0.7-1.9,2.5-1.8,4-2.1c12.2-2.3,24.3-5.1,36.5-7c18.5-4,37.1-7.4,55.6-11c11.4-2.4,22.9-4.4,34.4-6.7
		c3-0.7,6.1-1.2,9.1-1.7c7.4-1.4,14.7-3.6,22.2-4.2c2.7-0.4,5.3-1,8-1.5c0.6-0.1,1.2,0,1.7,0.2c0.4,0.2,0.6,0.5,0.7,0.9
		c0,0.4-0.1,0.8-0.4,1c-3.8,0.8-7.5,1.5-11.3,2.3c-7,1.3-13.9,2.6-20.9,3.9c-0.8,1-1.8,1.5-3,1.2c-2,0.3-4,0.6-5.9,1
		c-2.4,2-5.5,1.5-8.3,2.4c-4.1,0.4-8,1.7-12,2.5C478.3,80.6,475.1,81.5,471.7,81z"/>
	<path class="st130" d="M493.6,76.7c2.7-0.8,5.4-1.6,8.2-1.5c0.8,0.8,1.6,1.5,2.2,2.4c0.5,0.7,1.2,2,0.6,2.3c-5,3.3-0.6,6.4,0.1,9.5
		c-2.3-1.6-4.5-3.2-3-6.6c0.2-0.6-0.1-1.2-0.7-1.6c-1.3-1.5-2.6-2.5-5-1.9C494.8,79.6,492.8,79.2,493.6,76.7z"/>
	<path class="st130" d="M507.8,74.2c1-0.4,2-0.8,3-1.2c0.9,0.7,1.7,1.5,1.5,2.8c-0.9,0.3-0.9,1.8-2.2,1.6
		C509.1,76.4,508.2,75.5,507.8,74.2z"/>
	<path class="st133" d="M111.9,151.5c2.5,1.1,5.1,1.9,7.8,0.5c0.5-0.3,1.3-0.5,1.8-0.2c2.8,1.2,5.3,0.3,7.7-1
		c-0.1,1.8,0.2,2.9,2.5,3.2c1.8,0.2,3.9,1.2,1.1,3.5c-1.9,1.6-1.3,4.8-3.9,6.3c2.1-0.1,4,0.3,5.7,1.9c-1.5,0.1-2.7,0.2-4,0.3
		c-1.7,0-3.4-0.1-5.1-0.1c-3.2-0.6-6.5-0.6-9.7-0.1c-0.5,0-1,0-1.5,0c-4.1-0.1-6-3.3-7.5-6.2c-1-2-1.7-3.6-4.1-3.8
		c-0.8-0.1-1.4-0.9-1.3-2c3.2-1,6.9,0,9.9-2.2C111.4,151.6,111.6,151.6,111.9,151.5z"/>
	<path class="st134" d="M101.4,153.9c3.9,1,5.7,3.9,7.5,7.2c1,1.9,2.3,4.5,5.2,4.7c-2.8,0.2-5.5,0.5-8.2,0.7c0.2-0.7,1.8-0.9,0.6-2
		c-0.7-0.6-1.4-1.1-2.1-0.1c-1,1.4-2.3,1.8-3.8,0.7c0.2-0.5,0.5-0.9,0.8-1.2c4.1-4.1,4.1-4.5-0.8-7.9c-0.8-0.6-2.2-1-1.4-2.5
		C100.1,153.5,100.8,153.3,101.4,153.9z"/>
	<path class="st134" d="M115.7,165.8c3.2-1,6.5-1.3,9.7,0.1C122.2,165.8,118.9,165.8,115.7,165.8z"/>
	<path class="st135" d="M624,64.6c-0.5-1.6-0.3-3.2,1.3-4.1c0.9-0.5,1.8-2.2,2.7-1.5c1.5,1.1-0.3,2.1-0.8,3.1
		c-0.7,1.2-0.8,2.6-0.9,4C624.5,67.3,624,66.3,624,64.6z"/>
	<path class="st136" d="M128.3,110.4c1.6-0.7,1.6-0.7,3,2.3c1.6,1.5,1.8,3.6,2,5.7c0.2,1.5-0.4,2.4-2.1,1.9c-1.3-1.9,0-4.5-1.9-6.2
		C129,112.9,128.7,111.6,128.3,110.4z"/>
	<path class="st137" d="M134.5,132.8c-1-3.7-2.3-7.3-2.3-11.2c2.1-0.2,2.4,1.5,3,2.8c0-3.8,1.6-5.1,7.1-5.8c2.5-0.3,4.1,0.8,4.2,2.8
		c-0.4-1.8,0.1-3.8,3-4.4c7.6-1.8,8.3-1.7,10,2.5c-0.3-1.5-1-3.3,1.1-4.3c1.7-0.8,2.7,0.4,3.6,1.8c0.5,0.7,1.1,1.5,2.1,1.2
		c1.1-0.4,0.6-1.4,0.6-2.3c0-0.9,0-1.8,1.2-1.9c3.7,3.2,3.9,7.5,3.8,11.9c-4.9,2.4-10.1,3.3-15.4,4c-6.4,0.9-12.7,2.7-19.1,3.7
		C136.3,133.8,135.3,133.7,134.5,132.8z"/>
	<path class="st138" d="M168.2,114.3c-0.9,0.4-1.1,1.2-0.5,1.7c1.9,1.5,0.4,2.7-0.5,3.2c-1.1,0.7-2.6,0.4-3.6-0.8
		c-0.8-1-0.6-3.6-2.8-2.6c-2,0.9-0.6,2.8-0.4,4.3c0.1,0.7,0.1,1.5,0.1,2.3c-0.3-0.1-0.6-0.2-0.7-0.3c-1.3-1.6-0.9-4.8-3.1-5.3
		c-2.7-0.5-5.4,1.3-8.3,1.4c-1.4,0-1.3,1.5-1.3,2.7c-0.1,1.3,1.1,2.5,0.3,4.1c-2.1-1.6-0.8-6.8-5.6-5.4c-5.6,1.6-5.6,1.6-5.5,8.4
		c-2.4-1.6-1.4-5.2-4.1-6.4c-0.3-0.4-0.6-0.9-0.9-1.3c1.3-0.2,1.5-0.9,1.2-2.1c-0.5-1.8-0.7-3.6-1.1-5.5c0.9-0.6,0.8-1.6,1-2.5
		c2.3,0.9,1.9,3.2,2.5,5c1,3,1.8,3.2,5.8,2.3c3-0.7,1.9-2.6,1.5-4.3c-0.4-1.6-1.5-3.2-0.4-5c0.5-0.5,1.1-1.1,1.6-1.7
		c2.7,2.2,2.2,5.9,3.9,8.7c1.2-4,2.6-4.4,5.9-2c0.5,0.4,0.9,1,1.6,0.5c0.5-0.4,0.4-1.1,0.3-1.7c-0.2-1.9-1.7-3.7-0.4-5.6
		c0.5,0.2,1,0.8,1.5,0c1.7,0,1.6,1.5,2.1,2.6c0.5,1,0.2,2.5,1.6,3.1c2.9-3.9,4.6-4.2,8.2-1.7c1.2-2.1-0.4-3.8-0.7-5.6
		c-0.2-1.1-1.3-2.1-0.8-3.4c1-0.2,2.1-0.5,3.1-0.7c1.4,2.1,1.4,4.6,2.3,6.9c0.9,2.2,2.2,3.1,4.1,1.4c1.6-1.4,3.1-1.2,4.7-0.6
		c1.5,0.1,1.6-0.8,1.3-2c-0.7-2.3-1.3-4.6-2.5-6.6c-0.2-0.3-0.3-0.6-0.3-1c1.2-1.4,2.8,1.2,3.9-0.4c2,1.5,1.8,4,2.4,6.1
		c0.6,2,1.5,2.7,3.5,2.1c1.9-0.5,3.8-1.2,5.9-0.9c1.3,0.2,3,0.2,2,2.4c-0.6,0.6-1.1,1.3-1.3,2.2c-0.3,1.2-0.7,2.6-2.2,2.6
		c-1.4,0-2.2-0.9-2.5-2.3c-0.2-1.2-0.9-0.3-1.3-0.3c-2.1,0.7-1.2,2.4-1.2,3.8c0,1.1,0.2,2.5-1.1,2.9c-1.3,0.4-1.7-1.1-2.2-2
		c-0.5-0.9-0.7-1.9-1.4-2.6c-3.2-0.1-6.1,1.2-9.1,1.8c-0.4,0.9-0.1,1.7,0,2.6c0.2,1.3,0.7,3-1,3.5c-1.8,0.5-2.2-1.3-2.6-2.5
		C170.7,116.1,170.1,114.7,168.2,114.3z"/>
	<path class="st139" d="M101.5,151.6c-1.1,0.7-2.4,0.8-3.7,0.8c-0.9,1-2.2,1-3.4,1.5c-5.7,0.5-10.9,3-16.5,3.5
		c-1.2,0.1-2.4,0.4-3.6-0.3c-1.3-2.8-2.8-5.5-1.9-8.8c1.7-0.1,1.7-0.1,3.3,2.8c-0.2-2-0.4-3.5,0.6-4.9c1-1.3,2.5-1.5,3.9-2
		c6.3-2.5,12.3-2.2,17.9,1.8c0.4,0.3,1,0,1.4,0.1C101.3,147.5,101.6,149.5,101.5,151.6z"/>
	<path class="st140" d="M101.5,151.6c-1.7-1.4-1.1-3.7-2.1-5.3c-2.2-1.2-1.9-3.6-2.6-5.6c-0.1-1.1-0.3-2.2-1.1-3
		c-2.1-2.1-2-4.5-1-7.1c-0.2-3.2-1.4-6.2-2.1-9.3c-0.3-1.3-2.1-3.7,0.6-4.4c2.5-0.7,2,2.1,2.6,3.4c0.7,1.7,0.7,3.6,1.7,5.2
		c0.4,1.2,0.7,2.4,1.1,3.5c2.1,1.9,1.1,4.5,1.4,6.8c0.9,3.6,1.9,7.1,2.7,10.7c0.4,1.6,1.4,3.2,0.3,5
		C102.4,151.6,101.9,151.6,101.5,151.6z"/>
	<path class="st118" d="M94.6,153c0.9-0.9,2.1-0.6,3.1-0.6c3.4,1.7,6.7-0.4,10.1-0.4c1,0,2.1-0.5,3.3-0.4c-2.6,3.5-6.3,2.6-9.8,2.2
		c-0.8,0-1.5,0.1-2.3,0.2c-0.5,1-1.3,1.3-2.3,1.3c-0.6,0-1.1-0.2-1.5-0.6C97.3,153.3,94.7,153.7,94.6,153z"/>
	<path class="st117" d="M134.5,132.8c1,0,2,0,2.9,0c0.9-0.4,1.6-0.4,1.7,0.8c-2.4,1.7-3.2,3.9-2.4,6.8c0.4,1.4,0.5,3-0.6,4.3
		l-0.3,0.3C134.1,141,134.4,136.9,134.5,132.8z"/>
	<path class="st141" d="M99.9,135.9c-1.2-2.1-1-4.5-1.4-6.8c4.4-1,6.5,0.5,6.2,4.6c-0.1,1.3-0.1,4-2.7,1.6
		C100.9,134.3,100.2,134.3,99.9,135.9z"/>
	<path class="st142" d="M74.5,120.9c-0.5-0.2-1-0.5-1.5-0.8c0.2-0.3,0.4-0.3,0.7-0.1c1.2-1.3,2.2-2,4.4-1.6c3.5,0.7,6.3-2.6,9.9-2.5
		c1,0,2-0.2,2.9-0.3c-0.8,2.9-0.9,5.6,0.8,8.5c2.3,3.9,0.8,6.2-3.6,6.5c-1.3,0.1-2.5,0.1-3.1,1.5c-4.1,2.4-2.2,5.8-1.3,8.8
		c0.9,2.7,0.6,3.8-2.4,3.7c-1.1,0-2.3,0.4-3.2,0.8c-5.1,2.2-5.1,0.8-7-2.4c-1-2.1-1.1-4.5-2.1-6.7c-0.3-0.9-1.5-1.4-1.5-2.5
		c0.4-1.1,0.8-2.1,0.8-3.3c0.2-2.6,1-3.9,3.6-1.9c2.8,2.1,5.5,1.6,8-0.5c1.6-1.3,0.3-4.5,3.4-5c-2.9,0.2-4.9-2.7-7.7-1.7
		C75.1,121.3,74.8,121.2,74.5,120.9z"/>
	<path class="st143" d="M71.6,142.6c2.7,3,2.7,3,12.2,0.9c-3-2.4-1.6-6-3-9.1c-0.9-1.9,2.4-2,4.1-2.4c2.7-1.2,5.6,0.8,8.2-0.7
		c2.3,1.4-2.2,1.5-0.5,2.6c1.3,0.9,1.9,2.3,3,3.2c1,0.9,1.3,2.1,2,3.1c0.6,2,1.1,3.9,1.7,5.9c-0.2,0.7,0.1,1.6-0.7,2
		c-0.7,0.3-1.1-0.3-1.5-0.8c-2.6-3.2-9.1-4.6-12.9-3c-1.6,0.6-3.4,0.8-5,1.2c-2.5,0.6-3.6,2-2.4,4.6c0.4,1,1.4,2.2-0.3,2.7
		c-1.4,0.4-1.8-1-2.3-2c-0.5-1,0.1-2.3-1.1-3c-0.8-0.1-1.2-0.7-1.5-1.4c-0.2-0.5-0.3-1-0.4-1.5C71,144.2,70.7,143.3,71.6,142.6z"/>
	<path class="st144" d="M97.7,140.4c-2.8-2.2-4.1-6.4-8.6-6.5c1-1.9,3.9,0.2,4.1-2.5c0.5-0.3,1-0.5,1.6-0.8
		C94,134.4,97,137,97.7,140.4z"/>
	<path class="st145" d="M95.4,154.6c0.5,0,1.1,0.1,1.6,0.1c0.2,0.3,0.2,0.6,0.1,1c-1.7,1.6,0.9,2.7,0.6,4.2
		c-2.1,0.2-3.2,1.6-2.9,3.6c0.3,2.2-0.8,2.7-2.6,2.9c-1.7,0.2-3.5,0.1-3.8,2.6c-0.1,0.7-1.5,0.3-1.4,0.2c1.2-2.2-1.2-4.2-0.3-6.3
		c0.6-1.3,1.6-0.6,2.5,0c1.4,1,2.8,1,3.9-0.5c0.4-0.7,1.1-1.5,0.5-2.4c-0.7-1-1.7-1-2.6-0.3c-1.2,1-2.6,1.2-3.9,0.9
		c-3.7-0.9-5.6,2-5.4,4.3c0.3,4-2.4,5.5-4.3,7.9c-5.2-1.2-10.3,0.4-15.5,0.3c-4.9-0.2-5.5-0.6-6.6-5.2c-0.6-2.4-1.4-4.8-1.5-7.2
		c2.6-3.2,3.1-3.2,4.5,0.3c0.3,0.8,0.8,1.5,1,2.4c1.2,4.1,2.5,4.7,7,3.1c0.4-1.1-0.2-2.2,0.3-3.3c0.2-0.3,0.5-0.5,0.8-0.6
		c1.9,0.1,2,1.5,2.1,2.8c0,1.2,0.5,1.7,1.4,2.1c1,3.6,3,2.1,5,1.1c2-1.8,2.1-4,1.5-6.4c-0.5-1.8-2-2-3.5-1.9c-1-0.1-2-0.2-2.5-1.2
		c0.3-1,1.1-1.3,2-1.4c6.2-0.1,12.1-2.2,18.2-2.9C92.8,154.4,94.1,153.9,95.4,154.6z"/>
	<path class="st146" d="M54.4,159.8c0.7,3.2,1.5,6.3,2.1,9.5c0.4,2,1.3,3,3.5,2.8c4.7-0.4,9.4-0.6,14-0.9c1.5-0.1,2.6,0.1,3.3,1.6
		c0.4,2.2-0.3,3.2-2.6,3.3c-6.4,0.3-12.9,0.8-19.3,1.2c-1.3,0.1-2.4,0.1-2.7-1.7c-0.9-5.7-2-11.4-3.1-17.2c0.1-0.5,0-1.1,0.3-1.4
		c0.8-0.8,1.1,0.1,1.1,0.5c0.3,2.2,1.7,1.9,3.2,1.5c0.2,0.1,0.2,0.3,0.2,0.5C54.5,159.7,54.4,159.8,54.4,159.8z"/>
	<path class="st147" d="M96.8,155.4c0.1-0.2,0.1-0.5,0.2-0.7c0.7-0.2,1.4-0.5,2.1-0.7c1,0.7,2,1.5,3.1,1.9c3.7,1.5,4.3,4.5,1.4,7.3
		c-0.9,0.8-1.7,1.8-3.1,1.9c-0.2,0-0.5-0.1-0.7-0.1c-0.2-2.5-0.7-4.9-2.7-6.7C96.2,157.5,96.2,156.5,96.8,155.4z"/>
	<path class="st133" d="M96.8,155.4c-0.1,1.3,0.5,2.4,1.4,3.3c1.6,1.8,2.4,3.9,1.7,6.4c-1.2-1.5-0.5-3.9-2.2-5.2
		C96.5,158.6,92.8,157.7,96.8,155.4z"/>
	<path class="st148" d="M33.3,135.8c2.4,0.3,4.7,0.9,6.2,2.9c1.6,2.1,3.1,4.4-0.5,6.4c-1.1,0.6-1.9,1.9-2.8,2.9
		c-1.3,0.4-2.3-0.2-2.5-1.4c-0.4-2.2,2-2.5,3.1-4.1c-3.1-0.3-4.1,2.2-3.2,3.6c2.7,4.1,0.2,7.8,0,11.7c0,0.5,0,1-0.4,1.3
		c-0.8,1.6-0.8,3.4-0.8,5.1c-3.4-0.7-3.9-3.6-4-6.2c-0.1-4.2-0.5-8.2-3.3-11.6c-0.4-0.4-0.7-0.8-0.8-1.3c-0.4-2.2,0-4.4-0.3-6.5
		c0.1-0.1,0.2-0.3,0.3-0.4C26.8,136,30.4,137.3,33.3,135.8z"/>
	<path class="st149" d="M24.2,132.9c-0.7,1.7-0.3,3.4-0.1,5.2l0,0c-0.7,1-2.1,1.1-2.9,2.1c-1.3,1.3-0.1,5.1-3.9,3.9
		c-0.7-3.1,0.1-6.1,1.6-8.8C20.1,133.2,21.6,131.6,24.2,132.9z"/>
	<path class="st150" d="M17.4,144.1c3.7-0.2,1.3-3.9,3-5.2c1.1,2.3,2.8,4.1,4.5,6c0,0.5,0,1,0,1.4c-2.9,0-5.6,0.8-8.3,1.4
		c-0.9,0.2-2.7,1.6-3.2-0.7c-0.5-2,1.1-2.4,2.5-2.8C16.4,144.1,16.9,144.1,17.4,144.1z"/>
	<path class="st151" d="M33.1,159.1c0.1-1.2,0.1-2.5,0.4-3.7c0.9-3.1,0.9-5.9-0.5-9c-1.6-3.6,0.1-5.8,3.7-5.4
		c1.1,0.1,2.1,0.4,2.2,1.6c0.1,1.1-1,1.3-1.8,1.5c-2.5,0.8-4.4,1.6-0.8,3.8c0.9,1.3,2.7,2,3,3.8c-3.7-1.6-3.9-1.4-4.5,2.7
		C34.5,156.1,34.4,157.8,33.1,159.1z"/>
	<path class="st152" d="M591.2,60.3c0.2-0.1,0.5-0.1,0.7-0.2c0.7-0.1,0.9,0.2,1.1,0.8c0.4,0.6-1.6,2.3,1,2c1.3-0.2,2.6-0.5,4-0.2
		c0.5,0.2,0.9,0.6,0.8,1.2c-0.4,3.3,0.7,4.5,3.9,4c1.4-0.2,3,0.1,4.2-1c0.3,0.9,0.6,1.9,1,2.8c0.8,1.7,0.4,2.8-1.5,3.4
		c-5.1,1.5-10.4,2.1-15.7,2.8c-1.8,0.2-3.1-2.9-2.3-5c2.1-5.5-1-9.5-6.9-8.9c0-0.1-0.1-0.2-0.1-0.4c-0.1-0.4,0-0.7,0.3-1
		c0.3-0.2,0.6-0.3,1-0.4c1.8-0.5,3.5,0.2,5.1,0.6C589,61,590.1,60.9,591.2,60.3z"/>
	<path class="st153" d="M581.3,60.9c0,0.2,0,0.4-0.1,0.6c-1.5,0.1-2.2,0.6-1.6,2.4c0.7,2.4-0.3,3.3-2.9,3.9
		c-4.6,1.1-8.9,0.3-13.3-0.6c-2.1-0.5-0.5-1.2-0.2-1.8c1.2-0.6,2.3-1.3,2.2-2.9C570.6,60.5,575.9,59.7,581.3,60.9z"/>
	<path class="st154" d="M581.3,60.9c-5.3,0.5-10.6,1-15.8,1.6c-6,1.2-12,2.4-17.9,3.6c-1.5,1.3-3,0.9-4.4,0.1c0-0.3,0-0.6,0-0.8
		c0.4-2.2,2.4-1.7,3.8-2.3c2.2-0.2,4.4-0.6,6.6-1c4.1-1.1,8.3-1.4,12.4-2.1c4.1-1.1,8.3-0.9,12.5-0.8c1.3,0.1,3.1-0.4,3.5,1.7
		C581.8,60.9,581.6,60.9,581.3,60.9z"/>
	<path class="st155" d="M543.1,66.2c1.5,0,3,0,4.4-0.1c-0.3,1.6-0.5,3.1-0.9,5c-1.9-1.2-1.5-3.9-3.6-4.3
		C543.1,66.6,543.1,66.4,543.1,66.2z"/>
	<path class="st156" d="M560.4,80.4c0-2-0.2-3.8-1.2-5.7c-1-1.8-0.4-3.2,2.2-3.4c4.8-0.3,9,1.4,13.3,2.9c0.8,0.3,2.1,0.7,1.8,2
		c-0.2,1-1.2,1.4-2.2,1.9C569.9,80.5,565.1,79.9,560.4,80.4L560.4,80.4z"/>
	<path class="st157" d="M579.6,40c1.5,0.6,3.1,1.3,4.7,1.9c-2.6,2.1-5.8,1.7-8.9,2.1c-13.2,1.3-26.2,3.7-39.4,4.5
		c-0.6,0-1.2,0.3-1.8,0.4c-4.6,0.3-9.1,1.1-13.6,1.8c-23.5,2.6-47,5.7-70.5,8.2c-3.2-0.3-5,0.7-4.3,4.4c0.2,1.1,0.1,2.6-1.5,2.9
		c-1.5-3.2-2.4-6.6-3.9-9.9c2.5,0.5,5,1.4,7.5,0c10.2-1.1,20.5-2.2,30.7-3.4c11.7-1.4,23.4-2.8,35.1-4.2c1.8-0.2,3.7-0.5,5.5-0.8
		c4.3,0.1,8.5-0.8,12.7-1.4c8.9-1,17.8-2,26.7-3.1c6.9-0.9,13.7-1.9,20.6-2.8C579.3,40.5,579.5,40.2,579.6,40z"/>
	<path class="st158" d="M440.4,56.4c3,2.5,4.1,5.8,3.7,9.7c0.1,1.5-0.8,2.2-1.9,2.9c-4.9,3-12.2,0.8-13.9-4.2
		c-0.5-2.5-2.2-4.9-0.7-7.6C431.7,53.5,435.9,53.8,440.4,56.4z"/>
	<path class="st113" d="M428.2,64.7c5.4,5.8,11.2,6.3,15.8,1.4c1.2-0.9,1-2.2,0.9-3.4c-0.4-4.6-0.4-4.6,4.5-4.6
		c3.9,2.2,4.6,3.5,3.9,8c-0.3,2.2-1.1,4.3-2.1,6.3c-2.1,2.4-5.1,1.6-7.7,2.1c-12,2.7-24.1,4.4-36.1,7.2c-2.3,0.5-4.6,1.2-7,0.7
		c-2.1-2.3-1.4-5.1-1.2-7.7c0.1-2,1.3-4-2.5-4.3c-2.1-0.1-2.2-3.6-3.8-5.2c1.1-1.1,2.4-0.5,3.7-0.5c0.7,0.7,1.7,1,2.4,0.5
		c5.6-3.9,12.3-2.1,18.4-3.6c0.8-0.2,1.8,0.1,2.6-0.1C423.8,60.2,426.5,61.3,428.2,64.7z"/>
	<path class="st159" d="M386.5,56.6c2.2-0.3,4.2-0.8,4.6,2.8c0.4,3,2.6,2.1,4.4,0.8c0.8,0.9,0.6,1.9,0.5,2.9c-3,0.6-5.8,1.7-8.9,1.7
		C384.5,62.2,385.4,59.4,386.5,56.6z"/>
	<path class="st160" d="M396.8,63.9c0.3-0.8-0.3-2.2,1.3-2c0.8,0.1,1.7,0.9,1.2,1.8C398.7,65.1,397.7,64.2,396.8,63.9
		C396.8,64,396.8,63.9,396.8,63.9z"/>
	<path class="st10" d="M193.6,87.9c1.7,1.4,3.1,2.9,2.8,5.4c-0.6,0.2-1.2,0.5-1.8,0.7C194.3,91.9,194,89.9,193.6,87.9z"/>
	<path class="st94" d="M194.4,95.9c1.5-0.4,3.1-0.8,4.6-1.1c0.5,1.5,0.2,3.1,0.8,4.5c1.3,4.9,1.5,5,6.3,4.1c1.6-0.3,3.5-0.2,4.8-1.4
		c0.3-3.8-1.1-6.7-4.4-8.7c0.4-0.8,1.1-0.9,1.9-0.9c1.3,0,4.4-0.3,4.9-0.6c0.5,2.1,0.4,4.4,1.2,6.5c0.8,1.9,1.8,2.9,3.9,2.2
		c2.1-0.6,4.4-0.8,6.5-1.3c1.9-0.4,1.7-1.6,1.4-3.1c-0.5-2.1-1.9-3.9-1.9-6.2c0.9-1,2-0.5,3-0.6c1.9,1.5,2.3,3.8,3.1,5.7
		c0.9,2,2,2.7,4,1.9c2.4-1,5-1,7.5-1.6c1.6-0.8,1-2,0.7-3.2c-0.4-1.4-1.3-2.7-0.6-4.3c2.7,1,0.4-2.3,2-2.3c1.9,1.1,2.1,3.3,2.7,5.1
		c0.8,2.6,2.3,3.8,5,2.6c2.3-1,4.8-1.1,7.1-1.8c1.1-1.4-0.1-2.5-0.4-3.8c-0.3-1.2-1.5-2.4-0.3-3.8c1.6,0.2,1.1-1.9,2.4-2
		c1.4,1.6,2.1,3.6,2.7,5.6c0.6,2,1.7,3,3.8,2.4c3.2-0.9,6.6-0.6,9.5-2.5c0.1-2.9-0.7-5.5-3.1-7.3c-0.2-0.2-0.4-0.5-0.5-0.9
		c1.8-0.4,3.6-0.7,5.4-1.1c1.2,1.8,1.1,4,2,5.9c0.5,1,1,2.3,2.3,2c4.7-1,9.6-0.9,14-3.1c0.5-2.2-1.7-4.3,0-6.5c1.1-0.3,0.7-2,2-2.2
		c2.1,2.6,2.9,5.8,4.2,8.8c0.2,0.5,0.3,1.1,0.4,1.6c0.3,1.2,0.8,2.3,1,3.5c0.2,1.4,0.3,2.7-1.7,2.8c-1.1-0.3-1.6-1.1-2-2
		c-0.9-2.3-2.5-2.9-4.7-2.1c-4.5,0.8-8.9,2.2-13.4,3.1c-1.1,0.2-2.2,0.7-3.3,0.8c-1.3,0.1-2.5,0.3-3.8,0.6c-2.3,0.4-4.5,0.9-6.9,1.1
		c-0.3,0.1-0.7,0.2-1,0.3c-4.2,0.7-1,3.7-1.7,5.5c-0.3,0.9-0.8,1.6-1.9,1.4c-1-0.6-1.3-1.7-1.7-2.7c-0.7-2-2.1-2.5-4-1.9
		c-1.2,0.3-2.4,0.6-3.6,0.7c-3.2,0.4-5.8,1-4.8,5.3c0.3,1.2-0.2,2.5-1.9,2.5c-2.1-1.1-1.6-3.8-3.1-5.3c-1.4-1.1-2.4,0.4-3.5,0.6
		c-2,0.9-4.3,0.6-6.4,1.2c-2.2,0.2-2.5,1.5-2,3.5c0.3,1.2,0.9,3-0.9,3.5c-1.8,0.5-1.9-1.5-2.5-2.7c-0.7-1.3-0.9-3-3-2.6
		c-2.1,0.4-3.9,1.6-6.1,1.6c-3,0-4,1.5-3,4.3c0.1,1.1,0.4,2.5-0.9,2.9c-1.1,0.3-1.6-1-2.1-1.8c-0.9-1.3-1.2-3-3-3.6
		c-1.9,0.1-3.6,0.7-5.4,0.9c-3.1,0.5-4,2-2.7,4.8c0.1,1.2,0.5,2.9-0.9,3.3c-1.7,0.5-2-1.4-2.6-2.5c-0.7-1.3-1.2-2.7-1.7-4.1
		c-0.1-0.8-0.4-1.5-0.8-2.1C196.9,102.4,194.8,99.4,194.4,95.9z"/>
	<path class="st161" d="M298.5,84.1c-5.2,2.1-10.9,2-16.1,3.6c-0.8,0.2-1.6-0.1-1.8-0.9c-0.9-2.8-2.7-5.4-1.9-8.5
		c4.4-0.8,8.9-1.6,13.3-2.4c0.9,0.7,1.5,1.7,1.7,2.8C294.1,81.6,295.9,83.1,298.5,84.1z"/>
	<path class="st162" d="M302.4,83.4c-1.6-2.8-3-5.6-3.5-8.8c4.5-1.6,9.4-1.9,14-3c-2,2.4-0.5,7.1,3,8.9c0,0.5-0.1,1.1-0.6,1.2
		C311,82.2,306.9,84.2,302.4,83.4z"/>
	<path class="st163" d="M278.3,87.9c0,0.5,0,1.1-0.6,1.2c-4.1,0.8-8.2,1.6-12.4,2.4c-1,0.2-2,0-2.1-1c-0.5-2.9-2.8-5.3-2.6-8.4
		c4.2-0.9,8.4-1.8,12.5-2.7c0,0.1,0,0.2-0.1,0.4c0.7,1.3,0.5,2.8,1,4.2C274.8,86.2,275.9,87.7,278.3,87.9z"/>
	<path class="st164" d="M259.8,92.5c-3.4,0.9-6.8,1.8-10.2,2.6c-1.7,0.4-2.5-0.6-3-2c-0.9-2.4-1.6-4.9-2.4-7.4
		c3.8-0.5,7.2-2.6,11.1-2.1c1.3,1.1,1.7,2.7,2,4.2C257.6,89.7,258.6,91.1,259.8,92.5z"/>
	<path class="st165" d="M298.5,84.1c-4.7,0.1-5.4-0.7-6.6-8.1c1.8-0.7,3.7-1.6,5,0.8C296.6,79.3,298.9,81.4,298.5,84.1z"/>
	<path class="st166" d="M242.1,88c0.8,2,1.5,3.9,2.2,5.8c0.8,1.9-0.2,2.4-1.9,2.4c-3.4-1.8-4.9-6.6-3-9.7c0.5-0.1,1-0.2,1.4-0.3
		C241.3,86.9,241.7,87.4,242.1,88z"/>
	<path class="st167" d="M259.8,92.5c-1.8-0.1-3-0.6-3.2-2.8c-0.2-2-0.9-4.1-1.4-6.1c1,0,2.2-0.7,3,0.5c0.8,2,1.5,4.1,2.3,6.2
		C260.8,91.2,261.4,92.2,259.8,92.5z"/>
	<path class="st168" d="M239.5,86.6c-0.3,3.6,0.7,6.9,3,9.7c-3.2,0.8-6.5,1.4-9.7,2.3c-1.5,0.4-2.1,0.1-2.6-1.5
		c-0.7-2.6-2.3-5-2.8-7.7C231.3,87.9,235.4,87.2,239.5,86.6z"/>
	<path class="st169" d="M198.1,105.8c0.2,0.6,0.5,1.1,0.7,1.7c-0.3,0.8-0.9,1.1-1.7,0.9c-0.1-0.1-0.3-0.2-0.4-0.4
		c0.7-1.2,0.2-1.5-1-1.5c-2.5-0.1-4.9,0.8-7.2,1.5c-1.7,0.6-2.8,0.3-3.2-1.7c-0.5-2.6-1.3-5.3-1.9-7.9c3.2-1.8,6.8-2.1,10.4-2.4
		C195.2,99.3,195.7,103,198.1,105.8z"/>
	<path class="st170" d="M225.2,99.9c-2.7,0.7-5.4,1.4-8.1,2c-0.7,0.2-1.5,0.2-2.1-0.3c-1.5-1.2-2.6-7.9-1.7-9.9
		c3.2-0.5,6.5-1,9.7-1.5C224.4,93.3,226.3,96.3,225.2,99.9z"/>
	<path class="st171" d="M181.1,109.4c-1.8-0.2-3.3-1.1-4.9,1.1c-0.9,1.2-3.8,1.6-4.5-0.9c-0.8-2.9-2.7-5.6-1.9-8.9
		c1.5-0.3,3-0.6,4.4-1c1.7-0.3,3.5-0.6,5.2-0.8l0,0.4C180.1,102.6,183,105.7,181.1,109.4z"/>
	<path class="st172" d="M199,99.1c-0.7-1.5-1.4-3,0-4.4c2.5-0.2,5.1-0.6,7.5-1.5c2-0.4,3.4,0,4,2.2c0.7,2.5,2.1,4.8,1.9,7.5
		c-2.5,0.9-4.3,0.2-5.2-2.5c-1-2.8-1.6-2.9-3.8-0.6C200.8,102.5,200.6,102.5,199,99.1z"/>
	<path class="st173" d="M225.2,99.9c-0.5-3.3-2.3-6.2-2.2-9.7c0.5-0.1,0.9-0.2,1.4-0.3c2.4,2,2.5,5.2,3.5,7.9
		C228.7,100.5,226.4,99.6,225.2,99.9z"/>
	<path class="st174" d="M198.1,105.8c-2.4-1.1-5.1-6.9-4.4-9.7c0.2-0.1,0.5-0.2,0.7-0.3C196.6,98.8,197.9,102.1,198.1,105.8z"/>
	<path class="st175" d="M575.5,43.1c2.9-0.4,5.9-0.8,8.8-1.1c1.5,0.8,3,1.7,2.3,3.9c-0.8,0.9-1.3,1.9-1.5,3.1
		c-0.4,1.3-1.1,2.4-2.7,2.5C577.2,51.9,573.8,47.8,575.5,43.1z"/>
	<path class="st176" d="M589.6,31.6c-0.1,2,0.1,4.1-0.8,6c-1.2,0.7-2.2,0.3-2.1-0.9c0-2,0.1-4.1,0.9-5.8
		C588.4,29.2,589.3,30.2,589.6,31.6z"/>
	<path class="st177" d="M73.6,120.1c-0.2,0-0.4,0-0.7,0.1c-2.2-0.4-4.1,0.9-6.2,1.3c0-2.5-0.8-4.9-1.4-7.3c2.4,1.2,4,3.9,7.5,2.7
		C73.9,116.6,73.5,118.9,73.6,120.1z"/>
	<path class="st178" d="M66.8,162.9c0.3,1.2,0.6,2.5,0.9,3.7c-2.6,0.5-5.2,2.7-7.6-0.4c-2.8-10.7-4-21.7-7.3-32.3
		c-0.6-2-0.8-4.2-0.2-6.3c-0.8-4.5-1.4-9.1-2.4-13.5c-0.6-2.7,0.4-3.3,2.7-4c2.4-0.7,3,0.1,3.1,2.2c0,0.2,0.6,0.3,0.9,0.5
		c0.1,0.2,0.1,0.5,0.2,0.7c1,6.9,1.9,13.8,4.5,20.3c2.4,2.1,1.8,5.2,2.6,7.8c0.5,1.8,0.7,3.6,1.2,5.4c0.3,2.3,0.8,4.6,1.5,6.8
		c0.2,0.9,0.3,1.8,0.3,2.7C67.5,158.6,66.2,160.7,66.8,162.9z"/>
	<path class="st179" d="M52.7,127.6c2,8.1,4.1,16.2,5.4,24.5c0.8,4.6,2.4,9.1,2.7,13.8c-0.7,0.1-1.4-0.1-1.5-0.8
		c-1.4-6.1-5.1-11.5-5.2-18c0-2.2,0-4.9-2.9-6c0,0-0.1,0.1-0.1,0.1c0.6-2.7-1.4-4.9-1.4-7.5C49.9,131.2,49,128.3,52.7,127.6z"/>
	<path class="st180" d="M74.5,120.9c0.2,0,0.5,0,0.7-0.1c5.4,0.4,5.6,1,5.3,7.5c-2.6,3.4-6.1,3.4-10.9-0.3c-0.1,0.9-0.3,1.7-0.4,2.5
		c-1.8,0-1.7-1.5-2-2.6c-0.4-1.6-1.2-2.9-1.8-4.4C68.3,122.2,71.8,122.9,74.5,120.9z"/>
	<path class="st181" d="M65.4,123.6c1.3,0.1,2.4,0.3,2.5,2c0.1,1.7,0.4,3.4,1.3,5c-0.5,1,1,2.9-1.3,3.2c-0.4,0.4-0.8,0.6-1.2,0.8
		c-3.7,1.7-4.2,1.4-4.8-2.6c-0.1-0.6-0.1-1.2-0.3-1.8C60.3,125.4,60.5,125.1,65.4,123.6z"/>
	<path class="st180" d="M61.8,132.1c0.6,2.5,1.7,3.6,4.2,1.8c0.4-0.3,1.2-0.1,1.8-0.1c0.5,0.7,1.9,0.1,2.1,1.4
		c-0.4,0.3-0.7,0.7-1.2,0.8c-3.6,0.7-4.5,2.9-3.5,6.2c0.4,1.2,0.5,2.4,0.3,3.7c-0.1,0.6-0.4,1.1-0.9,1.4c-1.5-4.4-2.1-9-3-13.6
		C61.7,133.1,61.7,132.6,61.8,132.1z"/>
	<path class="st182" d="M393.1,65.3c2.3-0.2,2.4,1.7,3,3.1c0.5,1.1,0.6,2.8,2.3,0.9c1.4-1.5,2.2-0.2,2.2,0.9
		c-0.1,3.9-0.4,7.7-0.7,11.6c-0.8,2.1-2.8,1.7-4.4,2c-7.7,1.2-15.1,3.8-23,4.2c-3.4-1-6.3-2.1-5.5-6.7c0.3-1.7-1.1-3.2-1.7-4.8
		c-0.6-1.6-1.8-3.1-0.6-4.9c1.3-0.3,2.7-0.5,3.9-1c2.4-0.9,4-0.5,4.7,2.2c0.2,0.7,0.6,1.9,1.7,1.5c1.1-0.4,0.7-1.4,0.4-2.2
		c-0.8-1.8-0.1-2.8,1.8-3.2C382.5,67.7,387.8,66.5,393.1,65.3z"/>
	<path class="st183" d="M364.7,71.6c0.4,2.2,1.4,4.2,2.4,6.2c0.5,1,1.5,2.3,1.2,3c-1.5,4.1,1.3,5.1,4,6.4c0,0.7-0.4,1.3-1.1,1.4
		c-8.6,1.2-16.8,4.3-25.6,4.4c-1.7-1.2-1.5-3.1-1.2-4.7c0.3-2.1,0.1-4.2,0.8-6.2c2.3-0.6,0.9-1.9,0.5-2.9c-0.9-2.3-0.1-3.5,2.3-3.9
		C353.5,74,359.1,72.8,364.7,71.6z"/>
	<path class="st184" d="M332.4,78.2c2.5-0.5,5-1,7.4-1.4c-1,5.4,3,9.4,4,14.2c0.1,0.7,0.8,1.2,0.6,2c-4.2,2-8.8,2-13.2,3.1
		c-3.5,0.9-7.2,1.8-10.9,1.6c-3.4-1.7-4.3-3.7-3.6-8.5c1-1.5,1.6-0.6,2.1,0.4c0.7,1.4,0.9,3.1,2.2,4.4c2-2.5,0.9-5,0.5-7.5
		c1.6-2-0.4-4,0.1-6C325,78.7,328.7,78.1,332.4,78.2z"/>
	<path class="st185" d="M344.5,92.4c-1.6-0.9-6.5-12.7-5.9-14.4c0.2-0.5,0.8-0.9,1.3-1.3c1.9-0.6,3,0,3.7,1.9c0.4,1.1,1,2.2,1.6,3.3
		c1.8,3.5-0.5,6.9,0,10.3C344.9,92.6,344.7,92.6,344.5,92.4z"/>
	<path class="st186" d="M332.4,78.2c-3.3,1.7-7.2,1.1-10.5,2.9c-0.6,0.9-1.4,1.4-2.5,1.6c-1.2,0.2-2.4,0.2-3.6,0.3
		c-3.1,0.4-5.9,1.7-9,2.1c-1.4,0.2-2.9,0.9-4.3,0c-0.1-0.6-0.1-1.2-0.2-1.7c4.5-1,9-2,13.5-2.9c1.5-0.1,2.9-0.2,2.9-2.2
		c0.1-1,0.5-1.6,1.6-1.6c0.3,2.2,1.7,2.3,3.5,1.9c2.2-0.5,4.5-0.9,6.8-1.3C331.4,77.4,332.1,77.5,332.4,78.2z"/>
	<path class="st187" d="M51.3,141.1c1.3-1.5,2.4-1.9,2.9,0.6c0.8,4.2,1.3,8.6,2.4,12.7c1.1,3.9,2.8,7.7,4.3,11.5
		c2,2.9,4.6,0,6.9,0.7c-3.8,3.3-8.1,1.9-9.1-2.7c-0.3-1.4-1.3-2.6-1.7-4.1c-0.6-2.2-1.6,0.5-2.5,0c0-0.2-0.1-0.5-0.2-0.7
		C53.2,153.1,52.2,147.1,51.3,141.1z"/>
	<path class="st188" d="M367.6,101.5c-0.2,1.9-1.4,2.2-3,2.2c-1.1,0-1.8,0.5-2.3,1.5c-3.9,0.6-7.7,1.5-11.6,1.2
		c-2.4-0.2-3.2,0.7-3,2.9c-0.1,0.1-0.2,0.3-0.3,0.4c-10.9-0.5-21.4,2-32,3.9c-6,1.1-11.2,4.7-17.8,3.9c-2.6-0.3-7.9-0.1-7.5,5.8
		c0.1,0.8-0.8,2.3-2,2.3c-1.4-0.1-1.6-1.9-1.6-2.6c0.4-5-1.8-3.4-4.9-2.7c-4.2,0.9-8.7,0.5-13.1,0.7c10.6-2.2,21.2-4.4,31.8-6.5
		c18.9-3.7,37.9-7.4,56.8-11.1C360.6,102.6,364.1,102.1,367.6,101.5z"/>
	<path class="st47" d="M348.1,109.6c1.7,0.9,3.9,1.4,3.1,4.2c-0.1,0.4,0.4,0.9,0.6,1.3c0.5,1,2.9,1.4,2,2.7c-1,1.4-2.8,2.4-4.8,2.3
		c-2.8-0.1-5.5-0.1-7.6,2c-1,0.9-1.9,1-2.9-0.1c-0.7-0.8-1.1-1.8-0.6-2.7c0.6-1,1.6-1.5,2.9-1.3c4.6,0.6,5.5,0,4.9-4.5
		c-0.2-2,1.2-2.5,1.7-3.9l0,0C347.6,109.2,347.9,109.3,348.1,109.6z"/>
	<path class="st130" d="M348.1,109.6c-0.2,0-0.5,0-0.8,0c-1.7-5.3,3.2-4.1,5.1-4.2c3.3-0.1,6.6-1.6,9.9-0.3c-3.5,1.9-7.2,2.7-11,2
		C348.9,106.8,348.1,107.3,348.1,109.6z"/>
	<path class="st189" d="M229.9,126.2c-10.2,2.1-20.4,4.3-30.6,6.4c-11.6,2.3-23.2,4.4-34.7,6.6c-1.2,0.2-2.5,0.3-3.7,0.5
		c-6.1,1.2-12.4-0.5-18.6,0.8c-1.1,0.2-2.5,0-2.8-1.3c-0.4-1.4,0.9-1.9,1.9-2.4c1.9-1,4.1-1,6.2-1.5c9.9-2.5,19.9-4.4,29.9-6.6
		c4.2-0.9,8.3-2.2,12.7-2.6c2.3-0.2,3.8-2.3,5.6-3.6c6.5-2.6,13.5-3.2,20.3-4.6c15-3,30-5.7,45-8.7c0.7-0.1,1.5-0.4,2.2-0.2
		c2.5,0.6-0.1,2.6,1.1,3.6c2.1-0.2,1.7-2.5,2.9-3.5c1.9-1.3,4.1-1.7,6.3-1.9c2.7,1.3,5.1,1,7.4-1c0.4,0,0.7,0,1.1,0.1
		c1.7,1.1,3.3,0,4.9-0.3c2.5-0.4,5-1.1,7.4,0.5c0,0.1,0.1,0.3,0,0.4c-5,2.6-8.8,7.7-15.4,6.4c-3.6-1.6-6.7-0.9-10,2.3
		c-2.5,1.8-5.1,2.6-8.2,1.1c-6.2-3-13.2-1.4-17.4,4c-1.2,1.6-2.3,2.3-4.3,1.6c-2.2-0.8-4.7-0.7-7-0.3
		C229.1,122.4,228.5,123.8,229.9,126.2z"/>
	<path class="st190" d="M411.8,90.7c-13.6,2.8-27.2,5.5-40.7,8.2c-7.4,1.3-14.8,2.7-22.1,4c-1.3-0.7-2.5-1.7-4.1-0.6
		c-0.5,0.4-1.2,0.6-1.8,0.4c-8.3-1.7-16.4,1.3-24.6,0.7c-0.6,0-1.2-0.1-1.8-0.5c-0.3-3.2,2.9-3.3,4.3-5c20.6-4.2,41.2-7.9,61.8-12
		c5.2-1,10.5-2.1,15.8-2.7c2.1-0.4,3.7,0.4,4.7,2.2c1.4,2.6,3.3,3.7,6.3,2.8C411.2,87.9,413.1,88,411.8,90.7z"/>
	<path class="st191" d="M316.6,102.9c4.8-1.1,9.7-0.9,14.5-0.5c1.1,0.1,1.9-0.4,2.8-0.6c2.6-0.6,5.1-2.8,7.8,0c0.9,1,2.3,0,3.4-0.6
		c1.9-1.1,3.4-0.5,3.8,1.8l0,0c-2.3,0.5-4.6,0.8-6.8,1.4c-11.1,2.2-22.2,4.5-33.4,6.6c-20.8,4.1-41.6,8.2-62.4,12.3
		c-5.5,1.1-11,2-16.5,2.9c-1.1-0.3-3.1,0-2.8-1.6c0.5-2.3,2.8-4,4.9-3.9c2.8,0.3,5.8-0.9,8.3,0.9c1,0.7,1.1-0.2,1.5-0.8
		c1.4-1.9,2.8-3.9,4.6-5.3c2.6-2,6.1-1.2,9.1-1.2c2,0,4.4,0.1,6.6,1.9c0.9,0.7,4.7,0.6,6.6-1.4c3-1.8,6.3-2.2,9.7-2.3
		c3.3,0.2,6.1-0.1,8.8-2.8c1.7-1.7,4.6-2.1,7-3.1c3.1-1.7,6.6-2,9.9-2.5c3.5-0.5,7.1-0.3,10.5-1.8
		C315.3,102.1,316,102.3,316.6,102.9z"/>
	<path class="st192" d="M195.9,123.2c-2.2,3.4-5.4,5.1-9.2,4.3c-3.5-0.7-5.6,1.9-8.6,2.4c-10.6,1.8-21,3.9-31.4,6.8
		c-2.2,0.6-4.8,0.2-6.6,2.6c7-1.3,13.9-0.1,20.8,0.4c-8.1,2.4-16.5,3.4-24.8,5c-0.3-2.2-0.5-4.4-0.9-6.6c-0.5-2.9,0.5-4.5,3.6-4.5
		c4.6-2.1,9.6-2.4,14.5-3.4c12.8-2.6,25.6-5.1,38.4-7.7C193.3,122.2,194.7,121.9,195.9,123.2z"/>
	<path class="st190" d="M342.1,104.4c2.1-1.2,4.4-1.6,6.8-1.4C346.8,104,344.5,104.3,342.1,104.4z"/>
	<path class="st193" d="M154.7,106.6c0.5,2,1,4.1,1.6,6.1c0.3,1.1,0.8,2.3-0.8,2.7c-1.1,0.3-2.7,0.7-3-1.1c-0.3-1.8-1.5-1.8-2.8-1.6
		c-0.9,0.1-1.9,0.5-0.6,1.6c1.5,1.3,0.5,1.7-0.7,2.2c-1.6,0.8-2.3,0.1-2.7-1.4c-0.8-2.9-1.5-5.8-2.3-8.6c2.7-1.6,5.9-1.1,8.8-2.1
		C153.9,103.9,154,105.7,154.7,106.6z"/>
	<path class="st194" d="M141.8,108.3c0.7,2.4,1.5,4.7,2.2,7.1c0.6,2.1-0.3,3-2.4,3.2c-1.5,0.1-2.9,0.4-4.4,0.7
		c-1.7,0.4-2.5-0.1-2.9-1.9c-0.5-2.4-1.3-4.7-2-7.1c0.1-0.6,0.2-1.6,0.4-1.7C135.7,108.5,138.7,106.2,141.8,108.3z"/>
	<path class="st195" d="M166.6,101.4c2.3,2.6,2.4,6,3.4,9.1c0.5,1.6-0.5,1.9-1.9,1.3c-1.3-1.3-1.9-3.1-3.2-4.4
		c-0.9-0.9-1.7-1.4-2.9-1.1c-1.5,0.4-1.2,1.6-1.3,2.7c-0.1,1.7,0.4,3.5-0.9,5c-2-0.5-1.7-2.4-2.1-3.8c-0.4-1.2-0.5-2.6-1.5-3.7
		c-0.8-1.4-1.6-2.6,1-3.1C160.4,103,163.5,102.1,166.6,101.4z"/>
	<path class="st196" d="M598.7,63.8c-0.3-0.3-0.6-0.6-0.9-0.9c-1.6-1.1-3.9-0.5-5.3-2.1c-0.2-0.3-0.5-0.5-0.7-0.8
		c2.7-1.8,3.2-4.7,3.6-7.6c0.1-1,0.6-2,1.8-2c1.4,0,1.2,1.4,1.5,2.2c-0.3,2.4-0.1,4.6,0.5,6.9C599.8,61.1,600,62.6,598.7,63.8z"/>
	<path class="st197" d="M586.4,59.3c-0.2,0-0.4,0-0.6,0.1c-2.5,1.6-5.3-0.2-7.9,0.3c-2.2-2.6-2.2-4.4,0.4-7.5
		c2.9-0.6,5.8-0.9,8.8-0.8c1.7,0.1,3.7-0.1,4.2,2c0.6,2.2,0,4.1-2.5,5C588,58.7,587.2,59,586.4,59.3z"/>
	<path class="st198" d="M586.4,59.3c0.7-0.5,1.4-1,2.2-1.4c1.7-0.9,3-2,2.3-4.1c-0.7-2-2.5-2.2-4.3-2c-2.7,0.2-5.4,0.6-8.1,1
		c-5.8,2.9-12.4,2.4-18.5,3.9c-2.8,0.7-5.7,0.5-8.5,1.3c-1.2,0.5-2.4,0.6-3.7,0.3c-1.1-0.1-2.1-0.2-3-0.9c-0.7-2.5,1.3-2.6,2.8-2.9
		c4.1-1.1,8.4-1.5,12.6-1.9c5.2-0.5,10.2-2.4,15.6-1.8c2.2,0.2,4.3,1.3,6.5,0.2c1.5,0.1,2.1-0.9,2.8-2c0.2,1-0.1,2.4,1.8,2.1
		c2.8-0.4,5-0.4,5.1,3.6C592.1,58.9,589.6,59.3,586.4,59.3z"/>
	<path class="st153" d="M577.8,59.3c2.7,0,5.4,0.1,8.1,0.1c1.6,1.5,3.6,0.4,5.4,0.9c-0.9,1.3-1.6,2-3.5,1.1
		c-1.6-0.8-3.8-0.4-5.7-0.5c-4.3-1.3-8.8-0.7-13.1-0.4c-1.1,0.1-2.2,0.3-3.3,0.4c-1.5-3.5-1.3-3.9,2.5-3.5c0.9,0.1,1.7-0.1,2.6-0.3
		C573.4,56.6,575.8,57.2,577.8,59.3z"/>
	<path class="st199" d="M493.6,76.7c0.4,1.6,1.5,2.5,3,1.7c3.3-1.8,4.2-0.1,4.5,2.8c-0.8,3.8-4.1,5.8-7.9,5.1
		c-6.2-1-12.4,0.1-18.5,1.1c-4,0.6-4,0.4-2.6-3.3c0.2-0.7,2.6-2.4-0.3-3C479,79.4,486.2,77.5,493.6,76.7z"/>
	<path class="st200" d="M411.8,90.7c0.2-2.5-1.4-1.9-2.6-1.3c-3.2,1.5-5.2,0.3-6.4-2.8c-0.6-1.8-1.9-2.5-3.7-2.5
		c1-2.5,3.5-1.8,5.3-2.1c14.8-2.8,29.7-5.6,44.5-8.7c6.7-1.4,13.3-2.8,20.1-3.6c1.9,1,4.7,1.3,4.7,3.9c0.1,2.9-2.3,4.4-4.8,5.5
		c-0.5,0.2-1.2,0.1-1.6,0.7c-15.1,3-30.2,6-45.3,9C418.6,89.4,415.4,90.7,411.8,90.7z"/>
	<path class="st201" d="M467.4,79.7c1-0.8,1.9-1.6,2.8-2.3c3.4-2.6,3.3-3.8-0.7-6.8c0-1,0.6-1.4,1.3-1.5c9.2-2.1,18.5-3.9,27.9-5
		c0.2,0,0.5,0.1,0.7,0.2c1.5,1.4,1.4,3.3,0.9,4.9c-0.6,1.9,0.2,2.9,1.5,3.9c-8.6,1.7-17.2,3.4-25.8,5
		C473.2,78.6,470.3,79.2,467.4,79.7z"/>
	<path class="st202" d="M533.3,66.9c-7.5,1.5-15,3-22.5,4.4c-0.6-2.8,0.2-5.2,2.2-7c1-1,1.2-2.4,2.3-3.2c4.7-1.1,9.5-2,14.4-2.2
		c0.3,0.2,0.8,0.5,0.7,0.8C528.7,63.2,530.6,65.2,533.3,66.9z"/>
	<path class="st203" d="M514.6,61.7c0.3,0.6,2,1.2,0.6,1.9c-3.2,1.7-3.2,5-4.3,7.7c-3,0.6-5.9,1.1-8.9,1.7c-2-0.1-4.4,0.3-2.5-3.2
		c0.7-1.4,0.3-3.3,0.3-5c0.3-1,1.1-1.4,2-1.6c1.2-0.3,2.5-0.4,3.7,0c1.8,0.8,3.1,0,4.3-1.2c1.1-0.6,2.2-0.9,3.5-1
		c0.3,0,0.7,0.1,1,0.3C514.3,61.4,514.4,61.6,514.6,61.7z"/>
	<path class="st204" d="M533.3,66.9c-3,0.4-3.9-1.5-4.6-3.9c-0.6-1.9,0-2.9,1.7-3.5c0.1-0.1,0.2-0.3,0.4-0.5c2-1,4.2-0.7,6.3-1.3
		c3.8-0.4,4.4,2.7,5.7,5.2c0.3,1.1-0.2,1.9-1.2,2.5C538.9,66.4,536.1,66.7,533.3,66.9z"/>
	<path class="st155" d="M541.6,65.4c0.5-0.6,0.9-1.3,0.7-2.2c-1.4-4.6-1.4-4.6,3.1-6c1,0,2,0.1,3.1,0.1c-1.3,2-0.3,4.6-1.5,6.6
		c-1.1,0.9-2.8,0.2-3.8,1.5C542.6,65.4,542.1,65.4,541.6,65.4z"/>
	<path class="st205" d="M112.1,154.6c2.6,0.1,5.9,3.9,5.5,6.2c-0.1,0.8-0.7,0.9-1.4,0.7c-3.1-0.6-4.1-3.7-6.1-5.6
		C109,155.1,111.1,154.8,112.1,154.6z"/>
	<path class="st206" d="M501.9,63.9c-0.7,0.3-1.4,0.6-2.1,0.9c-10.1,1.7-20.3,3.1-30.2,5.8c-8.8,0.9-17.4,2.9-26,4.6
		c-14.1,2.8-28.3,5.4-42.4,8.1c-0.7,0.1-1.5,0.1-2,0.8c-11.2,1.4-22.2,3.9-33.3,6.1c-14.9,2.9-29.8,5.9-44.7,8.8
		c-2.4,1.5-5.5,1.4-7.9,3.7c-1.6,1.5-4.6-0.3-7.2,0.2c-7.1,1.4-14.3,2.4-21.4,3.7c-1.1,0.2-2.2,0.2-3.3-0.1l-0.4,0l-0.4,0.1
		c-1.9,2.3-4.5,1.3-6.8,1.5c-2.2,0.6-4.5,1.1-6.7,1.7c-1,0.7-2,0.8-3,0c-11.9,2.4-23.8,4.7-35.7,7c-9.9,1.9-19.7,3.7-29.6,5.6
		c-1,0.2-1.9,0.5-2.9,0.7c-6.2,0-11.9,2.3-17.9,3.3c-13.1,2.3-26.1,4.7-39.2,7.1c-0.5-0.3-1-0.5-1.5-0.8c7.1-1.9,14.4-3.1,21.6-4.5
		c4.3-0.8,8.6-1.9,12.9-2.9c0.6-0.6,1.3-1,2.1-1.1c5.4-1.3,11.1-1.4,16.4-3.2c0.8-0.3,1.5-0.4,2.3-0.5c2.1-0.1,4.2-0.7,6.2-1.2
		c1.5-0.3,3.1-0.6,4.6-0.9c4.2-0.8,8.5-1.7,12.8-2.2c0.5-0.3,1.1-0.5,1.7-0.7c4.6-0.9,9.2-1.8,13.9-2.3c11.1-3,22.5-4,33.7-6.7
		c11.6-2.8,23.4-4.2,35-6.8c0.6-0.1,1.2-0.2,1.9-0.2c2.9-0.1,5.5-1.2,8.3-1.9c3.2-0.7,6.5-0.9,9.8-0.7c8.1-0.9,16-3,23.9-4.5
		c0.2,0,0.5,0,0.6-0.1c9-1.7,18.1-3.4,27.1-5.1c9.2-1.8,18.4-3.6,27.6-5.3c5.7-0.3,11.2-2.2,16.8-3.1c11-1.8,21.8-4.8,32.9-6.1
		c0.5-0.1,0.9-0.4,1.3-0.6c3.5-2.1,7.6-2.6,11.4-3.3c10.9-2,21.8-4,32.7-6.2c1.8-0.4,3.7-0.6,5.6-0.3c0.4,0.1,0.8,0.3,1.1,0.5
		C502.1,63.1,502.1,63.5,501.9,63.9z"/>
	<path class="st207" d="M174.1,125.3c-0.8,0-1.5,0.1-2.2,0.1c-1.6-2-1-4.6-2-6.8c-0.6-1.4-1.2-2.8-1.7-4.2c1.6-0.9,2.7-0.5,3.3,1.3
		c0.5,1.4,0.2,3.2,2.1,4.3c1.2-2.4-1.3-4.5-0.3-6.6c1.9-0.9,3.1,0,4,1.6c1.3,2.1,1.8,4.4,1.7,6.8C179,125,175.6,123.8,174.1,125.3z"
		/>
	<path class="st208" d="M192.9,121.6c-0.7,0-1.5,0-2.2,0.1c-2.3,0.8-4.7,2.1-6.9-0.2c-2.4-2.5-2.2-5.7-1.9-8.8
		c0.1-1.1,1-2.4,2.7-1.5c1,1.7,1.1,3.8,2.6,5.4c0.8-1.3,0.4-2.5,0-3.7c-0.9-2.6,0.2-3.4,2.6-3.2c1.7,2.7,2.8,5.8,4.4,8.6
		C195.2,120,194.8,121.1,192.9,121.6z"/>
	<path class="st209" d="M184.6,111.1c-4.5,2-0.5,5.4-1,8c-0.2,0.8,1.7,4,4.6,3c0.8-0.3,1.7-0.3,2.5-0.5c-3.7,2.4-8.2,1.6-12.2,2.8
		c-1.4,0.4-2.9,0.5-4.4,0.8c0.6-2,4-0.7,4-3.2c0-2.5-0.5-4.8-1.8-7.1c-0.8-1.3-1.7-1.7-3-1.7C177.2,112.7,180.7,111.2,184.6,111.1z"
		/>
	<path class="st169" d="M192.9,121.6c2.6-2,0-4-0.7-5.2c-1.3-2.2-2-4.4-2.3-6.8c0.7-0.3,1.9-2,1.8,0.5c0,1.2,0.8,2,1.7,2.1
		c1.2,0.1,1.7-1.2,1.6-2.1c-0.1-1.4,0-2.2,1.6-2.1l0.2,0.2c2.5,2.2,2.7,5,1.2,7.7c-1.1,2-0.8,3.1,0.9,4.2
		C197.1,121.2,195,121.3,192.9,121.6z"/>
	<path class="st210" d="M159.8,114c0-1.8,0.1-3.7-0.2-5.5c-0.3-1.5-0.6-2.9,1.2-3.2c1.7-0.3,3.8-1,4.9,1.2c0.9,1.7,1.6,3.6,2.4,5.3
		C164.7,109.1,164.7,109.1,159.8,114z"/>
	<path class="st211" d="M181.1,109.4c0.5-3.6-2.9-6.5-1.6-10.1c1.4,0.9,4.7,7.7,4.4,9.2C183.4,110.2,182,109.3,181.1,109.4z"/>
	<path class="st54" d="M66.8,162.9c-1-0.2-2.3-0.6-1.4-1.8c1.1-1.4,0.5-2.9,0.9-4.3c0.9,0,1.7,0.9,2.7,0.6c0.6-0.2,1.2-0.4,1.9-0.5
		c1.2-0.1,2.4-0.6,3.6,0c4.2-0.8,8.5-0.9,12.6-2.6c2.3-1,5-1.3,7.6-1.2c0.6,0.1,1.1,0.2,1.7,0.3c-0.3,0.4-0.6,0.9-0.9,1.3
		c-6.9,2.1-14.2,2-21.2,3.6c-0.9,0.2-2.1-0.2-2.7,1c0.9,1.8,1.2,3.3-1.7,2.7c-1.1-0.2-2,0.1-2.6,1l-0.2,0L66.8,162.9z"/>
	<path class="st212" d="M74.5,156.9c-1.1,0.5-2.3,1-3.6,0.6c-1.9-2.6-2.2-5.6-2.4-8.6c-0.1-1.9,1-3.6,3.5-2.2c0.3,0.4,0.7,0.8,1,1.2
		C72.5,151,74.8,153.7,74.5,156.9z"/>
	<path class="st213" d="M64.8,145.4c-0.2-1.1-0.3-2.2-0.6-3.3c-1.2-5.7-0.4-6.6,5.7-7c0.6,2.5,1.1,5,1.7,7.5c-0.3,0.8,0,1.4,0.4,2.1
		c-0.6,1.6-1.9,1.9-3.3,1.2c-1.2-0.5-1.4-1.7-1.2-2.8c-0.7,0.6,0.3,1.5,0,2.4c-0.3,0.9-0.7,1.7-1.7,1.6
		C64.9,147.1,65.2,146,64.8,145.4z"/>
	<path class="st56" d="M80.5,128.4c0.2-1.8-2.6-3.1-0.6-5.1c-1.5-1-2.9-2-4.7-2.5c1.6-1.4,3.3-0.8,4.7,0.2c1.4,1,2.9,1.5,4.9,1.3
		C81,123,82.7,127,80.5,128.4z"/>
	<path class="st214" d="M64.8,145.4c0.6,0.7,1.1,2.6,2.1,0.3c0.4-0.9,0.2-2.1,0.3-3.7c1.2,2.5,1.9,5.1,4.9,2.7c0,0.6,0,1.3,0,1.9
		c-2.6,0-3,1.3-2.4,3.6c0.6,2.4,0.9,4.8,1.2,7.2c-0.5,0.3-1.1,0.7-1.6,1c-2.2-1.9-1.5-4.7-2.3-6.8c0,0.6,0.2,1.7-0.8,2.3
		c-1.1-2.1-1.5-4.4-1.5-6.7C64.7,146.6,64.7,146,64.8,145.4z"/>
	<path class="st215" d="M67.2,162.8c-0.2-2.2,1.9-3.3,2.8-2.6c2.5,2,0.8-1.3,1.6-1c1,0,1.9-0.1,2.9-0.1c3.5,2.8,3.9,7.5,0.9,9.6
		c-1.7,0.1-3.2-0.6-4.7-1.4c-0.6-0.3-1.9,1.3-1.9-0.9C68.7,165.2,69.3,163.3,67.2,162.8z"/>
	<path class="st216" d="M74.5,168.1c0.9-0.1,2.4,0,1.9-1.4c-0.8-2.5,0.2-5.5-2-7.6c2.7-0.6,3.9,1.3,4.1,3.2c0.3,2.5,1,5.6-2.7,6.6
		C75,169.3,74.3,169.4,74.5,168.1z"/>
	<path class="st217" d="M74.5,168.1c0.4,0.3,0.9,0.6,1.4,0.9c-0.6,1.2-4.7,2.3-5.9,1.4c-1.8-1.4,0.5-2,0.7-3
		C72.2,166.2,73.3,167.4,74.5,168.1z"/>
	<path class="st218" d="M24.9,144.9c-2.9-0.9-5.1-2.5-4.5-6c1.2-0.3,2.4-0.6,3.7-0.8C25.7,140.2,24.8,142.6,24.9,144.9z"/>
	<path class="st153" d="M592.6,60.9c1.8,0.5,4.3-0.5,5.3,2.1c-1.7,1.3-4.1,0-5.8,1.5c-0.2,0.2-1.1,0-1.3-0.3c-0.2-0.3,0-0.9,0.2-1.3
		C591.4,62.2,592,61.5,592.6,60.9z"/>
	<path class="st219" d="M577.8,59.3c-3.1-0.9-6.1-2.7-9.3-0.3c-0.2,0.1-0.5,0.1-0.7,0.1c-2-0.5-2.2-0.4-2.1,1.8
		c-4,0.7-8,1.4-12.1,2.1c-0.3-2.2-1-4.2-2.8-5.7c3.5-1.7,7.4-1.3,11-1.9c5.6-1,11.2-1.7,16.8-2.6C577.3,54.8,577.1,57,577.8,59.3z"
		/>
	<path class="st220" d="M550.7,57.3c3.4,0.7,4.2,2.7,2.8,5.7c-2.2,0.4-4.3,1.4-6.7,0.9c0.5-2.2-2.7-5.3,1.5-6.6
		C549.2,57.5,549.9,58.4,550.7,57.3z"/>
	<path class="st221" d="M501.8,63.1c-8.3-0.2-16.1,2.8-24.2,4.1c-8.9,1.4-17.8,3.2-26.7,4.9c-0.3-2,0.9-3.5,1.4-5.3
		c0.9-3.5-0.3-6.3-2.9-8.6c15.2-1.8,30.3-3.6,45.5-5.4c7.5-0.9,15-1.9,22.5-2.8c1.1-0.1,2.2-0.1,3.3-0.1c1.9,1.6,4.4,2.8,3.7,6
		c-4.9-0.7-8.6,3.2-13.2,3.4c-1.3,0.1-1.9,1-2.4,2C506.8,63.1,504.3,63.1,501.8,63.1z"/>
	<path class="st222" d="M545.3,57.1c-0.1,0.4-0.2,1-0.3,1c-3.6,0.3-2.8,2.8-2.7,5c-1.8-1.4-1.6-5.1-5.2-4.6c0-2,1.7-0.4,2.1-1.1
		c-0.4,0-1.1,0-1.7,0c-2.9-2.5-2.4-6.2-3.4-9.4c4.4-1.2,9-1.2,13.5-1.8c9.3-1.2,18.6-2.2,27.9-3.2c0.1,4.4,2.5,8.3,6.8,7.8
		c-1,0.9-2.2,1-3.5,0.9c-10.9-0.2-21.4,2.5-32.1,3.9C545.9,55.8,544.8,55.7,545.3,57.1z"/>
	<path class="st223" d="M534,48.1c0.8,0.2,2.4,0.2,2,0.9c-1.6,3,1.2,5.3,1,8c-1.7,2.1-4,1.5-6.2,1.6c-1.4-0.1-2.7,0.5-4.1,0.5
		c-1.5-0.6-2.8-1.5-2.5-3.4c-0.2-2.5-3.2-3.4-3.6-5.8C525.1,48.9,529.5,48,534,48.1z"/>
	<path class="st224" d="M300.9,100.6c-9,1.9-18,4.2-27.2,5.2c-2.7,0.3-5.3,1.1-7.9,1.7c-0.1-0.1-0.2-0.2-0.4-0.4
		c-0.5-2.4-1.1-4.9-1.2-7.4c0.8-0.1,1-0.8,1.4-1.3c-0.7-1,0.4-2,0-2.8c-1.2-2.5,0.6-2.8,2.2-3.3l0,0c1.3-0.7,1.9,0,2,1.2
		c0.2,1.9,1.5,3.3,2.2,5c0.4,1,1.1,1.7,2.3,1.4c1.1-0.2,1.1-1.2,1.2-2c0.2-1.2,0.2-2.5,1.1-3.4c1.9,0,1.8,1.8,2.4,2.9
		c0.6,1.2,0.5,2.7,1.7,3.9c0.7-1.9,0.9-3.7,0.9-5.6c0.2-2.1-1.5-4.3,0.3-6.3c4.7-1.3,9.4-2.5,14.2-3.1c2.5,3.9,2.9,8.6,5,12.6
		C301.6,99.4,301.3,100.1,300.9,100.6z"/>
	<path class="st225" d="M265.8,107.5c-8.8,2.2-17.6,3.5-26.5,5.1c-2.4,0.4-4.8,1.1-7.2,1.6c-2.3,0.8-4.4-0.2-4.9-2.1
		c-0.9-3.5-2.2-7.1-0.5-10.7c2.2-1.4,2.7,0.3,3.4,1.8c0.6,1.4,0.5,3.1,1.9,4.1c2.2-2.1-4.3-7.3,2.8-7.5c2.7-0.1,2.3,2.5,3.3,3.8
		c0.7,1,0.9,2.6,2.6,2.1c1.4-0.5,0.8-1.9,0.8-3c0-1.4-0.9-2.9,0.2-4.3c1.2-0.5,2.1-2.3,3.7-0.8c-1.3,3.5,0.8,6.5,1.3,9.7
		c0.1,0.5,0.5,0.9,1,1c0.8,0,1-0.6,1.1-1.2c0.2-1,0.1-2,0.4-2.9c1.1-3.5,2.1-4.2,5.2-3.2c3.7,1.2,3.7,1.2,3.8-2.7
		c0-0.8,0-1.5,0.6-2.1c2.2-0.3,2.2,1.5,2.7,2.8c1,3,2.2,5.8,4.2,8.3L265.8,107.5z"/>
	<path class="st226" d="M320.5,96.9c-6,1.2-12.1,2.4-18.1,3.6c-0.9-3.3,0.7-6.5,0-9.8c1.3,0,1.4-0.8,1.2-1.7c-0.3-1.3-0.7-2.6-1-4
		c4.4-1,8.9-2,13.3-3c0.8,2.1,2.3,4.1,1.5,6.6C317.7,91.7,316.6,95.3,320.5,96.9z"/>
	<path class="st227" d="M226.6,101.3c-0.6,3.1,1.5,5.8,0.8,9.1c-0.4,1.8,2,3.7,4.6,3.7c-4.8,0.8-9.5,1.5-14.2,2.3
		c-1-1.3-0.2-2,0.9-2.5c0.8-0.5,2.9,0.2,2.3-1.4c-0.5-1.5-0.6-3.8-3-4.2c-0.4-0.1-0.7-0.1-1.1-0.1c-1.7-4.6-1.5-5.1,3-5.2
		C222.3,103,224.3,101.4,226.6,101.3z"/>
	<path class="st228" d="M216.9,117.1c-4.5,0.7-9,1.5-13.5,2.2c2.3-4.2,2.3-4.2-0.9-8c-1.6-4.3-1.6-4.3,2.7-5.3
		c2.1-0.5,4.3-1,6.4-1.4c0.8,1.7,1.3,3.5,1.5,5.3C213.4,112.8,214.7,115.2,216.9,117.1z"/>
	<path class="st208" d="M202.6,111.3c0.2-0.5,0.8-1.6,1-1.1c0.8,2,2.8,3.2,3.3,5c0.6,2-1.8,3.2-3.4,4.2c-1.3,1-2.9,0.8-4.5,0.9
		c-3.2,0.1-4.4-0.8-2-3.8c2-2.7,0.8-5.4-0.1-8.1c0.6-0.3,1.3-0.5,1.9-0.8c1.8,1.9,1.5,4.9,3.8,7
		C202.6,113.2,202.6,112.2,202.6,111.3z"/>
	<path class="st229" d="M216.9,117.1c-1,0-2.1,0.1-2.7-1c-1.9-3.6-2.9-7.5-2.5-11.6c2-0.5,2.1,1.2,2.8,2.3c0.7,1.3,0.9,2.8,2.1,3.8
		c0.7-0.8,0.2-1.7,0.3-2.5c1.9-1.7,3.5-2.3,3.8,1.1c0,0.5,0.1,1.1,0.4,1.4c3.5,3.6,1.8,4.2-2.1,3.9c-1.1-0.1-1.3,1-1.3,1.9
		C217.5,116.7,217.2,116.9,216.9,117.1z"/>
	<path class="st230" d="M259,96.1c-0.2,1.4,0.2,2.7,0.6,4c0.3,1.2-0.3,2.2-1.3,2.9c-1.1,0.9-2,0.3-3-0.4c-3.3-2.2-4.5-1.8-5.4,1.8
		c-1,0.3-2.2,1.1-2.1-1c2.6-0.8,1.1-2.6,0.8-3.9c-0.5-2.1-0.2-3.4,2.2-3.6c2.7-0.3,5.3-1.5,8-1.4C259.3,95,259.4,95.6,259,96.1z"/>
	<path class="st231" d="M302.4,90.8c2.9,3.3,0.4,6.5,0,9.8c-0.5,0-1,0-1.5,0.1c-0.6-3.5-3.2-6.1-3.7-9.8c-0.2-1.5-0.8-3-0.9-4.6
		C301.3,83.8,301,88.4,302.4,90.8z"/>
	<path class="st232" d="M276.9,94.6c-0.1,1.1-0.4,2.2-0.3,3.3c0.2,1.6,0.5,3.1-1.6,3.4c-2.1,0.3-3.4-0.6-4.1-2.8
		c-0.7-2.1-2-4.1-3-6.2c2.4-1,5-1.3,7.5-1.4C276.9,91.7,277.9,92.8,276.9,94.6z"/>
	<path class="st233" d="M199,99.1c1.1,1.2,2.1,3.8,3.5,0c0.6-1.6,2.3-2.5,4.2-2.3c1.1,0.1,1.9,0.3,1.5,1.8c-0.8,3.5,1.2,4.3,4.2,4.2
		c-3.3,0.7-6.6,2-9.9,2.1C198.8,105,199.7,101.3,199,99.1z"/>
	<path class="st234" d="M276.9,94.6c-0.5-1.2-1-2.5-1.5-3.7c1.1-0.7,2.4-0.9,3.7-0.8c2.4,1.3,2.2,4.2,3.8,6.1
		c-0.2,1.8-0.5,3.6-0.7,5.5c-0.1,0.7,0,1.6-1,1.7c-1.1,0.1-1.5-0.8-1.7-1.6C278.7,99.4,278.3,96.8,276.9,94.6z"/>
	<path class="st235" d="M259,96.1c0-0.5-0.1-1-0.1-1.5c2-1.5,3.3-0.5,4.1,1.3c0.5,1.2,0.9,2.6,1.3,3.9c2.1,2.2,1.7,4.9,1.4,7.5
		c-2.9,0.4-2.5-2.5-3.5-3.9C260.5,101.3,260.8,98.2,259,96.1z"/>
	<path class="st236" d="M241.7,98.4c0.3,1.9,0.6,3.9,1,5.8c0.5,1.8-0.5,2.6-1.9,3c-1.3,0.4-2.1-0.2-3-1.4c-1.3-1.9-0.9-4.7-3.1-6
		C237.1,99.3,239.4,98.9,241.7,98.4z"/>
	<path class="st237" d="M247.8,103.5c0.3,1.2,1.3,0.8,2.1,1c0,1.1,0.1,2.2-0.1,3.3c-0.1,0.9-0.3,2.2-1.5,2.2
		c-1.1,0.1-2.3-0.5-2.6-1.7c-0.9-3-1.6-5.9-2.2-8.9c-0.3-1.3,0.9-1.6,1.9-1.8C246.9,99.3,247.4,101.4,247.8,103.5z"/>
	<path class="st238" d="M278.3,87.9c-1.2,0.5-2.9,1.5-3.5,0c-1-2.5-3.6-4.9-1.7-8.1c1.9-0.7,2.7,0.4,3.3,1.9
		C277.1,83.7,277.7,85.8,278.3,87.9z"/>
	<path class="st239" d="M282.9,96.3c-2.9-1-2.4-4.1-3.8-6.1c1-0.2,2-0.5,3-0.8C282.4,91.7,282.7,94,282.9,96.3z"/>
	<path class="st232" d="M267.9,92.4c-2.8,1.3-0.4,4.5-2.3,6.1C263.6,92.9,263.6,92.8,267.9,92.4z"/>
	<path class="st240" d="M66.1,154c0-1.9,0-3.8,0-5.7c0.4,0,0.7,0,1.1-0.1c0.7,3.4,1.4,6.8,2,10.2c-2.1,1.5-2.2-0.6-2.9-1.7
		C66.3,155.8,66.2,154.9,66.1,154z"/>
	<path class="st241" d="M317.4,88.6c-0.2-2.3-2.6-4-1.5-6.6c1.2,0,2.4,0,3.6-0.1c2.4,0.5,3.4,1.9,2.5,4.3c2.6,2.8,1.2,5.9,0.5,8.7
		c-0.4,1.7-1.4,0.9-2.3-0.1C318.4,93.2,318.8,90.5,317.4,88.6z"/>
	<path class="st105" d="M321.9,86.3c-0.6-1.6-0.8-3.4-2.5-4.3c0.8-0.3,1.6-0.6,2.4-0.9C322.6,82.8,325.4,84.6,321.9,86.3z"/>
	<path class="st242" d="M281.4,106.5c8-1.9,16.1-3.4,24.3-4.5c2.1-0.3,4.2-2.2,6.2,0.4c0.1,0.2,1.5-0.1,1.7-0.5
		c1.6-3.4,4.9-2.3,7.5-2.9c-1.1,1.7-3.5,2-4.5,3.9c-7.3,2.5-14.9,3.1-22.5,3.8c-3.2-0.2-6.4-0.1-9.5,1
		C283.2,108.2,282.1,108.1,281.4,106.5z"/>
	<path class="st242" d="M278.4,112.6c-2.9,2.2-6.5,1.6-9.7,2.3C271.7,111.2,276,110.2,278.4,112.6z"/>
	<path class="st191" d="M264.1,109.8c1,0,2,0,3,0c0,0.2,0,0.5,0,0.7c0.1,1.9-0.8,3.1-2.6,3.5c-0.9,0.2-1.9,0-2.2-0.9
		C261.7,111.5,263.7,111,264.1,109.8z"/>
	<path class="st242" d="M273.9,108.1c2.3-0.5,4.5-1,6.8-1.5C279,109.9,276.7,110.2,273.9,108.1z"/>
	<path class="st206" d="M526.7,58.5c1.3,0.6,2.4-0.7,3.7-0.4c0.4,0.4,0.4,0.8,0,1.2l0.1,0.2c-5.3,0.7-10.5,1.5-15.8,2.2h0
		c-0.8-1.9,0.6-2.7,1.9-2.9C519.8,58.1,523.2,56.9,526.7,58.5z"/>
	<path class="st202" d="M526.7,58.5c-3.1,0.3-6.1,0.6-9.2,1c-1.3,0.2-2.8,0.4-3,2.2l-0.4,0l-0.3-0.1c-1.6-1.4-3.7,1.2-5.2-0.7
		c0-1.2-1.3-2.9,1.7-2.7c2.4,0.2,5,0,7-2.2c2-2.2,4.7-0.5,7-0.3C525.1,56.6,525.9,57.5,526.7,58.5z"/>
	<path class="st206" d="M508.6,60.9c1.7,0.9,3.9-2.1,5.2,0.7c-1.2,0.3-2.4,0.6-3.6,0.9c-2.7,1.4-5.5,1.3-8.4,0.6c0,0,0,0,0-0.1
		C504.1,62.3,506.3,61.6,508.6,60.9z"/>
	<path class="st201" d="M501.8,63.1c2.8,0.6,5.6-0.8,8.4-0.6c-1.2,1.5-2.3,3.1-4.8,1.6c-0.9-0.6-2.4-0.2-3.6-0.2
		C501.9,63.6,501.9,63.4,501.8,63.1z"/>
	<path class="st243" d="M530.3,59.3c0-0.4,0-0.8,0-1.2c2.2-0.5,4.6,0,6.7-1c1.3,0.2,2.7-0.5,3.9,0.3c-1,1.3-2.9,0-3.9,1.3
		C534.9,59.4,532.7,59.8,530.3,59.3z"/>
</g>
</svg>
