<?xml version="1.0" encoding="utf-8"?>
<!-- Generator: Adobe Illustrator 26.1.0, SVG Export Plug-In . SVG Version: 6.00 Build 0)  -->
<svg version="1.1" id="Layer_1" xmlns="http://www.w3.org/2000/svg" xmlns:xlink="http://www.w3.org/1999/xlink" x="0px" y="0px"
	 viewBox="0 0 525.4 520.8" style="enable-background:new 0 0 525.4 520.8;" xml:space="preserve">
<style type="text/css">
	.st0{fill:#040102;}
	.st1{fill:#040001;}
	.st2{fill:#030202;}
	.st3{fill:#38342B;}
	.st4{fill:#676461;}
	.st5{fill:#69686B;}
	.st6{fill:#6E3926;}
	.st7{fill:#040101;}
	.st8{fill:#5B291F;}
	.st9{fill:#34332C;}
	.st10{fill:#707276;}
	.st11{fill:#6D6D6D;}
	.st12{fill:#3B3730;}
	.st13{fill:#79787C;}
	.st14{fill:#6E6E6E;}
	.st15{fill:#5D462E;}
	.st16{fill:#514840;}
	.st17{fill:#080504;}
	.st18{fill:#050505;}
	.st19{fill:#221F13;}
	.st20{fill:#686467;}
	.st21{fill:#803927;}
	.st22{fill:#D4D3DE;}
	.st23{fill:#9B8E70;}
	.st24{fill:#DAD9DE;}
	.st25{fill:#191717;}
	.st26{fill:#201E1F;}
	.st27{fill:#CDC9D0;}
	.st28{fill:#DEC496;}
	.st29{fill:#797677;}
	.st30{fill:#5E5A56;}
	.st31{fill:#B0ADB3;}
	.st32{fill:#D5BA8E;}
	.st33{fill:#58544C;}
	.st34{fill:#3D2F1E;}
	.st35{fill:#262224;}
	.st36{fill:#CCAF7A;}
	.st37{fill:#DDC9A3;}
	.st38{fill:#A8A8AD;}
	.st39{fill:#876A55;}
	.st40{fill:#84643F;}
	.st41{fill:#7C5E36;}
	.st42{fill:#E0D1BB;}
	.st43{fill:#2B2721;}
	.st44{fill:#6A6663;}
	.st45{fill:#74706E;}
	.st46{fill:#7B7B7C;}
	.st47{fill:#776447;}
	.st48{fill:#A3A1A0;}
	.st49{fill:#6F5434;}
	.st50{fill:#9E855D;}
	.st51{fill:#C1A676;}
	.st52{fill:#7F7B7B;}
	.st53{fill:#A69D95;}
	.st54{fill:#AFADB3;}
	.st55{fill:#F2E5D5;}
	.st56{fill:#64615C;}
	.st57{fill:#13110D;}
	.st58{fill:#373433;}
	.st59{fill:#19100C;}
	.st60{fill:#38342E;}
	.st61{fill:#958F8C;}
	.st62{fill:#0D0908;}
	.st63{fill:#8E7C6D;}
	.st64{fill:#201610;}
	.st65{fill:#807C7F;}
	.st66{fill:#605B53;}
	.st67{fill:#625F5B;}
	.st68{fill:#E8E7E6;}
	.st69{fill:#524C43;}
	.st70{fill:#F2F1EE;}
	.st71{fill:#868270;}
	.st72{fill:#9B8F78;}
	.st73{fill:#7A7060;}
	.st74{fill:#050201;}
	.st75{fill:#18140E;}
	.st76{fill:#906338;}
	.st77{fill:#F7F4F1;}
	.st78{fill:#615E5A;}
	.st79{fill:#D8CFD0;}
	.st80{fill:#AE874D;}
	.st81{fill:#C8B5A8;}
	.st82{fill:#4A2F20;}
	.st83{fill:#CD9A54;}
	.st84{fill:#9E9483;}
	.st85{fill:#8E6A3F;}
	.st86{fill:#A7AFC1;}
	.st87{fill:#BBA380;}
	.st88{fill:#19150F;}
	.st89{fill:#15110D;}
	.st90{fill:#221F1B;}
	.st91{fill:#0E0C0B;}
	.st92{fill:#0D0907;}
	.st93{fill:#706E70;}
	.st94{fill:#14100D;}
	.st95{fill:#050202;}
	.st96{fill:#9D9CA4;}
	.st97{fill:#43403F;}
	.st98{fill:#6A6763;}
	.st99{fill:#22221F;}
	.st100{fill:#8D4533;}
	.st101{fill:#1D1814;}
	.st102{fill:#918E8C;}
	.st103{fill:#5B402A;}
	.st104{fill:#A57E4E;}
	.st105{fill:#E2C99E;}
	.st106{fill:#EBD19B;}
	.st107{fill:#523822;}
	.st108{fill:#AE8E4F;}
	.st109{fill:#844331;}
	.st110{fill:#140C09;}
	.st111{fill:#BBB9B7;}
	.st112{fill:#F6F4F7;}
	.st113{fill:#F0DDA2;}
	.st114{fill:#C49D6D;}
	.st115{fill:#FAF7FB;}
	.st116{fill:#4A3729;}
	.st117{fill:#4C3427;}
	.st118{fill:#886E4B;}
	.st119{fill:#F2E1C5;}
	.st120{fill:#A6885E;}
	.st121{fill:#F5F4F3;}
	.st122{fill:#E4E1E8;}
	.st123{fill:#E6E1E7;}
	.st124{fill:#908A8E;}
	.st125{fill:#4A4137;}
	.st126{fill:#543A25;}
	.st127{fill:#14120C;}
	.st128{fill:#603F2B;}
	.st129{fill:#785434;}
	.st130{fill:#373432;}
	.st131{fill:#B4B0AF;}
	.st132{fill:#0E0A06;}
	.st133{fill:#070403;}
	.st134{fill:#0D0A0A;}
	.st135{fill:#EACA7C;}
	.st136{fill:#C09A7D;}
	.st137{fill:#E6D0B0;}
	.st138{fill:#332015;}
	.st139{fill:#6F3C28;}
	.st140{fill:#594F48;}
	.st141{fill:#C79B50;}
	.st142{fill:#C3B9B6;}
	.st143{fill:#574A40;}
	.st144{fill:#5C5753;}
	.st145{fill:#1B1715;}
	.st146{fill:#1E1B1A;}
	.st147{fill:#5F5D5A;}
	.st148{fill:#403838;}
	.st149{fill:#F3D077;}
	.st150{fill:#E5B57D;}
	.st151{fill:#ECE5EB;}
	.st152{fill:#AFA6AD;}
	.st153{fill:#FDFDFC;}
	.st154{fill:#F4F3EF;}
	.st155{fill:#271B10;}
	.st156{fill:#110805;}
	.st157{fill:#24180D;}
	.st158{fill:#241A0F;}
	.st159{fill:#352A1A;}
	.st160{fill:#4A3823;}
	.st161{fill:#3F2C1C;}
	.st162{fill:#2D261F;}
	.st163{fill:#584941;}
	.st164{fill:#5C5A55;}
	.st165{fill:#0F0A06;}
	.st166{fill:#AD8042;}
	.st167{fill:#53463D;}
	.st168{fill:#8F713B;}
	.st169{fill:#4B4038;}
	.st170{fill:#24120C;}
	.st171{fill:#4B3623;}
	.st172{fill:#312824;}
	.st173{fill:#B9ADA7;}
	.st174{fill:#9F7039;}
	.st175{fill:#533735;}
	.st176{fill:#433F3B;}
	.st177{fill:#938B7C;}
	.st178{fill:#969389;}
	.st179{fill:#442F1E;}
	.st180{fill:#483221;}
	.st181{fill:#0E0906;}
	.st182{fill:#8B6A45;}
	.st183{fill:#311E10;}
	.st184{fill:#261C10;}
	.st185{fill:#382717;}
	.st186{fill:#8E7057;}
	.st187{fill:#543225;}
	.st188{fill:#624130;}
	.st189{fill:#291B0F;}
	.st190{fill:#C7C2C6;}
	.st191{fill:#44301D;}
	.st192{fill:#7A4331;}
	.st193{fill:#EFCD79;}
	.st194{fill:#F3EBD3;}
	.st195{fill:#322D25;}
	.st196{fill:#A4855E;}
	.st197{fill:#F8E2A4;}
	.st198{fill:#F1C577;}
	.st199{fill:#AD7D4B;}
	.st200{fill:#4A3522;}
	.st201{fill:#8A5D42;}
	.st202{fill:#825533;}
	.st203{fill:#DEB76B;}
	.st204{fill:#996B32;}
	.st205{fill:#372519;}
	.st206{fill:#483723;}
	.st207{fill:#867C76;}
	.st208{fill:#63513A;}
</style>
<g>
	<path class="st0" d="M354.2,314.8c-4.9,0.4-9.9,0.8-14.8,1.2c-16.7,2.9-33.6,3.8-50.4,5.8c-14.5,1.8-29.1,2.9-43.6,4.5
		c-24.9,2.6-49.7,5.1-74.6,7.7c14-1.3,28-2.7,41.9-4.2c17-1.9,34-3.9,51-5.5c21.7-2,43.2-5,64.9-6.4c1-0.1,2-0.1,3-0.4
		c4.2-1.1,4.7,0.9,3.6,4.3c-0.5,0.1-1.1,0.2-1.6,0.3c-4.9,2.4-10.4,2.5-15.6,3c-19,1.8-37.9,4.4-56.9,5.9
		c-21.5,1.7-42.8,5.2-64.4,6.5c-9.6,0.6-19.1,2.3-28.7,2.9c-1.2,0.1-2.3,0.3-3.1,1.3c-1.5,4,0.4,7.8,0.7,11.7
		c-0.4,15.3-1.1,30.6-0.9,45.9c0.1,4.2,0.3,8.3,0.2,12.5c-0.1,1.5,0,3-0.2,4.5c-0.4,2.5-1,5.8-3.8,5.6c-2.5-0.2-1.9-3.5-1.9-5.5
		c-0.1-12.7,0-25.3-0.1-38c0.2-17.9-0.8-35.7,0-53.6c0.2-4.4,0-9.1,4.2-12.2c6.4-2.5,13.3-2.5,19.9-4.1c3.9-0.9,7.8-1.7,10.5-5.1
		c9.6-9.5,11.8-21.2,10.3-34c-1.3-3.9-1.8-7.9-2.6-11.9c0-5-0.9-10.1,3.1-14.2c12.2-1.8,24.4-2.5,36.6-3.6
		c14.5-1.3,29.1-2.2,43.6-3.6c9.7-1,19.5-1.9,29.3-2.4c5.6-0.3,11.2-0.7,16.8-1.6c1.2-0.3,2.4-0.3,3.6-0.3c4-0.2,8.1,0.5,12.1-0.7
		c0.6-0.1,1.2-0.2,1.8-0.3c0.8-0.1,1.7,0,2.5-0.2c7.2-1,7.3-1,7.1,6.5c-0.4,22.1,1.6,44.1,1.1,66.1c0,2.2,0,4.3,0,6.5
		C358.7,312.7,357.6,314.7,354.2,314.8z"/>
	<path class="st1" d="M514.3,277c-0.7,3.3-3.1,4-5.9,3.6c-7.3-0.9-9.9,3.8-12.6,9.4c-4.5,9.4-3.3,19.4-4.2,29.2
		c-1.7,17.5-2.7,35.1-4.1,52.7c-0.2,2.7,0.2,5.3,1.2,7.8c2.4,6.2-0.4,12.4-0.7,18.5c-0.1,1.6-2.9,1.7-4.7,1.8
		c-0.6,0.5-1.3,0.9-2.1,1.1c-3.2-0.1-6.4-0.5-8.8-3.1c-1.3-4.6-1-9.3-0.5-13.9c1-8.5,1.1-16.9,0-25.3c-0.1-0.8-0.2-1.7-0.2-2.5
		c0.5-19.8-0.9-39.5-1-59.3c0-3.3,0.1-6.6,1.4-9.8c1.2-2.9,3.1-5.9,6.1-6c4.9-0.1,8-3.6,12.2-4.8c1-0.3,2-0.7,1.5-2
		c-0.5-1.1-1.6-0.9-2.6-0.7c-0.5,0.2-1.1,0.3-1.6,0.5c-9.9,3-20.3,3.1-30.4,5c-3.3,0.6-6.7-2.1-10.1-0.1c-15.3,2.6-30.6,5.3-46,7.9
		c-5.7,0.8-6.5,0.2-6.5-5.4c0-10.8,0.1-21.6,0-32.4c1.3-11.9,0.6-23.9,1.3-35.8c0.9-3.8,3.6-5.2,7.1-5.9c10.6-2,21.4-2.1,31.9-4
		c11.9-2.2,23.9-2.7,35.8-4.6c6.8-1.5,13.7-1.9,20.6-3.1c4.1-0.4,8.2-1.2,12.4-1.3c2,0,4-0.1,5.6,1.4c1.2,1.8,1.1,3.8,1.1,5.8
		c-0.6,19.5,1.6,38.9,1.1,58.4c-0.1,3.1,0,6.3,2,9.1C515.4,271.6,514.1,274.4,514.3,277z"/>
	<path class="st2" d="M256.6,390.9c-2,9.6-1.3,19.5-3,29.2c-1.2,7-0.4,14.4-1.3,21.5c-0.8,6.8-1.8,13.5-1.9,20.3
		c-1.2,2-0.4,4.2-0.6,6.3c-0.1,1.1,0.5,2.7-0.4,3.4c-3.7,3.2-8.2,1.8-12.4,1.6c-3.1-0.1-4.1-2.5-4.1-5.2c-0.1-10.3,0-20.6-0.1-30.9
		c0-2.3,0.2-4.7-0.6-6.9c-0.8-7-0.2-14.1-0.4-21.1c0.1-10.1,0-20.1,0.6-30.2c0.1-2.3,0.9-3.6,2.4-3.8c-0.2,0.1-1.2,0-2.2,0
		c-0.5-0.1-0.9-0.3-1.3-0.6c-0.4-4.6-0.8-9.2-6.6-10.5c-2.2-1.2-4.1-2.8-5.8-4.7c-1-1.8-2.1-2.7-4.4-2.2c-2.9,0.6-6,0.1-9,0.4
		c-4.4,0.4-7.4-1-8.8-5.4c-1.3-1.9-3.7-1.6-5.5-2.5c-0.1-0.1-0.3-0.2-0.4-0.3c-3.9-4.8-4.6-4.7-6.9,1.1c4.3,3,4.7,7.3,4.7,12.1
		c-0.1,7.4-0.7,14.8,0.4,22.2c0.2,0.5,0.2,1.1,0.3,1.6c0.1,1.4,0,2.8-0.3,4.2c-1.1,5.7-0.5,11.5-0.5,17.3c-0.1,10.4,0,20.8,0.1,31.2
		c0,2-0.8,5.1,3.1,4.8c3.6,0.6,2.1,3.7,2.9,5.8c0.2,0.4,0.4,0.7,0.7,1.1c2,0.2,4,0.4,3.8,3.2c-0.4,5.1-2.9,9.7-3.6,14.8
		c-0.3,2.6-2.3,4.2-5.4,3.9c-1.8-0.2-3.6-0.4-5.4,0.3c-2.2,0.1-4.3,0.2-6.5,0.3c-3.4,0.8-3.4-1.8-3.6-3.8c-0.5-4.4,0-8.8,0-13.2
		c0.1-3.1,1.9-6.3-0.9-9.2c-0.5-0.7-1.2-1.7-0.9-2.3c4.8-6.8,2.5-14.8,3.3-22.2c1-9.7,0.5-19.6,0.3-29.5c-0.7-11.3,1.2-22.5,1-33.7
		c-0.1-6.6-0.6-7-7.1-6.7c-1.3,0.3-2.5,0.9-3.8,0.9c-1.1,0-1.8-0.8-2.6-1.5c-1.6-3.5-1.3-7.3-1-11c4.6-1.7,9.5-1.3,14.2-1.8
		c18.1-2.2,36.3-3.9,54.4-5.9c17-1.9,34-3.5,50.9-5.2c4,1.5,6.8,5.9,6.6,10.5c2.4,0.8,4.6-1.9,7.1-0.4c-0.3,7.5-0.7,7.9-7.7,9
		c-13.4,2.2-22.7,8.9-28.7,21.8C256.7,376.5,258.1,383.7,256.6,390.9z"/>
	<path class="st3" d="M509.2,80c7.4,9.5,6.8,17.3-2.6,27.4c-10.4,11.3-21.8,21.4-33.4,31.4c-21.9,18.9-47.7,27.7-75.9,31.3
		c-4.5,1.6-8.9,3-13.7,1.5c-2.1-2.8-0.2-4,2-5.1c16,0.4,29.7-5.2,41.7-15.5c9-5.7,14.7-14.2,19.5-23.4c8.1-15.4,13.3-31.9,18.8-48.3
		c0.9-2.8-0.6-5.6,1.1-8C481.6,71.3,496.2,71.9,509.2,80z"/>
	<path class="st4" d="M164.3,313c-4.1,2.2-3.9,6.5-3.9,10.1c-0.2,18.2-0.1,36.5-0.1,54.7c-1,6.1-0.1,12.3-0.4,18.5
		c-2.8,1.8-0.8,6.4-4.5,7.7c0.1-16,0-31.9,0.3-47.8c0.1-3.7-0.8-5.6-4.5-7c-13.7-5.2-27.3-10.6-40.7-16.4c-4.4-1.9-6.5-1.8-7,3.3
		c-3.4-7.9-11.5-8-17.9-11c-1.5-0.7-2.5,0.4-2.7,2c-0.2,1.5-0.1,3-0.1,4.5c-0.6,21.1,0.8,42.1,1,63.2c0,3.8-0.2,7.6-1.2,11.3
		c-0.8,3.1-0.9,6.2-0.5,9.4c0.5,3,0.5,6-0.4,8.9c-0.3,0.6-0.8,0.8-1.4,0.6c-1.9-2.1-6.3-1.9-6.7-4.6c-0.8-5.5-1.7-11.7-0.2-16.8
		c2.4-7.7,1.6-15.1,1.3-22.6c-0.7-18.6-1.7-37.1-2.5-55.7c-0.6-2.2-0.8-4.3,1.7-5.6c0.8-0.4,1.5-0.9,1.7-1.8c1.4-6.6,6.5-6,11.4-5.7
		c5.3,0.4,10.5,0.8,15.6,2.8c4.6,1.8,9.5,0.1,14.4,0c-1.5-4.6-1.1-4.9,4.8-5.3c8.1,1.3,15.1,5.6,22.8,8c1.4,0.4,2.8,1.1,4.2,1.5
		c1.9,0.7,3.1,0.3,3.6-1.9c0.5-2.3,1.3-4.4,2.6-6.4c1.7-1.7,3.5-3.1,6.1-2.6C162.6,309.5,166.8,308.9,164.3,313z"/>
	<path class="st5" d="M147.6,152.9c6.9-0.6,13.2,2,19.8,3.1c0.5,0.5,1.3,0.7,1.9,1.1c2.7,2.4,5.6,4.8,1.5,8.5
		c-1.1,1-0.9,2.4-0.5,3.7c0.4,1.3,1.3,2.7,0.7,3.9c-2.6,5.3-5.4,10.5-7.3,16.1c-0.2,0.6-0.9,1.2-1.5,1.2c-5.2,0-6.4,3.9-8.5,7.6
		c-3.5,6.4-7.1,12.9-13,17.6c-1.8,1.4-3.4,2.6-5.8,2.5c-8.7-1.9-17.1-4.9-25.7-7.4c-1.3-0.4-2.5-0.9-3.2-2.2
		c-0.6-2.9,0.5-4.9,3.3-5.8c3.2-1,4.6-3.2,4.2-6.4c-0.4-3.3,1.2-5.4,3.9-6.8c5.6-3,9.2-8,12.3-13.3c1.1-1.9,2.1-3.8,3.8-5.1
		c0.5-0.4,1.2-0.9,1.3-1.5c1.3-4.6,3.5-9,5-13.4c1.2-3.3,1.9-4.1,4.8-3.8C145.6,152.6,146.7,152.4,147.6,152.9z"/>
	<path class="st6" d="M411.3,171.1c9.3,0.1,18.6-0.2,27.9,0.9c2,2.1,4.6,1.3,7.1,1.5c1.2,0.1,2.9-0.6,3.2,1.4
		c0.2,1.6-1.2,2.2-2.4,2.8c-2.3,1.1-5.1,1.1-8.1,2.9c3.7,1.5,7,2,9.8,3.8c1.9,1.2,3.5,2.6,3.1,5.2c-0.4,2.5-2.4,3.4-4.5,4.1
		c-6.2,1.8-12.7-1-15.4-6.6c-1.8-3.9-9.5-7.5-13.5-6.4c-1.9,0.5-1.8,1.5-0.9,2.9c2.6,4.6,2,6.3-3.1,8.3c-6.1,2.4-12.5,3.3-18.8,4.8
		c-4.7-0.4-9.3-2.6-14.1-0.7c-6.5,0.6-12.9,1.9-19.4,2.3c-6.3-0.5-12.4,1.4-18.6,1.3c-0.9-0.2-1.6-0.7-2.2-1.3
		c-2.1-7.4-5-14.7-4.4-22.6c3.5-1.7,7.2-1,10.8-1.1c8.1-0.3,16.2-0.5,24.1-2.5c3.6-0.8,5.3,0.9,5.5,4.4c0,0.7,0,1.3,0.1,2
		c0.3,2.2-0.5,4.9,2.6,5.7c1.5,0.4,3.3,0.6,3.9-1.1c1-2.5,1.2-5.1-0.8-7.4c-0.7-0.8-2.4-1.2-1.9-2.5c0.6-1.4,2.2-1.1,3.5-1.2
		c2.3-0.1,4.6,0.4,6.8-0.8C398.3,170.9,404.9,172.3,411.3,171.1z"/>
	<path class="st7" d="M81.3,425c-0.5-5.9-1.7-11.8-0.5-17.7c2.2-10.8,1.1-21.5,1.1-32.3c0.1-16.6-0.2-33.3-0.5-49.9
		c0-2.7,0.8-3.1,3.2-2.1c5.4,2.2,10.8,4.5,16.3,6.4c3.8,1.3,1.6,4.6,2.5,6.8c-1.9,18.5-3.7,37-5.6,55.4c-0.4,4.3-0.3,8.3,0.9,12.7
		c1.6,5.5,0.1,11.6-0.7,17.2c-0.5,3.2-4.6,1.6-6.8,2.7c-0.8,1.2-0.1,3.7-2.5,3.4C86.1,427.2,82.8,428.5,81.3,425z"/>
	<path class="st8" d="M396.3,195.9c5.8-1.6,11.7-3.1,17.4-4.9c5.6-1.8,5.9-3,2.1-7c-0.7-0.7-1.6-1.5-1.1-2.5
		c0.7-1.4,1.9-2.6,3.5-2.4c4.4,0.6,8.9,1.1,12.8,3.4c1,0.6,1.7,1.5,2.1,2.7c2.5,6.6,8.5,9.4,15,7c1.5-0.5,2.8-1,3-2.8
		c0.2-1.7-0.7-2.8-2.2-3.5c-2.4-1-4.5-2.8-7.3-2.9c-1.9-0.1-4.3-0.5-4.5-2.3c-0.2-2.1,2.5-2.1,4.1-2.7c2.5-0.9,5.5-0.6,7.8-2.8
		c-3-3-7.7,1.3-9.8-3.1c10.6,1.2,21.2,0.9,31.7,3c7.4,1.5,14.9,2.8,22.4,4.2c1.6,0.5,3,1.2,0.9,2.8c-1.5,1.1-2,2.3-1.2,4.3
		c2.1,4.8,0.3,7.4-5,7.6c-0.8,0-1.7-0.1-2.4-0.5c1.9,1.3,5.5-0.2,5.7,3.7c-6.6,1.6-13.3,2.2-20,2.9c-9,0.4-17.9,1.2-26.7,2.5
		c-2.5,0.1-1.4-2.7-2.7-3.6c-2.9-1.2-5.8-0.7-8.7,0c-0.7,0.2-1.5,0.2-2.2,0.2c-6.9-4.7-14.1-1.9-21.3-1
		C405,197.9,400.1,200.2,396.3,195.9z"/>
	<path class="st9" d="M447.3,279.1c3.9-2.7,8.3-0.6,12.5-1.4c9.5-1.8,19.1-3.1,28.6-4.6c0.4,0.2,0.4,0.9,1,0.9
		c-0.3-0.3-0.7-0.6-1-0.9c1.5-1.8,3.4-1.4,5-0.6c1.4,0.6,1,2.4,0.8,3.6c-0.3,2.4-2.4,1.7-3.9,2c-0.8,0.1-2.2,0.3-2.3,0.5
		c-0.3,5.6-4.3,3.2-7.1,3.4c-5.2,0.4-8.5,4.5-8.5,11.6c0,8.6-0.3,17.2,0.7,25.9c0.8,6.6,0.2,13.3,0.2,19.9c0,9,0.5,17.9,0.8,26.9
		c0.4,10.8-0.4,21.5-0.8,32.3c0,0.5-0.2,0.8-0.7,1.1c-0.7,0.3-1.3,0.4-2,0.3c-2.4,0.1-3.5-2-5.2-3c-0.8-7-2.3-13.9,0.1-21
		c1.4-4.1,0.1-8.6-0.2-12.9c-1.8-22.3-3.6-44.7-6-67c-0.6-5.5-3.1-10.7-5.8-15.7C451.9,277.4,449.3,279.8,447.3,279.1z"/>
	<path class="st10" d="M147.6,152.9c-2.1,0.1-4.2,0.2-6.8,0.3c2.1,4.1,1.1,6.9-2.9,8.5c-1.1,0.4-1.8,1.3-0.8,2.3
		c2.4,2.5,0.6,4.5-0.9,6c-5.2,5-7.6,12.1-12.9,17.1c-1,0.9-1.9,1.8-3.1,2.4c-3.6,1.6-6.7,3-5.3,8.4c0.6,2.4-1,6.1-5.1,6
		c-2.9,0-2.5,2.6-3.5,4.1c-2.4,1.7-4.8,0.3-7.1-0.3c-2.4-0.5-4.7-1.5-7.1-2.2c-6.3-2.2-6.6-2.9-3.9-9.3c0.4-0.7,0.8-1.3,1.2-1.9
		c-0.2-0.7,3.4-2-0.4-2.2c-2.7-0.1-5.6,0.9-7.9-1.3c3.2-1.3,6.6-1,9.8-0.9c4.1,0.2,6.8-1.6,9.2-4.7c5.6-7,9.4-14.9,12.2-23.3
		c0.6-1.9,1.3-3.8,2-5.6c1.6-4.6,4.1-6.8,9.4-4.8c4.2,1.6,8.9,0.4,13.4,0.6C140.7,152.3,144.2,151.7,147.6,152.9z"/>
	<path class="st11" d="M122.4,310.9c-0.2,0-0.3,0-0.5,0c-1.7,0.4-4.1-1-5,1c-0.8,1.9,2.6,1.7,2.7,4.2c-6.7-0.2-13.3,2.3-20.1-0.5
		c-6.3-2.7-13.1-2.5-19.8-1.6c-0.5,0.1-1.4,0.3-1.4,0.3c0.8,5.2-6.1,6.2-6.1,11c0.9-7.9-4.5-9.9-10.4-12.2
		c-12-4.7-23.8-9.8-35.6-14.8c0.1-2.9,2.3-2.4,3.9-2.2c3,0.5,5.4,0.5,7.3-2.5c1.2-1.9,3.6-1.4,5.5-1.4c2,0,3.8,1.1,5.9,1
		c1.1-1.8-3-2.9-0.8-4.5c1.6-1.2,3.5-0.1,5.2,0.5c11.1,3.9,21.6,9.2,31.9,12.4c-5.2-2.7-12.4-3.3-18-7.7c-0.1-0.5,0-0.9,0.4-1.3
		c2.6-1.1,5.4,0.1,8.1-0.7c2.8,0,5.1,1.3,7.6,2.3c11.4,4.4,22.9,8.7,34.4,13.2C119.5,308,122,308.2,122.4,310.9z"/>
	<path class="st12" d="M89.5,196.1c-2.2,6.3-2.3,6.4,4.1,8.4c4.2,1.4,8.3,3.1,12.7,3.5c9.4,3.8,19.2,6.4,29,8.9
		c6.2,3,13.2,2.7,19.7,4.8c9.5,3.1,19.1,5.9,28.7,8.7c1,0.3,1.9,0.6,2.8,1c1,0.5,2.2,1,2.1,2.5c-0.2,1.7-1.6,2-3,2.1
		c-4.3,0.4-8.6,0.3-12.9-1c-24.5-7.5-49-15.2-73.6-22.6c-5.6-1.7-11.1-3.2-16.9-4c5.2,2.4,10.7,3.6,16.1,5.3
		c22.7,7.3,45.5,14,68.2,21.4c2.2,0.7,5.1,0.6,5.9,3.8c-2.6,2.2-5.4,1.4-8,0.5c-14.9-5.2-30.2-9.1-41.3-13.1
		c7.8,2.3,19.2,6.6,30.8,10c1.1,0.3,2.3,0.5,3.3,1.1c0.9,0.6,2.4,1,1.8,2.5c-0.4,1-1.6,1-2.6,1c-1.4,0-2.7-0.3-3.9-0.7
		c-10.8-3.4-21.7-6.5-32.4-10.1c-6.9-2.4-13.9-4.2-20.7-6.6c-1.6-0.5-4.8-0.4-3.6-3.9c3-1.3,5.3,0.9,8.7,1.5
		c-9-2.6-17.4-5.1-25.4-8.3c-2-0.8-4.8-1-3.4-4.6c0.6-1.6-1.1-2.2-2.4-2.5c-1.3-0.4-2.7-0.4-3.4,1.2c-0.5,1-0.5,2.3-1.1,3.3
		c-0.6,0.9-1.5,1.4-2.5,1.6c-2.3-0.1-4.7,0-6.1-2.4c2.5-4.5,2.2-5.2-2.4-7.1c-1.8-0.8-4.3-0.7-4.8-3.4c2.3-2,2.3-2,6.4-2.4
		c-3.8,0.1-7.8-0.5-11.2,2c-0.5,1.3-0.6,2.8-1.1,4.1c-0.8,1.1-0.7,3.6-3.2,2.1c-1.4-4.1-0.4-7.9,1.6-11.5
		c11.9-0.7,23.9-1.5,35.8-2.2c4,0,8.1,0,12.8,0c-1.6,1.8-2.6,2.9-3.6,4.1c-6.9,0.5-13.9,0.5-20.1,1.5
		C76.2,196.2,82.8,195.3,89.5,196.1z"/>
	<path class="st13" d="M75.6,292.8c-2.7,1.5-5.5,0-8.3,0.1c-1.1-0.8-2.5-0.6-3.6-1.4c1,0.9,2.5,0.6,3.6,1.4c5.4,4.1,12.2,5,18.1,7.9
		c1.4,0.7,3.2,0.8,4.7,3.2c-14.7-4.5-27.9-10.5-41.6-15.1c-0.6,1.2,0.4,1.2,0.7,1.6c0.9,1.2,3.4,2,2.3,3.8c-0.9,1.4-3,0.3-4.6,0
		c-3.7-0.5-8.2-3.8-10.2,2.8c-0.5,1.5-3.3,0.9-5.1,0.4c-1.9-0.5-3.8-1.3-5.4,0.7c-7.4-3-14.7-5.9-22.1-8.9c-1.1-0.4-2.5-0.8-2.5-2.1
		c-0.3-10.3-3.2-20.5-0.5-30.8c0-0.1,0.2-0.2,0.3-0.4c2-1.2,3.7-0.4,5.2,1c0.8,6.5-1.5,12.6-1.8,17.9c-0.2-1.7,0.3-3.9,3.9-3.6
		c8.4,5.1,18,7.3,27,11.2c2.4,1,4.9,2,7.4,2.9c-9.2-3.8-18.6-7.3-27.9-10.8c-1.7-0.6-4.3-0.8-3-3.9c0.9-1,4.5,0.4,2.3-3.5
		c-1.6-3,1.9-6.1,5.7-5c5.3,1.6,10.4,2.1,15.7,0.5c1.8-0.6,2.8,0.5,3.6,1.9c1.1,1.2,2.4,1.6,4,1c0.5,0,0.8,0.2,1.2,0.6
		c0.5,1.4,0.1,2.7-0.5,4c-1.7,1-3.3,0.3-4.7-0.5c-3.9-2.3-8.2-2.5-12.5-2.3c-1.4,0.1-3.3-0.4-3.6,1.7c-0.3,1.9,1.4,2.4,2.8,3
		c9.8,3.7,19.6,7.4,29.3,11.1c5.4,2.1,10.8,4.2,16.2,6.4C73.3,290.2,75.3,290.6,75.6,292.8z"/>
	<path class="st14" d="M45.4,193.1c0.5,4-1.7,7.9-1,12c1.8,1.8,3.9,2.9,6.4,3.6c10.6,3.2,20.9,7.4,31.8,9.6
		c5.1,2.7,10.8,3.8,16.1,5.9c2.2,1.1,6.5,1.5,5.3,4.5c-1.1,3-4.3,0.1-6.5-0.5c-8.7-2.5-17-6-24.2-7.2c15.9,4.5,33.4,10.4,50.9,16.1
		c1.7,0.5,3.7,0.7,4.5,2.8c-0.7,3-2.8,1.6-4.5,1.5c-0.5-0.1-1-0.3-1.5-0.5c-15.7-5.2-31.6-10-47.6-14.4c-1.6-0.5-3.4-0.8-4.8,0.4
		c-1.6,1.4-0.6,3.1,0.1,4.6c1.9,3.9,1.5,8.1,1.9,12.2c0.3,3-1.4,4.6-4.5,4.7c-3.5,0.1-7,0.2-10.4,0c-7.7-2.6-10.2-8.8-11.1-16.1
		c0.5-5.6,0.7-11.2,0.5-16.9c0.7,6.5-0.6,13-0.5,19.6c-0.9,2.8-1.8,5.6-5.1,6.5c-2.5-0.4-4.2-1.5-2.9-4.4c3.3-8.3,4.2-16.4,0.9-25.1
		c-2-5.4,0.4-11.4,1.5-17.1C41.1,192.8,43.5,192.7,45.4,193.1z"/>
	<path class="st15" d="M420.5,5.2c-7.7,8.3-15.4,16.6-23,25c-0.4,0.3-0.9,0.4-1.4,0.4c-8.4-5.8-17.9-9-27.2-13
		c-2.4-1.1-5.3-1.7-6.4-5.5c-0.5-2-4.5-0.1-6.8-0.6c-1.6-0.9-3.8-1.6-1.9-4.1c3.4-1.2,6.9-0.6,10.4-0.6c2.4,0,4.6-0.4,6.7-1.6
		c15.2-1.1,30.4-1.9,45.6-1.4C418,3.8,419.5,3.8,420.5,5.2z"/>
	<path class="st16" d="M224.4,495.9c-1.6-8.1-2.9-16.2-0.5-24.4c1.5-4.9,0.4-9.9,0.5-14.9c0-2.8-0.1-5.6-0.1-8.5
		c-1.2-4.7,0.6-9.6-1-14.2l0,0c-0.6-2.7-0.8-5.4,0.6-8.3c2.3,4.8,7,8.1,8,13.5c-1.9-8-0.8-16.3-1-24.6c-0.1-2.1-0.2-4.3,0.9-6.3
		c0.4-0.6,0.9-0.6,1.5-0.2c0,7.3,0.1,14.5,0.1,21.8c1,12.4-0.4,24.9,0.6,37.2c0.9,10.3,0.8,20.4-0.6,30.6c-0.2,0.6-0.6,1.1-1.1,1.5
		c-1.9,0.7-3.6,0.2-5-1.2C226.1,497.5,225.9,495.8,224.4,495.9z"/>
	<path class="st15" d="M298.2,9c1-1.3,2-2.6,3.1-3.9c1.9-2.4,3.1-0.9,4.3,0.7c-0.9,1.7-1.7,3.4,1.1,4.3c5.6,1.2,11.2,0.5,16.8,0.5
		c7.1,0,14.1,0.3,21.2,0.3c2.5-1.2,4.5,0.4,6.5,1.4c2.2,1,4.1,2.9,6.9,2.6c7,4.8,15.4,6.6,23.1,9.9c3.1,1.3,5.9,2.9,8.5,4.9
		c1.4,1.1,2.8,2.4,1.8,4.6c-1.4,1.1-2.9,0.9-4.2,0.1c-6.6-3.9-13.9-6.1-20.9-9.1c-2.2-1.4-4.4-2.7-7.3-1.9c-1.5,0.4-2.9-0.1-3.9-1.4
		c-1.2-2.8-4-2.7-6.3-3.5c-1.5-0.7-3.2-0.2-4.6-1.6c-1.8-1.7-4.4-1.9-6.5-1.1c-6.2,2.1-12.8,2.2-19.1,3.6c-0.2,1.1,0.8,0.9,1.2,1.1
		c2.5,0.8,5.1,1.6,4.1,5c-0.9,3-3.1,5.4-6.2,4.6c-4.5-1.1-9.6-1.8-12.3-6.4c-1.2-2-2.5-1.2-3.8-0.7c-2.4,1-3.8,3.2-5.5,5
		c-1.2,1-2.6,0.9-4,0.9c-0.5-0.1-0.8-0.4-1.1-0.7c1.4-4.6,5.5-7.3,8-11.1c0.7-1.3-0.2-2.3-0.6-3.4c-0.2-0.6-0.3-1.2-0.4-1.9
		C297.9,10.7,297.8,9.8,298.2,9z"/>
	<path class="st17" d="M375.3,311.1c-1.3,0.4-2.6,0.7-3.9,1.1c-2.3,0.8-3-0.8-3.3-2.5c-0.3-1.3-0.2-2.6-0.2-4c0-23.1,0-46.2,0-69.4
		c0-2.4-0.4-5.1,1.8-7c6.1-2.5,8-1.4,8,5.1c0.1,22.9,0,45.9,0,68.8C377.5,306,378.1,309.1,375.3,311.1z"/>
	<path class="st18" d="M232.4,498.7c1.5-22.9,0.8-45.8,1-68.8c1.6,1.5,0.9,3.4,0.9,5.2c0.1,10.8,0.2,21.6,0,32.3
		c-0.1,3.5,1.1,4.9,4.6,4.4c0.5-0.1,1,0,1.5,0c8.2,0,8.1,0,9-7.9c0.1-0.7,0.7-1.4,1-2.1c-0.1,10,3.4,19.9,1.8,30
		c-0.2,2.8-0.8,5.3-4.1,5.8C244.1,500.9,237.3,501.4,232.4,498.7z"/>
	<path class="st0" d="M296.6,338.1c-3.4,1.4-6.8,2.7-10.7,1.4c5.2-4.5-0.5-7.1-1.7-10.5c-0.1-1.1,0.5-1.4,1.5-1.5
		c14.2-1,28.3-2.7,42.4-4.4c1.7-0.2,4.4-0.7,4.4,1.8c0,3,2.3,7-2.2,9C319.1,335.3,307.8,336.7,296.6,338.1z"/>
	<path class="st19" d="M518.2,184.9c5.4,1.4,6.6,5,6.5,10.2c-0.1,19,0.1,37.9,0.7,56.9c0.2,6.9-1.7,13.2-3.3,19.6
		c-1.9,1.5-2.7,0.8-3.4-1.3c-1-3.3,0.3-6.6,0-9.8c-1.3-18.3-0.9-36.7-0.9-55c-0.4-3.7,1.2-7.6-1-11.1c-0.6-0.2-1.3-0.3-2-0.4
		c-0.7-0.3-2-1-1.5-1.4C515.8,190.5,516.1,187.2,518.2,184.9z"/>
	<path class="st20" d="M370.2,230c-1,0.9-0.7,2.1-0.7,3.3c-0.1,24.9-0.1,49.8-0.2,74.7c0,1.8-0.5,3.8,2.2,4.2
		c-0.4,0.3-0.8,0.6-1.1,0.9c-2.5,1.1-3.7-0.2-4.2-2.5c-0.4-1.5-0.2-3-0.2-4.5c0-23.4,0-46.8,0-70.2c0-1.1,0.1-2.3-0.4-3.4
		c-1.6-1.6-3-0.9-4.3,0.5c-0.6,15.7-1,31.4,0.3,47.1c0.3,3.1,0.2,6.3,0.3,9.4c0,5.1-0.1,10.2,0.8,15.4c0.5,3,0.9,6.3-1.3,9
		c-2.3,0.4-4.5,1.5-7,0.9c2.5-1,2.9-2.9,2.9-5.5c0.8-26.2-1.5-52.5-0.7-79.1c-3.1,1-6.1,2-9.2,1.5c-0.2-0.5-0.2-1,0.2-1.4
		c1.3-1.3,2.8-2.2,4.6-2.5c3-0.5,6.2,0.1,9.2-0.8c1.1-0.2,2.1-0.2,3.2,0C366.2,228.2,369.4,226.6,370.2,230z"/>
	<path class="st21" d="M518.2,184.9c0.2,3.3,0,6.4-4,7.5c0.1,0.1,0.1,0.3,0.2,0.4c0.3,0.1,0.6,0.2,0.9,0.4c0.3,0.4,0.3,0.8,0,1.2
		c-0.3,0.3-0.7,0.5-1.2,0.6c-0.6,0.1-1.2,0.2-1.9,0.3c-1,0.1-2,0.4-3,0.5c-6,0.5-12,0.9-17.9,1.4c-1.3-3.2-6.3-0.8-7.3-4.6
		c1.5-0.9,2.6,0.4,3.9,0.5c2.4,0.1,4.2-1.4,5.7-2.7c1.3-1.1-1.1-2.3-1.9-3.5c-1.6-2.5-1.5-4.6,1.4-5.5c2.3-0.8,0.8-1.4,0.3-2.1
		C501.8,180.4,510.1,182,518.2,184.9z"/>
	<path class="st22" d="M361.2,313.9c-1-25.9-2.5-51.8-2-77.7c0-1.9-1.2-4.5,1.9-5.5c3,1.5,2.6,4.4,2.7,6.9c0.1,9.6,0.3,19.3,0,28.9
		c-0.3,11.3,1.4,22.5,1,32.2c-0.2-16.8-0.1-35.2-0.1-53.6c0-3.2,0-6.3,0-9.5c0-2-0.1-4,1.5-5.6c2.5,0,1.3,1.8,1.3,2.9
		c0,25-0.1,50.1-0.2,75.2c0,2.2-0.8,4.9,3,4.8C367.4,314.8,364.2,313.6,361.2,313.9z"/>
	<path class="st23" d="M298.2,9c0.3,0.7,0.6,1.4,0.9,2.2c-4.8,7.5-11.4,13.4-17.1,20.1c-16.9,19.9-34.1,39.6-51.3,59.2
		c-15.8,18-31.4,36.1-47.5,53.9c-4,4.4-7.5,9.3-12,13.2c-1,0.3-1.9,0-2.8-0.6c-0.3-0.4-0.7-0.7-1-1.1c2.4,0.1,3.4-1.8,4.7-3.2
		c31.2-35.6,62.2-71.4,93.5-106.9C276.5,33.6,286.6,20.6,298.2,9z"/>
	<path class="st24" d="M305.5,5.9c-1.3-0.9-2.4-2.3-4.1-0.8c0.1-1.4,0.7-1.9,2.2-1.9c19-0.3,37.9-1,56.8-1.4
		c8.6-0.2,17.3,0.4,25.8-0.9c10.8-1.6,21.5,0.1,32.1-0.8c1.9-0.2,4.2-0.6,4.7,2.3c-2.4,1.4-4.9,1.9-7.6,1.7c-1.1-0.1-2.3,0-3.5,0
		c-24.5-0.5-48.9,2.4-73.4,2.4c-9,0.3-18-0.7-26.9,0.6C309.4,7.4,307.2,7.9,305.5,5.9z"/>
	<path class="st25" d="M330.3,333.9c2.9-2.2,2.1-5.4,1.7-8.2c-0.4-2.9-3.2-1.8-4.9-1.7c-6.2,0.5-12.4,1.1-18.6,2
		c-7.2,1-14.3,2.1-21.6,1.9c-1,0-2,0.1-2.7,1c-11.5,0.4-22.9,2.2-34.4,3.6c-8.3,1-16.7,1.5-25.1,2.4c-14.1,1.5-28.1,3.4-42.2,4.6
		c-6.4,0.6-12.8,1.8-19.3,1.3c1.2-2.2,3.4-1.8,5.3-2c18.7-2,37.5-3.4,56.1-5.8c11.6-1.5,23.3-2.5,35-3.4c13.5-1,26.9-3.2,40.3-4.6
		c11.2-1.2,22.4-2.1,33.5-3.1c-1,3-0.4,6.2-0.5,9.3C333.1,333.5,332.5,334.5,330.3,333.9z"/>
	<path class="st26" d="M335.3,321.8c0.2-2.9-0.4-3.5-3.9-3.3c-11.9,0.8-23.7,2.2-35.5,3.4c-11.8,1.2-23.6,2.6-35.5,3.8
		c-10.9,1.1-21.7,2.1-32.6,3.2c-11.7,1.2-23.3,2.5-35,3.6c-8.1,0.8-16.3,1.6-24.4,1.9c3.6-2.9,7.9-1.6,11.9-2.2
		c10.4-1.6,21-2.3,31.5-3.4c15-1.6,29.9-3.3,44.8-4.8c10.9-1.1,21.7-2,32.6-3.2c11.3-1.2,22.6-2.8,34-3.7c5.4-0.4,10.8-2,16.3-1.2
		C335.2,315.9,337.5,320.5,335.3,321.8z"/>
	<path class="st27" d="M512.5,194.2c0.6,0,1.2,0,1.8-0.1c0.4,0.8,0.5,1.6,0.5,2.4c-0.7,14.7,1.4,29.2,0.9,43.9
		c-0.2,6.6,1,13.2,0.6,17.8c-0.8-16.8-0.5-35.6-0.6-54.4c0-3.3-0.1-6.7-0.7-10c0.1-0.3,0.2-0.5,0.2-0.8c0.7-0.1,1.4-0.2,2.1-0.4
		c2.5,1.2,1,3.5,1.3,5.2c0.3,1.9-0.3,4,0.4,5.9c0.2,16,0.5,32,0.8,47.9c0.1,5.3,0.4,10.6-0.3,16c-0.2,1.3-1.9,5.1,2.6,3.9
		c-2.7,2.9-3.6,1.2-4.2-1.7c-1.3,1.1,0.2,3.2-1.7,3.9c-2.8-5.2-4.3-10.7-4.4-16.6c-0.1-18.8-1.6-37.5-1-56.2
		C510.8,198.7,510.2,196,512.5,194.2z"/>
	<path class="st28" d="M232.4,498.7c5.2-0.1,10.6,1.5,15.6-1c0.4,0.7-0.7,1.6,0.2,2.2c0.2,3.3-0.9,5.9-2.8,8.6
		c-2.2,3.1-3.4,6.9-5.1,10.4c-5.1,3.5-14.8,1.9-18.1-3c-1.7-3.1,3.1-2.3,2.6-4c-0.5-1.7-2.9-2.7-1.7-5c0.3-0.7,0.7-1.5,1-2.2
		c0.2,0.1,0.4,0.1,0.6,0.2c2.4,1,4.1,2.7,4.7,5.4c0.9,1.5-0.4,3.7,2.1,5.5c0.3-2.9-1.8-4.2-2.5-6.1c0.8-4.1,3.5-5.1,7.2-4.5
		c0.4,0.2,0.8,0.4,1.1,0.8c0.8,1.6-0.4,2.7-0.8,4.1c-0.3,1-0.5,2,1.2,1.6c0.9-0.3,0.5-1.1,0.6-1.6c0.2-2.4,2.2-4.9,1.1-7.1
		c-1.2-2.6-4.4-1.3-6.7-2c-0.9-0.3-2-0.5-1.6-1.9C231.7,498.9,232.1,498.8,232.4,498.7z"/>
	<path class="st29" d="M512.5,194.2c-0.9,15.4-0.7,30.8,0.2,46.1c0.5,7.9,0.1,15.9,1.3,23.8c0.5,3.4,3.3,6.1,2.2,9.8
		c-1.3,0.6-1.1,2.2-1.9,3.1c-1.3-6.2-4.3-11.9-4.2-18.7c0.2-20.9-0.5-41.8-0.8-62.6C509.7,193.8,511.1,194,512.5,194.2z"/>
	<path class="st30" d="M175.5,446.8c4.2,2.3,0.7,5.4,0.8,8.1c-0.4,0.4-0.9,0.5-1.4,0.3c-7.9-3.5-15.3-7.9-23.2-11.5
		c-1.7-0.8-4.4-1-4.5-3.9c1.4-3.1,3.3-5.7,7.1-5.8c0.9,0.6,1.3,1.7,2.1,2.4c1,0.7,2,1.1,3.1,1.5c6.4,2.7,6.4,2.7,8.7-3.2
		c1.6-0.4,3,0,4.3,0.9c1.9,2.2,2.3,4.7,1,7.2C172.4,445.2,173.8,446,175.5,446.8z"/>
	<path class="st31" d="M397.4,288.2c-2.9,1.2-6.4,0.8-9.1,2.8c-1.3-6.8-0.6-13.6,0.3-19.8c-0.2,0.8-0.2,2.4-1.9,2.9
		c-3.2-5.5-2.2-11.3-0.7-17c2.1-0.7,1.7,0.9,1.7,1.9c0,2,0.4,4.1-0.1,5.6c0.7-1.2,0.4-3.2,0.1-4.9c-1.7-13.5-0.5-27.1-0.9-40.6
		c-0.1-2,0-4-0.7-5.9c0.9-3.2,2.8-3.6,5.4-2c0.5,13,0.4,25.9,0,38.9c-0.2,6.4,0,12.9-0.2,18.1c0-3.6-0.1-8.5,0-13.3
		c0-1.5-0.7-3.9,2.2-3.8c2,3.7,0.9,7.7,1.1,11.6c0.2,3.8,0,7.6,0,11.3c0.1,2.9,0.2,5.8-0.1,8.7C394.3,285.4,395.2,287.1,397.4,288.2
		z"/>
	<path class="st32" d="M91.3,428.9c-2.8,4.3-4.7,9-8.1,12.9c-3.5,1.3-7,2.5-9.6-1.5c-2.5-4-0.8-7,1.9-10.2c1.5-1.8,4.8-2,4.8-5.2
		c0.3,0,0.6,0,0.9,0c3.4,1.4,6.9,2.5,10-0.8C91.3,425.7,91.3,427.3,91.3,428.9z"/>
	<path class="st33" d="M155.1,437c-1-0.8-0.8-1.9-0.8-2.9c0.3-10,0.6-20.1,0.9-30.1c1.4-1.1,1-2.7,1-4.1c-0.1-2.2,0.9-3,3-2.9
		c1.1,2.2,0.6,4.5,0.5,6.8c-0.2,9.1,0.5,18.1,1,27.1C161.1,434.7,159.6,437.3,155.1,437z"/>
	<path class="st34" d="M175.4,455c0.3,0,0.6-0.1,0.8-0.1c0,4.6,0,9.3,0.1,13.9c0,1.8-0.3,3.8,2.2,4.3c-5,1.2-8.2-2.8-12.2-4.2
		c-1-1.4,0-2.1,0.9-2.8c1-0.7,2.2-1.4,1.2-2.7c-1-1.3-2.1,0-3.1,0.3c-1.6,0.6-3.1,1.2-4.8,1.2c-1.2,0-2.5,0.1-3-1.2
		c-0.5-1.2,0.8-1.6,1.6-2.1c1.7-1.1,0.7-2.2,0.2-3.4c-1.5-3.2,0.2-4.3,3.1-4.3s5.5,0.7,7.9,2.4c1.4,1,2.9,1.9,4.1-0.3
		C174.7,455.5,175,455.2,175.4,455z"/>
	<path class="st35" d="M338.2,5.2c26.1-0.8,52.2-1.6,78.3-2.5c2.2-0.1,4.3-0.2,6.5-0.3c-0.9,0.9-1,2.5-2.5,2.8
		c-16.8-0.6-33.6,0.3-50.5,1.1c-1,0.8-2.2,0.7-3.3,0.8c-6.9,0-13.8-0.2-20.6,0.8C345,8.1,344,8.1,342.9,8c-1.5-0.4-3-0.6-4.4-1.5
		C338,6.1,338,5.7,338.2,5.2z"/>
	<path class="st36" d="M486.1,405c1.9,2.8,3.5,5.6,0.8,9c-2.2,2.7-4.6,3.6-7.7,2.1c-1.5-2.8-3.6-5.3-3.6-8.7c-0.5-4.3,2.3-6,5.7-7.3
		c0.7,0,1.3,0,2,0C483.5,402.2,484.3,403.8,486.1,405z"/>
	<path class="st15" d="M381.3,47c-1.9,2.1-3.9,4.2-5.8,6.3c-0.4,0.2-0.9,0.1-1.3-0.1c-0.7-1.6,0.5-2.4,1.3-3.4
		c1.2-1.5-0.7-1.3-1.1-1.9c-2.4-1.1-5.3-1.1-7.5-3c-0.5-0.4-0.9-1-1-1.7c0.5-2.8-1.2-3.4-3.5-3.5c-0.8-0.1-1.4-0.4-1.9-0.9
		c-1.4-2.1-1.9-4.2-0.7-6.5c0.5-0.5,1.1-0.6,1.8-0.2c4.4,3,9.2,5.1,14,7.3c2.6,1.1,4.8,2.9,6.1,5.5C381.9,45.7,381.8,46.4,381.3,47z
		"/>
	<path class="st37" d="M141.3,467c-2.5,2.4-5.9,0.9-7.9,0.2c-2.8-0.9,0.7-2.5,1.2-4.2c-2.7,0.2-5.3,0.6-7.8,0
		c-1.2-0.3-3.1,0.3-3.1-1.5c-0.1-1.9,1.8-2.2,3.2-2.4c3.3-0.5,6.5-0.9,9.8-1.2c2.3-0.2,4.4-1.5,6.8-0.9c-1.6,4.4-6.3,1.7-8,3.7
		c-1.6,0.2-1.1-0.6-1.1,0.1c0,0.2,0.1,0.2,0.5,0.1c2.7-0.7,5.4-1.3,8.1-1.8c2.6-0.5,5.4-1,6.7,2.4c-0.7,2.6-3.2,2.2-5,3
		C143.4,465,140.7,463.9,141.3,467z"/>
	<path class="st38" d="M374.4,53.2c0.4,0.1,0.7,0.1,1.1,0.2c-0.5,2.3,1.3,2.6,2.8,3.2c8.9,3.4,18.2,4.3,27.5,5.5
		c2.1,0.3,4.2,0.7,6.3,1c-3,2.4-6.9-0.6-9.9,1.9c-1.8,1.6-3.5,1.6-5.2-0.1c0.3-1.8,1.4-1.3,2-1.1c-3,0.8-6.4-0.7-9.9,0.2
		c-5.1,0.4-9.2-2.6-13.9-3.7c-1.8-2.2-6.4-1.9-5.6-6.4C371.2,53.2,372.8,53.2,374.4,53.2z"/>
	<path class="st39" d="M381.3,47c0-0.6,0.1-1.3,0.1-1.9c0.6-3.4,4.1-4.6,5.8-7.8c-6-3-11.5-6.9-18.2-8.5c-2.9-0.7-6.1-1.1-8.1-3.8
		c1.3-3.2,3.5-1.5,5.5-1.1c7.4,2.8,14.9,5.1,21.7,9.3c0.9,0.6,2.2,0.5,3.3,0.7c1.7-1.2,2-4.3,4.9-4c0.4,0.1,0.8,0.1,1.2,0.2
		C392.7,36.4,387.2,41.9,381.3,47z"/>
	<path class="st40" d="M149.1,461.8c-1.4-2.9-3.8-1.8-6.1-1.5c-4.2,0.6-8.4,2.4-14,1c5.4-2.1,10.4-1.8,14.4-4.3
		c2.7-0.4,1.2-2.7,1.8-4c0.3-0.4,0.7-0.5,1.2-0.5c2.4,1,5.7-0.8,7.6,2.2c0.4,2.4,2.3,3,4.3,3.5c1.5,0.9,1.2,2,0,2.7
		C155.4,462.5,152.4,464,149.1,461.8z"/>
	<path class="st41" d="M149.1,461.8c3,0.3,5.8-0.5,8.5-1.7c2.1-0.9,0.2-1.1-0.5-1.4c-0.1-0.5,0.1-0.9,0.5-1.2c1-0.5,1.9-0.2,2.7,0.3
		c2.9,3,2.3,4.9-2.3,5.4c2.8,1.6,4.9-0.7,7.2-0.4c0.9-0.4,1.8-0.8,2.8-0.6c0.9,0.2,1.5,0.6,1.6,1.6c0.1,1-0.6,1.4-1.4,1.6
		c-3.3,0.7-6.5,2.3-10,2.3c-1.7-0.1-0.3-2.6-2.1-2.6c-2.2-2.4-4.6-0.5-6.8-0.1c-2.7,0.5-5.4,1.4-8,2.1c-1.2-0.3-2.6,0.5-3.9-1
		C140.9,463.5,145.3,463.4,149.1,461.8z"/>
	<path class="st42" d="M231.4,498.9c1.8,1.8,4.1,0.5,6.1,1c1.6,0.4,4.5,0.4,4.2,2.4c-0.4,3.7-2.3,7.1-2.5,11c0,0.2-0.8-0.9-1.1-1.6
		c-2.1-1.7,0.5-4.1-0.9-5.9l0,0.1c-4.2-1.4-8.5-1.3-12.9-0.7c-0.1-0.2-0.2-0.3-0.3-0.5c-0.1-2.7,0.4-5.2,3.1-6.7
		C228.8,497.4,230,498.4,231.4,498.9z"/>
	<path class="st43" d="M387.2,274c0.5-1.5,1-3,2-5.7c-0.9,8.5,0.8,15.7-0.9,22.8c-1.7,1-3.4,1.9-5.1,2.9c-2.6-0.2-1.9-2.3-2.3-3.8
		c0-1.9,0-3.8,1.1-5.5C385.2,281.7,384.2,276.9,387.2,274z"/>
	<path class="st44" d="M375.3,311.1c1.5-2.1,1.1-4.5,1-6.9c0.2-0.4,0.5-0.5,0.9-0.5c0.1-23.1,0-46.1,0-69.2c0-2.1,0.2-4.3-0.3-6.4
		c0.2-1.2,0.9-1.5,2-1.3c2.2,1.7,1.7,4.2,1.7,6.5c0.1,11.1,0,22.3,0,33.4c0.1,13.2-0.2,26.5-0.4,39.7c0,0.6,0.1,1.2,0.2,1.8
		C378.7,309.1,377.5,310.9,375.3,311.1z"/>
	<path class="st45" d="M397.4,288.2c-3.9,0.4-4.9-1.3-4.4-5c0.4-2.7,0.2-5.5,0.2-8.3c1.2-7.4-0.2-14.9,1-22.3
		c0.2-1.5-0.5-3.5,2.1-3.7c0,11,0.2,21.9-0.1,32.9c-0.1,4,0.8,6,5.1,5.2C400.3,288.2,398.7,287.9,397.4,288.2z"/>
	<path class="st46" d="M146.1,452.9c-0.2,0.1-0.5,0.1-0.8,0.1c-0.6-2.9,0.2-5.8-0.9-8.7c-0.8-2.3,0.9-3.6,2.8-4.5
		c7.5,3.8,15,7.6,22.5,11.4c2,1,4.5,1.5,5.7,3.8c-0.1,0.3-0.1,0.5-0.2,0.8c-1.9,0.9-3.6-0.1-5.2-0.8c-7.8-3.6-15.5-7.2-23.2-10.8
		C147.2,447,148.9,450.1,146.1,452.9z"/>
	<path class="st47" d="M481.3,400.1c-3,1.7-4.3,4.7-5.1,7.9c-1.8,0-3.5-0.2-5.2-0.9c-2.9-1.5-5.7-3.1-4.4-7.2
		c0.4-1.3-1.2-1.8-1.3-2.9c2.2,0.2,3.6,2.5,6,2.1c0.4,0.5,0.7,1.1,1.1,1.5c0.5,0.4,1.1,0.1,1.7,0.2c-0.4-0.4-1-0.8-0.9-1.5
		c0-0.2,0-0.4,0-0.6C476.1,398.4,478.4,400.6,481.3,400.1z"/>
	<path class="st48" d="M6.4,257c-1.7-0.3-3.4-0.7-5-1c1.9-4.2,5.9-4.6,9.6-4.7c6-0.2,11.7-1.4,17.4-3.2c1.6,4.5-2.5,3.8-4.5,5
		C18.1,254.7,12.1,255,6.4,257z"/>
	<path class="st49" d="M157.3,466.9c3.9-1,7.7-2,11.7-3c-1.1-1.5-2.6-0.7-3.8-1.1c1.4-1.8,3.2-3,4.6-0.5c1.1,1.9,1.2,4.3-2.1,4.7
		c-1,0.1-1.2,1-1.4,1.8c-5.7-2.2-9.6,2-14,4.2c-1.5,0.7-3.1,0.7-3.8-0.8c-0.9-2,1.1-2.5,2.3-3C152.9,468.2,154.5,465.7,157.3,466.9z
		"/>
	<path class="st50" d="M471.1,407c2-1.5,3.7-0.9,5.2,0.9c0.9,2.8,3.4,4.9,2.9,8.2c-0.6-0.1-1.3-0.1-1.9-0.2
		C473.6,414,470.6,411.7,471.1,407z"/>
	<path class="st51" d="M157.3,466.9c-3.4,0.3-4.6,4.6-8.4,4c0.7,2.3,2.3,1.6,3.4,2c-1.5,1.4-3,0.8-4.6,0.1c-1.1-0.5-3,0.3-3.1-1.7
		c-0.1-1.8,1.5-2.5,2.8-3c2.9-1.2,5.8-2.2,8.6-3.3c0.8,0,1.5,0.1,2.2,0.1C158,465.7,157.7,466.3,157.3,466.9z"/>
	<path class="st52" d="M24.4,252c1.4-1.2,4-1.2,4-3.9c1.7-1.3,3.5-2.6,5.2-3.9c2-1.6,3.6-0.8,5,0.8C36.6,251.1,30.2,254.3,24.4,252z
		"/>
	<path class="st53" d="M411.3,171.1c-6.6,1.6-13.5,0.4-20.1,1.1c-2.8,0.4-5.6,0.4-8.4,0c-0.6-0.1,0.1,0.1-0.3-0.3
		c-0.5-0.6,0.3-0.6,0.6-0.8c4.8-0.3,9.5-0.6,14.3-0.9C402,172.1,406.8,170.1,411.3,171.1z"/>
	<path class="st54" d="M38.6,245.1c-1.7-0.2-3.2-1.5-5-1c1.6-2.4,3.2-4.8,4.8-7.1c-0.8,2.7,1.9,2.9,3.1,4.1
		C42.3,243.8,41,244.9,38.6,245.1z"/>
	<path class="st55" d="M223.2,506.9c0.2,1.3,0.1,2.7,1.9,3c1.9,0.2,2.5,1.4,2,3.1c-0.4,1.5-1.4,2-3,1.5c-1.4-0.5-1.6,0.6-1.8,1.5
		C220.3,512.7,222.5,509.9,223.2,506.9z"/>
	<path class="st44" d="M382.1,290.3c0.3,1.2-0.3,2.8,1.1,3.7c-2,1.2-1.8,3.1-1.9,5.1c-0.1,3.1,0.6,6.2-0.8,9.1
		c-0.1-0.2-0.3-0.3-0.5-0.5c-0.5-5.2-0.1-10.5-0.2-15.7C380,290.6,380.6,289.8,382.1,290.3z"/>
	<path class="st56" d="M128.3,240c-18.1-6.8-36.7-12-55-18c-1.8-0.6-3.9-0.6-6.1-3.1c13.2,1.5,24.6,6,36.6,10.5
		c-1.1-3.5-4.2-2.6-5.5-4.3c1.7-1.8,3.6-0.9,5.5-0.4c5.5,1.7,10.9,3.9,16.6,5.2c16.3,5.1,32.6,10.1,48.9,15.2
		c6.6,2.1,12.8,5.6,19.5,7.6c1.7,0.5,2.5,2.1,3.2,3.6c2.1,1.7,3.9,2.5,4.4-1.2c-4.1-4-0.7-8.5-0.9-12.7c0.3-0.8,0.8-1.4,1.4-1.8
		c0.7-0.4,1.4-0.6,2.2-0.7c1.5,0,2.9,0.5,4.2,1.3c0.8,0.7,1.4,1.4,0.9,2.5c-1.1,4.7-2.3,9.4-1.6,14.2c0.5,5.5,0.5,5.5-2.9,7
		c1.9,1.5,4.7,1.7,5.6,4.1c1.1,13.1-0.6,25.3-10.9,34.9c-1,0.4-2,0.3-3.1,0.1c-2.7-1.1-5.4-2.1-2-5.4c1.3-0.3,1.4,1.2,2.2,1.5
		c-1.6-3.9-5.2-5.3-8.9-6.2c-10-2.6-19.8-5.6-28.5-11.6c-1.4-1-3.1-1-4.7-1.5c-4.9-1.4-6.6-3.8-5.9-8.8c0.4-2.7,0.1-5.2-0.8-7.8
		c-1-2.8-1.4-5.8-2.1-8.7c-0.6-2.7-1.7-5.9,1-7.9c2.7-2,5.6-0.6,8.5,0.6c4.4,1.9,9.2,2.5,13.9,3.6c4.4,1.1,8.8,2.5,12.1,3.4
		c-5.9-2.1-13.2-3.2-20.2-5.7C146.8,246.5,137.1,244.4,128.3,240z"/>
	<path class="st57" d="M155.1,437c5.4-1.6,4-6,4-9.8c0.1-10.1,0.1-20.2,0.1-30.3c0.7-6.4-0.7-12.8,1-19.1c0,14.4,0,28.8,0,43.9
		c2.9-2,3.1-4.2,3.1-6.5c0-7,0.2-14,0-21c-0.6-14.1,1.2-28.2,1.1-42.3c0.8,0,1.6,0.2,2,1c1.5,1.4,1.4,3.3,1.4,5.1
		c0,11.1,0,22.1,0,33.2c0,2.3-0.9,4.5-1.1,6.8c-0.2,0.6,0.3,0.1,0.3-0.1c-0.1-1.2-0.3-2.9,1.9-1.6c1,1.6,1,3.5,1,5.3
		c0.1,9.2,0.1,18.4,0,27.6c0,2,0.1,4-1.5,5.5c-0.1,8.2-0.1,8.2-7.6,4.8C158.9,438.8,156.7,438.6,155.1,437z"/>
	<path class="st58" d="M204.1,243.8c-0.3-0.5-0.6-1.1-0.9-1.6c3.9-2.8,8.5-2.4,12.9-2.6c15.4-0.9,30.7-2.9,46-3.7
		c10.9-0.5,21.7-2.1,32.6-2.5c5.6-0.2,11.2-0.6,16.8-1.3c2.5-0.7,4.9-1.4,7.5-1.5c2.6-0.1,5.2,0.1,7.8-0.1c1.3,0.1,2.3-0.7,3.5-0.9
		c0.8,0.1,1.3,0.6,1.6,1.3c0.1,0.8-0.1,1.5-0.7,2c-5.1,1.9-10.5,1.3-15.7,1.8c-17.5,1.8-35,2.8-52.5,4.3
		c-18.3,1.5-36.6,3.2-54.9,4.8C206.8,244,205.5,243.8,204.1,243.8z"/>
	<path class="st59" d="M346.3,232.1c-4,1.7-8.1,0.7-12.2,0.8c-0.4-3.4-1.1-6.6-2.1-9.8c-1-3.6-1.6-7.4-2.7-11c-1.2-4-2.1-8-3.2-12.1
		c-1.1-8.1-4.5-15.6-5.5-23.8c0-2.6,0.6-5.2-0.4-7.8c0.1-2.1-0.9-4.6,2-5.7c3.3,6.6,4.5,13.8,6.2,20.8c2.7,13.6,6.7,26.9,9.7,40.4
		c0.5,2.2-0.5,5.1,2.3,6.5C342.4,230.8,344.7,230.2,346.3,232.1z"/>
	<path class="st60" d="M192.2,303.2c0.7,0.3,1.4,0.6,2.2,0.9c-2.8,4.1-7.3,5-11.6,5.8c-6.1,1.2-12.3,2.1-18.4,3.1
		c1.4-3.2-2.6-2.2-3.1-3.9c0.1-0.2,0.2-0.5,0.3-0.7c0.7-0.9,1.7-1.9,2.8-2c7.8-0.3,15.4-3.7,23.3-2.4
		C189.3,304.3,190.9,304.5,192.2,303.2z"/>
	<path class="st61" d="M346.3,232.1c-2.3-0.1-4.7-0.1-7-0.2c-0.5-1.4,0.6-2.1,1.4-3c2-1.7,0.5-3.6,0.2-5.4c-0.3-1.9-1-3.8-0.7-5.7
		c0.2-1,0.6-1.9,1.8-2.1c0.5,0.2,0.8,0.5,1.1,0.9c1.9,3.9,2.5,8.2,3.8,12.3c0.3,0.6,0.5,1.3,0.5,2c0,0.2-0.1,0.5-0.1,0.8
		C346.9,231.9,346.6,232,346.3,232.1z"/>
	<path class="st62" d="M205.2,269.2c-2.4-2.4-7.4-1-8.4-6.3c6,2.6,5.4-1.5,5.7-4.9C203.4,261.7,204.3,265.5,205.2,269.2z"/>
	<path class="st63" d="M333.1,223.1c0.8,3.2,3.8,6.2,1,9.8c-1,0-1.9,0.1-2.9,0.1c0-0.7,0-1.4,0-2c1.4-2.3-0.9-4.7,0.3-7
		C331.9,223.4,332.3,222.8,333.1,223.1z"/>
	<path class="st64" d="M377.2,303.9c-0.3,0-0.6,0.1-0.8,0.2c0-23.1-0.1-46.3-0.2-69.4c0-6.2,0-6.2-6-4.8c-1.5-2-4.3,0-5.9-1.8
		c2.1-2.5,6-1.6,8-4.2c1-1.6,0-3.1-0.1-4.7c-0.1-2.6,0.2-4.8,2.8-6.2c5.3-2.7,10.9-4.5,16.7-5.7c15.2-3.5,30.9-4.5,46.3-6.6
		c1.8-0.2,3.7-0.4,5.2,1c4-0.6,8.1-0.9,12.1-1.9c5.4-1.3,10.7-0.1,16.1,0c-3.6,1.8-7.7,1.6-11.5,1.9c-11.8,0.8-23.5,3.3-35.2,4.5
		c-7,0.8-14.1,1.1-21,2.5c-2.7,0.5-4.9,1.5-6.2,4c-1.4-1.1-2.8-2-4.8-1.5c-0.5,0-0.9-0.1-1.2-0.4c-1.8,0.4-3.6,0.6-5,1.9
		c-0.1,0.2-0.1,0.4-0.2,0.6c-0.4,0.6-0.9,1-1.4,1.4c-2.4,1.2-3.3,3.3-3.1,5.9c-0.2,2.5,0.5,5.4-3.3,5.8c-0.3,0.4-0.7,0.8-1,1.1
		c0.8,1,0.5,2.2,0.5,3.4c0,23.1,0,46.2,0,69.3C377.7,301.7,378,302.9,377.2,303.9z"/>
	<path class="st65" d="M392.1,210.8c2.6-1.4,4.9-1.8,5.2,2.2c-0.8,12,0.3,24-0.9,36c-1.7,4.5-1.9,9.2-2.2,13.9
		c-0.2,4,1.1,8.2-0.9,12.1c0-8,0-16,0-24c-2.7-4.1-1.5-8.7-1.1-13C392.9,228.9,393,219.9,392.1,210.8z"/>
	<path class="st66" d="M232.4,407.8c0,11,0,21.9,0,32.8c-0.9-5.8-9.2-7-8.8-13.7c-0.1,2.3-0.2,4.7-0.3,7c-1.7-12.6-2.3-25.3-3.1-38
		c-0.4-3.2-0.1-6.6-2.5-9.2c-0.1-0.5,0-1,0-1.5c0.4-4.5,0.9-9-0.3-13.5c-2.6-3.7-3.8-8.1-6.5-11.8c-0.7-1-1.5-2.3-0.1-3.5
		c3.5-0.2,7.1-0.8,9.6,2.6c1.6,1.3,3.3,2.6,4.9,3.9c4.6,2.2,5.9,6.3,6.1,11v0c2.6,1.3,1.8,4,1.7,5.7
		C232.5,389.1,233.3,398.5,232.4,407.8z"/>
	<path class="st67" d="M168.9,352c2.7-2.2,5.8-1,8.7-0.9c2.4,0.1,1.6,2.5,1.6,4c-0.2,12.6-0.6,25.2-0.9,37.8
		c-1.1,4.5-0.8,9.2-0.3,13.7c0.4,4.5-2.2,8-2.9,12.1c-0.2,0.9-0.9,1.8-2.1,0.9c-1.1-1.6-1.1-3.5-1.1-5.3c0.3-18.7-0.8-37.4,0.6-56.1
		c0.2-2.1,0-4-2.2-5C169.7,352.9,169.3,352.5,168.9,352z"/>
	<path class="st68" d="M192.4,444c-0.2,0.8,0.4,2.5-1.1,2.1c-1.4-0.4-3.6-0.1-4.1-2.2c-0.2-0.8-0.2-1.7-0.2-2.5
		c0.2-16.5,0.4-33,0.7-49.4c0-0.8,0.3-1.6,0.5-2.4c1.4,1,1.6,2.5,1.6,4c0.1,6.6,0.6,13.3-0.5,19.8c-0.6,0.4,0.1,0.6,0.2,0.4
		c0.5-2.3,1.9-1.6,3.3-0.8C193.5,423.3,194.1,433.7,192.4,444z"/>
	<path class="st69" d="M173.2,419.9c1.5-1.1,0.8-2.7,1.1-4.1c0.3-1.1-1.4-3.8,2.2-2.8c1.2,0.3,0.6-1.9,0.7-2.9
		c0.6-5.7-1.1-11.5,1-17.2c0.5,16.4-0.5,32.7-0.9,49.1c0,1.1,0.3,2.3-1.5,2.6c-1.5,0.2-1.5,0.5-0.4,2.2c-2.6,0-3.7-1.7-2.9-3.8
		c1-2.5,0.3-4.8-0.3-7.1C171,430.5,171.2,425.1,173.2,419.9z"/>
	<path class="st70" d="M192.3,412.9c-1.2,0.3-2.5,0.6-4.1,1c0-8.2,0-16.2,0-24.3c0.1-1.2,0.2-2.4,0.3-3.6c0-3.3,0.9-6.4,2.2-9.4
		c0.5-1.1,0.9-2.8,2.5-2.5c1.1,0.2,1.4,1.7,1.5,2.8c0.1,11.1,0.6,22.2-1.3,33.3C193.1,411.2,193.1,412.2,192.3,412.9z"/>
	<path class="st0" d="M168.4,396c-2.4,2,0,5.2-2.6,8.3c0.9-17.8,0.3-34.5,0.5-51.3c0.9-0.3,1.7-0.6,2.6-0.9l0.3,0.2l0.4-0.2
		c1.2,1.5,1.2,3.4,1.2,5.2c0,10.1,0.1,20.2-0.1,30.3C170.8,390.5,170.7,393.6,168.4,396z"/>
	<path class="st71" d="M192.3,412.9c0.4-12.3,0.7-24.6,1.1-36.9c1.9,0,2.1,1.5,2.2,2.7c0.3,9.1,0.5,18.2-0.1,27.3
		c-0.1,0.8-0.6,1.5-0.9,2.3c-0.1,14.2-0.2,28.5-0.3,42.8c-2.2-2,0.1-5-1.8-7C192.3,433.6,192.3,423.3,192.3,412.9z"/>
	<path class="st72" d="M194.5,408.3c-0.1-9-0.1-18.1-0.2-27.1c0-1.7,0.6-3.7-0.9-5.1c-0.1-0.2-0.1-0.3-0.2-0.5
		c-0.2-0.2-0.4-0.3-0.7-0.4c-1.5,3.6-2,7.5-4.1,10.8c-0.3-0.2-0.4-0.5-0.3-0.8c-0.5-1.6-0.3-3.3-0.2-5c1.7-8,4.2-15.9,5-24.1
		c1.5-1.2,2.8-0.5,4,0.5c0.7,0.7,1.1,1.5,1.2,2.5c-2.4,13.7-0.9,27.5-1.3,41.3c-0.1,2.7,0.1,5.4-1.6,7.6
		C194.9,408,194.7,408.1,194.5,408.3z"/>
	<path class="st67" d="M188.4,379.9c-0.1,1.8-0.1,3.5-0.2,5.3c-1.8-7.8-0.8-15.8-0.5-23.6c0.2-5.5-0.6-9.5-6.9-9.8
		c0.2-2.3,1.8-1.4,2.6-1.8c2.5-1.8,5.2-1.5,8-0.8c1.9,0.9,4.9-1.8,6,1.9c1.3,2.2,1.3,4.1-0.8,5.8c-1.1-0.3-2.1-0.6-3.2-0.8
		c-3,0.6-3.7,2.6-3.6,5.4C189.8,367.6,190,373.8,188.4,379.9z"/>
	<path class="st0" d="M244.5,373.7c4.1-2.1,9.2-3.1,10.2-1.2c1.6,2.8,1,7.4,0.3,11c-0.5,2.6-3.2,3.3-5.5,1.1
		c-1.8-1.7-2.3-3.9-2.2-6.4C247.3,376.4,248.1,374.2,244.5,373.7z"/>
	<path class="st73" d="M194.5,451.7c2.6,0.5,2.4-1.8,2.9-3.2c3.7-10.8,7.3-21.7,11-32.6c2-0.1,1.3,1.1,1.1,2.1
		c-3.5,11.7-6.5,23.5-11.1,34.9c-0.5-0.1,0.2-2.1-1.1-0.9C196,453.4,195.3,453.4,194.5,451.7z"/>
	<path class="st0" d="M232.4,407.8c0-9.7-0.1-19.4-0.1-29.1c0-1.7-0.2-3.3-1-4.7c3.1,0.8,6.2-1.8,9.6-0.6c-0.3,0.7-0.4,1.2-0.6,1.2
		c-6.7,2-6.8,2-7,13.2c-0.1,6.8-0.1,13.6-0.1,20.4C233,408,232.7,407.9,232.4,407.8z"/>
	<path class="st0" d="M196.5,356.8c0.3-2,0.5-3.9,0.8-5.8c3.7,8.1,11,5,16.8,4.6c3.7-0.3,5.1,0.6,6.1,3.6c-3.2-1.3-6.4-2.8-10.1-2
		c-4.3,2.4-8.8,1.5-13.3,0.7C196.8,357.4,196.7,357.1,196.5,356.8z"/>
	<path class="st0" d="M191.3,349.1c-2.6,1.3-5.3,0.8-8,0.8c0.2-2.6,0.5-5.5,3.8-5.8C190.4,343.9,190.8,346.7,191.3,349.1z"/>
	<path class="st0" d="M231.3,374c-2-3.7-2.7-8.1-6.1-11C231.7,364.9,233.4,368,231.3,374z"/>
	<path class="st74" d="M448.3,71.2c1,0,2,0,3,0.1c1.6,1.4,0.8,3.5,1.4,5.4c1.9,0.3,3.8-2.7,5.8-0.5c1.7,1.9,1.3,4.4,1,6.7
		c-3,24.7-12.4,46.7-28.3,65.7c-1,1.1-2,2.2-2.8,3.5c-9.7,9.2-21.6,13.5-34.4,15.8c-2.4,0.5-5.2,1.2-7.6-0.8
		c-0.5-0.5-0.9-1.2-0.7-1.8c1.4-2.8-0.1-2.5-2-1.9c-0.5-0.1-1.1-0.2-1.4-0.5c-3.1-4.8-8-5.8-13.2-6.1c-2.4-1.9-1-3.5,0.9-3.9
		c6.1-1.1,9.5-5.3,12.1-10.3c2.2-1.3,4.9-1,7.1-2.8c-2.7,1.8-5.1,0.8-7.7-0.2c-5.8-2.4-11.2-5.8-17.1-8.1c-7-2.8-14.5-3.3-21.8-4.6
		c-6.2-1.1-12.5-1.2-18.7-2.6c-2-0.5-3.8-1.3-4.9-3.2c-0.2-0.4-0.4-0.9-0.5-1.3c-0.5-3.4,1.1-4.5,4.3-4.1c10.7,1.2,21.4,2.8,31.7,6
		c-0.6-0.1,0.3-0.1,0.1-0.1c-6.2-1.5-4.6-3.7-0.4-5.8c2.8-1.4,5.9-0.9,8.9-0.8c1.6,0.1,3.2,0.9,4.8,0.1c0.5-1.6-0.6-2.3-1.3-3.1
		c-0.8-1-1.9-2-1-3.5c1-1.6,2.5-2.2,4.3-1.7c2.5,0.8,4.8,0.6,7.3,0.1c3.5-0.8,4.7,1.6,5.1,4.6c0.1,1.2,0.3,2.6,2,2.1
		c1.5-0.5,1.2-1.8,0.6-2.9c-2.3-4.2-3.5-9.4-9.2-10.7c-1.5-0.4-2.2-1.4-1.5-3c1.4-1.2,3.1-1.6,4.8-1.9c8.6,0.5,12,3.1,14.6,10.9
		c0.1,0.3,0.2,0.6,0.3,0.9c3.6,10.7,7,12.9,18.4,11.9c1.9-0.2,3.6-0.7,5-2c1.8-1.8,2.2-3.4-0.5-4.6c-3.1-1.4-3.5-2.9-1.2-5.6
		c2.2-2.5,3.4-5.7,4.3-8.9c0.6-2.1,1.6-3.7,4.1-3.6c3.4,1.4,5.5,0,7.1-3.1c2.2-4.2,5.4-8,5.7-13c0.1-1,0.8-1.8,1.6-2.4
		c1.7-0.9,3.5-1.4,5.4-1.6C445.7,74,446.9,72.5,448.3,71.2z"/>
	<path class="st75" d="M428.2,152c0.2-2.7,2.1-4.5,3.7-6.4c9.4-10.9,15.2-23.6,20.2-36.8c3.5-9.2,5.6-18.8,6.1-28.6
		c0.1-1.4,0.7-3.3-1.3-3.9c-1.6-0.4-2.3,0.9-2.7,2.3c-0.3,1-1,1.4-1.9,0.8c-1-0.6-2.1-1.5-1.7-2.8c0.6-1.8,0.6-3.6,0.6-5.4
		c5.1-0.7,10,0,15,0.9c1.8,1.3,2.2,2.8,1.5,5.1c-5.8,18.4-11.8,36.8-20.9,53.9C442.5,139.3,436.8,147.2,428.2,152z"/>
	<path class="st76" d="M384.1,162.9c0.6-0.6,1-1.3,1.7-1.6c0.9-0.4,2-1.8,3-0.4c0.7,1-0.4,1.8-1.1,2.4c-1.4,1-1.5,2.4-1.5,3.9
		c-1.6,0.9-3,2-3.1,4.1c2.5,2.1,5.4,0.3,8,1.1c-2.8,1.7-5.9,0-8.7,1c3.2,1.3,5.7,9.7,3.2,11.9c-2,1.8-4.8,0.9-7.2,0.7
		c-1.9-0.1-2.2-1.8-2.2-3.4c0-1.8-0.2-3.7,0-5.5c0.3-3.1-1.1-4.3-4-4c-0.1-0.2-0.2-0.4-0.3-0.6c0-1.2,0.4-2.2,1.2-3.1
		C376.5,166.5,380.1,164.4,384.1,162.9z"/>
	<path class="st77" d="M75.6,292.8c-13.2-6.2-27.1-10.8-40.7-16.1c-3.6-1.4-7.1-2.8-10.7-4c-2.3-0.8-2.9-2.3-2.7-4.6
		c0.3-2.6,2.3-1.9,3.8-2c5.8-0.4,11.5-0.4,16.6,3c0.8,0.5,1.7,1.1,2.6,0.1c0.4-0.4,0.8-0.5,1.3-0.4c5.9,2.6,12.1,4.5,18.1,6.9
		c2.3,0.7,4.6,1.7,7,2c13,5.5,26.4,9.8,39.7,14.7c14.5,5.4,28.8,11.4,43.6,16c1,0.7,1.3,1.6,1.1,2.7c0,3.3-2.1,6.1-2.2,9.5
		c0,2.1-2,0.9-3.1,0.5c-7.6-2.9-15.1-5.8-22.7-8.7c-1.5-0.6-3.1-1-4.7-1.4C107,304.4,91.4,298.4,75.6,292.8z"/>
	<path class="st60" d="M155.2,311.1c-1.2-0.3-1-1.2-0.9-2c2.3-3.2,4.7-4,7.2-0.2l-0.2,0.3C158.7,308.3,157.4,311.1,155.2,311.1z"/>
	<path class="st78" d="M197.3,241.1c-0.2,0.3-0.4,0.5-0.6,0.8c-4.1,9.6-4.1,9.6-14.9,6.6c-1.6-0.4-3.2-0.9-4.8-1.4
		c-5.6-1.8-5.7-2-4.7-8.1c-8.6-4.1-17.8-6.2-26.8-9c-21.1-6.5-42-13.5-63.3-19.2c-1.6-0.4-3.4-1.2-2.7-3.4c0.8-2.4,2.7-1.2,4.2-0.7
		c21.3,6.4,42.6,12.8,63.8,19.3c9.2,2.8,18.4,5.7,27.6,8.4c4.1,1.2,8.4,0.9,13.5,0.1c-4.4-3.2-8.9-3.6-13-5
		c-9.2-3.2-18.7-5.7-28.1-8.4c-2.3-0.6-4.6-1.5-7.2-0.4c-3.1,1.3-3-2.9-5-3.7c4.7-1,7.5-4.6,10-8.2c3.3-4.9,7-9.5,8.9-15.3
		c0.8-2.3,2.1-4.8,5.9-3.9c3.2,0.8,4-2.3,4-4.5c0.1-3.4,1.3-6.1,3.8-8.3c2.3-2.1,2.5-4.6,1.1-7.2c-0.7-1.3-2-3.1-0.4-4
		c5.6-3.2,1.6-5.9-0.2-8.7c1,0,2-0.1,3-0.1c0.5-0.4,1.1-0.6,1.8-0.7c0.9,0,1.7,0.2,2.6,0.3c1.1,0,2.3-0.2,3.3,0.5
		c9,4.8,17.4,10.8,27.4,13.6c2.2,0.6,4.3,1.7,5.5,3.9c0.3,1,0.5,2.5-0.2,2.8c-4.2,1.6-4.2,6-6.4,8.9c-0.7,1.2-1.6,2.2-2.4,3.3
		c-2.4,4.1-4.9,8.2-2.5,13.2c0.1,0.5,0.1,0.9,0.2,1.4c-0.8,3.5-0.3,7.2-0.4,10.7c-0.9,1.1-1.2,2.3-1.2,3.7c-0.4,2-0.2,4-0.3,6
		c-0.1,1.7-0.6,3-2.1,4.2c-4.4,3.4-4.3,6.5,0.1,9.6C197.6,239.2,198.4,239.8,197.3,241.1z"/>
	<path class="st79" d="M327.2,184c-1.4-7-4.6-13.7-4.9-21c-2-1.9-2-4.4-2.4-6.9c-2-12.2-3.6-24.5-5.6-36.7c-1.3-4.6-2.6-9.1-2-14
		c0.3-0.8,0.7-1.5,1.6-1.7c1.1,0.3,1.7,1.3,2.2,2.2c1.9,4.5,2.5,9.2,3.2,14l0,0c4.8,8.8,7.2,18.6,10.9,27.9
		c2.3,7.5,5.1,14.8,6.8,22.5c0.4,1.4,0.9,2.8,1,4.3c0,0.5-0.2,1-0.5,1.4c1.6,7.2,3.3,14.5,5,21.7c0.3,0.8,0.5,1.9-0.3,2.1
		c-2,0.5-2.8-1.2-3.8-2.5c-2.9-6.6-3.7-13.7-5.7-20.5c-0.5-1.7-0.7-3.6-1.5-5.2c-0.4-0.7-1-1.5-1.9-0.8c-0.9,0.8,0,1.8,0.1,2.8
		c1.1,4.7,3.1,9.3,3,14.2c-0.8,2.4-1.8,3.1-3.5,0.7C327.8,187.2,328.2,185.4,327.2,184z"/>
	<path class="st80" d="M396.3,195.9c4.5,2,9.2,1,13.9,1.1c0.7-0.4,1.1-0.1,1.2,0.7c-1.2,1.8-3.1,1.8-4.9,1.9
		c-11.4,0.7-22.8,1.5-34.2,1c-7.3-0.3-14.5,0.6-21.8,1c-2.2,0.1-4,1.5-6.1,1.9c-2.7-1-2.2-2.6-1-4.5c6.2-1,12.5-2.2,18.9-1.9
		c6.6,1.1,13.1-1.3,19.6-1.4c0.1,0,0.3-0.2,0.3-0.3c0-0.1-0.1-0.3-0.1-0.5C387,192.6,391.6,195,396.3,195.9z"/>
	<path class="st81" d="M343.4,199c0,1.4-0.5,2.9,0.9,4.1c1.2,1,1.5,2.4,1.9,3.8c0.3,1.1,0.5,2.3,0.9,3.4c0.1,3.8,1.6,7.3,2.7,10.9
		c0.2,0.4,0.3,0.9,0.4,1.4c-0.1,2.2,2.6,4.1,0.9,6.5c-1.4,0.5-2.1,2.2-3.8,2.1c-0.3-0.3-0.7-0.6-1-0.9c-0.6-5.3-2.1-10.4-4-15.4
		c-1.5-4.3-2.4-8.8-3.5-13.2c-0.4-1.6-1-3.2,0.5-4.6c1.2-0.5,1.1,4.5,3.1,0.8C342.8,198.2,343.1,198.6,343.4,199z"/>
	<path class="st82" d="M337.5,176.1c0-0.4-0.1-0.7-0.1-1c0.5-0.7,1.2-1.1,2.1-1.3c10-1.9,20.1-1.5,30.2-2c1,0,1.9,0.5,2.6,1.3l0,0
		c-1.1,1.4-2.9,1.8-4.4,1.8C357.7,175.2,347.6,176.6,337.5,176.1z"/>
	<path class="st83" d="M382.1,194.9c0.6,0.1,1.3,0.2,2,0.3c-7.2,1.3-14.2,4.4-21.7,1.9C368.9,196.3,375.5,195.6,382.1,194.9z"/>
	<path class="st84" d="M209.5,418.1c-0.2-0.8-0.2-1.7-1.1-2.1c1.3-4.7,2.7-9.3,4-14c0.3-6,1.3-11.7,5.8-16.1c2.3,3.1,2.5,6.5,2,10.2
		c-1.2-1.5-0.3-3.6-1.5-6.1C215.4,399.8,212.4,408.9,209.5,418.1z"/>
	<path class="st66" d="M223.2,434c2.3,4.6,0.8,9.5,1,14.2C223.1,443.5,223.1,438.7,223.2,434z"/>
	<path class="st83" d="M345.3,207c-0.8-1.2-1.2-2.6-1-4c1.1-1.9,2.4-2.9,4.9-3.1c14-1.1,28.1-0.5,42.1-1.1c6.6-0.3,13.5,0.1,20-1.6
		c5.4-0.4,10.8,0.5,16.2,1c1.3,0.1,2.5,0.6,3.8,0.1c0.6-0.1,1.3-0.2,1.9-0.3c3.3-0.9,6.6,0.1,10,0.2c1.3,1.3,0.9,2.5-0.1,3.7
		c-17.4,1.9-34.8,3.6-51.9,6.9c-5.4-0.3-10.8,1.7-16.2,0.3c-7.7-1.4-15.4-0.3-23.1-0.6C349.6,208.3,347.2,208.8,345.3,207z"/>
	<path class="st85" d="M431.3,198.2c-5.6,1.3-11.1,1.9-16.6-0.6c-1-0.5-2.2-0.3-3.4-0.4c-0.4-0.1-0.8-0.1-1.1-0.2
		c5.5-1.5,11.1-1.9,16.8-2C429.6,194.9,428.4,199.2,431.3,198.2z"/>
	<path class="st6" d="M443.2,198.1c-1.7-0.2-3.3,4.2-5.3,0.1c-0.3-0.7-3-0.2-4.6-0.2C436.6,196.5,439.9,196.3,443.2,198.1z"/>
	<path class="st86" d="M488.3,273.1c1.5,0,3.1-0.2,3.7,1.6c0.3,1.1-0.6,2-1.5,2.2C486.9,277.4,488.3,274.8,488.3,273.1
		C488.3,273.1,488.3,273.1,488.3,273.1z"/>
	<path class="st87" d="M473.3,399.2c3.7,2.5-1.9,2.6-0.7,4.4c-1.9-1.4-1.2-3-1.2-4.6C472,399.1,472.6,399.1,473.3,399.2z"/>
	<path class="st88" d="M89.5,196.1c-7,2.4-14.3,0.5-21.4,1.9c-1.1,0.2-2.5,0.1-2.5-1.6c0-1,0.9-1.4,1.8-1.3c7.1,0.4,14.2-1.7,21.3-1
		c0.6,0.1,1.1,0.6,1.7,0.9C90.1,195.4,89.8,195.7,89.5,196.1z"/>
	<path class="st4" d="M105.7,308.5c1.7-1.8,3-1.9,4.2-0.7c0.2,0.2,0.3,1.1,0,1.3C108.5,310.3,107.4,308.8,105.7,308.5z"/>
	<path class="st89" d="M172.3,239c-0.3,5.7,4,6.7,8.1,7.8c3.5,1,7,2.9,10.4,2.8c4-0.2,2.8-5.8,5.8-7.7c-0.4,3.1-0.5,6.2-1.2,9.2
		c-0.6,2.6,1.6,2.8,2.8,3.9c-2,1.7-5,1.2-6.9,3c-0.9-3.1-3.1-4.2-6.1-5.4c-17.9-7-36.3-12.4-54.5-18.3c-3.4-1.1-6.9-2.2-10.4-3.3
		c-0.6-0.4-1.3-0.8-1.1-1.7c0.2-0.5,0.6-0.5,1.1-0.3c12.6,3.8,25.2,7.6,37.9,11.4c0.1-0.5,0.3-0.9,0.4-1.4
		c-15.1-3.7-29.2-10.4-44.4-14.3c5.1-1.4,9.7,0.8,14.4,2c7.5,2.1,14.7,5.1,22.3,6.8C158.1,235.1,164.5,239.9,172.3,239z"/>
	<path class="st90" d="M120.4,229c-1.1,0.7-0.1,1.3,0,2c-5.5-0.9-10.6-3-15.8-4.9c-2.1-0.8-4-1.3-6.2-1c-5.4-1.8-11.2-2.8-16-6.1
		c1.3-1.4,2.7-0.9,3.3-0.6c-4.2-1-9.2-2-14.1-3.6c-2-0.7-4.8-0.7-5.1-3.8c0.6-0.4,1.3-0.7,1.9-1.1c9.5,1.9,18.5,5.3,27.6,8.7
		c0.5,0.2,0.6,0.7,0.6,1.2c-0.3,2.4,1.8,1.8,2.9,2.2C106.3,224.4,113.3,226.7,120.4,229z"/>
	<path class="st91" d="M66.3,211c4,3.2,9.2,3.1,13.8,4.9c2.1,0.8,4.4,1,6.4,2.5c-1.4,1.1-2.9,0.3-4.2,0.6
		c-12.5-1.3-23.7-7.3-35.7-10.2c-1.9-0.5-2.6-1.8-2.1-3.8c1.2-0.8,0.6-2.7,2.1-3.2c3.1,2.2,6.4,3.9,10.2,4.9
		c1.4,0.4,2.9,0.9,3.6,2.4C62.3,209.7,64.3,210.4,66.3,211z"/>
	<path class="st92" d="M96.4,219.9c-7.6-3.5-15.8-5.5-23.8-7.8c-1.6-0.5-3.2-0.8-4.3-2.1c0.2-6.4,1.9-7.4,7.3-4.9
		c3.3,1.6,3.6,3.1,0,5.3c10.9,3.8,21.2,7.4,31.4,11c-0.1,0.4-0.3,0.8-0.4,1.3C103.1,221.7,99.8,220.8,96.4,219.9z"/>
	<path class="st93" d="M60.3,209.1c-2.9-1-5.8-2.2-8.8-2.7c-2.9-0.5-4.1-2.1-4.9-4.5c-0.2-1.4-0.7-2.9,0.9-4c2.3-1.3,4.2-0.6,6,1
		c2.1,2.1,5,2.1,7.5,3.1c2.3,0.8,2.2,2.4,2.3,4.3C63.4,208.4,62.2,209.1,60.3,209.1z"/>
	<path class="st91" d="M53.4,198.9c-2-0.3-4-0.7-6-1c-0.2-0.6-0.7-1.6-0.1-1.7c4.6-0.4,9-1.6,13.7-1.1c1,0.1,2.1,0.2,2.1,1.5
		S62,197.8,61,198C58.5,198.3,55.7,197.1,53.4,198.9z"/>
	<path class="st94" d="M161.4,308.8c-2.5-2-4.9-1.4-7.2,0.2c-6.6-0.4-12.5-3.2-18.3-5.8c-3.3-1.4-6.9-2.6-10.2-4
		c-9.1-3.7-18.4-7.2-27.7-10.5c-6.8-2.4-13.5-5.5-20.7-7.1c-2.5-0.5-4.2-2.9-6.9-2.7c-0.8-3.5-3.5-2.5-5.7-2.6
		c-6.5-2.4-12.8-5.2-19.3-7.3h-0.4h-0.4c-0.9-1,0.1-2-0.1-3c-1.8-4.5-1.2-6.4,2.5-8.4c2.3,2.3,4.4,5.1,8.3,2.8c3,2.6,5.5,3.6,9,0
		c1.8-1.8,5.3-1.6,8.1-1.7c4.2-0.1,8.1-1.8,12.3-1.6c1.3,0.3,2.7,0.4,3.9,0.9c1.1,0.5,2.4,1.1,1.9,2.5c-0.6,1.7-2,1.1-3.3,0.8
		c6.1,2.3,12.2,4.6,18.3,6.9c17.1,6.4,34.3,12.6,51.7,18.1c9.5,3,18.8,6.7,28.3,9.5c1.7,0.5,3.5,1.2,4.2,3.2
		c-2.4,3.6,0.6,3.6,2.7,4.2c0,2.2-1.7,3.5-3.2,2.7c-4.1-2.3-7.9-0.6-11.8,0.3C172,307.2,166.4,306.1,161.4,308.8z"/>
	<path class="st95" d="M47.4,258.8c-2.7-1.5-1.9,1.2-2.4,2.1c-1,1.6-0.5,3.4-0.6,5.1l-0.5-0.1l-0.5,0c-1.4,0.8-2.7-1.1-4.1-0.2
		c-1.8-2.9-4.4-0.9-6.7-1.1c-4-0.3-8.2,1.1-12-1.5c-1.2-0.9-3.5-1.2-4.4,0.7c-1.3,2.6-1.1,5.1,2.6,7c-2.6,0-4.4,0-6.3,0
		c-0.8,1-1.8,1.2-3,1c-3.6-0.3-4.4,2-4.5,5c-0.2-6.8-0.8-13.5,1.6-20c2.7-3.6,6.9-3.2,10.7-3.8c2.4-0.4,4.8-0.8,7.2-1.2
		c5.9,0.3,10.7-2.1,14.2-6.8c1.5-1,2.4-2.4,3-4c1.3-2,2.6-4.1,3.8-6.1c1.3-0.5-0.6-3.2,1.9-2.9c1.3,6.3,3.2,12.3,10,15
		c5.2,1.5,10.4,1,15.6,0.6c4.8-0.4,9.8-0.5,12.4,4.8c1,1.9,2.2,4.2-1,5.6c-5.8,1-11.6,1.9-17.3,3c-1.6,0.3-5-1.3-3.3,3
		c0.4,0.9-5.6,0.5-6.8-1.4c-0.7-1.2-1.5-1.6-2.7-1.6C51.4,262.2,49.4,260.6,47.4,258.8z"/>
	<path class="st96" d="M9.4,271.9c0.7-1.2,1.8-1.3,3-1c0.2,2.4,2.3,2.5,3.9,3.2c9,3.5,18,6.9,26.9,10.4c1.2,0.5,2.2,1.2,4.1,2.2
		c-4.3,0.5-6.8-1.9-9.6-2.9c-8.6-3-17.1-6.3-25.7-9.5C10.8,273.9,9.4,273.7,9.4,271.9z"/>
	<path class="st11" d="M67.4,293c-2.4,0-4.8-0.1-6.6-2.8C63.7,290.1,65.6,291.4,67.4,293L67.4,293z"/>
	<path class="st97" d="M39.3,265.8c1.5-2.4,2.8-1.9,4.1,0.2C41.9,269.2,40.6,267,39.3,265.8z"/>
	<path class="st98" d="M84.4,258c1.6-4.8-0.8-8.6-6.2-9c-4.4-0.3-8.9-0.1-13.4-0.1c-2.6,0-5.3-0.1-7.5-1.8c3.3,0,6.7-0.2,10,0
		c3.4,0.2,4.9-1.3,3.9-4.4c-1.3-4,0.3-8.5-2.6-12.3c-0.7-0.9-2.4-3.8-0.2-4.8c1.9-0.9,4.4-1.9,6.7-1c10.5,4,21.7,5.8,32.2,9.8
		c5.4,2,11.2,2.8,16.2,5.8c-0.6,1.8-1.6,3.6,1.5,4c2,0.3,3.6,2.2,6.1,2.3c-1-2.4-3-2.1-4.4-2.9c-1.3-0.8-3.5-1-2.2-3.4
		c1.3-0.4,2.7,1.8,4,0c6.3,0.2,11.6,3.5,17.5,5.2c12,3.5,23.9,7.4,35.9,11.2c-1.4,2.4-2.9,0.9-4,0.5c-8-3-16.3-4.8-24.7-5.9
		c-1.6-0.2-2.8-0.8-3.9-1.8c-2-1.8-4.6-1.9-6.5-0.8c-2.2,1.2-1.4,4-0.8,5.9c1.3,3.9,1.3,8.2,3.2,12c1,2,0.5,4.2-0.2,6.3
		c-1.1,3.3,0.3,6.4,3.4,6.5c5.8,0.3,9.5,4.4,14.2,6.5c6.7,3,13.6,5,20.5,7.1c3.7,1.1,8.5,1.1,9.2,6.7c0.1,1,2.3,0.1,2.9,1.6
		c-2.7,1.5-4.1-0.1-5.4-2c-12.2-4-24.2-8.4-36.5-12.2c-11.1-3.4-21.9-7.9-32.8-11.8c-10.1-3.7-20.1-7.4-30.2-11
		c-1.4-0.5-2.8-0.9-3.8-2.1c0.7-1.7,2.9,0,3.6-1.6C88.4,258,85.6,259.8,84.4,258z"/>
	<path class="st56" d="M124.3,240c0.8,2.9,3.5,2.4,5.6,3c1.6,0.5,2.6,1.4,3.2,2.8c0.3,0.8,0,1.7-1,1.9c-1.5,0.4-2.9,0.3-4.2-0.8
		c-1.1-1-2.1-2-3.8-2c-1.4,0-3.2,0.5-3.6-1.6c-0.5-2.2,1.4-2.6,2.8-3.4C123.7,240,124,240,124.3,240z"/>
	<path class="st99" d="M47.3,232.1c-0.6,1-1.3,2-1.9,2.9c0.3-3.5,0.6-6.9,0.9-10.4c0.4-4.2-0.6-8.1-2.8-12.1
		c4.3,0.2,6.5,1.3,4.8,5.7C46.7,222.7,47.6,227.4,47.3,232.1z"/>
	<path class="st100" d="M396.2,30c-2.1,0.8-2,4.2-4.9,4c-1.7-4.7-6.2-6-10.1-7.9c-6.8-3.2-14.4-4.5-20.8-8.6c-1.1-0.7-2-1.7-3-2.5
		c-2-0.8-2.4-2.1-1.2-3.9c3-2,6.2-0.8,10.1-0.7c-1.8,1.8-3.4,2.5-0.3,4.4c6.7,4.1,14.6,5,21.3,9.1C390.4,25.7,393.3,27.8,396.2,30z"
		/>
	<path class="st101" d="M356.2,11.1c0.4,1.3,0.8,2.6,1.2,3.9c-0.2,1.1-0.3,1.6-1.8,1c-3.6-1.4-6.3-4.6-10.4-4.9
		c-12.8-0.4-25.7,0.2-38.5-0.4c-0.5,0-0.9-0.4-1.3-0.6c-0.8-0.2-2.3,0.3-2.4-0.8c-0.1-1.6,0.4-3.1,2.5-3.4c1.9,0,3.8,0,5.6,0
		c9-0.4,18-0.6,27,0.1c1.4,0.3,3-0.4,4.1,1c1.5,1.9,3.3,0.9,5,0.6c2-0.3,4.2-1.4,6,0.7C354.2,9.3,355.2,10.2,356.2,11.1z"/>
	<path class="st100" d="M404.4,18.8c-2.3,2-3.8,0.9-5.3,0.4c-9.4-3.1-19.1-4.9-28.9-6.1c-1-0.1-2.3,0.2-2.4-1.1
		c-0.1-1.1,0.9-1.7,2.1-1.5C381.3,12.7,392.9,14.1,404.4,18.8z"/>
	<path class="st102" d="M353.2,8.3c-2.7-0.7-5.2,1-7.8,0.7c-1.3-0.1-3.8,1.1-3.1-2.1c1,0,2-0.1,3.1-0.1c7.4-0.8,14.8,0.3,22.1-0.6
		c0.9,0,1.7,0,2.6,0c-0.4,2.7-2.6,1.5-4,1.6C361.8,8.2,357.5,8.2,353.2,8.3z"/>
	<path class="st103" d="M291.5,28.1c0.3,0,0.6,0,0.9,0c1.8,2.5,1.4,5.3,1.5,8.1c-4.7,2.6-9.4,5.3-12.7,9.6c-0.5,0.6-1,1.3-1.7,1.8
		c-3,2-2.6,3.9,0.3,5.4c2.7,1.3,3.2,4.1,4.8,6.1c4.1,5.1,10.4,7.7,15,12.2c1.6,1.5,2.2-2,3.8-0.6c2,1.3,2.1,3.2,1.9,5.2
		c-0.1,0.5-0.2,0.9-0.4,1.4c-0.4,0.9-0.9,1.7-1.4,2.6c-0.9,1.1-0.9,2.5-1.2,3.8c-0.5,1.9-1.9,3.8-3.7,3.5c-4.3-0.6-8.7,1.3-13.1-0.7
		c-4.8-2.2-10-2.8-15.5-1.2c-8.6,2.5-17.2-4.3-17.3-13.1c1.2-5,5.5-7.8,8.5-11.4c8.9-10.7,17.9-21.2,27.5-31.3
		C289.4,28.6,290,27.3,291.5,28.1z"/>
	<path class="st104" d="M295.2,28.1c2.5-5.5,4.3-6.8,11.8-7.7c-1.9,3.9,0.3,5.3,3.5,5.6c2.2,0.1,3.4,1.8,5.3,2.5
		c2.8,0.9,4.9,0.4,6.5-2c1.5-2.3,1.5-3.9-1.8-4.6c-2-0.4-4.4-0.4-6.2-3.2c5.5-0.9,10.8-1.9,16-2.4c4.1-0.4,7.9-3.9,12.5-1.4
		c2,1.1,4.5,1.3,6.2,3.2c-4.6,3.5-10.5,4.4-15.4,7.2c-1.5,0.9-3.3,1.4-4.7,2.6c-1.9,1.2-3.6,2.6-5.8,3.4c-6.5,2.3-13.3,3.8-19.7,6.6
		c-2.1,0.9-4.4,1.8-6.5-0.1c-2.4-2.7-1.6-4.8,1.2-6.4c1.1-0.7,2.4-1.2,3.5-1.9c0.6-1.9-0.9-0.6-1.1-0.6c-1.7,0.3-3.3,1.4-5.2,0.5
		c-0.2-0.2-0.3-0.5-0.3-0.8C295.1,28.2,295.2,28.1,295.2,28.1z"/>
	<path class="st105" d="M291.5,28.1C278.2,42.3,265.6,57,253,71.9c-1.4,4.2-5,6.9-7.6,10.2c-1.4,1.8-3.2,3.3-4.5,5.3
		c-5.1,5.6-10.2,11.2-15,17c-11.2,13-22.7,25.8-33.9,38.9c-4.8,4.3-7.6,10.7-13.6,13.8c-1.1,0.4-2.1,1.6-3.5,0.9
		c-0.5-2.4,1.2-3.6,2.5-5.1c13.5-15.7,27.5-31,41-46.7c8.3-9.7,16.8-19.2,25.3-28.7c12.4-13.7,24-28,36.5-41.6
		c5.2-5.6,10-11.6,15-17.4c1.2-1.4,2.5-4.8,5.2-1.4C297.4,20.7,294.4,24.4,291.5,28.1z"/>
	<path class="st106" d="M173.4,157c-0.7,0-1.4,0-2,0c5.4-8,12.4-14.7,18.7-21.9c22.5-25.8,45.1-51.4,67.6-77.1
		c12.9-14.7,25.6-29.6,38.5-44.4c0.8-1,1.4-2.4,3-2.4c0,0.6,0,1.2-0.1,1.8c0,1.6-1,2.6-2,3.8c-17.6,20.3-35.4,40.5-53.2,60.6
		c-15.3,17.6-30.8,35.1-46.2,52.7c-6.1,7-12.4,13.8-18.3,20.9C177.6,153.2,175.8,155.4,173.4,157z"/>
	<path class="st107" d="M328.2,27c6.4-4.2,13.4-7.2,20.9-9c2.9-0.6,5.2-0.1,6.2,3.1c-3.1,2.4-7,0.6-10.5,1.6c3,0,5.9-0.1,8.7,0.1
		c5,0.3,6,1.6,5,6.7c-0.3,1.9,0,4.1-2.2,5.2c-4.8,0.1-9.1-2-13.5-3.1c-4.7-1.2-9-1.6-13.4,0.7C327.7,30.7,328.1,28.8,328.2,27z"/>
	<path class="st108" d="M243.4,77.1c10.7-12.2,21.4-24.4,32-36.7c7.9-9.1,15.8-18.3,23.7-27.4c0.4,1.4,3.2,1.9,1.3,4
		c-1.9-2.1-2.6,0.2-3.4,1C283,34,269.2,50,255.3,66c-3.6,4.1-7.3,8.1-11,12.1C243.9,77.9,243.5,77.5,243.4,77.1z"/>
	<path class="st109" d="M356.2,34.2c1.9-2.3,0.3-5.2,1.5-7.9c0.9-2.1-1.7-2.2-3.3-2.3c-4.5-0.3-9,0.5-14.7-0.9
		c5.7-3.6,10.8-1.7,15.6-2.2c1.6,1.6,3.3,0.8,5.3,0.5c1.9-0.2,4.2,0.6,5.7,2.4c-1.7,0.5-4.3-1.3-5,1.9c0.3-0.6-0.3,0.9-0.5,0.3
		c-0.1-0.4-0.8,0-0.7,0.1c2.2,1.9,2.4,3.8,0.2,5.8c-0.4,2.4,0.4,4.6,0.9,6.9c-1.8,0.6-2.9-0.7-4.2-1.6
		C356.3,36.5,355.7,35.5,356.2,34.2z"/>
	<path class="st110" d="M303.2,30c-1.5,0.7-3,1.4-4.5,2.1c-2.5,1.1-3.2,2.7-1.4,4.9c0.9,1.7,2.1,3.3,2.8,5.1
		c0.5,1.7,1.4,3.4,0.5,5.2c-2.3,2.4-4.2,1-5.8-0.9c-1.6-1.8-2.3-4-2.6-6.4c0-1.1,0.1-2.2,1-3.1c-0.5-3-1.4-5.9-0.7-9
		c0.9-0.9,1.9-0.8,2.8,0c0.1,0.3,0.1,0.5,0.2,0.8c1.5,1.9,2.9,0.2,4.3-0.1C301.3,28.5,302.7,27.5,303.2,30z"/>
	<path class="st111" d="M305.4,10.2c13.3,0.1,26.6-1.8,39.8,1c1.1,2-0.3,1.8-1.5,1.7c-11.4-1.3-22.8-0.2-34.2-0.5
		C307.8,12.3,305.6,13.1,305.4,10.2z"/>
	<path class="st21" d="M519,203.9c-1.6-3.5,0.9-7.7-1.7-11.1c1.8-1.2,1.9,0.3,1.9,1.4C519.2,197.4,519.1,200.6,519,203.9z"/>
	<path class="st112" d="M366.2,230.2c0,25.2,0,50.5,0,75.8c-2.2-2.8-2.8-5.9-3-9.2c-1.3-20.2-0.9-40.5-1-60.7c0-1.9-0.1-3.6-1.2-5.2
		C362.7,229.6,364.5,230.2,366.2,230.2z"/>
	<path class="st113" d="M373.4,225.1c-2.5,2.6-6,2.4-9.1,3c-1,0-2,0-2.9,0c-3,0.6-6,0.5-9.3,0c0.8-2.6,4.1-2.4,4.8-4.8
		c1.8-1.7,3.7-0.8,5.6-0.4c3,0.6,5.8,1,8.7-0.4C374.4,220.9,373.8,223.2,373.4,225.1z"/>
	<path class="st114" d="M357.4,223.9c1.5,4.2-2.4,2.6-5,4.2c3.7,0,6.3,0,9,0c-3.3,1.4-6.8,0.8-10.2,0.8c-0.2-2.4-2.7-4.2-1.9-7
		C352.6,219.8,355.3,220.5,357.4,223.9z"/>
	<path class="st115" d="M515,193.9c2,0.3,2.2,1.6,2.2,3.3c0,22.6,0,45.2-0.1,67.8c0,0.4-0.3,0.9-0.5,1.3c-1.3,0-1.3-0.9-1.3-1.7
		c-0.4-9.1-1-18.2-1-27.3c0-12.5-1.6-24.9-1-37.3c0.1-2-0.2-4,1-5.8C514.5,193.9,514.7,193.8,515,193.9z"/>
	<path class="st116" d="M397.2,64.1c1.6,1.1,3.4,0.9,5.1,0.8c8.1,1,16.1,2,24.2,3c-2,2.1-4.6,1.4-7,1.5c-2.3,0-4.1,0.6-3.5,3.4
		c0.8,3.9-1,6.1-4.7,6.8c-4.5,0.8-4.5-2.8-5.2-5.7c-0.7-2.6-1.6-5.1-4.9-5.8c1.9,1.1,1.6,2.6,1.2,4.2c-0.5,2.1-5.1,3.4-1.4,6.6
		c0.3,0.2-1.2,1.4-2.1,1.9c-2.5,1.2-5,1.6-7.8,1.5c-1.6-0.1-3.7,0.1-4.3-1.8c-0.6-2.2,1.9-2.2,3-3.2c1-1,3.7-1.7,1.1-3.8
		c5.2-3.6,0.7-5.5-1.4-7.9c-1.3-1.5-1-1.7,3-2.4C394.2,63.6,395.9,63.2,397.2,64.1z"/>
	<path class="st117" d="M418.1,68.1c2.8-0.1,5.6-0.1,8.4-0.2c6.3,0.3,12.6,0.7,18.8,2.1c0.2,1.8,0.4,3.6-1.1,5.1
		c-1.9,0.4-3.9,0.8-5.8,1.1c-5.5,3.3-11.5,5.1-17.8,5.7c-0.8-0.2-1.3-0.6-1.6-1.5c3.2-2.8,3.8-5.6,0.5-8.8
		C418.5,70.8,417.7,69.6,418.1,68.1z"/>
	<path class="st75" d="M444.2,75c0.3-1.7-0.6-3.7,1.1-5.1c1,0.4,2,0.8,2.9,1.2C448.4,74,447,75.3,444.2,75z"/>
	<path class="st15" d="M338.1,6c-9,0-18-0.1-27-0.1c9-1.1,18.1-0.9,27.1-0.7C338.3,5.4,338.2,5.7,338.1,6z"/>
	<path class="st118" d="M224.4,505.2c4.6-4.5,8.7-0.7,12.9,0.7c-3.4-0.1-6.5,0.3-8,4l0,0C228.5,507.6,225.3,507.6,224.4,505.2z"/>
	<path class="st119" d="M229.4,510c1.1,0.7,2.3,1.4,3.2,2.3c1.4,1.3,0.8,3.1,0.5,4.6c-0.2,0.8-1,0.7-1.6,0.5
		c-1.6-0.5-2.4-1.7-2.9-3.1C228,512.7,229.4,511.4,229.4,510C229.3,510,229.4,510,229.4,510z"/>
	<path class="st120" d="M237.3,505.9c2,1.7,0.6,3.9,0.9,5.9c-0.8,0.2-0.9,2.5-2.4,0.5c-0.7-1-1.7-1.5-0.6-2.7
		C236.2,508.5,237.2,507.5,237.3,505.9z"/>
	<path class="st121" d="M168.4,396c1-12.8,0.6-25.6,0.9-38.4c0.1-1.8,0.2-3.6,0.3-5.5c3.7-1,4.4,0.7,4.4,4.1
		c-0.4,19.3-0.6,38.5-0.9,57.8c0,2,0.1,4,0.1,6c-0.3,5.3-0.6,10.7-0.9,16c-1.6,0.8-2.8-0.1-3.9-1C168.4,421.9,168.4,408.9,168.4,396
		z"/>
	<path class="st122" d="M392.1,210.8c3.1,0.5,2.1,2.9,2.1,4.6c-0.3,11.9-0.6,23.7-1,35.6c-2,4.3-0.7,8.8-1,13.2c-0.3,4,0,8,0,13.3
		c-2.3-2.4-1.8-3.9-1.9-5.3c-0.1-18.8-0.1-37.6-0.2-56.4c0-1.7,0-3.3,1.1-4.7C391.5,210.9,391.8,210.8,392.1,210.8z"/>
	<path class="st123" d="M386.2,213c1.7,0.1,2.1,1.2,2.1,2.7c0,16.8,0,33.5,0,51.6c-2-4.3-0.1-7.7-1.9-10.5
		c-2.6-3.1-1.1-6.8-1.6-10.2c0-9,0-18,0-27C384.8,217.4,384.8,215,386.2,213L386.2,213z"/>
	<path class="st124" d="M386.2,247c0.1,3.3,0.1,6.5,0.2,9.8c0.2,5.7-1.2,11.5,0.9,17.1c-1.1,3.7-1,7.9-3.9,10.9
		c-2.1-1.5-4-3.2-2-6.1c1.6-1.8,1.4-4,1.4-6.2c0.2-8-0.2-16,0.3-24c0.1-0.6,0.4-1.1,0.7-1.6C384.6,246.4,385.4,246.3,386.2,247z"/>
	<path class="st125" d="M146.1,452.9c0.4-3.4,0.1-6.8-0.7-10.7c10.3,4.7,20.1,9.2,29.9,13.6c-0.1,1.1,0.6,2.9-0.5,3.2
		c-1.6,0.4-3.6,0.2-4.9-1.3c-2.2-2.5-5.1-2.5-8.1-2.7c-2.4-0.1-2.3,1.2-1.4,2.8c-1,0-1.9,0.1-2.9,0.1c-1.3-1-2.8-1.8-4-3
		c-1.5-1.5-3.3-1.1-5-0.5C146.8,455,146.4,454.1,146.1,452.9z"/>
	<path class="st15" d="M367.4,6.3c-7.3,1.4-14.8,0.5-22.1,0.6C352.7,5.2,360.1,6.3,367.4,6.3z"/>
	<path class="st126" d="M299.3,42.1c-1.4-1.4-2-3.1-1.9-5.1c2.2,1.6,4.2,0,6.1-0.7c6.5-2.7,13.2-4.4,19.9-6.3c0.2,5,4,2,6.1,2.8
		c0.6,0.2,1.5,0.5,1.8-0.2c1.5-3.2,4.3-3,6.8-2c4.5,1.9,9.2,2.5,13.8,3.6c2.2,0.5,3.9,1.5,5.5,2.8c1.7-0.1,2.6,1.4,3.9,2
		c0.7,0,1.4,0,2,0.1c0.3,0.3,0.5,0.8,0.5,1.2c-0.5,4.8,3.6,7.7,5,11.6c0.1,3.7-1.5,4.5-4.5,2.5c-2.6-1.7-5.6-2.8-7-6.1
		c-1.1-2.5-3.8-2.4-5.9-3.1c-5.7-2-11.2-4.8-17.6-6.3c3.7,2.8,7,5.1,10.4,7.5c1.5,1.1,3.5,2.1,3.3,4.6c-0.5,0.7-1.2,1.1-2,1.3
		c-5.8,1-10.1,3.8-11.9,9.7c-2.9,0.6-4-2.1-6-3.1c-7.3-5.5-14.3-11.2-21.5-16.8c-1.8-1.4-3.9-3-6.1-0.5
		C299.7,41.9,299.5,42,299.3,42.1z"/>
	<path class="st126" d="M360.3,32.1c0.6-2.1,0.8-4.1-0.9-5.9c-0.2-0.2-0.6-1.4,0.6-1.1c0.4,0.1,0.8,0.6,1.2,0.9
		c7,0.1,13.1,3.3,19.1,6.2c3.1,1.5,6.1,3.1,10,4.6c-3.2,3.1-6.1,5.8-8.9,8.4c-4.5-5.2-11.5-6.2-17-9.8
		C362.8,34.4,361.6,33.3,360.3,32.1z"/>
	<path class="st127" d="M368.3,52c-2.4-2.8-5-5.5-5.7-9.3c-0.2-1-0.4-1.9,0.6-2.6c1.7,0.2,2.7,1.2,2.9,3c0.3,0.3,0.7,0.7,1,1
		c2,2.9,5.5,1.9,8.1,3c5.5,2.8-1.5,3.9-0.8,6.1c-1.1,2-2.4,2.5-4.1,0.6C369.3,53.6,368.5,53.2,368.3,52z"/>
	<path class="st109" d="M366.1,43.1c-1-1-2-2-2.9-3c0-0.4,0-0.7,0.1-1.1c2.4-0.8,3.6,0.8,4.5,2.4C368.4,42.8,367,42.9,366.1,43.1z"
		/>
	<path class="st126" d="M375.2,47.1c-2.9-0.5-6.5,0.9-8.1-3C369.8,45.1,372.5,46.1,375.2,47.1z"/>
	<path class="st128" d="M328.2,58.1c1.7,1.3,3.4,2.6,5.1,3.9c2.4-0.5,4.4,0.7,5.8,2.1c6.2,6.3,15.1,8.2,21.8,13.7
		c2.1,1.7,4.8,2,7.5,1c3.6-1.3,7.3-1.9,11.5-2.6c-5.4-1.7-5.5-1.8-2.9-4.7c1.9-0.7,3.4,1.1,5.6,1.3c-0.4-4.6-2.2-8-5.8-10.4
		c-1.2-0.9-3.3-1.2-2.3-3.5c0-0.1,0.3-0.1,0.4-0.1c0.2,0,0.3,0.1,0.5,0.2c4.6,1.6,9,3.9,13.9,4.1c1.3-0.4,2.6-1.1,3.1,0.9
		c-0.6,0.1-1.3,0.2-2.6,0.4c3.3,1.6,4.2,4.8,7.3,7c-2,0.8-3.4,1.4-4.9,2c0.1,1.4,2.1,0.7,1.9,1c-1.5,2.4-2.7,5.4-6.7,4.9
		c0.8,2.6,2.6,1.4,3.8,1.8c0.7,1.2,0.2,2.1-0.7,2.9c-7.5,2.4-14.8,5.7-22.8,6c-1-0.3-1.9-0.7-2.7-1.3c-1.4-4.5-6.1-4.5-9.2-6.6
		c-4-2.7-8.1-5.6-13-6.7c-2.8-2.8-7.2-2.9-9.6-6.2c-1.2-2.1-3.2-3.2-5.3-4.2c-2.3-1.1-4-2.9-4.9-5.3C324.2,57,326.6,59.1,328.2,58.1
		z"/>
	<path class="st129" d="M375.4,58.9c-1.2,1.3,0,1.8,0.9,2c5.9,1.5,6.4,7.1,8.2,11.4c0.7,1.7-0.8,3.3-3,2.2c-1.5-0.7-2.3-2.5-4.2-2.5
		c-1.2,0.1-2.3-0.3-3.2-1.1c-6.4-5.1-13.8-8.7-19.9-14.1c-1.7-1.8-4-2.7-6-4.1c-0.5-0.5-0.8-1.1-0.9-1.8
		c-4.9-5.1-11.4-8.2-17.2-13.4c6.5-0.1,11.4,2.5,16.5,4.6c3.8,1.6,8.9,1.2,11.2,5c1.8,3,4.7,4.1,7,6.2c2.7,2.4,2.7,0,3.5-1.4
		c0.7,0.6,1.4,1.2,2.1,1.8C370.1,57.5,374.1,56.8,375.4,58.9z"/>
	<path class="st34" d="M153.4,454.9c2.1-0.1,4.2-0.1,4,3c-0.1,0.3-0.2,0.6-0.3,0.8C153.8,459.4,153,457.8,153.4,454.9z"/>
	<path class="st130" d="M381.5,279.9c-1.2,2.4,2.6,2.9,1.9,5c-1.9,1.4-0.8,3.6-1.3,5.4c-0.5,0.3-1.1,0.6-1.6,0.9
		c-1.5-5.2-0.3-10.4-0.7-15.7c-0.2-2.8,0.4-5.6-0.4-8.4c0-11.7,0-23.5-0.1-35.2c0-1.7,0.7-3.7-1-5.1c3.1-1.6,1.5-4.6,2.1-7
		c1.6,0.3,1.9,1.6,2.1,2.9c0.3,17.3,0,34.6,0.2,51.9C382.8,276.5,382.5,278.3,381.5,279.9z"/>
	<path class="st131" d="M377.2,303.9c0-25.3,0-50.7,0-76c2.1,1.5,1.1,3.6,1.1,5.5c0.1,24.4,0,48.7,0,73.2
		C376.9,305.9,377.8,304.7,377.2,303.9z"/>
	<path class="st132" d="M379.4,267.1c2,5.1,0.5,10.4,0.9,15.6c0.2,2.8,0.1,5.6,0.2,8.4c-0.1,5.5-0.3,11-0.5,16.5
		c-1.5-1.5-0.7-3.5-0.7-5.2C379.2,290.7,379.3,278.9,379.4,267.1z"/>
	<path class="st133" d="M312.3,233c-5,2.2-10.4,1.2-15.6,1.7c-18.3,1.9-36.6,2.9-54.9,4.3c-12.9,1-25.7,2.1-38.6,3.2
		c-1.3-0.4-2.6-0.9-3.9-1.3c-3.6-4.9-2.1-8.5,3.8-9.2c1.5-0.2,3,0,4.3-1c2.1-1.8,4.5-1.6,7-0.9c2.1,0.5,4.3,2.2,6.1-0.5
		c1.1,0,2.1,0.4,3.1,0.4c5.9,0.5,11.8-0.8,17.8-0.6c0.3,0.1,0.7,0.1,1,0.2c11.5,4.9,23.3,3.9,35.2,2.6c9.2-1,18.5-1.4,27.8-2
		C308.1,229.7,310.6,230.5,312.3,233z"/>
	<path class="st89" d="M208.3,231c-0.4,2.4-2.3,1.9-3.8,2c-6.2,0.3-7.2,1.9-5.2,7.9c-0.7,0.1-1.4,0.1-2,0.2c-0.1-0.8-0.1-2.2-1-1.9
		c-4.1,1.2-3.9-2.3-4.4-4.2c-0.7-2.6,0.5-6.6,2.4-6.9c4.1-0.7,2.9-3,2.9-5.2c0.1-1.6-0.4-3.3,0.8-4.8c1.9,0.9,2.2,2.6,2.1,4.4
		c-0.5,2.5-0.9,4.9-1.3,7.4c1.4,0,2.1-1.2,3.2-1.2C204,229.7,206.3,230,208.3,231z"/>
	<path class="st134" d="M191.3,258c0.4-5.4,4.6-2.1,6.9-3C198.3,259.2,196.8,259.8,191.3,258z"/>
	<path class="st135" d="M312.3,233c-3.8-2-7.9-1.7-12-1.3c-12.8,1.1-25.5,2-38.3,3.1c-7.4,0.6-13.9-2.5-20.7-4.6
		c6.3-3.7,13.3-3,20.1-3.3c7.1,1.3,14.2,0.9,21.3,0.4c8.7-0.7,17.5-1.2,26.2-1.6c0.6,0,1.1,0.1,1.7,0.2c3.3,1.4,7,2.2,8.7,6
		C317,232.3,314.6,232.6,312.3,233z"/>
	<path class="st136" d="M311.3,227c-0.4-0.1-0.8-0.1-1.2-0.2c-8.7-1.2-17.3,0.9-25.9,0.9c-2.3,0-4.5,0.7-6.7-0.5
		c-0.7-2,1-2.4,2.1-2.4c7.7,0,15.1-2.9,22.9-2c2.5,0.9,5.1,0.8,7.8,0.8c2.6-0.5,5.7,0.8,7.9-1.8c0.4-0.2,0.8-0.4,1.3-0.4
		c1.4,0.5,2.5,1.5,4.3,0.2c1.5-1.1,3.5-2.2,5.8-1.5c1.9,3.2,2.6,6.4,1.1,10c-0.5,1-1.1,1.8-2.3,1.8c-2.6-3.7-6.1-5.3-10.6-4.1
		C315.4,228.3,313.4,227.6,311.3,227z"/>
	<path class="st137" d="M311.3,227c3.5-0.3,7.1-0.8,10.6-1c3.9-0.2,6.1,1.8,6.2,5.8c-3,0-5.9,0.1-8.9,0.1
		C316.6,230.3,314,228.7,311.3,227z"/>
	<path class="st138" d="M330.5,230.1c-0.1-3.5-0.7-7-2.1-10.3c-2-1.1-2.3-2.8-1.7-4.8c0.4-0.7,1-1.2,1.9-1.3
		c3.8,2.6,2.8,6.8,3.6,10.4c0.3,1.6,0.5,3.2,0.8,4.9c0.3,1.5-0.3,2.2-1.8,2.1C331,230.7,330.8,230.4,330.5,230.1z"/>
	<path class="st139" d="M199.5,204.2c0-0.4-0.1-0.8-0.1-1.1c1.1-4.2,2.2-8.4,4-12.4c0.9-1.9,2.4-3.5,3.6-5.2c1.1-2,2.9-2.6,5-2.7
		c3.2-0.1,6.3-0.9,9.4-0.9c10.7,0.1,21-2.4,31.6-3c1.7-0.1,3.3-0.1,5,0.2c5,1.3,10,0.6,15,0.6c3.5,1.1,2.3,4.2,2.7,6.6
		c0.3,1.9-0.8,4.7,2.4,5c1.8,0.2,4-0.1,4.5-2.2c0.5-2.4,1.7-5.4-1.4-7c-1.7-0.9-3.1-1.4-1.4-3.5c0.9-0.7,1.9-1.1,3-1.2
		c11.8-1.1,23.7-1.4,35.5-2.2c1.2-0.1,2.3,0.3,3.2,1c1.6,8.1,4.9,15.9,5.6,24.2c-2.4,2.7-5.5,2.3-8.6,2.3c-23.9-0.3-47.7,1-71.6,2
		c-13.4,0.5-26.9,0.5-40.3,1.2C204.2,205.7,201.6,206,199.5,204.2z"/>
	<path class="st140" d="M303.3,79.1c0.3-0.7,0.6-1.3,0.9-2c4,4.7,3.8,10.8,5.4,16.2c2.5,8.4,2.9,17.3,5.2,25.8
		c0.3,1,0.3-0.5,0.7-0.2c1.9,12.3,3.9,24.5,5.8,36.8c0.4,2.5,0.7,4.9,1,7.4c-1.9,1.7-0.5,4-1,6c-0.5,0.4-1,0.5-1.6,0.3
		c-2.3-1.9-2.1-4.8-2.5-7.4c-2.1-14.3-4.2-28.6-6.3-42.9c-0.9-4.7-0.9-9.7-5.3-13.3c-2.6-2.1,1.3-4,1.1-6.2
		c-0.8-5.2-2.4-10.2-3.6-15.4C302.7,82.5,301.8,80.7,303.3,79.1z"/>
	<path class="st141" d="M319.3,201.1c2.6-0.3,5.2-0.6,7.8-1c1.1,3.9,2.2,7.8,3.3,11.7c0.6,1.9-1.3,1.5-2,2.2
		c-0.3,0.4-0.6,0.7-0.9,1.1c-4-1-8-1.3-12.1-0.3c-1,0.2-2,0.2-3.1,0c-1.9-1-5.8,0.2-5.6-2.5c0.2-2.4,3.9-1.3,6-1.9
		c4-1,8.1-0.5,12.1-1.7c-2.7-1.5-5.8,0.2-8.6-1c-4.8-2.8-10-1.4-15.1-1.8c-2.1-0.2-4.4,0.1-5.1-2.7c4.7-2.4,9.9-0.8,14.8-1.7
		C313.7,201.1,316.5,202,319.3,201.1z"/>
	<path class="st142" d="M327.2,184c1.6,1.1,1.3,3.2,2.4,4.6c1.2,1.4,1.4,0.3,1.7-0.7c2.4,0.1,2.4,2.2,2.7,3.6
		c2.7,12,5.7,23.9,7.9,36c0.1,0.9,0,1.6-0.5,2.4c-1.1,0.3-1.7,1-2.1,2c-0.8,0.2-2.3,0.5-2.2-0.1c0.6-11.9-4.8-22.5-6.8-33.8
		C329.5,193.3,327.5,188.8,327.2,184z"/>
	<path class="st143" d="M320.2,169c0.3,0,0.7,0,1,0c1.8,2.2,0.5,4.6,0.2,6.9c-12.8,0.9-25.6,1.8-38.5,2.6c-0.2,0-0.5-0.4-0.8-0.6
		c-0.6-2.8-1.2-5.6,3.3-5.1c6.2,0.3,12.5-0.4,18.7-0.6c3.1-0.1,6.2-0.9,9.3-0.7C316.2,171.8,318.4,170.9,320.2,169z"/>
	<path class="st144" d="M328.4,214.1c0.7-0.8,1.3-1.5,2-2.2c0.9,3.8,1.8,7.5,2.7,11.2c-0.3,0.3-0.6,0.6-0.9,0.9
		C330.1,221.1,331.9,216.6,328.4,214.1z"/>
	<path class="st145" d="M341.4,230c-3-13.1-6.1-26.2-9.1-39.2c-0.2-1-0.7-1.9-1-2.8c-1.1-4.9-2.1-9.9-3.2-14.8
		c-0.3-1.1-0.9-2.5,0.4-3c1.4-0.5,1.9,1.1,2.2,2.1c1.7,4.9,2.4,10,4.1,14.9c0.2,0.5,0.4,1,0.5,1.5c1,6.9,3.3,13.5,4.6,20.3
		c0.6,3.1,1,6.1,1.1,9.2c0.7,3.1,1.3,6.2,2,9.2C343.4,228.9,343.4,230,341.4,230z"/>
	<path class="st146" d="M339.3,197c1.3,6,2.7,11.9,4,17.9c0.4,1,0.9,2.1-1,2.1c-0.1-0.2-0.2-0.5-0.3-0.7c-2.3-2.4-2.4-5.8-3.1-8.7
		c-1.4-6.5-3.1-13-4.7-19.5l0,0.1c-1.6-5.1-2.6-10.4-3.8-15.7c-0.2-1.1-1.3-3.2,1.6-2.2C334.5,179.1,336.9,188,339.3,197z"/>
	<path class="st147" d="M334.3,188c3.8,9.1,4.9,18.9,7.8,28.2c-0.4,0.6-0.7,1.3-1,1.9C338.5,208.2,335.4,198.3,334.3,188z"/>
	<path class="st148" d="M342.4,216.9c0.3-0.7,0.7-1.4,1-2.1c1.3,5,4.2,9.8,3,15.3C345,225.7,343.7,221.3,342.4,216.9z"/>
	<path class="st149" d="M357.4,223.9c-2.4-2-5.3-1.9-8.1-1.9l0,0c-0.7-0.9-0.4-1.9-0.5-2.9c-1.2-5.9-0.9-6.4,5-6.6
		c6.1-0.1,12.2-1.2,18.3-0.3c1.3,0.2,3.1-0.5,3.3,1.9c-2.5,1.7-1.8,4.2-1.6,6.5c0.1,1.5,1.1,3.1-0.2,4.5c-0.2-0.7-0.5-1.5-0.7-2.2
		c-4.7,4.5-9.7,0.9-14.5,0.5C357.9,223.3,357.7,223.7,357.4,223.9z"/>
	<path class="st150" d="M375.3,214.1c-8.2-1.4-16.5,0-24.7-0.1c-1.7,0-2.6,0.9-1.9,2.5c0.7,1.8,0.6,3.6,0.6,5.4c-2-3.7-3.6-7.6-3-12
		c0.6-1.5,1.8-1.9,3.2-1.9c8.6-0.1,17.1,0,25.7-0.1c5.3,0.7,10.8-1,16,0.8C385.7,209.9,380.4,211.8,375.3,214.1z"/>
	<path class="st151" d="M381.3,222c-0.3-0.7-0.6-1.5-0.9-2.2c0.2-2.6,0.7-5.1,3.8-5.7c1,1.1,1,2.4,1,3.7c0,8.5,0,16.9,0,25.4
		c0,1.3,0,2.7-0.9,3.8c0,0.3-0.1,0.6-0.1,0.9c-1.2,5.6,0.2,11.4-0.9,17.3c-2.3-1.1-1.5-2.8-1.5-4.1c-0.1-11.4,0-22.9-0.1-34.3
		C381.7,225.2,382.1,223.6,381.3,222z"/>
	<path class="st152" d="M384.3,247c0-11-0.1-22-0.1-33c0.7-0.4,1.3-0.7,2-1.1c0,11.4,0,22.7,0,34C385.6,247,385,247,384.3,247z"/>
	<path class="st153" d="M218.2,385.9c-2.9,5-3.5,10.9-5.8,16.1c-2.4,2.2-5.6,2.3-8.6,2.7c-3.2,0.3-5.8,2.1-8.6,3.3
		c0.1-13.9,0.3-27.8,0.2-41.6c0-3,2.6-5.5,1.5-8.6c4.4-1.2,8.8-1.4,13.3-0.7c3.6,4.1,5.2,9.4,8.1,13.9
		C219,375.9,219.2,380.9,218.2,385.9L218.2,385.9z"/>
	<path class="st84" d="M218.2,385.9c0-5,0.1-9.9,0.1-14.9C219.5,375.9,220.4,380.9,218.2,385.9z"/>
	<path class="st154" d="M188.4,379.9c0.1-7,0.3-13.9,0.1-20.8c-0.1-4.2,1-5.5,4.8-3.1C194.1,364.4,191.9,372.3,188.4,379.9z"/>
	<path class="st155" d="M365.3,87.9c0.7,0.4,1.4,0.8,2,1.1c2,3.3,1.9,3.5-2.6,8.7c3.3,0.2,6.4-3,9.7-0.6c0.1,1.5,1.1,1.8,2.4,1.9
		c2.7,0.1,6.3-0.7,4.6,4.3c-0.1,0.3,0.2,0.9,0.2,0.9c5.3-0.9,2.7,4.6,4.9,6.3c1.4,1.1,0.8,2.7-0.2,4c-1.1,1.5-2.4,1.3-4,0.8
		c-2-0.6-1.8-1.6-1.5-3.4c0.6-3.6-1.1-5-4.2-3.5c-2.4,1.2-4.5,0.7-6.6-0.4c-1.4-0.8-2.5-0.7-3.5,0.6c-1.3,1.7,0.7,1.8,1.3,2.5
		c1.3,1.5,3.5,2.8,2.2,5c-1.2,2-3.2,0.7-5,0.4c-3.6-0.6-7.2-0.9-10.8,0.5c-1.1,0.4-2.5,0.6-2.3,2.1c0.1,1.2,1.5,1.1,2.4,1.4
		c1.4,0.5,2.9,0.7,4.4,1c-0.8,2.2-2.2,1.3-3.6,1c-10.6-2.4-21.3-4.3-32.2-5.6c-3.5-0.4-3.5,0.9-3.5,3.2c-2.1-4.4-3.1-9.1-4.1-13.8
		c-0.1-2.8,2.2-2.8,4-3.3c5-1.2,9.8-2.7,14.7-4.2c1.5-0.5,3.4-0.6,3-3.1c1.3-3.1,4-3.4,6.8-3.6c5.9-1.8,12.9,0.9,18-4.5
		C362.5,86.6,364.1,87.3,365.3,87.9z"/>
	<path class="st156" d="M336,171.2c-2.3-7.6-4.6-15.3-6.9-22.9c-1-3.1,1.6-3.2,3.3-3.7c4.7-1.3,9.6-0.8,14.4-1
		c10.9-0.6,21.8-0.4,32.7-1.4c1-0.1,2,0,2.8,0.8c-1.3,6-4.8,9.7-11.1,10.6c-0.7,0.1-3.8-0.4-1.9,2.4c0.9,1.4,1.9,2.7,2.8,4.1
		c3.5,5.2,3.5,6-0.3,11.3c-10.1-0.4-20.1,0.7-30.2,1.1C339.6,172.6,337.6,172.9,336,171.2z"/>
	<path class="st157" d="M382.3,143c-11.7,2.3-23.6,1.1-35.3,2c-5.3,0.4-10.8-0.4-16,1.4c-1.2,0.4-1.6,0.8-1.8,1.9
		c-3.7-9.3-7.3-18.6-9.9-28.3c1.6,1.7,3.4,2.8,6,3.1c10,1.1,19.9,2.5,29.9,4c5.3,0.8,10.1,3.1,14.9,5.4c4.5,2,8.9,4.2,13.2,6.6
		c2.6,1.5,4.4,0.1,6.5-0.7c1-0.4,2.5-0.9,2.9,0.7c0.3,1.2-0.8,1.8-1.8,1.8C387.9,141.1,385.5,143.6,382.3,143z"/>
	<path class="st158" d="M424.3,95c-1.6,0-2.6,0.4-3.1,2.3c-1,4.2-2.5,8.3-6.1,11.3c-1.3,1.1,0.2,2.1,0.8,2c3.1-0.4,5.1,2.1,4.7,3.7
		c-0.6,2.5-3,5.1-5.9,5.5c-5.8,0.8-11.5-0.8-17.3-1.4c-1.1-0.1-2-0.9-2.1-2.4c-0.4-4.8-2.8-9-4.4-13.4c-1.9-5.3-7-5.8-11.7-6.6
		c-0.1-0.5-0.1-1.1,0.3-1.3c8.2-2.9,16-7,24.7-8.4c5.7,3.8,11.8,6.3,18.7,6.9C423.8,93.3,424.4,94,424.3,95z"/>
	<path class="st159" d="M424.3,95c-1.6-1.8-3.9-1.2-5.6-1.2c-6.1,0.3-10-3.6-14.4-6.7c4.6-4.1,10.3-5.2,16.1-6
		c6-1.6,12.1-3.3,18.1-4.9c-0.7,6.3-4.2,11.2-7.1,16.6C429.3,96.2,427.5,97.2,424.3,95z"/>
	<path class="st160" d="M420.3,81.1c-5.4,2-10.7,4-16.1,6c-8.3,3-16.6,6-24.9,9c-1.6,0.4-3.3,0.7-4.9,1.1c-4.2,0-8.1,2.1-12.8,2.8
		c1.7-4.2,7.7-5.6,5.8-11c8.1-0.5,15.2-4.6,23.1-5.9c2.4,4.2,5.5,3.4,9.4,2c6.3-2.2,12.5-5.3,19.5-5.1
		C419.6,80.4,419.9,80.7,420.3,81.1z"/>
	<path class="st161" d="M372.3,170.1c2-3.5,1.2-6.5-1.2-9.5c-1-1.2-3.3-2.2-1.8-4.5c6.7-1.6,11,2.2,14.8,6.8
		c-3.1,3.2-7.2,4.8-10.8,7.2C373,170.5,372.7,170.5,372.3,170.1z"/>
	<path class="st162" d="M366.6,123.7c3.9-1.5,8.3,1.3,10-3.5c0.1-0.2,1.3-0.1,1.9,0.1c10.6,3.3,21.6,5.1,32,9.2
		c-0.9,2.2-2.3,1.3-3.7,1c-7.8-1.7-15.3-4.3-23.1-5.8C378.3,123.6,372.8,124.7,366.6,123.7z"/>
	<path class="st163" d="M372.3,170.1c0.3,0,0.6,0,1,0c-0.4,1-0.7,2-1,2.9c-11.6,0.7-23.3,1.4-34.9,2c-0.4-1.3-0.9-2.5-1.3-3.8
		C348.1,171.2,360.2,169.3,372.3,170.1z"/>
	<path class="st13" d="M45.3,269.1c0.8-0.5,1.2-0.9,2.9,0.7c1,1,3.5-4.9,2.6,0.7c2.3-2.1,3.3,2.7,5.6,1l4.2,2.5
		c1.7,2.2,3-0.9,4.8-0.2c-0.4,0.8-0.7,1.5-1,2.2c-0.2,0.4-0.5,0.7-0.9,0.8C57.5,274,50.6,273.5,45.3,269.1z"/>
	<path class="st164" d="M63.4,276.8c0.3-0.3,0.6-0.5,0.9-0.8c0.6-0.2,1.3-0.3,1.7-0.7c1.2-1.2,2.3-1.2,3.9-0.5
		c2.7,1.3-0.2,2.8,0.4,4.1C67.8,279,65.8,277.4,63.4,276.8z"/>
	<path class="st165" d="M320.2,169c0.3,2.2,0.1,3.8-2.9,4c-9.9,0.5-19.8,1.3-29.7,1.9c-1.5,0.1-3.1,0.4-3.4-1.8
		c-0.8-0.8-0.7-1.8-0.3-2.6c1.7-3.7-1.4-1.1-2.1-1.6c-2.1-0.1-3.2-1.6-4.3-3.1c-0.8-1.1-1.7-2.1-3.1-2.3c-1.5-0.2-3.2-0.8-4.2,0.5
		c-1.1,1.3,0.4,2.4,0.9,3.6c2.5,5.1,1.4,7.5-4.3,9.8c-16.1,1.4-32.2,1.8-48.3,3.1c-5.4,0.4-6.3-0.4-7.2-5.5
		c-2.4-2.4-5.6-3.1-8.7-4.2c-8.5-2.8-15.6-8.5-23.7-12c-0.4-0.2-0.4-1.1-0.6-1.8c4.2-4.7,8.5-9.4,12.8-14.1c3.1-4.1,8-4.6,12.5-5.5
		c24.3-5,48.1-12,72.3-17c3.4-0.7,6.7-1.6,10.4-1.7c-4.6-0.5-5.1-1.4-3.1-5.9c-3.2-0.8-6.2-0.6-9.3,0.4
		c-17.1,5.5-34.8,8.8-52.3,12.9c-2.4,0.6-6.1,2.1-7-1.2c-0.9-3.4,3.1-3.7,5.5-4.4c7-2,14.1-3.8,21.4-4.8c3.9-0.5,7.2-2.5,10.8-3.7
		c1.4-0.5,2.9-1.6,2.6-3.2c-0.3-1.7-2.1-1.3-3.3-1.4c-6.1-0.8-12.2-1.9-18.2-3c-2-0.4-5-1-1.6-3.9c12.2,0.6,24.2,3.3,36.2,5.3
		c10.5,1.7,20.9,3.6,31.4,5c5.3,0.7,10,2.4,12.8,7.4c2.4,16.1,4.8,32.1,7.2,48.2C319.5,167.2,319.9,168.1,320.2,169z"/>
	<path class="st141" d="M199.4,223c-0.4-1.6-0.9-3.3-1.3-4.9c-0.1-1.2-1.3-2.9,1.2-3.2c8.9,1,17.6-2.8,26.5-0.5
		c0.6,0.2,0.5-1,1.2-1.1c10.5-2.7,21.4-1.8,32-3.6c11.4-2,23-2.9,34.6-3.8c5.9-0.5,11.8-0.5,17.8-0.3c1.5,0.1,2.9,0.4,4.1,1.5
		c-0.2,2-1.9,2.2-3.3,2.4c-16.6,2.2-33.3,3.5-50,4.1c-0.5,0-0.9-0.1-1-0.3c5.1,0.9,10.3-0.3,15.5-0.5c5.6-0.2,11.2-0.6,16.9-1.2
		c5-0.5,9.9,0,14.6,2.1c0.3,3.3-2.5,2.5-4,2.7c-21.5,2.3-43.1,3.5-64.5,6.1c-8.8,1-17.5,1.7-26.3,0.8c-2.9-0.3-5.5,1.1-8.1,2.3
		C202.5,226.3,200.3,225.9,199.4,223z"/>
	<path class="st166" d="M226.3,214c0,0.2-0.1,0.5-0.1,0.5c-9-0.2-17.9,3.6-26.9,0.4c-1.8-3.6-0.1-7.1,0.2-10.7
		c39.9-0.9,79.8-3.7,119.8-3c-5.9,1.4-11.9,1.1-17.9,1.9c-1.7,0.2-3.6-0.6-5.1,0.9c-3.3,2.5-7.3,2-11,2.3c-26.6,2-52.9,6.7-77.8,7.2
		c3.4-0.6,8.9-0.2,14.2-0.8C223.4,212.5,225,212.6,226.3,214z"/>
	<path class="st167" d="M211.4,174.9c0.9,5.2,4.8,4.1,8.2,4c16.2-0.9,32.4-1.9,48.6-2.8c1.5,2.7,0.2,4.1-2.3,4.3
		c-2.5,0.2-5.1,0.6-7.6-0.4c-7.8,0.8-15.6,1-23.5,2.4c-7.2,1.3-14.7,1.3-22.1,1.4c-2.7,0.1-4.3,0.8-5.4,3.1
		c-1.1-0.3-2.2-0.2-3.1-1.1c1.2-2.7,2.8-5.2,3.5-8C208.3,175.7,212.7,178.8,211.4,174.9z"/>
	<path class="st168" d="M243.4,77.1c0.3,0.3,0.6,0.7,1,1c-22.4,25.6-44.7,51.1-67.1,76.7c-0.9,1-1.6,2.1-2.4,3.1
		c-0.5-0.3-1-0.6-1.4-0.9c8.7-10.1,17.3-20.2,26.1-30.2C214,110.2,228.7,93.6,243.4,77.1z"/>
	<path class="st169" d="M204.3,190.9c-1.6,4.1-1.8,8.7-4.9,12.1c-2.3-4.3-1.2-9.7,2.9-14C203.3,189.3,203.7,190.1,204.3,190.9z"/>
	<path class="st170" d="M204.3,190.9c-1.4,0.1-1.9-0.7-2-1.9c-0.2-1.5,1.4-2,2-3.1c1.4-0.6,2.9-1.7,3.1,1.1
		C206.3,188.3,205.3,189.6,204.3,190.9z"/>
	<path class="st171" d="M337.3,96c0.4,1.2,2.3,0.6,2.6,2.5c-6.9,1.9-13.9,3.8-20.8,5.6c-1.5,0.4-2.9,0.8-3.8,2.1
		c-0.3-0.7-0.6-1.4-0.9-2.1c-3.8-6-4.5-12.9-6.3-19.6c-0.1-1.8-1-3.5-0.1-5.3c3.7-1.2,10.3,0.8,12,3.8c0.4,0.7,0.9,1.4,1.6,1.8
		C327.1,88,332.1,92.1,337.3,96z"/>
	<path class="st172" d="M315.4,118.8c-0.2,1.1-0.3,2.2-0.5,3.4c-3.6-15.2-7.2-30.2-10.8-45.2l0.3,0c0.5-0.3,1-0.3,1.5,0.1
		c2.2,2.7,1.8,6.3,2.9,9.4c1.4,6.3,4.1,12.3,4.4,18.8C313.5,109.8,314.2,114.4,315.4,118.8z"/>
	<path class="st173" d="M313.1,105.2c-2.2-6.2-3.5-12.7-5-19.1c-0.3-1-0.9-2.2,1-2c1.7,6.6,3.4,13.3,5.1,19.9
		C313.9,104.4,313.5,104.8,313.1,105.2z"/>
	<path class="st147" d="M332.1,170.1c-1.7,0-1.1,1-0.9,2c1.1,5.3,2.1,10.6,3.1,16c-3.2-5.3-2.7-11.8-5.6-17.5
		c-0.2,1.1-0.4,1.9-0.5,2.6c-0.8-1.3-1.6-2.8-0.1-3.8C329.3,168.5,331.1,168.1,332.1,170.1z"/>
	<path class="st174" d="M375.1,207.9c-7.8,1.4-15.7,1-23.6,1.2c-1.8,0-3.6-0.1-5.3,0.9c-1.1-0.7-1-1.8-1-2.9c8.4,0,16.8-0.1,25.2,0
		C372.1,207,373.8,206.4,375.1,207.9z"/>
	<path class="st175" d="M47.4,258.8c2.3,0.7,4.6,1.5,6.9,2.2c0.1,0.6,0.1,1.2,0.2,1.8C51.4,262.7,48.4,262.5,47.4,258.8z"/>
	<path class="st176" d="M46.6,256.4c-1.6-1.9-1.4-3.9-0.3-6.7C47.9,252.3,47.4,254.3,46.6,256.4z"/>
	<path class="st177" d="M126.3,268c-4,0.3-7.2-2.3-10.9-3.1c-2-0.4-2.5-2.2-1.9-3.9c0.9-2.6,2.2-0.7,3.4-0.2c2.8,1.1,6.2,1,7.8,4.3
		c0.5-0.4,1-0.7,1.5-1.1C127.4,265.3,127.4,266.6,126.3,268z"/>
	<path class="st56" d="M126.3,268c0-1.3,0-2.7,0-4c1.3,0.5,3.4-2.3,3.9,0.8C130.6,267.5,128.5,268.1,126.3,268z"/>
	<path class="st178" d="M111.2,263.7c-2.8-1.5-1.8-3.3-1.5-6.1C112,260,111,262,111.2,263.7z"/>
	<path class="st179" d="M303.3,79.1c1.6,7,3.3,14,4.9,21c-6.6,3.7-13.6,5.6-21.2,3.7c-1.7-0.4-3.3-1.2-4-2.7
		c-1.6-3.5-4.4-5.3-8.1-5.8c-3.5-0.5-5.2-4-8.2-5.2c-5-2-10.3-2-15.6-1.3c-3.8,0.5-7.9,1.6-11.1-1.9c4.1-5.2,8-10.6,13-15
		c0.6,2,1.5,4,1.8,6c0.2,1.1,0.5,2.2,1.4,2.4c5,1.3,8.9,6.3,15.1,3.4c2.7-1.2,5.9-1.6,9.4,0c5.1,2.5,10.9,2.2,16.5,2.6
		c1.9,0.1,4-0.7,4-3.4C301.3,81.4,300.7,79.4,303.3,79.1z"/>
	<path class="st180" d="M303.3,71c-2.7,0.1-0.1,2.6-2,3.6c-4.5-5.8-12.1-8.2-17-14.1c-2.6-3.1-4.4-6.9-8.1-9
		c-1.5-0.8-1.4-1.5-0.1-2.5c1.5-1.2,2.9-2.7,4.3-4c2.9-1.2,5.1-4.3,8.8-3.4c1.4,1.3,1.4,3.2-0.3,3.6c-2.3,0.6-2,2.4-2.7,3.7
		c-1.5,2.5,0,5.3,2.6,4.5c3.5-1.2,6.4,0.4,9.6,0.6c3.1,3.6,4.9,7.8,5.7,12.4C304.2,68.1,304.7,69.7,303.3,71z"/>
	<path class="st181" d="M303.3,71c0.2-6.5-3.4-11.6-5.8-17.2c-1.7-1.8-1-3.5,0.6-4.6c1.9-1.1,2.9,0.6,3.9,1.9
		c0.6,0.8,0.9,1.8,1.1,2.7c0.7,4.6,2.9,8.9,3.5,13.6c0.4,2.6,1.2,5.1,0,7.6c-0.3,0.8-0.7,1.4-1.4,1.8l-0.4,0l-0.4,0
		C304.3,75,304.4,72.9,303.3,71z"/>
	<path class="st182" d="M289.3,42c-3,1-6,2-9,3c2.9-2.9,5.5-6,9.3-7.9c1.4-0.7,2.4-0.9,3.6,0c0,1,0,1.9,0.1,2.9
		C292.2,41.2,291,42.2,289.3,42z"/>
	<path class="st183" d="M329.2,33c-0.7,0.3-1.5,0.9-2.2,0.9c-1.4,0.2-2.8,1.8-4.1,0.5c-1.5-1.4-0.3-3,0.3-4.5c1.6-1,3.3-2,4.9-3.1
		c1.8,1.4,0.8,3.5,1.2,5.2C329.6,32.5,329.5,32.8,329.2,33z"/>
	<path class="st15" d="M303.2,30c-1.5-2-2.9-0.3-4.2,0.3c-1.9,0.9-3.1,0.8-3.6-1.4c2.5-0.6,5-1.2,7.6-1.7c0.8-0.1,1.9,0,2,0.9
		C305.2,29.2,304.3,29.8,303.2,30z"/>
	<path class="st184" d="M231.4,101.1c-0.4,1-0.6,1.8,1,2c6.9,0.9,13.7,1.9,20.6,3c1.8,0.3,5,0.3,4.6,2.3c-0.4,1.9-2,4.6-4.4,5.4
		c-8.1,3-16.8,4.1-25.2,6.2c-3.5,0.9-7,1.9-10.5,2.9c-1,0.3-2.7,0.3-2.4,1.9c0.3,1.4,1.7,1.2,2.9,0.9c13.6-3.5,27.5-6,41-9.6
		c6.8-1.8,13.4-4.9,20.6-5.1c2.4-0.1,4.6,0.3,6.8,1.4c0,2.5-5,1.2-3.6,4.1c1.7,3.6,5.1-0.5,8.7,1.4c-7.4,1.8-13.8,3.6-20.3,5
		c-18.6,3.9-37,8.6-55.5,13.4c-6.4,1.6-13.1,2-19.4,4.4c-1.9,0.7-3.6,1.5-5.4,2.3c7.7-10.2,16.6-19.4,24.9-29c2.9-3.4,6-6.6,9-9.9
		C227.1,102.8,227.8,98.8,231.4,101.1z"/>
	<path class="st185" d="M231.4,101.1c-2.9-0.8-4,2.3-6.3,2.9c4.6-6,9.5-11.8,14.9-17.1c3.8,0.9,7.6,1.7,11.5,0.6
		c5.7-1.6,11.4-0.1,16.7,1.1c2.1,0.5,3.1,4.8,6.7,5.1c4.6,0.4,6.9,3.2,9.5,6.9c1.9,2.8,6.7,4.2,10.7,2.5c4.2-1.8,8.8-1.6,13-3.1
		c0.2,1.3-0.5,2.2-1.5,2.9c-1.1,0.7-1.5,1.8-0.3,2.3c6.1,2.5,3.9,8.6,5.8,12.9c-7.6-7.6-18-6.2-27.3-7.9
		C267.1,106.8,249.2,104.1,231.4,101.1z"/>
	<path class="st186" d="M329.2,33c0.1-0.3,0.1-0.6,0.1-0.9c2.2-4.7,6.4-3.6,9.9-2.8c5.7,1.2,11.3,3.2,16.9,4.9
		c0.4,0.9,0.7,1.9,1.1,2.8c-6.5-2.6-13.8-2.2-20.1-5.7c-1.1-0.6-4.2-1.9-4.4,2.1C332.7,35.7,331.6,35.6,329.2,33z"/>
	<path class="st187" d="M305.4,68c-0.4-4.8-3.5-9-3.1-14c2.8,0.1,5.1,1.5,7.1,3.2c3.3,2.8,6.8,5.5,10.3,7.9c-5.6-4-10.2-9.4-16.2-13
		c-2-1.1-3.2-2.9-3.3-5.2c-0.3-1.6-0.6-3.2-0.9-4.9l0.2-0.2c3.1-0.9,4.3,1.9,6.2,3.2c6.1,4.4,12.3,8.7,17.7,13.9
		c2.5,4.4,8.1,5.1,11,9c-0.7,1.1-2.1,0.6-3.1,1.5c4.4,2.4,8.4,5.1,13.4,7.7c-1.3-1.3-2.4-1.9-1.2-3.2c5,1.5,9.3,4.4,13.6,7.2
		c1.2,0.8,2.2,1.8,3.9,1.8c3.3-0.1,4.5,1.9,4.5,4.8c-2,0.3-4.2-0.4-4.7,2.9c-0.3,2.3-3.1,0.8-4.6,1.3c-3.6,1.1-7.7,0.8-11.6,1
		c-1.1-1.1-5.4-0.9-1.6-4c-6.2,1.3-9.9,0.3-7.8-5.5c-3.7,2.7-6.8,2.7-9-0.2c-1-1.3-1-1.3,2-4.4c-2.8,1.5-5.5,2-8.3,0
		c-2.6-1.8-5.4-3.5-6.1-6.8c-0.2-1,0-0.5-0.7-0.4C309.2,72.7,307.3,70.4,305.4,68z"/>
	<path class="st188" d="M300.2,46.9c3.1,4.9,8.8,6.7,12.6,10.8c2.8,3,6.4,5.3,9.1,10.2c-7.3-5.2-13.5-9.6-19.6-14
		c-0.3-0.4-0.7-0.7-0.8-1.2c-0.4-1.5-1-3.4-2.5-3.1c-1.7,0.4-1.9,2.3-1.5,4c-0.1,0.5-0.3,0.9-0.5,1.4c-4-2.8-9.4,1.8-13.2-2.4
		c-0.7-0.8-1.4-2.3-1.4-2.3c4.1,0.2,0.9-6.5,5.6-5.9c1.6,0.2,1.1-1.6,1.3-2.7c1-1.2,2.5-1.7,3.9-2c0.5,2.1,1.1,4.1,2.4,5.9
		C296.9,47.7,298.3,48.4,300.2,46.9z"/>
	<path class="st189" d="M419.2,80.1c-8.3,2.8-16.6,5.6-24.9,8.4c-1.5,0.5-2.9,1.2-2.7-1.6c0.1-1.2-0.8-2.5-1.2-3.7
		c0.8-0.5,0.9-1.3,1-2.1c3.2,0.2,6.2-0.7,9.1-2.2c-2.6-0.9-3.1-3.2-1.7-4.6c3.9-4,4.1-3.8-0.7-5.7c5.5-2.9,8-1.3,9.4,6.3
		c0.8,4.3,2.9,5.3,6.2,2.9c1.9-1.3,1.6-3,1-4.9c-1-3-0.1-4.9,3.4-4.7c1.3,1.4,2.5,2.9,3.8,4.4C424.7,75.6,423.5,79,419.2,80.1z"/>
	<path class="st190" d="M381.3,222c1.5,1.5,0.8,3.5,0.9,5.2c0.1,12.2,0,24.5,0.4,36.7c1.5-5.2-0.4-10.8,1.7-15.9
		c0,8.9,0,17.8,0,26.8c0,2.1,0.1,4.4-2.7,5.1C381.4,260.6,381.4,241.3,381.3,222z"/>
	<path class="st191" d="M354.3,56c7.7,5.2,15.8,10,23,16c0.1,0.7-2.3,1.4-0.4,1.9c1.6,0.4,2.5,1.4,4,3.2c-8.5,0.9-15.7,6.7-24.7-0.4
		c-7-5.5-15.4-9.6-22.9-14.7c0.4-9.1,7.5-9.7,14-11c0.3,0.3,0.7,0.7,1,1c-0.2,0.7-0.6,1.1-1.3,1.3c-0.4,0.1-0.8,0.1-0.9-0.1
		C348.8,53.8,351.7,54.6,354.3,56z"/>
	<path class="st192" d="M323.3,59.1c-8.7-4.7-15.7-11.7-23.8-17.2c-0.1-3.2,1.6-3.7,4-2.5c2.8,1.4,6.3,2.4,7.9,4.7
		c4.4,6.4,12,8.5,16.9,14C327.1,60.9,324.9,58.5,323.3,59.1z"/>
	<path class="st155" d="M343.3,74c0,2.1,1.8,2,3.4,2.2c-3.1,2.5-5.5,0.7-7.8-0.6c-2-1.1-4-2.2-5.8-3.5c-1.4-1-4.3-1.3-3.7-3.4
		c0.7-2.3,3.2-0.2,4.8-0.7C336.7,71,340.1,72.4,343.3,74z"/>
	<path class="st126" d="M354.3,56c-3.5,0.9-6-1.7-9.4-2.4c1.4-0.6,2.4-1.1,3.4-1.6C350.4,53.2,353.2,53.3,354.3,56z"/>
	<path class="st193" d="M204.3,225c3.7-3.3,7.5-3.9,12.6-2.7c5,1.1,10.5,0.3,15.8-0.4c17-2.2,34.1-3.7,51.3-4.9
		c8.2-0.6,16.3-1.8,24.5-2.8c0.8-1,1.8-0.6,2.8-0.5c2.6,5.6,2.4,6-4,6.6c-1.5,0.1-2.9,0.5-4.2,1.2c-7.3,1.6-14.8,1.5-22.1,2.6
		c-13.9,2.1-28,2.6-41.9,4.5c-5.5,0.7-11.2,0.7-16.7,2.1c-0.9,0.5-1-0.8-1.7-0.8c-2.5-0.4-5-0.1-7.4-0.8
		C210.2,227.6,206.3,228.2,204.3,225z"/>
	<path class="st194" d="M222.3,230.7c1.3-3,4.4-2.1,6.5-2.4c14.3-1.7,28.7-2.9,43-4.4c10.5-1.1,21-2.6,31.5-3.9
		c3.2-0.3,6.8-2.2,8.4,2.6c-0.4,0.9-1.1,1.2-2,1.3c-2.1,0.1-4.2,0-6.4,0.1c-8.8,0.9-17.5,1.9-26.2,2.8c-5.1,2.1-10.5,1-15.8,1.3
		c-6.7,0.7-13.4,1.4-20,2.1C234.9,230.4,228.6,231.6,222.3,230.7z"/>
	<path class="st195" d="M213.3,228.1c2.6,0,5,0.4,7.3,1.8c-1.4,1.9-2.9,2.3-5.3,1.4c-2.1-0.7-4.6-2.1-6.9-0.2c-2.5,0.9-4.8,1-6-2
		c-0.4-0.8-1.8-1.2-1.2-2.4c0.6-1.3,1.7-0.6,2.6-0.5C207,226.3,209.8,228.5,213.3,228.1z"/>
	<path class="st133" d="M213.3,228.1c-3.4,2.3-6.3-0.7-9.3-1.3c-3.1-0.6-1.6,1.1-1.6,2.2c-1.5,1.8-2.8,3.9-6,1.9
		c2.9-1.9,1-5.5,3-7.9c1.4,1.2,2.9,2.2,4.9,2C207.3,226,210.3,227,213.3,228.1z"/>
	<path class="st196" d="M261.3,228.1c5.2-0.9,10.5-1.4,15.8-1.3c9.3,1.1,18.5-1.2,27.9-0.8c1.8,0.1,3.7-0.7,5.2,0.9
		c-14.4,0.7-28.7,2.4-43.1,2.2C265.1,229,263,229.7,261.3,228.1z"/>
	<path class="st197" d="M311.3,223c-1.5-4.3-5.2-2.4-8-3c1.5-1.6,3.4-0.9,5.1-1c3.5-0.2,3.5-0.1,1.9-3.4c-0.1-0.2,0.7-1,1-1.5
		c0.2-0.5,0.5-0.6,0.9-0.3c1,0,2.1,0,3.1,0c0.1-0.1,0.3-0.2,0.5-0.2c2.5-0.1,6.4-1.3,7.3,0.6c1.2,2.8-1.1,5.8-3.7,7.7
		c-0.3,0-0.7,0-1,0C316.1,223,313.9,224.5,311.3,223z"/>
	<path class="st198" d="M319.3,222.1c1-2.5,2.1-5,3.4-8.2c-2.7,0-5.1,0-7.5,0c4.2-0.6,8.5-2.8,12.2,1.3c-0.4,1.7,0.7,3.1,1,4.6
		c-1,3.4-5.4,1.8-6.9,4.7C321.4,224.9,321,222.1,319.3,222.1z"/>
	<path class="st198" d="M311.3,223c2.4,0.3,4.6-1.5,7-0.9c-0.5,0.9,1.5,3.2-1.1,2.6c-2.2-0.5-4.1,0.7-6.1,0.1
		c-0.5-0.6-2.4,0.3-1.8-1.6C310,223.1,310.7,223,311.3,223z"/>
	<path class="st197" d="M309.4,223.1c0.6,0.5,1.2,1.1,1.8,1.6c-2.6-0.1-5.4,1.1-7.9-0.7C305.1,222.2,307.3,223.3,309.4,223.1z"/>
	<path class="st199" d="M280.2,179c-0.7,0.5-0.9,1.1-0.1,1.5c1.2,0.6,3.5-1.2,3.9,0.8c0.5,2.9,1,6.2,0,8.8c-1.2,3.5-5.2,2.5-8.1,2.6
		c-2,0-1.3-2.2-1.6-3.6c-0.5-3,1.1-6.2-1.1-8.9c-1.7,0.5-3.6,0.2-3.8-1.6c-0.2-1.9,1.5-3,3.5-3.2C274.8,177.5,278.9,175.4,280.2,179
		z"/>
	<path class="st200" d="M273.2,175.9c-1.6,0.1-2.7,1.5-3,2.6c-0.2,0.8,1.6,1.5,2.9,1.7c-5,1.3-9.9,1.5-14.8-0.1c2,0,3.9-0.1,5.8,0
		c2.8,0.1,4.3-1,4.1-4c2.9-2.2,4.7-4.5,1.8-8.1c-1.2-1.5-3.8-4.2-1.7-5.3c2.5-1.2,6.4-2,9.2,0.8c1.6,1.6,2,4.4,4.8,4.7
		C281.5,173.3,276.5,173.5,273.2,175.9z"/>
	<path class="st201" d="M222.8,197.8c-2,0.1-3,0.3-4,0.2c-1.1-0.1-2.6,0.5-3-0.9c-0.4-1.5,1.1-2.1,2.2-2c2.4,0.2,2.1-2.5,4-3.1
		c4.4-1.5,7.3,2.2,11.1,2.7c0.2,0,0.5,0.9,0.4,1.2c-0.3,0.9-1.2,1.2-2,1.1C228.2,196.5,225.1,198.7,222.8,197.8z"/>
	<path class="st202" d="M273.2,175.9c1.9-3.9,7.2-3.8,9.1-7.7c1.3-0.8,2.5-2.1,4.7-1.5c-0.9,2.2-1.8,4.3-2.8,6.4
		c-2.8,0.8-0.5,3.6-2,4.9c-0.7,0.3-1.4,0.6-2,1C278.5,176.6,274.2,179.8,273.2,175.9z"/>
	<path class="st203" d="M226.3,214c-7.3,0-14.6,0-21.9,0c30.6-3.8,61.1-8,91.8-10c5.2,1.4,10.6,0.4,15.8,1c1.7,0.2,3.3,0.1,4.1,2
		c-0.3,0.4-0.6,0.4-0.9,0.1c-7.2-2.7-14.5-0.4-21.6,0.2c-11,0.8-22,2.3-32.9,3.8C249.4,212.6,237.8,213.2,226.3,214z"/>
	<path class="st204" d="M315.3,207c0.3,0,0.6-0.1,0.9-0.1c2.1,0.1,4.3,0.1,6.4-0.5c2.5-0.7,4.7,0.4,5,2.8c0.3,3-2.5,1.6-4,1.7
		c-5.4,0.5-10.9,0.9-16.4,1.3c1.5,1.6,3.8-0.1,5,1.7c-0.3,0.1-0.6,0.2-0.9,0.3c-1,0-2,0-2.9,0c-16-2.7-32,1.4-48-0.8
		c11.4-0.6,22.6-2.9,34-3.6C301.3,209.4,308.5,209.1,315.3,207z"/>
	<path class="st205" d="M305.4,68c3.5,1.8,6.6,5,11.8,1.8c-3.7,2.1-2.5,3.2-0.8,5.1c1.8,2,3.9,3,6.1,4.1c1,0.5,2.1,1.3,2.8-0.5
		c0.5-1.3,1-2.7,2.7-2.1c1,0.4,1.8,1.2,1.9,2.6c0.2,2.6-2,1.5-3,2.2c-0.3,0.2-0.5,0.4-1.4,1.1c2.5,0,3.2,2.3,5,2.2
		c0.9-0.1,3.2-0.1,2.7-1.7c-0.6-2,0.1-2.2,1.4-1.7c1.1,0.4,2.5,1,2,2.9c-1.1,4.5-0.4,5.1,4.4,3.9c1.1-0.3,2.8-2.2,3.7,0
		c0.9,2.2-0.7,2.8-3.1,2.3c1.2,1.1,2,1.9,2.9,2.6c-2.6,0.4-5.4,0.3-7,3c-2.6-0.2-4.9,0.4-6.3-3.5c-1-2.6-5.8-3.6-8.7-5.7
		c-1.7-1.2-5.2-1.3-4-5c0-0.2-0.4-0.6-0.4-0.6c-3.9,2.5-6-2.9-9.5-2.2c-2.1-0.4-1.7-2.7-3-3.8C306.8,72.8,305.8,70.4,305.4,68z"/>
	<path class="st206" d="M330.7,110.2c6.8-3.4,14-4.7,21.2-5.8c2.8-0.4,5.9,2.5,8.4,4.7c1,0.9,0.4,1.8-0.3,2.5
		c-1.2,1.4-2.6,2.4-4.7,2.4C347,114.1,339.1,111.3,330.7,110.2z"/>
	<path class="st207" d="M305.4,75.3c2.5,0,1.6,2.8,3,3.8c0.3,1.7,0.5,3.4,0.8,5.1c-0.9,0.4-0.8,1.3-1,2c-1-3.1-2-6.1-3-9.1
		C305.3,76.4,305.4,75.8,305.4,75.3z"/>
	<path class="st208" d="M284.8,107.2c-17.5-2.9-34.5-5.7-51.8-8.5c1-2.3,3-1.8,4.5-1.5c14.6,2.6,29.2,5.3,43.9,7.9
		C282.5,105.3,283.7,105.4,284.8,107.2z"/>
	<path class="st155" d="M352.7,80.6c-2.5,1.3-4.5,1.9-6-0.6c-0.9-1.4,1.1-2.9,2.3-1.7C350,79.4,351.1,80,352.7,80.6z"/>
	<path class="st205" d="M321,73.2c1.4-0.1,2.2,0.5,2.1,2c0,0.6-0.2,1.6-0.9,1.3c-1-0.4-1.9-1.3-2.4-2.2
		C319.5,73.7,320.3,73.2,321,73.2z"/>
</g>
</svg>
