<?xml version="1.0" encoding="utf-8"?>
<!-- Generator: Adobe Illustrator 26.1.0, SVG Export Plug-In . SVG Version: 6.00 Build 0)  -->
<svg version="1.1" id="Layer_1" xmlns="http://www.w3.org/2000/svg" xmlns:xlink="http://www.w3.org/1999/xlink" x="0px" y="0px"
	 viewBox="0 0 413.7 417.1" style="enable-background:new 0 0 413.7 417.1;" xml:space="preserve">
<style type="text/css">
	.st0{fill:#DDBE91;}
	.st1{fill:#CA9858;}
	.st2{fill:#DDBE8E;}
	.st3{fill:#D1AD75;}
	.st4{fill:#884E27;}
	.st5{fill:#DEB779;}
	.st6{fill:#D1A466;}
	.st7{fill:#E2C9A6;}
	.st8{fill:#834518;}
	.st9{fill:#8A4A22;}
	.st10{fill:#D08535;}
	.st11{fill:#C18A45;}
	.st12{fill:#B27936;}
	.st13{fill:#C99350;}
	.st14{fill:#973A33;}
	.st15{fill:#DEB16D;}
	.st16{fill:#451F0A;}
	.st17{fill:#3A1B07;}
	.st18{fill:#88592C;}
	.st19{fill:#9F6E3B;}
	.st20{fill:#956934;}
	.st21{fill:#D7AE6C;}
	.st22{fill:#23160B;}
	.st23{fill:#E3BB7C;}
	.st24{fill:#E0B777;}
	.st25{fill:#AF7E49;}
	.st26{fill:#A87742;}
	.st27{fill:#D4A464;}
	.st28{fill:#46230A;}
	.st29{fill:#452307;}
	.st30{fill:#E7BF7E;}
	.st31{fill:#1B0F08;}
	.st32{fill:#49321E;}
</style>
<g>
	<path class="st0" d="M394.2,2.8c0.9-0.9,1.8-1.8,2.8-2.8c6.5,4.2,11.3,10.3,16.6,15.9c0.3,0.3-0.2,1.2-0.3,1.8
		c-8.8,8.7-17.9,17.2-25.6,26.9c-2.1,0.2-3.3-1.1-4.4-2.4c-1.4-1.4-3-2.5-4.2-4.2c-2.4-2.1-4.7-4.5-7-6.7c-0.4-0.4-0.6-0.8-0.6-1.3
		c0.3-3,2.6-3.5,4.7-3.1c4.3,0.8,7.1-1,9.8-4.2c2.4-2.7,5.7-4.5,8.9-6.4c1.5-0.9,3-1.9,2.9-3.7c-0.2-2.3-2.3-1.1-3.6-1.5
		c-2.8-0.8-3.3-2.5-1.8-4.9C393.1,5.1,394.4,4.4,394.2,2.8z"/>
	<path class="st1" d="M0,403c5.8-5.9,11.5-11.8,17.3-17.7c0.6-1.7,2.1-2.6,3.2-3.7c7.3-7.3,14.6-14.7,21.9-21.9
		c20.5-20.1,40.1-40.9,60.3-61.2c3.7-3.7,6.9-8,11.1-11.5c1.4,3.7,1.1,5.2-1.1,9.2c-1.1,1.7-2.3,3.3-3.4,4.9c-1,2.3-2.5,4.1-4.5,5.7
		c-2.1,1.4-3.6,3.3-4.9,5.4c-2.9,4.6-7.1,7.8-11.7,10.4c-3,1.7-5.2,3.8-6.6,6.9c-1.6,2.8-5.8,4.2-4.7,8.6c0.8,2.2,4.1,2.4,4.4,5.1
		c-0.4,3.5-2.8,6-5.1,8.3C66,362,55.7,372.3,44.8,382c-3.9,3.5-6.6,7.8-10.3,11.5c-4.4,4.4-9.5,7.8-14.4,11.3
		c-2.1,1.5-4.7,2.4-6.3,0.4c-4-4.8-8-4-12.4-1.1l-0.3,0.4C0.7,404,0.4,403.5,0,403z"/>
	<path class="st2" d="M371.7,29.6c0.2,0.2,0.4,0.5,0.6,0.7c0.5,3.9,1.7,7.4,4.9,9.9c1.1,0.8,1.9,1.8,2.8,2.8
		c4.1,5.2,4.1,5.4,0.2,10.7c-11.2,8-20.6,18.1-30.5,27.6c-5.9-4-6.2-3.9-11.2,1.1c-4.3,4.2-8.6,8.4-11,14c-0.6,1.3-1.6,2.5-2.6,3.6
		c-2.6,2.9-5.5,3.7-8.8,1c-2.3-1.9-5.7-3-5.9-6.9c0.8-3.2,3.4-4.8,5.5-6.9c5.7-5.9,11.2-11.8,17.3-17.3c8.4-7.6,15.5-16.5,23.9-24
		c3.1-2.8,4.7-6.9,8-9.4c1.8-1.3,0-3.1,0.6-4.6c2.3,0.5,3.4-2.1,5.5-2.3C371.2,29.5,371.4,29.6,371.7,29.6z"/>
	<path class="st3" d="M310.1,94.1c2.8,2.2,5.4,4.3,8.1,6.6c1.5,1.2,2.6,0.9,4-0.3c1.8-1.6,3.3-3.4,4.1-5.5c2.8-7.4,9.3-11.5,14.2-17
		c1.7-1.8,3.6-2.2,5.9-1.2c2.1,0.9,4,1.8,3.3,4.7c-5.9,5.9-11.8,11.8-17.6,17.7c-3.8,3.8-8.3,7.3-9.8,12.8c-0.4,0.2-0.6,0.4-1,0.6
		c-4.7-5.9-11.2-9.9-16.2-15.5c0-0.3-0.1-0.5-0.1-0.8C306.4,94.6,308.1,93.8,310.1,94.1z"/>
	<path class="st4" d="M380.1,53.6c2.5-3.7,1.5-6.9-1.4-9.8c0.6-3.5,3.3-2.8,5.6-2.8c1.1,1.1,2.3,2.3,3.5,3.5
		C386.4,48.6,382.7,50.6,380.1,53.6z"/>
	<path class="st5" d="M187.9,213.5c35.3-35.3,70.5-70.6,105.9-105.9c3.8-3.8,5.7-9.5,11.3-11.6l0.1,0.4c-4.2,5.6-1.4,9.5,3,13.1
		c1.3,1,2.2,2.5,2.4,4.2c-0.1,1.8-0.8,3.2-2,4.4c-10.7,10.7-21.1,22.1-32.1,32.5c-5.2,4.9-10.1,10-15,15.1c-4,4.3-7.6,9.3-13.4,11.5
		c-2.6-2.3-3.9-5.6-6.2-8.1c-1.2-2.9-0.1-5.4,2-7.2c11.5-10.3,21.2-22.5,33-32.5c6-5.2,11.7-10.8,17.2-17.7
		c-2.3,1.4-3.4,2.8-4.7,4.1c-23.8,23.8-47.4,47.4-71.2,71.2c-1.1,1.1-2.1,2.2-3.3,3c-6.2,6-12.4,12-18.1,18.4
		C194.4,211.1,192.5,215,187.9,213.5z"/>
	<path class="st6" d="M187.9,213.5c2.3-0.1,3.3-2.1,4.7-3.4c7.2-7.1,14.3-14.1,21.4-21.3c2.1,1.6,1.1,3.3-0.1,4.7
		c-2.8,3.7-5.5,7.5-9.3,10.2c-2,1.4-3.2,3.2-4,5.4c-5.4,8.4-12.2,15.5-20.2,21.6c-3.3,2.6-5,6.4-7,10.1c-0.4,0.7-1,1.1-1.7,1.4
		c-3.4,0.3-4.8,3.3-7,5.2c-5.5,4.5-10.7,9.2-15.3,14.6c-2.8,3.4-7.2,5.4-9,9.7c-2.1,2.1-4.2,4.3-6.7,5.9
		c-5.8,5.4-11.7,10.7-17.5,16.2c-1.6,1.4-2.5,4.2-5.6,2.5c2.9-1.9,2.3-5.2,3.2-8.1c-31.7,33.1-64.3,64.8-96.5,97.1
		c0.3-2.3,2.1-3.3,3.5-4.7c16.5-16.7,33.6-32.9,49.7-50c31.3-33.4,64.5-65.1,96.7-97.7C173.8,226.2,181,220,187.9,213.5z"/>
	<path class="st7" d="M394.2,2.8c1.4,2-0.6,2.9-1.2,4.3c-0.9,2.1-0.2,3.5,2.2,2.8c2-0.6,4.2-1.8,4.7,1.1c0.3,2.3-0.1,5.1-2.8,6.4
		c-5.3,2.5-10.1,5.4-13.3,10.5c-0.8,1.4-1.6,1.5-3.3,1.1c-2.9-0.8-6.1-1.7-8.8,0.8l-0.1,0.1c-0.9-0.1-1.3-0.6-1.2-1.6
		c0.4-2.3,2.3-3.7,3.7-5.2C380.8,16.3,387.5,9.5,394.2,2.8z"/>
	<path class="st8" d="M370.3,28.1c0.4,0.5,0.8,1.1,1.2,1.6c-1.9,1.1-2.7,5.4-6.1,2.1C367,30.5,367.7,27.9,370.3,28.1z"/>
	<path class="st9" d="M375.8,41c-3.5-2.8-7.1-5.5-3.6-10.7c3.7,0.8,5.3,4.3,7.9,6.5C379.9,39.4,378.4,40.8,375.8,41z"/>
	<path class="st10" d="M375.8,41c1.4-1.4,2.8-2.8,4.3-4.2c1.4,1.4,2.8,2.9,4.2,4.3c-1.3,2.1-4.4,0.6-5.6,2.8
		C377.7,42.9,376.7,41.9,375.8,41z"/>
	<path class="st11" d="M181.4,252.5c-24.7,24.7-49.5,49.4-74.2,74.1c-2.7-1-1.5-2.5-0.4-3.7c1.8-2.1,4-4,5.8-6.1
		C106.8,324,99.4,329.4,93,336c-3.2,3.2-4.7,3-6.8,0c0.4-3,2.7-4.5,4.7-6.2c4.5-3.6,8.3-7.6,11.9-12c2.2-2.8,5.9-3.3,7.6-6.2
		c1.2-1.5,2.5-2.8,3.9-3.9c3.2-1.6,3.3-5.7,6.2-7.6c6.2-4.2,11.1-9.7,16.8-14.4c0.9-0.8,1.6-1.7,2.1-2.8c1.8-2.3,3.4-4.8,5.2-7.2
		c8.5-7.2,17.3-14.1,24.3-22.8c2.5-2,5.1-4.1,7.4-6.5c3.3-2.6,5.7-6.3,9.6-8.2c3.1-0.7,5.3-3,7-5.2c3.7-4.8,8.5-8.2,12.7-12.4
		c5.1-5.1,9.8-10.7,15.6-15.1c3.2-1.8,6.3-3.7,8.9-6.4c1.1-1.1,2.6-1.9,4-0.4c1.3,1.6-0.4,2.4-1.3,3.3
		c-11.9,11.9-23.3,24.3-35.9,35.5C191.4,242.1,187.3,248.2,181.4,252.5z"/>
	<path class="st12" d="M86.8,335.6c1.8,3.7,3.5,1,4.7-0.4c7-8,16.4-13.4,23.2-21.6c0.6-0.7,1.2-1.6,3.1-1.3c-2.1,4-5.7,6.3-8.4,9.4
		c-1.1,1.4-3.7,2.3-2.2,4.9C79.6,354,52,381.6,24.5,409.1c-2.1,2.1-4.2,4.2-6.4,6.4c-2,2.1-3.9,2.1-6,0.1c-3.8-3.7-7.7-7.3-11-11.5
		c0.6-3.3,3.9-3.9,6.1-5.5c1.6-1.2,2.7,0.6,3.6,1.6c4.5,5.4,4.4,5.2,10,1.6c7.8-5,14.1-11.5,20.2-18.7c5-5.9,11.8-10.7,17.5-16.2
		c7.3-7.1,15.2-13.8,21-22.4c0.5-0.6,0.5-1.5,0.7-2.3c1-3,3.5-4.5,5.7-6.4C86.3,335.7,86.5,335.6,86.8,335.6z"/>
	<path class="st13" d="M181.4,252.5c6.4-11.1,17.8-17.1,26.2-26.2c8.5-9.1,17.5-17.6,25.7-26.9c-4.4,1.7-7.1,5.9-11.7,7.1
		c-1.1-2.5,0.6-4,2.1-5.6c3.8-4.1,8.1-7.7,11.7-12.1c0.9-2.6,2.7-4.7,4.2-6.9c2.5-1.6,4.6-3.9,7.6-4.9c2.3-2.1,5.1-3.7,6.9-6.1
		c5.9-7.4,13.6-12.9,19.6-20.3c2.5-3,6.2-5.9,9.1-8.7c9.3-9.1,18-18.7,26.9-28.1c3.3,0,4.7,1.9,5,5c-21.4,21.5-43.2,42.5-63.9,64.5
		c-21.3,22.6-43.7,43.8-65.3,66C184.4,250.5,183.4,252.2,181.4,252.5z"/>
	<path class="st14" d="M315,118.8c-1.7-1.7-3.3-3.3-5-5c-2.1-2.3-4.2-4.7-6.5-6.8c-4.7-4.5-4.8-4.4-0.1-8.9c0.6-0.6,1.3-1.1,1.8-1.7
		c6.4,4.2,13.4,7.9,16.1,15.9C319.2,114.5,317.1,116.6,315,118.8z"/>
	<path class="st15" d="M140.5,283.5c-2.9,3.9-7.1,6.7-10,10.1c-3.6,4.3-9.8,5.7-12,11.4c-0.6,1.6-0.8,3.4-3.2,3
		c-1.9-1.2-1.6-4.2-4-5c-1.3-0.7-3.2-0.5-3.5-2.5c1-1.4,1.9-2.9,2.9-4.3c1.3,0.1,2.3-0.6,2.9-1.6c4.7-7.2,12.5-11.1,17.9-17.6
		c0.4-0.4,1.1-0.4,1.8-0.6c1.1,1,0.8,2.7,1.8,3.8C136.7,281.9,138.9,282.2,140.5,283.5z"/>
	<path class="st6" d="M111.5,312.5c-0.3,0.6-0.4,1.7-0.7,1.7c-5.7,0.8-7.8,6-11,9.4c-4,4.5-9,7.7-13.1,12l-0.3,0.3
		c-2-1-2.5-3.5-4.5-4.4c-0.7-0.6-1.5-1.1-1.7-2c0.6-6.2,6.2-7.6,10.3-10.3c4.2-2.8,7.2-6.5,9.9-10.6c0.8-1.3,1.8-2.3,3.4-2.5
		c1.4,0.6,1.5,2.1,2.1,3.2C106.9,311.8,109.7,311.4,111.5,312.5z"/>
	<path class="st16" d="M82.4,330.4c2.9,0.6,3.8,2.8,4,5.4c-1.1,3-3.3,4.9-6.2,6.2c-2.2-0.4-4.5-0.8-5-3.5
		C77.9,336.1,79.5,332.7,82.4,330.4z"/>
	<path class="st17" d="M53.5,359.4c2.5,0.3,4,1.6,4,4.1c0.1,2.8-1.4,4.8-3.6,6c-2.4,1.3-4.8,1-6.6-1.3c-0.2-0.8-0.4-1.8,0.3-2.3
		C50.5,364.7,51.2,361.4,53.5,359.4z"/>
	<path class="st18" d="M53.5,359.4c0.9,5.2-4.2,5.9-6.4,8.9C45,362.7,47.7,359,53.5,359.4z"/>
	<path class="st19" d="M104.4,309.6c-0.2-1.2-0.4-2.4-0.6-3.5c1.4-1.8,3.5-3.1,4.1-5.7c1.4,0.4,2.8,0.8,4.3,1.3
		C112.1,308,110,310.1,104.4,309.6z"/>
	<path class="st20" d="M82.4,330.4c-0.8,4.2-2.7,7.2-7.1,8.1c-1.4-4.7,2.1-6.6,4.9-9.1C81,329.9,81.7,330.1,82.4,330.4z"/>
	<path class="st21" d="M199.8,208.5c0-2.7,1.8-4.2,3.6-6c4.1-4.1,9.5-7.4,10.6-13.7c26.2-26.2,52.5-52.5,78.6-78.6
		c1.1-1.1,2.3-3.8,4.2-1.8c1.8,1.8-0.5,3-1.3,4.6c-4.2,6.9-10.7,11.9-16.3,17.4c-4.9,4.9-10.9,9.1-15.4,14.4
		c-5.7,6.8-12.7,12.1-18.7,18.4c-2.1,2.2-2.9,4.2-2.1,6.9c-3.5,2.1-4.8,6.2-7.5,9.1c-6.6,2.9-11.2,7.7-15.1,13.6
		c-3.4,5.2-8.9,8.8-12.6,13.9c-0.3,0.7-0.8,1.2-1.5,1.5c-1.1,0.4-2.3,0.3-3.4,0.1C201.8,208.1,200.8,208.8,199.8,208.5z"/>
	<path class="st22" d="M235.8,178c0.2-4.6,2.3-7.6,7.1-8.1c3.7,1,5.3,3.2,4.3,7c-1.5,3-3.8,4.8-7.2,5.2
		C237,182.7,235.2,181.7,235.8,178z"/>
	<path class="st23" d="M199.8,208.5c1.1-0.1,1.1-2.8,2.8-1.2c0.2,2.6-2.7,4.4-1.9,7.1c0.8,2.6,3.1,3.1,5.2,4c1.6,1.2,1.1,2.3-0.4,3
		c-4.5,2.1-7.1,6.2-10.3,9.8c-2.5,2.8-5.8,5.2-8.8,7.6c-3.5,2.6-5.4,7-9.9,8.5c-2.2-1.6-2.8-4-3.5-6.4c-1.4-4.9,2.5-8.1,5.1-10.2
		C186.3,224.3,193.3,216.7,199.8,208.5z"/>
	<path class="st24" d="M169.4,253.1c1.5,4.6-3.4,5.1-5.2,7.1c-4.9,5.7-11.1,10.1-16.8,15.2c-0.8,0.6-1.2,0.9-2.1,0.4
		c-2.1-0.4-3.4-2.1-4.8-3.5c-0.3-0.4-0.3-0.8-0.2-1.3c-1-2,0.6-3.3,1.6-4.3c6.8-6.6,13.6-13.2,20.5-19.7c0.4-0.4,1.2-0.2,1.8-0.3
		c1.1,0.8,1.3,2.1,2.3,3C167.7,250.7,169.2,251.4,169.4,253.1z"/>
	<path class="st17" d="M169.4,253.1c-1.9-0.2-3.4-1.3-4.3-2.9c1.7-3.4,4.2-6.1,6.5-9.1c0.5-0.1,0.8-0.1,1.3-0.2
		c2.6,1.3,3.9,3.5,3.5,6.4C175,250.5,172.6,252.3,169.4,253.1z"/>
	<path class="st25" d="M140.4,270.9c0.3,0.3,0.6,0.6,0.7,0.8c1.1,5.9-1.1,8.6-7.5,8.9c-1.1-1.3-0.6-2.8-0.4-4.3
		C135.6,274.4,137.1,271.5,140.4,270.9z"/>
	<path class="st26" d="M171.5,241.2c0.3,4.8-3,7-6.5,9.1c-1.1-1.1-1-2.3-0.6-3.5C166,243.8,167.2,240.4,171.5,241.2z"/>
	<path class="st27" d="M186.4,238.9c1.3-3.1,2.1-6.6,6.5-6.9c1.1-0.1,2.5-1.5,2.8-2.5c1.4-4.9,4.7-7.6,9.6-8.8
		c1.5-0.4,0.1-1.1-0.5-1.5c0.8-3.3,3.9-4.9,5.7-7.4c6.3-8.1,14.5-14.5,21.4-22.1c1.3-1.4,2.9-3.5,5.4-1.7c-0.9,3.9-4.7,5.5-6.9,8.3
		c-2.8,3.5-7.1,5.7-8.7,10.1c-8.5,7.2-15.2,16.3-24.1,23.3c-2.4,1.8-4.2,4.9-6.5,7.4C189.8,238.4,188.5,239.6,186.4,238.9z"/>
	<path class="st28" d="M133.6,280.7c4.2-1.5,7.1-4.2,7.5-8.9c2.3,0.4,3.7,1.8,4.3,4c-0.1,3.6-2.8,5.6-4.9,7.8
		C137.3,284.8,135.4,283,133.6,280.7z"/>
	<path class="st29" d="M104.4,309.6c4.8-0.4,6-4.3,7.8-7.8c3.3,1,3.2,3.6,3.3,6.2c-1.3,1.5-2.6,2.9-3.9,4.5
		C108,314.5,105.9,312.6,104.4,309.6z"/>
	<path class="st30" d="M237.3,188c-2.5,0.1-3.7,2.1-4.9,3.7c-6.1,7.4-14.3,12.6-19.7,20.4c-0.3,0.4-1.1,0.4-1.8,0.5
		c-1.9-1.5-2.7-3.8-4.2-5.7c-1.3-2.3,0.8-3.3,1.9-4.5c5.4-5.5,11-10.8,15.1-17.6c2.5-4.2,7.3-5.9,12-6.8c0.7,2.1,2.3,3.4,4.3,4
		C241.6,185.3,237.3,185.6,237.3,188z"/>
	<path class="st31" d="M206.8,207c3.3,0.6,4.2,2.8,4.2,5.7c-1,3.1-3.1,5.1-6,6.4c-2.9-0.1-5.4-0.8-5.5-4.4c2.1-2.4,3.8-5.1,6-7.4
		C205.8,207.3,206.2,207.1,206.8,207z"/>
	<path class="st32" d="M205.3,207.4c0.1,4.2-1.9,6.7-6,7.4c-1.2-3.5,1.3-5.4,3.3-7.5C203.5,207.7,204.4,206.5,205.3,207.4z"/>
</g>
</svg>
