<?xml version="1.0" encoding="utf-8"?>

<!DOCTYPE svg PUBLIC "-//W3C//DTD SVG 1.1//EN" "http://www.w3.org/Graphics/SVG/1.1/DTD/svg11.dtd">
<svg version="1.1" id="Layer_1" xmlns="http://www.w3.org/2000/svg" xmlns:xlink="http://www.w3.org/1999/xlink" x="0px" y="0px"
	 viewBox="-153.874 -0.0469 1268.9209 1340.1917" enable-background="new -153.874 -0.0469 1268.9209 1340.1917"
	 xml:space="preserve">
<g>
	<path fill="#A2A0A2" stroke="#A2A0A2" stroke-width="0.0938" d="M370.74,0h5.5c-2.9,7.88-2.19,16.46-4.58,24.44
		c-2.61,9.63-6.35,18.91-8.88,28.56c-1.33,5.1-1.76,10.38-2.42,15.6c-3.08,19-0.46,38.28-1.13,57.41
		c-0.59,10.88,2.11,21.57,2.12,32.43c0.03,7.54,2.04,14.86,2.92,22.31c0.39,2.36,0.5,4.89,1.72,7.02c4.38,2.25,9.26,3.4,13.6,5.8
		c8.25,4.46,16.65,8.89,23.85,14.96c2.69,1.97,3.12,5.4,3.93,8.38c-4.79,0.55-9.61,1.26-14.44,0.82c-5.54-0.58-10.94-2.02-16.34-3.3
		c0.05,2.37-1.06,4.77-0.23,7.1c2.37,8.08,7.4,14.99,12.55,21.52c4.04,5.34,7.72,10.94,11.66,16.36c4.27,5.8,7.58,12.26,12.15,17.86
		c5.75,7.05,10.01,15.29,12.42,24.07c-1.69,1.58-3.52,3.07-4.82,5c0.25,8.66,6.57,15.38,11.3,22.1c3.33,4.3,2.57,9.97,3.17,15.04
		l-0.34-0.68c-1.86-4.44-1.68-9.62-4.46-13.68c-2.38-3.59-5.5-6.6-8.12-9.99c-4.77-6.13-8.33-13.21-10.29-20.73
		c-2.39-8.68-3.23-17.72-5.79-26.35c-1.24-4.25-3.87-7.86-6.49-11.34c-3.6-4.79-6.69-9.92-10.27-14.72
		c-2.68-3.65-5.6-7.12-8.01-10.95c-3.56-5.59-5.77-11.89-9.05-17.64c2.02-1.7,4.05-4,6.94-3.84c7.95-0.28,15.99,2.24,23.86,0.19
		c0.63-2.85-2.19-4.76-4.02-6.44c-8.18-6.26-17.34-11.12-26.76-15.22c-2.79-1.2-5.57-2.41-8.35-3.6c-0.23-4.73-0.96-9.43-2.16-14.01
		c-1.97-7.23-0.6-14.88-2.64-22.1c-2.3-8.28-1.43-16.91-1.49-25.38c-0.02-13.34-0.01-26.67-0.01-40c0.04-6.13-0.7-12.35,0.77-18.38
		c1.03-4.42,1.97-8.86,2.65-13.35c1.24-8.9,5.05-17.13,7.63-25.68c2.88-9.05,4.17-18.5,4.97-27.94
		c-5.38,3.78-11.47,6.79-15.66,12.01c-9.09,12.04-18.24,24.08-26.14,36.95c-4.16,6.46-6.07,14.19-11.35,19.94
		c7.64-22.07,22.98-40.17,36.68-58.68C360.49,6.88,365.37,2.95,370.74,0z"/>
	<path fill="#A2A0A2" stroke="#A2A0A2" stroke-width="0.0938" d="M537.73,0h8.62c3.75,3.58,7.76,6.94,12.4901,9.17
		c6.03,3.06,10.78,8,16.46,11.58c3.76,2.45,7.95,4.11,11.9,6.22c12.44,7.22,25.2,14.06,38.73,19.04
		c14.03,6.36,28.24,12.38,42.83,17.36c5.29,2.01,10.33,4.65,15.62,6.66c9.43,2.84,18.85,5.79,28.52,7.7
		c8.61,2.21,17.54,2.79,26.18,4.89c7.18,1.74,14.61,0.96,21.92,1c8.75-0.16,17.65,0.95,26.22-1.39
		c6.9301-1.22,13.63-3.85,20.64-4.47c6.75,3.71,12.1,9.47,18.37,13.92c8.43,5.98,14.61,14.48,19.79,23.29
		c5.92,10.34,7.34,22.36,10.14,33.75c3.36-2.94,7.7401-3.95,11.59-6.02c0.26,2.45,0.35,4.96,1.12,7.33c1.55,2.09,3.9,3.46,5.37,5.61
		c0.8,4.13,0.17,8.37,0.01,12.53c2.01,0.4,4.02,0.79,6.04,1.21c-0.99,1.32-1.97,2.65-3.02,3.91c-2.71,3.38-7.08,4.56-10.83,6.38
		c-1.24-1.71-2.47-3.43-3.7-5.14c-6.74,2.12-11.96,7.1-18.5,9.63c0.49-4.12,1.52-8.15,2.99-12.02c3.21-8.32,2.33-17.38,2.34-26.1
		c0.16-7.38-2.66-14.28-4.57-21.28c-1.78-6.65-6.14-12.13-9.8-17.83c-5.32-8.19-14.95-12.27-24.21-14.04
		c-8.94-1.78-17.56,1.86-26.06,4.02c-11.84,3-23.44,7.89-35.85,7.8c-12.19-0.08-24.43,0.3-36.57-1.01
		c-2.37-0.05-5.49-0.57-6.95,1.81c-3.87,5.79-5.18,13-9.74,18.4c-7.72,9.36-17.19,17.51-22.66,28.54
		c-2.96,5.7-2.96,12.33-2.66,18.59c0.29,5.15,1.43,10.61,4.95,14.57c2.1,2.21,5.45,0.62,7.72-0.49c6.02-3.53,10.6-8.95,15.97-13.32
		c2.08,1.56,4.29,3.02,5.98,5.03c3.51,4.75,3.2,12.04,8.69,15.32c6.81,4.91,15.42,5.68,22.85,9.25c8.15,4.15,17.51,5.69,24.89,11.38
		c-5.02,1.53-10.22,0.91-15.37,0.9c-11.75,1.16-22.56,6.32-33.59,10.16c-9.79,3.38-18.63,9.83-24.09,18.7
		c-1.08-2.05-0.11-4.03,1.22-5.68c6.6201-5.08,10.9-12.57,13.3701-20.43c2.1-8.2,3.67-16.93,1.23-25.24l-0.06-0.92
		c-0.12-1.69-0.23-3.39-0.33-5.08c-0.52,0.08-1.56,0.24-2.08,0.32c-1.12,2.25-2.06,4.65-3.66,6.62c-4.8,0.42-9.71,0.01-14.39,1.36
		c-7.74,2.26-15.87,2.53-23.87,2.26c-4.47-0.19-9.54-1.4-12.12-5.39c-2.81-4.61-3.44-10.2-6.39-14.73c-2.07-3.14-4.52-6.05-6.1-9.48
		c-1.49-2.58-2.37-5.96-5.37-7.19c-21.41-9.37-45.47-16.28-68.86-10.91c-9.63,2.28-18.38,7.82-24.77,15.36
		c-3.31,2.49-5.9,5.77-7.86,9.41c5.39-1.78,10.21-4.81,15.29-7.27c1.36,0.24,2.72,0.48,4.09,0.73c-2.71,4.1-6.4901,8.69-5.15,13.7
		c6.72-6.1,11.4-14.07,18.35-19.94c5.35-1.93,10.9901-2.99,16.66-3.38c4.53,0.01,9.05,0.42,13.58,0.75
		c-1.66,4.3-3.65,8.49-5.05,12.89c-1.2,3.73,0.15,7.61,1.26,11.19c3.01,8.61,5.15,17.83,10.85,25.17
		c3.25,3.82,6.92,7.25,10.12,11.11c3.35-1.47,6.67-3.38,10.4-3.6c2.9,1.34,5.42,3.35,8.24,4.85c1.81-0.82,3.66-1.57,5.47-2.43
		c4.1-2.21,8.77,0.63,12.16,2.96c0.74,2.33-1.49,3.88-2.92,5.31c-5.38,4.74-12.32,7.61-16.62,13.57
		c-7.05,5.31-15.78,7.31-23.64,11.04c-2.5,1.13-4.97,2.3-7.47,3.4c-9.37,2.31-18.3,6.35-27.97,7.36c-5.91,0.9-11.9,0.45-17.8-0.17
		c0.66,1.63,0.87,3.44,1.64,5.04c2.55,3.25,6.4,5.31,8.59,8.88c-1.11,6.84-9.5,6.65-14.79,7.77c-0.99,1.51-2,3-2.96,4.52
		c1.45-2.9,2.45-6.09,2.96-9.27c-1.03-9.02-2.9-17.94-3.94-26.96c-0.96-8.47,1.21-17.24-1.4-25.51c-2.12-6.57-8.18-10.6-11.46-16.47
		c-2.48-4.38-4.21-9.22-4.99-14.2c-0.78-4.48,1.3-8.7,2.4-12.94c1.24-4.17,1.58-8.76,4.23-12.37c5.11-7.11,9.79-14.64,16.37-20.54
		c4.61-4.69,10.86-7.17,17.04-9.04c7.12-2.16,14.63-0.97,21.93-1.66c7.39-0.7,14.76,0.38,22.14,0.6c9.98,0.31,19.95,1,29.94,0.64
		c7.98-0.36,16.14,0.64,23.94-1.61c6.72-1.91,13.92-2.28,20.21-5.56c4.9301-2.5,10.07-5.49,12.96-10.38
		c2.32-4.44-0.67-9.2-3.48-12.61c-8.05-10.66-20.96-15.92-33.31-19.8c-10.07-3.53-20.87-2.21-31.31-2.15
		c-25.19,0.72-50.88,6.33-72.2,20.27c-7.94,4.46-14.95,10.34-21.6,16.52c-7.8,7.33-12.6,17.25-20.59,24.39
		c-5.54,4.91-11.44,9.52-18.04,12.9c-5.48,2.82-11.69,3.44-17.72,4c-1.67-3.7-3.72-7.24-5.12-11.06c-0.66-1.74,0.55-3.43,0.77-5.15
		c0.2,0.71,0.61,2.12,0.81,2.82c1.08,4.73,4.19,10.15,9.64,10.24c6.42-0.25,12.6-2.88,17.76-6.62c7.59-5.72,15.06-11.88,20.37-19.88
		c8.69-13.13,21.36-23.05,34.7-31.11c8.7-5.35,18.04-9.73,27.87-12.54c8.9-2.48,17.81-5.68,27.19-5.51
		c12.57,0.66,25.02-2.39,37.58-1.34c7.61,0.61,15.32-0.31,22.85,1.24c9.88,1.98,19.95,2.93,29.73,5.43
		c10.39,2.66,20.96,4.91,30.9,9.04c3.04,1.39,6.41,1.22,9.67,1.12c-4.94-6.17-11.1801-11.68-18.88-13.99
		c-3.08-1.14-6.17-2.23-9.18-3.55c-4.85-4.31-11.71-3.98-17.2401-6.95c-4.15-2.14-8.82-2.78-13.43-2.99c0.06-0.6,0.13-1.2,0.2-1.8
		c-5.95-0.69-11.89-1.38-17.85-1.88c0.47-0.61,0.94-1.22,1.42-1.83c-4.33,0.07-8.67-0.05-12.98-0.42
		c-7.98-0.68-16.01-0.15-23.96-1.15c-9.53-1.14-19.12-1.07-28.69-1.06c-5.53-0.01-11.01,0.82-16.41,1.92
		c-9.67,1.88-19.6,3.31-28.65,7.41c-12.74,6.3-25.24,13.63-35.19,23.93c-3.49,2.86-7.15,5.51-10.61,8.41
		c2.25-2.76,4.42-5.63,7.15-7.95c13.72-12.01,28.91-22.99,46.4-28.73c10.43-4,22.04-3.34,32.34-7.78
		c0.96-1.49,0.5099-3.35,0.02-4.92c-2.03-5.69-5.78-10.65-10.39-14.5c-12.04-10.28-24.59-20-35.77-31.24
		C544.25,8.3,541.46,3.76,537.73,0z"/>
	<path fill="#868586" stroke="#868586" stroke-width="0.0938" d="M357.7,13.66c4.19-5.22,10.28-8.23,15.66-12.01
		c-0.8,9.44-2.09,18.89-4.97,27.94c-2.58,8.55-6.39,16.78-7.63,25.68c-0.68,4.49-1.62,8.93-2.65,13.35
		c-1.47,6.03-0.73,12.25-0.77,18.38c0,13.33-0.01,26.66,0.01,40c0.06,8.47-0.81,17.1,1.49,25.38c2.04,7.22,0.67,14.87,2.64,22.1
		c1.2,4.58,1.93,9.28,2.16,14.01c2.78,1.19,5.56,2.4,8.35,3.6c-3.59-0.28-7.18-0.07-10.76,0.11c-0.65,6.74-2,14.06,1.13,20.4
		c1.79,3.54,6.16,3.98,9.61,4.8c3.28,5.75,5.49,12.05,9.05,17.64c2.41,3.83,5.33,7.3,8.01,10.95c3.58,4.8,6.67,9.93,10.27,14.72
		c2.62,3.48,5.25,7.09,6.49,11.34c2.56,8.63,3.4,17.67,5.79,26.35c1.96,7.52,5.52,14.6,10.29,20.73c2.62,3.39,5.74,6.4,8.12,9.99
		c2.78,4.06,2.6,9.24,4.46,13.68l0.34,0.68c0.18,0.35,0.54,1.05,0.72,1.41c-3.73,3.76-8.16,7.38-13.55,8.25
		c-1.68,0.26-2.96-1.06-4.15-2c-7.45-7.55-15.59-14.39-22.23-22.71c-12.05-11.3-20.4-25.67-30.21-38.8
		c-6.71-9.52-11.33-20.26-16.43-30.68c-3.43-6.62-6.16-13.57-8.24-20.73c-2.67-9.29-6.68-18.19-8.37-27.75
		c-1.59-8.8-3.79-17.51-4.49-26.43c-1.18-19.59-2.21-39.35,0.25-58.88c1.81-10.74,2.6-21.66,5.5-32.2
		c1.72-9.62,5.5-18.67,8.02-28.08c3.89-14.19,10.26-27.51,16.39-40.83c1.76-3.31,2.11-7.07,2.78-10.7
		C360.01,13.43,358.47,13.58,357.7,13.66z"/>
	<path fill="#4B474B" stroke="#4B474B" stroke-width="0.0938" d="M357.7,13.66c0.77-0.08,2.31-0.23,3.08-0.31
		c-0.67,3.63-1.02,7.39-2.78,10.7c-6.13,13.32-12.5,26.64-16.39,40.83c-2.52,9.41-6.3,18.46-8.02,28.08
		c-2.9,10.54-3.69,21.46-5.5,32.2c-2.46,19.53-1.43,39.29-0.25,58.88c0.7,8.92,2.9,17.63,4.49,26.43c1.69,9.56,5.7,18.46,8.37,27.75
		c2.08,7.16,4.81,14.11,8.24,20.73c5.1,10.42,9.72,21.16,16.43,30.68c9.81,13.13,18.16,27.5,30.21,38.8
		c6.64,8.32,14.78,15.16,22.23,22.71c1.19,0.94,2.47,2.26,4.15,2c5.39-0.87,9.82-4.49,13.55-8.25c1.21-1.25,2.43-2.5,3.66-3.74
		c0.46,4.03-0.31,8.03-2.5,11.47c-5.07,8.51-6.08,18.54-7.26,28.17c-0.9-0.15-1.79-0.29-2.67-0.42c-0.98-1.54-1.95-3.08-2.91-4.62
		c-3.36-0.11-6.71-0.2-10.06-0.4c-2.12-3.6-5.91-5.39-9.64-6.84c-3.61-1.29-5.2-5.11-7.21-8.03c3.56,0.28,7.15,0.38,10.63,1.3
		c0.73-3.51,2.08-7.02,1.74-10.65c-1.08-2.27-2.83-4.1-4.51-5.93c-4.57-4.76-8.87-9.81-13.98-14.02
		c-3.86-3.13-7.12-6.88-10.42-10.56c-3.61-4.07-8.39-6.85-12-10.9c-7.38-8.15-14.82-16.26-21.55-24.96
		c-2.99-4.46-6.88-8.24-9.76-12.78c-3.39-5.23-7.54-9.96-10.37-15.54c-6.02-10.63-12.22-21.32-15.9-33.04
		c-4.85-12.26-7.34-25.33-8.87-38.39c-2.01-9.21-1.29-18.67-1.37-28.01c-0.07-7.45,0.95-14.86,0.75-22.3
		c0.58,0.22,1.17,0.45,1.76,0.69c-0.7-11.54,3.62-22.37,6-33.45c1.81-7.89,5.28-15.27,6.88-23.22c0.46,0.11,0.9,0.26,1.36,0.4
		c0.92-2.87,1.92-5.72,2.9-8.57c5.28-5.75,7.19-13.48,11.35-19.94C339.46,37.74,348.61,25.7,357.7,13.66 M428.09,353.03
		c-4.67,2.73-10.4,2.42-15.22,4.77c-1.51,2.05-2.24,4.51-3.1,6.87c-2.63-0.18-5.27-0.32-7.9-0.37c4.62,2.97,10.54,4.28,13.6,9.24
		c3.7,0.15,7.45,0.6,11.12-0.1c2.59-1.91,2.71-5.53,3.52-8.39c0.96-5.96,3.64-11.41,5.78-16.99
		C433.33,349.78,430.76,351.49,428.09,353.03z"/>
	<path fill="#4B474B" stroke="#4B474B" stroke-width="0.0938" d="M582.59,67.5c5.4-1.1,10.8799-1.93,16.41-1.92
		c9.57-0.01,19.16-0.08,28.69,1.06c7.95,1,15.98,0.47,23.96,1.15c4.31,0.37,8.65,0.49,12.98,0.42c-0.48,0.61-0.95,1.22-1.42,1.83
		c5.96,0.5,11.9,1.19,17.85,1.88c-0.07,0.6-0.14,1.2-0.2,1.8c4.61,0.21,9.28,0.85,13.43,2.99c5.53,2.97,12.39,2.64,17.2401,6.95
		c-8.41-1.18-16.07-5.05-24.28-7.01c-10.44-2.5-21-4.54-31.69-5.51c-14.71-2.68-29.72-2.23-44.6-2.63
		c-9.98-0.43-19.98-0.08-29.93,0.63c-18.55,2.63-36.34,10.21-51.08,21.78c-3.56,2.89-7.4,5.38-11.2,7.92
		c9.95-10.3,22.45-17.63,35.19-23.93C562.99,70.81,572.92,69.38,582.59,67.5z"/>
	<path fill="#090909" stroke="#090909" stroke-width="0.0938" d="M581.03,69.14c9.95-0.71,19.95-1.06,29.93-0.63
		c14.88,0.4,29.89-0.05,44.6,2.63c10.69,0.97,21.25,3.01,31.69,5.51c8.21,1.96,15.87,5.83,24.28,7.01
		c3.0099,1.32,6.1,2.41,9.18,3.55c4.63,3.03,8.94,6.58,12.5099,10.83c-8.0699-0.59-14.93-5.57-22.93-6.53
		c-7.88-1.05-15.31-4.18-23.22-5.03c-8.3-1.07-16.48-3.14-24.89-3.15c-12.03-1-24.12-1.08-36.17-0.42
		c-5.84,0.45-11.68,0.59-17.52,0.4c0.11,0.8,0.24,1.6,0.37,2.4c-9.38-0.17-18.29,3.03-27.19,5.51c-9.83,2.81-19.17,7.19-27.87,12.54
		c-13.34,8.06-26.01,17.98-34.7,31.11c-5.31,8-12.78,14.16-20.37,19.88c-5.16,3.74-11.34,6.37-17.76,6.62
		c-5.45-0.09-8.56-5.51-9.64-10.24c3.99-4.67,8.48-8.96,11.74-14.22c4.43-7.01,8.08-14.85,14.67-20.18
		c3.68-2.92,7.16-6.08,10.4-9.48c3.46-2.9,7.12-5.55,10.61-8.41c3.8-2.54,7.64-5.03,11.2-7.92
		C544.69,79.35,562.48,71.77,581.03,69.14z"/>
	<path fill="#868586" stroke="#868586" stroke-width="0.0938" d="M608.49,83.31c5.84,0.19,11.68,0.05,17.52-0.4
		c12.05-0.66,24.14-0.58,36.17,0.42c8.41,0.01,16.59,2.08,24.89,3.15c7.91,0.85,15.34,3.98,23.22,5.03c8,0.96,14.86,5.94,22.93,6.53
		c-3.5699-4.25-7.8799-7.8-12.5099-10.83c7.7,2.31,13.94,7.82,18.88,13.99c-3.26,0.1-6.63,0.27-9.67-1.12
		c-9.94-4.13-20.51-6.38-30.9-9.04c-9.78-2.5-19.85-3.45-29.73-5.43c-7.53-1.55-15.24-0.63-22.85-1.24
		c-12.56-1.05-25.01,2-37.58,1.34C608.73,84.91,608.6,84.11,608.49,83.31z"/>
	<path fill="#868586" stroke="#868586" stroke-width="0.0938" d="M561.09,148.05c23.39-5.37,47.45,1.54,68.86,10.91
		c3,1.23,3.88,4.61,5.37,7.19c1.58,3.43,4.03,6.34,6.1,9.48c2.95,4.53,3.58,10.12,6.39,14.73c2.58,3.99,7.65,5.2,12.12,5.39
		c8,0.27,16.13,0,23.87-2.26c4.68-1.35,9.59-0.94,14.39-1.36c1.6-1.97,2.54-4.37,3.66-6.62c0.52-0.08,1.56-0.24,2.08-0.32
		c0.1,1.69,0.21,3.39,0.33,5.08c-2.1,1.18-4.43,2.1-6.1,3.89c-2.92,3.11-4.66,7.22-7.99,9.97c-2.8,1.99-6.22,2.79-9.4,3.96
		c-10.89,3.52-20.57,9.78-30.57,15.2c-8.6,4.63-16.27,10.78-25.01,15.14c4.3-5.96,11.24-8.83,16.62-13.57
		c1.43-1.43,3.66-2.98,2.92-5.31c-3.39-2.33-8.06-5.17-12.16-2.96c-1.81,0.86-3.66,1.61-5.47,2.43c-2.8199-1.5-5.34-3.51-8.24-4.85
		c-3.73,0.22-7.05,2.13-10.4,3.6c-3.2-3.86-6.87-7.29-10.12-11.11c-5.7-7.34-7.84-16.56-10.85-25.17
		c-1.11-3.58-2.46-7.46-1.26-11.19c1.4-4.4,3.39-8.59,5.05-12.89c-4.53-0.33-9.05-0.74-13.58-0.75c7.7-0.55,15.51-0.72,23.12,0.81
		c7.56,1.33,14.96,3.41,22.42,5.14c2.38,0.81,4.5-0.79,6.75-1.27c-14.04-8.42-30.35-11.73-46.38-13.85
		c-8.53-0.93-17.1,0.54-25.31,2.78c-3.89,1-7.33,3.16-10.54,5.5c-3.52,2.51-7.18,4.79-10.78,7.17l-0.66,0.47
		C542.71,155.87,551.46,150.33,561.09,148.05z"/>
	<path fill="#4B474B" stroke="#4B474B" stroke-width="0.0938" d="M558.3,150.27c8.21-2.24,16.78-3.71,25.31-2.78
		c16.03,2.12,32.34,5.43,46.38,13.85c-2.25,0.48-4.37,2.08-6.75,1.27c-7.46-1.73-14.86-3.81-22.42-5.14
		c-7.61-1.53-15.42-1.36-23.12-0.81c-5.67,0.39-11.31,1.45-16.66,3.38c-5.7,2.04-11.65,3.3-17.29,5.51
		c-5.08,2.46-9.9,5.49-15.29,7.27c1.96-3.64,4.55-6.92,7.86-9.41l0.66-0.47c-0.92,1.73-1.74,3.5-2.57,5.26
		c5.33-2.42,10.64-4.93,16.22-6.75c6.69-2.11,13.22-5.01,20.27-5.77c5.35-0.61,10.69-1.62,16.1-1.62
		c10.95,0.34,21.45,3.98,32.34,4.83c-8.96-6.5-20.45-7.35-31-9.26c-13.73-3-27.97,0.65-40.58,6.14
		C550.97,153.43,554.41,151.27,558.3,150.27z"/>
	<path fill="#090909" stroke="#090909" stroke-width="0.0938" d="M547.76,155.77c12.61-5.49,26.85-9.14,40.58-6.14
		c10.55,1.91,22.04,2.76,31,9.26c-10.89-0.85-21.39-4.49-32.34-4.83c-5.41,0-10.75,1.01-16.1,1.62c-7.05,0.76-13.58,3.66-20.27,5.77
		c-5.58,1.82-10.89,4.33-16.22,6.75c0.83-1.76,1.65-3.53,2.57-5.26C540.58,160.56,544.24,158.28,547.76,155.77z"/>
	<path fill="#868586" stroke="#868586" stroke-width="0.0938" d="M543.75,165.55c5.64-2.21,11.59-3.47,17.29-5.51
		c-6.95,5.87-11.63,13.84-18.35,19.94c-1.34-5.01,2.44-9.6,5.15-13.7C546.47,166.03,545.11,165.79,543.75,165.55z"/>
	<path fill="#A2A0A2" stroke="#A2A0A2" stroke-width="0.0938" d="M885.92,165.12c0.93,0.43,1.88,0.87,2.83,1.31
		c-0.14,3.75-0.21,7.75-2.37,11.01c-4.2,5.15-9.16,9.65-14.62,13.42c-2.02,0.75-1.12,3.3,0.5,3.94c3.21,1.19,6.68,0.22,9.88-0.57
		c5.38-1.6,10.9-3.26,15.49-6.63c3.5-2.47,6.32-5.73,8.93-9.09c1.11-0.11,2.22-0.22,3.35-0.33c1.51,8.1,0.89,16.41-1.28,24.32
		c-1.26,8.66-4.2,17.32-10.3,23.8c-4.5,6.17-10.8,10.59-17.17,14.62c-4.47,2.41-9.85,1.85-14.27-0.33
		c5.95-8.25,15.31-13.54,20.16-22.64c2.47-4.58,5.36-8.94,7.38-13.74c0.91-1.69,0.16-3.56,0.11-5.35
		c-5.93,2.09-12.14,3.78-18.48,2.88c-8.07,0.4-16.29,0.08-24.23,1.83c0.93-2.21,1.34-4.81,3.54-6.19
		c7.49-5.42,14.8-11.14,21.55-17.46C881.32,175.97,883.53,170.38,885.92,165.12z"/>
	<path fill="#4B474B" stroke="#4B474B" stroke-width="0.0938" d="M698.16,194.16c1.67-1.79,4-2.71,6.1-3.89l0.06,0.92
		c-0.8,3.16-1.97,6.33-1.73,9.65c0.22,4.35,0.94,8.86-0.7,13.05c-2.98,8.17-7.71,15.55-12.17,22.97c-1.33,1.65-2.3,3.63-1.22,5.68
		c0.37,0.33,1.13,1,1.51,1.33c0.24,1.19,0.51,2.39,0.76,3.59c-3.5,0.14-7,0.35-10.49,0.65c0.87,1.24,1.81,2.44,2.71,3.67
		c0.69,1.11,1.35,2.25,1.99,3.41c-2.99-0.19-6.01,0.07-8.91-0.87c-0.01,1.48-0.02,2.96-0.03,4.44c-2.54-1.73-4.11-4.43-5.58-7.03
		c2.69-0.4,5.45-0.59,8.16-0.16c-0.78-2.4-1.54-4.8-2.3-7.2c3.54,0.44,7.07,0.92,10.59,1.47c-1.79-2.43-3.65-4.89-4.61-7.78
		c2.66-5.48,7.07-9.97,9.17-15.76c2.75-7.42,5.58-14.87,6.6-22.75c-4.21,3.34-8.3,6.93-13.15,9.34
		c-7.09,3.61-14.41,6.76-21.46,10.47c-8.31,4.38-16.9901,8.1-24.87,13.26c-6.3,4.1-12.66,8.14-19.39,11.51
		c-5.47,2.74-11.34,4.53-16.92,6.98c-7.7401,3.36-15.16,7.55-23.35,9.74c-7.79,2.33-15.95,2.66-24.01,2.96
		c3.04,3.14,6.08,6.28,9.22,9.32c-3.06,3.65-6.73,6.8-9.16,10.94c5.36,0.12,10.01-3.25,15.34-3.36c3.02-0.12,6.04,0.01,9.06,0.06
		c-0.09,2.21-0.49,4.41-1.2,6.51c5.41-3.6,11.74-5.59,18.26-5.27c1.03,2.74,2.98,4.93,5.23,6.76c1.73-2.23,3.46-4.46,5.33-6.57
		c3.01-1,6.18-0.94,9.3-1.15c2.72,0.73,5.07,2.4,7.5,3.79c1.21-3.63,2.68-7.17,4.15-10.71c3.57,1.73,7.47,2.46,11.27,3.52
		c-0.52-2.79-1.05-5.57-1.64-8.34c5.64,1.2,11.25,2.48,16.81,4.02c0.42-3.46,0.8-6.92,1.26-10.37c3.97,0.11,7.8199-1.07,10.92-3.58
		c4.39,1.63,8.8,3.17,13.18,4.81c-0.56-1.4-1.12-2.79-1.67-4.19c2.27,1.31,4.55,2.6,6.83,3.91c-0.2599,0.66-0.78,1.98-1.04,2.64
		c-7.29-1.44-15.53-4.78-22.4-0.17c-4.04,1.9-2.23,6.99-2.2,10.47c-5.96-1.56-12.03-2.68-18.02-4.13c0.43,2.45,0.83,4.9,1.25,7.35
		c-3.65-0.02-7.53-0.95-11.03,0.39c-2.93,2.17-1.96,6.34-2.22,9.49c-1.7-0.68-3.4-1.34-5.12-1.95c-7.34-3.44-15.29,0.36-20.88,5.3
		c-1.2-0.7-2.4-1.4-3.59-2.07c-4.06-2.62-8.4-4.73-12.9-6.45c-3.58,3.39-8.17,5.33-13.07,5.76c0.58-2.08,1.2-4.15,1.84-6.21
		c-5.6201,0.87-11.01,2.6-16.4,4.35c-5.6,0.29-10.99-1.62-16.11-3.65c3.78-1.79,7.71-3.23,11.63-4.68c2.64-0.91,5.06-2.77,6.1-5.44
		c-1.69-4.96-6.42-8.1-9.67-12.02c8.23-1.44,16.76-0.67,24.84-3.06c6.34-1.51,12.38-3.99,18.16-6.96c2.5-1.1,4.97-2.27,7.47-3.4
		c7.86-3.73,16.59-5.73,23.64-11.04c8.74-4.36,16.41-10.51,25.01-15.14c10-5.42,19.68-11.68,30.57-15.2c3.18-1.17,6.6-1.97,9.4-3.96
		C693.5,201.38,695.24,197.27,698.16,194.16z"/>
	<path fill="#090909" stroke="#090909" stroke-width="0.0938" d="M361.23,192.2c3.58-0.18,7.17-0.39,10.76-0.11
		c9.42,4.1,18.58,8.96,26.76,15.22c1.83,1.68,4.65,3.59,4.02,6.44c-7.87,2.05-15.91-0.47-23.86-0.19c-2.89-0.16-4.92,2.14-6.94,3.84
		c-3.45-0.82-7.82-1.26-9.61-4.8C359.23,206.26,360.58,198.94,361.23,192.2z"/>
	<path fill="#868586" stroke="#868586" stroke-width="0.0938" d="M704.32,191.19c2.44,8.31,0.87,17.04-1.23,25.24
		c-2.47,7.86-6.75,15.35-13.3701,20.43c4.46-7.42,9.19-14.8,12.17-22.97c1.64-4.19,0.92-8.7,0.7-13.05
		C702.35,197.52,703.52,194.35,704.32,191.19z"/>
	<path fill="#090909" stroke="#090909" stroke-width="0.0938" d="M684.92,208.89c4.85-2.41,8.94-6,13.15-9.34
		c-1.02,7.88-3.85,15.33-6.6,22.75c-2.1,5.79-6.5099,10.28-9.17,15.76c0.96,2.89,2.82,5.35,4.61,7.78
		c-3.52-0.55-7.05-1.03-10.59-1.47c0.76,2.4,1.52,4.8,2.3,7.2c-2.71-0.43-5.47-0.24-8.16,0.16c1.47,2.6,3.04,5.3,5.58,7.03
		c0.51,0.31,1.53,0.93,2.04,1.24c0.55,1.4,1.11,2.79,1.67,4.19c-4.38-1.64-8.79-3.18-13.18-4.81c-3.1,2.51-6.95,3.69-10.92,3.58
		c-0.46,3.45-0.84,6.91-1.26,10.37c-5.56-1.54-11.17-2.82-16.81-4.02c0.59,2.77,1.12,5.55,1.64,8.34c-3.8-1.06-7.7-1.79-11.27-3.52
		c-1.47,3.54-2.94,7.08-4.15,10.71c-2.43-1.39-4.78-3.06-7.5-3.79c-3.12,0.21-6.29,0.15-9.3,1.15c-1.87,2.11-3.6,4.34-5.33,6.57
		c-2.25-1.83-4.2-4.02-5.23-6.76c-6.52-0.32-12.85,1.67-18.26,5.27c0.71-2.1,1.11-4.3,1.2-6.51c-3.02-0.05-6.04-0.18-9.06-0.06
		c-5.33,0.11-9.98,3.48-15.34,3.36c2.43-4.14,6.1-7.29,9.16-10.94c-3.14-3.04-6.18-6.18-9.22-9.32c8.06-0.3,16.22-0.63,24.01-2.96
		c8.19-2.19,15.61-6.38,23.35-9.74c5.58-2.45,11.45-4.24,16.92-6.98c6.73-3.37,13.09-7.41,19.39-11.51
		c7.8799-5.16,16.56-8.88,24.87-13.26C670.51,215.65,677.83,212.5,684.92,208.89z"/>
	<path fill="#868586" stroke="#868586" stroke-width="0.0938" d="M974.89,209.72c6.34,5.91,11.89,13.51,13.33,22.22
		c0.46,11.29,1.69,22.99-2.37,33.83c-0.5099,2.57-2.74,4.07-4.65,5.58c-0.33-0.58-0.99-1.74-1.32-2.32c0.05-0.4,0.16-1.19,0.21-1.59
		c0.5-3.64,0.85-7.38,0.08-11.01c-0.94-6.29-6.21-11.03-6.5-17.5C974.22,229.2,972.73,219.31,974.89,209.72z"/>
	<path fill="#A2A0A2" stroke="#A2A0A2" stroke-width="0.0938" d="M947.85,235.24c2.34,4.52,1.9,9.69,1.97,14.6
		c0.59,0.37,1.77,1.1,2.35,1.47c2.6-3.22,5.82-5.83,8.72-8.76c0.95,3.02,1.95,6.05,2.48,9.19c0.89,0.5,1.79,1,2.7,1.51
		c2.63-4.72,4.95-9.61,7.6-14.32c0.29,6.47,5.56,11.21,6.5,17.5c0.77,3.63,0.42,7.37-0.08,11.01c-3.31-4.55-2.58-10.47-4.13-15.66
		c-6.67,6.82-11.98,14.84-18.62,21.68c-1.22,1.08-3.9,1.79-4.19-0.49c0.19-2.46,0.99-4.82,1.06-7.28c-0.07-2.4-2.11-4-3.04-6.06
		c-5.89,4.39-11.22,10.38-18.85,11.47c-0.28-2.59-1-5.33-0.02-7.86c1.06-3.09,2.88-5.85,3.99-8.91c1.07-3.02,0.78-6.36,1.89-9.36
		C941.09,241.44,944.83,238.68,947.85,235.24z"/>
	<path fill="#A2A0A2" stroke="#A2A0A2" stroke-width="0.0938" d="M690.01,243.87c2.26,1.56,3.46,4.05,4.68,6.42
		c-3.82-0.42-7.71-0.1-11.41-1.38c-0.07,0.72-0.22,2.15-0.29,2.87c-0.9-1.23-1.84-2.43-2.71-3.67c3.49-0.3,6.99-0.51,10.49-0.65
		C690.52,246.26,690.25,245.06,690.01,243.87z"/>
	<path fill="#A2A0A2" stroke="#A2A0A2" stroke-width="0.0938" d="M910.9,250.92c4.11-2.51,8.52-4.58,13.06-6.21
		c0.3,0.28,0.89,0.85,1.19,1.13c-3.92,7.55-10.38,13.64-17.97,17.42c-1.55,0.55-3.2,0.79-4.78,1.14
		C904.31,259.43,906.84,254.47,910.9,250.92z"/>
	<path fill="#868586" stroke="#868586" stroke-width="0.0938" d="M1016.49,249.28c0.37-0.46,1.12-1.39,1.49-1.86
		c0.45,0.41,1.35,1.21,1.8,1.62c-0.5601,2.73-1.04,5.48-1.4,8.25c4.58-2.02,6.9-6.63,10.7-9.61c3.4701-0.72,2.03,4.04,2.28,6.15
		c-1.5599,3.03-3.3099,6.24-6.4399,7.9c-4.04,2.26-8.2501,4.37-11.5101,7.75c-3.35,3.38-7.23,6.15-11.37,8.47
		c1.62-4.78,2.7-9.84,1.71-14.88C1008.01,258.49,1012.66,254.26,1016.49,249.28z"/>
	<path fill="#A2A0A2" stroke="#A2A0A2" stroke-width="0.0938" d="M1003.84,259.91c4.5699-3.14,7.71-7.98,12.65-10.63
		c-3.83,4.98-8.48,9.21-12.74,13.79c0.99,5.04-0.09,10.1-1.71,14.88c4.14-2.32,8.02-5.09,11.37-8.47
		c3.26-3.38,7.47-5.49,11.5101-7.75c3.13-1.66,4.88-4.87,6.4399-7.9c-0.5,3.14-0.8099,6.32-1.67,9.4
		c-1.96,6.55-0.36,13.93-4.1699,19.94c-0.61-1.88-1.3101-3.72-1.96-5.57c-4.51,12.56-10.67,24.51-18.78,35.13
		c-3.73,6.19-9.45,11.15-11.84,18.08c6.7,0.2,10.75-5.64,14.84-10.02c-1.7401,3.28-3.01,7.1-6,9.47c-5.4,3.12-11.92,2.78-17.82,1.61
		l-0.51-1.35c2.1,1.52,2.56-1.22,4.1-1.82c4.78-3.18,8.85-7.3,12.46-11.74c4.51-5.75,6.82-12.75,9.7-19.36
		c4.06-7.6,4.55-16.39,7.44-24.42c-0.81-0.78-1.61-1.55-2.39-2.33c-4.42,3.77-8.31,8.1-12.59,12.01c-1.44-2.15-2.9-4.28-4.37-6.4
		c-7.14,2.53-11.8,8.61-17.33,13.4c-0.89-4.62-1.1299-9.44,0.41-13.95c1.71-2.18,4.45-3.1,6.82-4.36
		C993.83,268.8,998.4,263.71,1003.84,259.91z"/>
	<path fill="#A2A0A2" stroke="#A2A0A2" stroke-width="0.0938" d="M840.62,252.19c3.36-1.1,6.8-2.29,10.39-2.01
		c4.83,0.02,9.24,2.3,13.99,2.89c9.2,0.86,18.43,0.04,27.64-0.23c0.02,0.67,0.06,2.02,0.08,2.7c-10.5,1.55-21.1,4-31.77,2.67
		c-5.71-0.77-11.51-1.02-17.13-2.25C841.76,255.8,841.47,253.62,840.62,252.19z"/>
	<path fill="#868586" stroke="#868586" stroke-width="0.0938" d="M566.11,260.23c9.67-1.01,18.6-5.05,27.97-7.36
		c-5.78,2.97-11.82,5.45-18.16,6.96c-8.08,2.39-16.61,1.62-24.84,3.06c3.25,3.92,7.98,7.06,9.67,12.02
		c-1.04,2.67-3.46,4.53-6.1,5.44c-3.92,1.45-7.85,2.89-11.63,4.68c5.12,2.03,10.51,3.94,16.11,3.65c5.39-1.75,10.78-3.48,16.4-4.35
		c-0.64,2.06-1.26,4.13-1.84,6.21c4.9-0.43,9.49-2.37,13.07-5.76c4.5,1.72,8.84,3.83,12.9,6.45c-6.6-1.77-13.17,0.43-19.62,1.72
		c-5.88,1.32-11.13-2.8-16.96-2.7c-7.53-0.08-16.31,1.97-22.29-3.98c0.96-1.52,1.97-3.01,2.96-4.52c5.29-1.12,13.68-0.93,14.79-7.77
		c-2.19-3.57-6.04-5.63-8.59-8.88c-0.77-1.6-0.98-3.41-1.64-5.04C554.21,260.68,560.2,261.13,566.11,260.23z"/>
	<path fill="#A2A0A2" stroke="#A2A0A2" stroke-width="0.0938" d="M676.07,254.32c2.9,0.94,5.92,0.68,8.91,0.87
		c0.67,0.98,1.25,2.02,1.76,3.1c-2.63-0.34-5.25-0.71-7.86-1.09c4.07,3.44,7.98,7.11,10.69,11.76c-5.21,0.84-10.05-1.3-14.98-2.48
		c-4.38,0.21-8.71,1.69-13.13,0.89c-0.02,3.76-0.64,7.52-0.15,11.28c-4.27-0.38-8.57-0.84-12.84-0.37c-1.48,1.97-2.55,4.2-3.65,6.39
		c-4.19-1.99-8.79-2.7-13.34-3.34c0.13,4.02,0.06,8.07,0.93,12.03c-3.31-0.84-6.94-1.83-8.28-5.36c1.72,0.61,3.42,1.27,5.12,1.95
		c0.26-3.15-0.71-7.32,2.22-9.49c3.5-1.34,7.38-0.41,11.03-0.39c-0.42-2.45-0.82-4.9-1.25-7.35c5.99,1.45,12.06,2.57,18.02,4.13
		c-0.03-3.48-1.84-8.57,2.2-10.47c6.8701-4.61,15.11-1.27,22.4,0.17c0.26-0.66,0.78-1.98,1.04-2.64c-2.28-1.31-4.56-2.6-6.83-3.91
		c-0.51-0.31-1.53-0.93-2.04-1.24C676.05,257.28,676.06,255.8,676.07,254.32z"/>
	<path fill="#868586" stroke="#868586" stroke-width="0.0938" d="M1004.78,312.73c8.11-10.62,14.27-22.57,18.78-35.13
		c0.65,1.85,1.35,3.69,1.96,5.57c0.08,3.3-1.4,6.4-2.51,9.44c-3.82,10-8.71,19.68-15.23,28.18c-4.09,4.38-8.14,10.22-14.84,10.02
		C995.33,323.88,1001.05,318.92,1004.78,312.73z"/>
	<path fill="#A2A0A2" stroke="#A2A0A2" stroke-width="0.0938" d="M1088.88,294.86c2.3099-1.99,5.4-2.43,8.27-3.13
		c-0.53,8.53-1.5,17.07-4.04,25.27c7.24-3.1,14.71-5.65,21.89-8.88v2.4c-9.79,2.68-19.28,6.87-27.26,13.22
		c-2.79,1.75-1.42,5.03-1.23,7.67c9.65-3.94,18.91-8.75,28.49-12.85v55.54c-9.1,4.72-19.89,6.44-29.9301,4.15
		c-5.4399-1.23-11.0699-2.45-15.75-5.63c-3.6699-2.45-6.21-6.12-8.75-9.63c2.77-0.37,5.55-0.89,8.37-0.74
		c6.1901,0.74,10.89,5.91,17.15,6.39c4.64,0.07,9.74-2.14,11.8201-6.51c2.8199-5.44,3.1599-11.67,3.62-17.65
		c-3.17-0.32-6.49,0.16-8.24,3.15c-7.5601,0.17-14.1001-4.26-21.5-4.94c-16.2101-1.9-33.9601,1.49-46.23,12.86
		c-9.6801,9.24-19.3401,19.08-24.6201,31.61c-7.28,12.73-9.86,27.54-9.43,42.07c-0.36-3.49-0.79-6.97-1.13-10.46
		c-0.07,11.41,0.11,22.81-0.19,34.21c0.45-0.98,0.91-1.96,1.39-2.93c-0.01,12.28,5.22,23.71,11.39,34.04
		c4.38,7.37,10.75,13.19,16.65,19.3c6,6.41,14.47,9.41,21.71,14.09c-1.76,0.45-3.48,0.97-5.2,1.5
		c-2.33,9.2-5.3101,18.46-10.88,26.26c-3.98,5.43-7.17,11.39-11.24,16.76c-5.18,6.77-11.87,12.14-17.33,18.65
		c-10.96,13.31-23.18,25.49-35.36,37.67c-8.6,7.72-16.57,16.1-25.01,23.99c-7.08,7.26-14.98,13.65-22.07,20.91
		c-7.88,7.8701-16.58,14.83-25.29,21.75c-7.19,6.13-13.08,13.66-20.74,19.26c-9.47,7.13-18.85,14.38-28.05,21.86
		c-7.8,4.3-15.19,9.28-22.14,14.85c-7.62,5.87-16.22,10.32-23.74,16.33c-8.82,7.12-19.29,11.76-28.26,18.67
		c-10.43,8.07-22.45,13.61-33.69,20.38c-8.51,3.85-16.94,7.88-25.5,11.61c7.91-5.26,15.49-11.2,21.61-18.52
		c4.5-5.48,9.57-10.47,14.04-15.97c6.1-7.57,12.5-14.88,18.81-22.26c4.8-5.54,8.44-12,13.46-17.37c7.12-7.73,16.15-13.27,24.45-19.6
		c11.49-8.66,23.46-16.67,35.66-24.28c6.08-3.91,11.8-8.38,18.15-11.85c10.2-5.45,19.13-12.89,28.91-19.01
		c19.11-11.9,37.77-24.63,55.19-38.91c9.06-6.49,16.82-14.52,24.66-22.3799c5.03-6,11.12-11.07,15.7-17.47
		c3.77-5.21,8.01-10.1,11.2401-15.69c5.68-9.79,12.66-18.95,16.48-29.71c3.63-9.95,8.9-19.42,10.96-29.88
		c-0.65-4.46-4.96-7.19-7.65-10.51c-10.09-11.58-16.81-26.02-19.56-41.12c-1.05-6.08-0.58-12.27-0.57-18.4
		c0.08-6.93-0.74-13.98,1.04-20.77c2.25-8.37,4.59-16.76,8.16-24.69c4.16-10.36,11.08-19.31,18.47-27.57
		c4.22-4.82,9.9901-7.93,14.2701-12.68c1.85-1.65,1.0399-4.23,0.74-6.35c-0.9401-4.16-1.87-8.41-3.7201-12.27
		c-3.4-1.58-7.14-2.1-10.78-2.8c7.7501-3.16,16.07-4.84,23.52-8.72c4.3301-2.2,7.0601-6.35,10.38-9.72
		c4.65-4.64,9.14-9.46,14.28-13.57c-0.08,7.05-3.28,13.7-2.46,20.81C1071.48,309.83,1079.9399,302.04,1088.88,294.86
		 M1063.4399,318.47c-1.33,1.05-4.5699,3.31-5.0299,0.44c0.46-5.5,3.5399-10.58,3.15-16.22c-3.4,0.18-5.51,3.72-8.0901,5.61
		c0.11,4.82,0.62,9.77-0.78,14.47c-0.9099,3.12-1.8099,6.25-2.6699,9.39c2.88-1.44,5.8199-2.78,8.5499-4.53
		c5.5901-3.48,11.66-6.22,16.9801-10.14c3.11-2.72,5.59-6.22,9.48-7.96c0.27,3.43,0.89,6.83,1.4,10.24
		c0.36,0.12,1.08,0.38,1.4399,0.51c6.49-7.38,7.49-17.82,6.47-27.2C1083.66,301.06,1073.1801,309.35,1063.4399,318.47z"/>
	<path fill="#868586" stroke="#868586" stroke-width="0.0938" d="M1063.4399,318.47c9.7401-9.12,20.2201-17.41,30.9-25.39
		c1.02,9.38,0.02,19.82-6.47,27.2c-0.36-0.13-1.08-0.39-1.4399-0.51c-0.51-3.41-1.13-6.81-1.4-10.24c-3.89,1.74-6.37,5.24-9.48,7.96
		c-5.3201,3.92-11.39,6.66-16.9801,10.14c-2.73,1.75-5.6699,3.09-8.5499,4.53c0.86-3.14,1.76-6.27,2.6699-9.39
		c1.4-4.7,0.89-9.65,0.78-14.47c2.5801-1.89,4.6901-5.43,8.0901-5.61c0.3899,5.64-2.6901,10.72-3.15,16.22
		C1058.87,321.78,1062.11,319.52,1063.4399,318.47z"/>
	<path fill="#868586" stroke="#868586" stroke-width="0.0938" d="M1087.74,323.74c7.98-6.35,17.47-10.54,27.26-13.22v8.04
		c-9.58,4.1-18.84,8.91-28.49,12.85C1086.3199,328.77,1084.95,325.49,1087.74,323.74z"/>
	<path fill="#8F0C90" stroke="#8F0C90" stroke-width="0.0938" d="M1025.5601,355.55c12.2699-11.37,30.0199-14.76,46.23-12.86
		c7.3999,0.68,13.9399,5.11,21.5,4.94l-0.3101,0.53c-0.46,0.82-0.9,1.65-1.3099,2.5c-1.24,0.33-2.4601,0.67-3.6801,1.01
		c-1.09,2-1.98,4.17-3.5599,5.85c-2.65,1.83-5.9601,2.28-8.9801,3.17c0.03,0.86,0.0701,1.72,0.12,2.58
		c-3.36-1.79-7.0399-3.36-10.9299-3.05c-2.72,0.01-4.83,1.94-7.11,3.12c-1.5901,0.92-3.27,1.66-4.98,2.25
		c-3.6101,1.1-7.49,1.97-10.26,4.71c-9.0801,8.28-15.4501,19.36-18.92,31.09c-2.53,10.06-2.49,20.74-0.37,30.86
		c2.42,7.95,5.9301,15.88,11.95,21.77c5.5701,9.71,15.03,16.19,24.7201,21.32c11.63,7.8,25.5199,11.63,39.37,12.81
		c5.97,0.5,10.9199,4.12,15.96,7.01v15.64c-7.26,7.19-17.42,10.27-27.24,11.95c-9.95,1.23-20.1901,1.2-29.9301-1.36
		c-5.49-1.37-10.99-2.66-16.5-3.91c-7.24-4.68-15.71-7.68-21.71-14.09c-5.9-6.11-12.27-11.93-16.65-19.3
		c-6.17-10.33-11.4-21.76-11.39-34.04c-0.48,0.97-0.94,1.95-1.39,2.93c0.3-11.4,0.12-22.8,0.19-34.21
		c0.34,3.49,0.77,6.97,1.13,10.46c-0.43-14.53,2.15-29.34,9.43-42.07C1006.22,374.63,1015.88,364.79,1025.5601,355.55
		 M995.52,447.94c-0.17,6.13,2.11,11.96,3.1,17.95c3.62,0.36,8.12-0.73,8.79-4.93c-0.79-5.16-2.96-9.99-4.18-15.06
		c-0.39-2.56-2.5-4.07-4.24-5.71C997.48,442.57,995.51,444.96,995.52,447.94 M1008.25,469.08c-1.67,0.34-1.56,2.6-1.68,3.93
		c0.23,6.09,3.02,11.87,7.03,16.37c9.01,10.05,21.03,16.8,33.42,21.8c5.83,2.09,12.3199,4.8,18.49,2.44c2.6-1.1,5.78-3.29,4.91-6.57
		c-0.3301-3.68-4.4301-4.8-7.0901-6.47c-9.9399-5.7-20.72-10.04-29.8199-17.12c-4.48-3.46-8.36-7.59-12.46-11.46
		C1017.79,468.71,1012.59,467.75,1008.25,469.08z"/>
	<path fill="#868586" stroke="#868586" stroke-width="0.0938" d="M1093.29,347.63c1.75-2.99,5.0699-3.47,8.24-3.15
		c-0.4601,5.98-0.8,12.21-3.62,17.65c-2.0801,4.37-7.1801,6.58-11.8201,6.51c-6.26-0.48-10.96-5.65-17.15-6.39
		c-2.8199-0.15-5.6,0.37-8.37,0.74c2.54,3.51,5.0801,7.18,8.75,9.63c4.6801,3.18,10.3101,4.4,15.75,5.63
		c10.04,2.29,20.8301,0.57,29.9301-4.15v2.3c-13.66,7.58-31.0601,6.97-44.3199-1.16c-4.91-3.34-8.8501-7.86-13.15-11.9
		c2.28-1.18,4.39-3.11,7.11-3.12c3.89-0.31,7.5699,1.26,10.9299,3.05c5.29,3.49,11.78,3.93,17.79,2.26
		c4.83-4.84,5.28-11.87,5.35-18.31c-1.9299,0.3-3.84,0.61-5.73,0.94L1093.29,347.63z"/>
	<path fill="#090909" stroke="#090909" stroke-width="0.0938" d="M1092.98,348.16c1.89-0.33,3.8-0.64,5.73-0.94
		c-0.0699,6.44-0.52,13.47-5.35,18.31c-4.27-0.37-8.51-0.82-12.76-1.24c4.66-1.68,9-4.09,13.38-6.37
		c-0.76-2.43-1.53-4.85-2.3099-7.26C1092.08,349.81,1092.52,348.98,1092.98,348.16z"/>
	<path fill="#090909" stroke="#090909" stroke-width="0.0938" d="M428.09,353.03c2.67-1.54,5.24-3.25,7.8-4.97
		c-2.14,5.58-4.82,11.03-5.78,16.99c-0.81,2.86-0.93,6.48-3.52,8.39c-3.67,0.7-7.42,0.25-11.12,0.1c-3.06-4.96-8.98-6.27-13.6-9.24
		c2.63,0.05,5.27,0.19,7.9,0.37c0.86-2.36,1.59-4.82,3.1-6.87C417.69,355.45,423.42,355.76,428.09,353.03z"/>
	<path fill="#4B474B" stroke="#4B474B" stroke-width="0.0938" d="M1087.99,351.67c1.22-0.34,2.4401-0.68,3.6801-1.01
		c0.7799,2.41,1.5499,4.83,2.3099,7.26c-4.38,2.28-8.72,4.69-13.38,6.37c4.25,0.42,8.49,0.87,12.76,1.24
		c-6.01,1.67-12.5,1.23-17.79-2.26c-0.0499-0.86-0.09-1.72-0.12-2.58c3.02-0.89,6.3301-1.34,8.9801-3.17
		C1086.01,355.84,1086.9,353.67,1087.99,351.67z"/>
	<path fill="#4B474B" stroke="#4B474B" stroke-width="0.0938" d="M1052.55,365.59c1.71-0.59,3.3899-1.33,4.98-2.25
		c4.2999,4.04,8.24,8.56,13.15,11.9c13.2599,8.13,30.6599,8.74,44.3199,1.16v6.98c-4.77,3.11-9.83,6.09-15.48,7.21
		c-10.36,1.73-20.8201-1.29-31.1901-0.02c-4.47,1.22-8.21,4.18-11.95,6.79C1055.5601,386.71,1052.76,376.3,1052.55,365.59z"/>
	<path fill="#868586" stroke="#868586" stroke-width="0.0938" d="M1042.29,370.3c2.77-2.74,6.6499-3.61,10.26-4.71
		c0.21,10.71,3.01,21.12,3.83,31.77c3.74-2.61,7.48-5.57,11.95-6.79c10.37-1.27,20.8301,1.75,31.1901,0.02
		c5.65-1.12,10.71-4.1,15.48-7.21v8.94c-4.76,5.82-10.55,10.89-14.01,17.67c-4.24,8.24-8.8099,16.31-14.24,23.83
		c-5.3199,7.14-8.77,15.52-14.8101,22.14c-4.7899,5.19-7.73,11.65-10.21,18.18c7.65,7.02,18.02,9.3,27.8201,11.57
		c4.34,0.94,8.7799,1.23,13.13,2.18c4.4399,0.96,8.48,3.18,12.3199,5.55v1.72c-5.04-2.89-9.99-6.51-15.96-7.01
		c-13.8501-1.18-27.74-5.01-39.37-12.81c-9.6901-5.13-19.15-11.61-24.7201-21.32c5.37,3.96,9.0801,9.94,15.05,13.08
		c1.5,0.38,3.89,2.26,4.76,0.07c-0.55-2.93-2-5.69-2.01-8.71c0.1899-3.98,1.6-7.8,1.65-11.8c0.09-5.95-2.3201-11.65-1.9501-17.62
		c0.3401-5.39,1.74-10.66,1.9701-16.06c0.88-12.66-1.65-25.17-2.4601-37.75c-0.02-2.83-1.5699-5.25-2.3199-7.89
		c-5.3201,3.68-10.6,7.67-14.24,13.1c-3.67,5.43-7.62,10.93-9.22,17.39c-3.2401,12.59-5.0701,26.34,0.21,38.67
		c2.22,6.13,5.92,11.57,8.5599,17.52c-6.0199-5.89-9.5299-13.82-11.95-21.77c-2.12-10.12-2.16-20.8,0.37-30.86
		C1026.84,389.66,1033.21,378.58,1042.29,370.3z"/>
	<path fill="#A2A0A2" stroke="#A2A0A2" stroke-width="0.0938" d="M1035.4,380.44c3.64-5.43,8.9199-9.42,14.24-13.1
		c0.75,2.64,2.2999,5.06,2.3199,7.89c0.8101,12.58,3.3401,25.09,2.4601,37.75c-0.2301,5.4-1.63,10.67-1.9701,16.06
		c-0.37,5.97,2.04,11.67,1.9501,17.62c-0.05,4-1.4601,7.82-1.65,11.8c0.01,3.02,1.46,5.78,2.01,8.71c-0.87,2.19-3.26,0.31-4.76-0.07
		c-5.97-3.14-9.6801-9.12-15.05-13.08c-2.6399-5.95-6.34-11.39-8.5599-17.52c3.0699-4.75,2.01-10.48,2.04-15.79
		c-0.02-7.35-0.14-14.69,0.09-22.03c-0.59-0.21-1.76-0.64-2.34-0.85C1027.78,391.37,1031.73,385.87,1035.4,380.44z"/>
	<path fill="#A2A0A2" stroke="#A2A0A2" stroke-width="0.0938" d="M1100.99,409.99c3.46-6.78,9.25-11.85,14.01-17.67v3.77
		c-3.71,8.98-7.6,17.88-12.49,26.29c-4.95,8.3-7.11,18.15-13.54,25.56c-3.97,4.83-7.64,9.92-10.59,15.44
		c-2.71,5.14-6.5601,9.53-10.61,13.66c10.98,5.52,23.2,7.44,35.1699,9.57c4.53,0.65,8.66,2.87,12.0601,5.89v0.94
		c-3.84-2.37-7.88-4.59-12.3199-5.55c-4.3501-0.95-8.79-1.24-13.13-2.18c-9.8-2.27-20.17-4.55-27.8201-11.57
		c2.48-6.53,5.42-12.99,10.21-18.18c6.04-6.62,9.4901-15,14.8101-22.14C1092.1801,426.3,1096.75,418.23,1100.99,409.99z"/>
	<path fill="#868586" stroke="#868586" stroke-width="0.0938" d="M570.47,433.05c1.4-0.02,2.83-0.2,4.23,0.09
		c0.83,1.4,1.35,2.95,1.96,4.45c-0.66-0.1-2-0.32-2.66-0.43c-2.03,7.95-5.52,15.69-11.11,21.79c-3.2,3.27-6.82,6.1-10.1,9.29
		c4.35-0.73,8.75-1.61,12.67-3.73c-1.4,1.15-2.61,2.61-4.26,3.41c-5.6,1.78-11.3,3.48-17.23,3.37c2.75-2.06,5.5601-4.05,8.36-6.05
		c7.34-4.82,13.78-11.45,16.74-19.86C570.21,441.38,570.26,437.18,570.47,433.05z"/>
	<path fill="#4B474B" stroke="#4B474B" stroke-width="0.0938" d="M574,437.16c0.66,0.11,2,0.33,2.66,0.43
		c0.11,6.29,0.05,12.75-2.5,18.62c-1.16,4.17-5.2,6.32-8.7,8.3c-3.92,2.12-8.32,3-12.67,3.73c3.28-3.19,6.9-6.02,10.1-9.29
		C568.48,452.85,571.97,445.11,574,437.16z"/>
	<path fill="#A2A0A2" stroke="#A2A0A2" stroke-width="0.0938" d="M995.52,447.94c-0.01-2.98,1.96-5.37,3.47-7.75
		c1.74,1.64,3.85,3.15,4.24,5.71c1.22,5.07,3.39,9.9,4.18,15.06c-0.67,4.2-5.17,5.29-8.79,4.93
		C997.63,459.9,995.35,454.07,995.52,447.94z"/>
	<path fill="#4B474B" stroke="#4B474B" stroke-width="0.0938" d="M466.07,471.04c5.02-6.03,13.39-8.09,20.95-7.69
		c8.36,0.42,16.89-0.79,25.09,1.35c1.56,0.36,3.12,0.74,4.69,1.12c1.92,0.63,3.82,1.34,5.73,2.07c-0.27,0.56-0.8101,1.68-1.08,2.24
		c-3.18,0.65-6.34,1.45-9.34,2.72c-4.08,3.92-8.3,8.37-14.06,9.59c-5.33,0.63-10.7-0.18-16.04-0.08c-3.98-0.07-7.99,0.54-11.94-0.1
		c-2.01-0.81-3.84-1.98-5.71-3.05C464.63,476.46,464.03,473.26,466.07,471.04z"/>
	<path fill="#A2A0A2" stroke="#A2A0A2" stroke-width="0.0938" d="M512.11,464.7c3.32,0.21,6.66,0.28,9.98,0.65
		c4.81,0.53,9.0099,3.63,13.95,3.55c5.7,0.52,10.94-2.16,16.29-3.66c-2.8,2-5.61,3.99-8.36,6.05c5.9301,0.11,11.63-1.59,17.23-3.37
		c-4.38,2.99-9.75,5.33-15.23,4.73c-10.74-1.47-21.5,0.79-32.28-0.03c6.41-0.87,12.88-1.11,19.32-1.69
		c-4.99-2.86-10.53-4.41-16.21-5.11C515.23,465.44,513.67,465.06,512.11,464.7z"/>
	<path fill="#868586" stroke="#868586" stroke-width="0.0938" d="M516.8,465.82c5.68,0.7,11.22,2.25,16.21,5.11
		c-6.44,0.58-12.91,0.82-19.32,1.69c-0.39,0.06-1.18,0.17-1.58,0.23c3-1.27,6.16-2.07,9.34-2.72c0.27-0.56,0.81-1.68,1.08-2.24
		C520.62,467.16,518.72,466.45,516.8,465.82z"/>
	<path fill="#A2A0A2" stroke="#A2A0A2" stroke-width="0.0938" d="M1008.25,469.08c4.34-1.33,9.54-0.37,12.8,2.92
		c4.1,3.87,7.98,8,12.46,11.46c9.1,7.08,19.88,11.42,29.8199,17.12c2.66,1.67,6.76,2.79,7.0901,6.47
		c0.87,3.28-2.3101,5.47-4.91,6.57c-6.17,2.36-12.66-0.35-18.49-2.44c-12.39-5-24.41-11.75-33.42-21.8
		c-4.0099-4.5-6.8-10.28-7.03-16.37C1006.69,471.68,1006.58,469.42,1008.25,469.08z"/>
	<path fill="#868586" stroke="#868586" stroke-width="0.0938" d="M1087.76,522.75c9.8199-1.68,19.98-4.76,27.24-11.95v2.94
		c-4.24,3.86-9.42,6.59-14.85,8.35c-12.28,2.21-24.77,1.59-37.17,1.8199c-5.61-0.29-11.1-1.6299-16.54-2.94
		c-0.24,0.53-0.7,1.6-0.9399,2.13c0.77,1.4,1.55,2.79,2.35,4.19c-1.6799,1.66-3.35,3.32-5.01,4.9901c0.42,1.1,0.8401,2.21,1.26,3.33
		c-5.3099,5.66-4.89,13.71-6.34,20.83c-1.49,7.6-2.0701,15.39-4.39,22.81c-1.97,6.39-3.25,13.01-5.8,19.22
		c-3.3199,8.03-6.3099,16.2-9.9899,24.09c-1.82,4.6-4.03,9.05-7.01,13.03c-3.56,4.86-4.5,11.05-7.87,16.02
		c-4.85,7.27-9.91,14.45-13.77,22.32c-2.22,4.58-5,8.86-8.12,12.88c-3.72,4.82-6.25,10.38-9.48,15.51c-1.94,3.1-3.88,6.26-5.06,9.75
		c-3.5,11.29-8.17,22.21-11.08,33.69c-0.89,4.87-0.55,9.86-1.33,14.75c-1.26,8.07-0.75,16.28-0.58,24.42
		c0.23,7.61,3.3799,14.66,4.79,22.07c0.92,4.61,1.54,9.55,4.6,13.36c4.68,5.88,8.11,12.59,12.29,18.82
		c5.24,8.14,8.31,17.44,13.32,25.72c3.0699,4.55,6.9,8.54,10.15,12.98c-0.89,0.91-1.77,1.84-2.64,2.78
		c-8.97-5.56-16.98-12.59-24.43-20.03c-5.83-6.54-12.94-11.71-19.21-17.78c-6.58-6.53-13.88-12.2599-21.34-17.73
		c-2.87-2.59-5.47-5.45-7.93-8.42c4.02,1.44,7.88,3.4,10.83,6.58c15.38,13.97,31.08,27.6,46.43,41.6c2.42,2.1,5.09,3.87,7.81,5.57
		c-1.31-6.88-5.78-12.4-8.68-18.63c-4.57-9.03-9.39-18.26-16.79-25.32c-5.66-5.01-11.11-10.23-16.63-15.37
		c-5.66-5.01-10.3199-11-15.58-16.39c-6.03-6.09-10.51-13.44-15.99-19.98c-4.29-5.59-9.58-11.04-10.7401-18.28
		c-1.49-9.96,0.07-20.36,4.56-29.4c4.48-9.04,9.55-17.78,14.16-26.77c7.11-13.91,16.29-26.7,26.68-38.35
		c4.93-5.75,9.68-11.65,14.77-17.25c12.55-15.08,23.05-31.68,34.04-47.89c4.95-7.03,8.06-15.11,12.71-22.32
		c3.74-5.95,8.05-11.54,11.44-17.72c-2.77,1.53-5.55,3.09-7.89,5.22c4.07-5.37,7.26-11.33,11.24-16.76
		c5.5699-7.8,8.55-17.06,10.88-26.26c1.72-0.53,3.4399-1.05,5.2-1.5c5.51,1.25,11.01,2.54,16.5,3.91
		C1067.5699,523.95,1077.8101,523.98,1087.76,522.75z"/>
	<path fill="#A2A0A2" stroke="#A2A0A2" stroke-width="0.0938" d="M1046.4399,520.97c5.4401,1.3101,10.9301,2.65,16.54,2.94
		c12.4-0.23,24.89,0.39,37.17-1.8199c-8.72,3.17-17.9601,4.67-27.22,4.55c-7.14-0.49-11.4801,5.93-17.1101,9.07
		c-3.96,2.58-9,3.71-12.0499,7.5c-0.91,5.4,4.13,9.39,8.23,11.91c5.37,3.43,12.05,2.22,17.88,4.12c1.51,1.49,0.22,3.49-0.64,4.95
		c-3.33,4.88-7.9399,8.7-11.85,13.1c1.92,1.22,3.83,2.56,6.02,3.27c5.2899,1.38,11.0299,0.06,16.1799,2.1
		c2.6801,0.9901,1.9701,4.23,1.49,6.39c-1.88,7.11-5.73,13.47-9.39,19.78c-3.6699,5.97-7.6499,12.38-14.08,15.67
		c-4.15,1.63-8.17,3.53-12.24,5.34c6.1,8.16,14.45,14.19,22.4,20.41c7.0699,4.83,12.99,11.24,20.5599,15.37
		c6.0901,3.52,12.36,6.83,17.9801,11.1c5.1,3.72,3.75,10.8101,4.0499,16.28c-0.75,14.44,2.91,28.6,3.02,43
		c-0.01,24.66,0.02,49.33,0.01,73.99c-0.17,11.59,0.6899,23.26-1.3101,34.74c-1.6699,9.35-1.7999,18.86-1.75,28.33
		c0.0701,7.09-2.64,13.83-2.7899,20.91c-0.26,11.28-4.14,22.01-6.23,33.01c-3.6101,18.51-11.04,35.98-19.3501,52.83
		c-8.46,16.33-19.26,31.28-29.6699,46.4c-8.1901,13.52-18.86,25.3-27.3501,38.63c-4.5999,6.8-9.9099,13.17-13.4199,20.67
		c-4.35,8.11-9.91,15.51-14.26,23.63c-5.4,9.4399-11.39,18.54-17.45,27.5699c-10.28,17.0801-20.57,34.15-30.74,51.3
		c-5.94,10.24-10.74,21.09-16.71,31.3099c-5.46,9.25-9.14,19.4-13.98,28.9701c-3.58,6.75-5.86,14.0699-9.21,20.9099
		c-3.88,7.9601-5.77,16.67-9.33,24.75c-3.44,9.6001-6.03,19.49-8.77,29.3201c-1.76,5.5599-0.67,12.22-4.79,16.77
		c-1.58-10.48-0.21-21.0601-0.28-31.5801c-0.05-4.48,0.71-8.8999,1.81-13.22c1.63-6.5699,0.13-13.4,1.34-20.02
		c0.85-4.74,2.16-9.39,2.62-14.1799c0.94-10.0901,3.25-19.9601,4.96-29.92c1.8-10.3099,5.59-20.1,8.13-30.21
		c2.45-10.02,6.44-19.55,9.78-29.29c4.39-12.65,10.62-24.53,15.97-36.78c3.58-8.45,7.41-16.7899,10.77-25.33
		c6.95-18.15,12.27-36.92,15.91-56c1.55-8.5,4.34-16.83,4.43-25.53c0.07-4.45,0.72-8.84,1.66-13.16c1.61-7.5,1.16-15.2,1.23-22.81
		c0.05-11.8,0.02-23.6-0.11-35.39c0-6.33-2.58-12.29-2.82-18.58c-0.25-5.39,0.51-10.88-0.99-16.14c-1.6-5.6-2.11-11.41-2.91-17.15
		c-3.88-19.87-7.7401-40-16.02-58.6c-3.65-7.01-7.07-14.15-10.95-21.03c7.46,5.47,14.76,11.2,21.34,17.73
		c6.27,6.07,13.38,11.2401,19.21,17.78c7.45,7.44,15.46,14.47,24.43,20.03c0.87-0.94,1.75-1.87,2.64-2.78
		c-3.25-4.44-7.08-8.43-10.15-12.98c-5.01-8.28-8.08-17.58-13.32-25.72c-4.18-6.23-7.61-12.94-12.29-18.82
		c-3.06-3.81-3.68-8.75-4.6-13.36c-1.41-7.41-4.56-14.46-4.79-22.07c-0.17-8.14-0.6801-16.35,0.58-24.42
		c0.78-4.89,0.44-9.88,1.33-14.75c2.91-11.48,7.58-22.4,11.08-33.69c1.18-3.49,3.12-6.65,5.06-9.75c3.23-5.13,5.76-10.69,9.48-15.51
		c3.12-4.02,5.9-8.3,8.12-12.88c3.86-7.87,8.92-15.05,13.77-22.32c3.37-4.97,4.31-11.16,7.87-16.02
		c2.98-3.98,5.19-8.4301,7.01-13.03c3.68-7.89,6.67-16.06,9.9899-24.09c2.55-6.21,3.8301-12.83,5.8-19.22
		c2.3199-7.42,2.9-15.21,4.39-22.81c1.45-7.12,1.03-15.17,6.34-20.83c-0.4199-1.12-0.84-2.23-1.26-3.33
		c1.66-1.67,3.3301-3.33,5.01-4.9901c-0.7999-1.4-1.58-2.79-2.35-4.19C1045.74,522.57,1046.2,521.5,1046.4399,520.97z"/>
	<path fill="#A2A0A2" stroke="#A2A0A2" stroke-width="0.0938" d="M508.74,535.69c4.57-3.71,10.22-6.38,16.19-6.54
		c5.36-0.2,10.74,0.03,16.11,0.05c5.17-0.07,10.07,1.72,15.04,2.88c13.73,3.4,27.4,6.99,41.02,10.8
		c5.73,2.36,11.6801,4.07,17.6801,5.58c9.24,2.84,18.1899,6.77,27.79,8.35c0.43,0.73,0.86,1.46,1.3,2.21
		c-10.92-2.39-21.47-6.09-32.32-8.73c-8.73-2.54-17.38-5.32-26.1-7.88c-10.75-3.34-21.83-5.36-32.7-8.2
		c-8.58-1.9-17.39-4.85-26.24-2.87c-5.85,1.24-12.31,2.0699-16.85,6.33c-3.59,3.07-5.47,7.77-9.37,10.46
		c-5.99,1.65-12.34-0.87-18.32,0.82c-2.98,2.76-3.29,7.23-3.32,11.06c-0.03,7.97,4.37,15.07,9.5,20.85
		c3.51,3.99,7.83,7.21,12.46,9.82c9.17,5.05,18.54,9.77,27.43,15.33c5.88,3.77,13.02,5.84,17.69,11.28
		c2.61,3.08,5.06,6.31,7.34,9.65c0.67,3.79,2.3,8.37-0.38,11.75c-4.11,5.3-10.76,8.53-12.91,15.27c7.55-0.51,13.25-7.11,20.92-6.62
		c4.53,0.1299,7.39,4.02,9.91,7.28c5.34-0.5,10.83-1.02,15.7-3.46c6.7-3.35,13.02-7.43,18.96-11.98c3.13-2.32,6.63-4.7,10.69-4.65
		c1.74,0.45,3.31,1.45,5.08,1.93c-2.39,5.25-4.79,10.57-8.35,15.15c-3.12,4.02-6.13,8.12-8.85,12.43c2.27,0.3,4.55,0.61,6.83,0.9
		c-0.05,2.73-0.08,5.47-0.1,8.21c16.1-16.72,28.86-36.62,37.42-58.19c5.75-9.84,9.43-20.7,15-30.64c1.82-4.14,3.77-8.99,2.02-13.47
		c-2.29-3.66-6.69-5.1-10.18-7.3199l0.88,0.3c5.79-1.18,12.36,4.02,12.23,10.12c0.57,4.75-2.06,8.97-4.21,12.97
		c-4.57,8.17-7.37,17.14-11.46,25.53c-2.53,6.08-3.82,12.61-6.27,18.72c-1.63,4.75-4.03,9.19-5.47,14
		c-3.39,10.92-9.08,21.11-16.73,29.61c-3.33,3.59-5.82,8.56-10.83,10.02c-7.48,2.24-14.1899,6.75-22,7.88
		c-6.3,1.36-12.68,0.05-19.0099-0.19c-6.73-0.36-13.85-1.04-19.64-4.81c-7.05-5.12-13.13-12.22-15.21-20.84
		c-0.82-4.72-1.03-9.76,0.45-14.36c2.86-5.53,8.37-8.9,12.55-13.32c2.8-2.65,2.1-7.0099,1.06-10.31
		c-2.92-6.75-7.53-13.5-14.74-16.11c-7.38-2.91-13.4-8.25-20.47-11.75c-11.55-6.18-24.65-11.41-32.24-22.7
		c-3.89-6.05-7.92-12.86-7.18-20.34c0.35-4.09,1.52-9,5.68-10.79c5.58-2.62,11.8,1.85,17.43-0.44
		C503.33,543.63,504.96,538.73,508.74,535.69 M608.01,640.03c-6.36,5.34-14.01,8.66-21.13,12.81c-6.27,3.58-14.05,4.42-19.32,9.7
		c-1.82,1.7401-4.07,4.4901-2.36,7.06c2.81,4.34,8.2,7.4301,13.45,6.25c5.5-1.06,9.85-4.83,14.56-7.59
		c10.18-6,17.62-15.64,23.22-25.86c1.03-1.92,1.04-4.16,1.55-6.22C614.34,636.48,610.78,637.55,608.01,640.03z"/>
	<path fill="#8F0C90" stroke="#8F0C90" stroke-width="0.0938" d="M526.51,531.34c8.85-1.98,17.66,0.97,26.24,2.87
		c10.87,2.84,21.95,4.86,32.7,8.2c8.72,2.56,17.37,5.34,26.1,7.88c10.85,2.64,21.4,6.34,32.32,8.73c4.11,1.11,8.32,2.3,11.84,4.81
		l-0.88-0.3c-8.28,1.7-16.7,0.12-25.04-0.07c-0.95,1.48-1.86,2.98-2.87,4.41c-7.27-5.1-16.64-3.22-24.9-2.65
		c-6.19,0.92-11.89-2.42-17.98-2.6299c-5.33-0.15-10.69,0.03-15.95,0.9c-5.1,0.84-8.6801,5.69-13.97,5.79
		c-4.44,0.11-8.88,0.4-13.26,1.1c-0.94-0.41-1.88-0.8-2.8-1.18c-3.23,1.56-6.53,3.14-10.11,3.67c-4.3,0.82-8.84,0.53-12.95,2.18
		c-2.49,0.68-2.26,4.13-1.38,6.04c3.23,1.85,6.83,2.87,10.39,3.92c-1.29,1.4-2.6,2.79-4,4.08c-6.43,0.94-13.03,0.03-19.4,1.59
		c-4.63-2.61-8.95-5.83-12.46-9.82c-5.13-5.78-9.53-12.88-9.5-20.85c0.03-3.83,0.34-8.3,3.32-11.06c5.98-1.69,12.33,0.83,18.32-0.82
		c3.9-2.69,5.78-7.39,9.37-10.46C514.2,533.41,520.66,532.58,526.51,531.34z"/>
	<path fill="#4B474B" stroke="#4B474B" stroke-width="0.0938" d="M1014.01,562c2.34-2.13,5.12-3.69,7.89-5.22
		c-3.39,6.18-7.7,11.77-11.44,17.72c-4.65,7.21-7.76,15.29-12.71,22.32c-10.99,16.21-21.49,32.81-34.04,47.89
		c-5.09,5.6-9.84,11.5-14.77,17.25c-10.39,11.65-19.57,24.44-26.68,38.35c-4.61,8.99-9.68,17.73-14.16,26.77
		c-4.49,9.04-6.05,19.44-4.56,29.4c1.16,7.24,6.45,12.69,10.7401,18.28c5.48,6.54,9.96,13.89,15.99,19.98
		c5.26,5.39,9.92,11.38,15.58,16.39c5.52,5.14,10.97,10.36,16.63,15.37c7.4,7.06,12.22,16.29,16.79,25.32
		c2.9,6.23,7.37,11.75,8.68,18.63c-2.72-1.7-5.39-3.47-7.81-5.57c-15.35-14-31.05-27.63-46.43-41.6
		c-2.95-3.1801-6.81-5.14-10.83-6.58c-5.38-5.48-10.82-10.92-16.56-16.03c-6.26-5.21-12.26-10.89-19.52-14.72
		c-4.01-2.09-7.39-5.09-10.91-7.87c-5.35-4.3-11.76-6.9-17.59-10.43c-10.46-5.88-22.92-10.39-34.97-7.17
		c-6.66,2.27-12.59,6.23-19.15,8.76c-8.57,3.34-16.37,8.26-24.59,12.31c-2.76,1.4-5.46,2.93-7.9901,4.71
		c-4.77,3.43-10.21,5.73-15.22,8.75c-4.23,2.89-8.48,5.79-13.17,7.87c-9.08,1.86-16.84,7.2-25.7,9.69
		c-9.06,2.67-18.36,6.42-27.97,4.55c6.77-3.82,14.38-5.79,21.27-9.37c6.7-3.47,13.89-5.91,20.55-9.47c3.96-2.1201,8-4.09,12.04-6.05
		c5.47-2.65,10.45-6.16,15.8-9.02c7-3.61,13.25-8.51,20.51-11.62c-4.92,3.78-10.04,7.48-13.7401,12.55
		c8.38-2.84,15.57-8.17,23.73-11.53c12.48-5.35,24.6-11.48,36.93-17.15c11.38-6.29,21.9-13.98,32.71-21.17
		c17.34-12.43,34.03-25.78,49.9-40.05c9.43-7.51,17.08-16.92,26.04-24.96c6.74-5.95,12.1899-13.14,18.42-19.58
		c9.43-10.56,18.26-21.62,27.5-32.34c6.11-8.62,12.04-17.39,17.67-26.33c3.09-5.7401,7.73-11.2,7.51-18.08
		c-5.18,5.31-9.53,11.35-14.68,16.69c-8.67,9.35-16.89,19.17-26.51,27.58c-3.55,3.09-6.77,6.53-9.97,9.98
		c-4.47,4.86-10.09,8.51-14.46,13.5c-5,5.71-11.11,10.28-16.44,15.67c-9.13,9.18-18.7,17.91-28.11,26.81
		c-10.89,10.22-23.05,18.92-34.46,28.51c-6.54,5.91-13.98,10.7-20.65,16.45c-9.81,7.92-19.46,16.07-29.92,23.13
		c-6.18,4.3-12.37,8.66-19.21,11.87c4.72-4.84,10.52-8.31,16.07-12.07c10.83-8.17,22.48-15.34,32.12-24.98
		c9.2-7.48,18.58-14.73,28.05-21.86c7.66-5.6,13.55-13.13,20.74-19.26c8.71-6.92,17.41-13.8799,25.29-21.75
		c7.09-7.2599,14.99-13.65,22.07-20.91c8.44-7.89,16.41-16.27,25.01-23.99c12.18-12.18,24.4-24.36,35.36-37.67
		C1002.14,574.14,1008.83,568.77,1014.01,562z"/>
	<path fill="#F6F2E7" stroke="#F6F2E7" stroke-width="0.0938" d="M554.12,569.28c5.29-0.1,8.87-4.95,13.97-5.79
		c5.2599-0.87,10.62-1.05,15.95-0.9c6.09,0.21,11.79,3.55,17.98,2.6299c8.26-0.5699,17.63-2.45,24.9,2.65
		c-1.91,2.7-4.84,4.28-7.94,5.22c0.25,0.67,0.48,1.34,0.74,2.03c-5.06,1.32-10.27,1.4-15.45,1.22c-1.54,3.52-2.07,8.1299-5.84,10.03
		c-5.83,3.24-11.63,6.55-17.52,9.69c-7.31,3.13-14.71,7.48-22.98,6.64c-6.05-0.08-11.94-3.29-14.99-8.56
		c-2.49-4.11-4.13-8.71-5.12-13.4c-0.99-3.77,1.46-7.15,3.04-10.36C545.24,569.68,549.68,569.39,554.12,569.28z"/>
	<path fill="#090909" stroke="#090909" stroke-width="0.0938" d="M629.79,563.46c8.34,0.19,16.76,1.77,25.04,0.07
		c3.49,2.22,7.89,3.66,10.18,7.3199c1.75,4.48-0.2,9.33-2.02,13.47c-1.02-2.78-2.01-5.58-3.17-8.31c-0.37-0.07-1.12-0.2-1.5-0.27
		c-0.72,0.16-2.16,0.47-2.88,0.63c0.95-0.95,1.85-1.95,2.78-2.93c-9.5699,2.73-18.61,6.94-27.52,11.28
		c-4.7,2.47-10.32-2.23-14.74,1.21c-2.5,1.26-3.14,4.13-4.71,6.22c-2.28,3.61-5.45,6.5-8.15,9.78c-5.72,6.01-5.78,14.75-5.64,22.52
		c-6.54,3.25-13.38,5.77-20.42,7.68c-3.77-4.24-4.86-9.9-7.48-14.73c-4.9-4.06-11.86-2.52-17.73-2.86c-4.54,0.28-8.4-2.38-12-4.75
		c1.88-2.21,3.05-5.49,6.33-5.92c5.44-0.83,10.42,2.94,15.89,2.44c6.05-0.59,11.01-4.45,16.41-6.88
		c7.36-3.36,14.58-7.12,21.15-11.88c2.84-1.97,4.6-5,6.27-7.94c4.91-0.42,10.14-0.82,13.84-4.49c-0.2599-0.69-0.49-1.36-0.74-2.03
		c3.1-0.94,6.03-2.52,7.94-5.22C627.93,566.44,628.84,564.94,629.79,563.46z"/>
	<path fill="#4B474B" stroke="#4B474B" stroke-width="0.0938" d="M527.95,572.87c3.58-0.53,6.88-2.11,10.11-3.67
		c0.92,0.38,1.86,0.77,2.8,1.18c-1.58,3.21-4.03,6.59-3.04,10.36c0.99,4.69,2.63,9.29,5.12,13.4c3.05,5.27,8.94,8.48,14.99,8.56
		c8.27,0.84,15.67-3.51,22.98-6.64c5.89-3.14,11.69-6.45,17.52-9.69c3.77-1.9,4.3-6.51,5.84-10.03c5.18,0.18,10.39,0.1,15.45-1.22
		c-3.7,3.67-8.93,4.07-13.84,4.49c-1.67,2.94-3.43,5.97-6.27,7.94c-6.57,4.76-13.79,8.52-21.15,11.88
		c-5.4,2.43-10.36,6.29-16.41,6.88c-5.47,0.5-10.45-3.27-15.89-2.44c-3.28,0.43-4.45,3.71-6.33,5.92c3.6,2.37,7.46,5.03,12,4.75
		c5.87,0.34,12.83-1.2,17.73,2.86c2.62,4.83,3.71,10.49,7.48,14.73c7.04-1.91,13.88-4.43,20.42-7.68
		c-0.14-7.77-0.08-16.51,5.64-22.52c-1.92,6.01-2.6,12.33-2.44,18.63c8.73-2.42,16.11-7.81,23.92-12.16
		c5.23-2.95,10.26-6.28,15.7-8.86c6.31-3.0099,12-7.43,16.05-13.17c2.16-3.09,1.78-7.06,1.99-10.63c0.38,0.07,1.13,0.2,1.5,0.27
		c1.16,2.73,2.15,5.53,3.17,8.31c-5.57,9.94-9.25,20.8-15,30.64c-1.25,1.58-2.59,3.1-3.92,4.62c-2.63-1.65-5.41-3.73-8.71-3.13
		c-5.67,0.61-11.74-1.01-17.03,1.7c-13.16,5.98-26.31,12.4-40.51,15.53c-7.55,1.6-14.11,5.9-21.44,8.16
		c-0.26-5.06-0.25-10.6201-3.31-14.9c-2.28-3.34-4.73-6.57-7.34-9.65c-4.67-5.44-11.81-7.5099-17.69-11.28
		c-8.89-5.56-18.26-10.28-27.43-15.33c6.37-1.56,12.97-0.65,19.4-1.59c1.4-1.29,2.71-2.6801,4-4.08c-3.56-1.05-7.16-2.07-10.39-3.92
		c-0.88-1.91-1.11-5.36,1.38-6.04C519.11,573.4,523.65,573.69,527.95,572.87z"/>
	<path fill="#090909" stroke="#090909" stroke-width="0.0938" d="M1006.38,572.95c0.22,6.88-4.42,12.34-7.51,18.08
		c-5.63,8.9399-11.56,17.71-17.67,26.33c-9.24,10.72-18.07,21.78-27.5,32.34c-6.23,6.44-11.68,13.63-18.42,19.58
		c-8.96,8.04-16.61,17.45-26.04,24.96c-15.87,14.27-32.56,27.62-49.9,40.05c-10.81,7.19-21.33,14.88-32.71,21.17
		c-12.33,5.67-24.45,11.8-36.93,17.15c-8.16,3.36-15.35,8.69-23.73,11.53c3.7-5.07,8.82-8.77,13.7401-12.55
		c4.12-2.76,8.17-5.63,12.2599-8.45c6.84-3.21,13.03-7.57,19.21-11.87c10.46-7.06,20.11-15.21,29.92-23.13
		c6.67-5.75,14.11-10.54,20.65-16.45c11.41-9.59,23.57-18.29,34.46-28.51c9.41-8.9,18.98-17.63,28.11-26.81
		c5.33-5.39,11.44-9.96,16.44-15.67c4.37-4.99,9.99-8.64,14.46-13.5c3.2-3.45,6.42-6.89,9.97-9.98
		c9.62-8.41,17.84-18.23,26.51-27.58C996.85,584.3,1001.2,578.26,1006.38,572.95z"/>
	<path fill="#4B474B" stroke="#4B474B" stroke-width="0.0938" d="M630.7,584.72c8.91-4.34,17.95-8.55,27.52-11.28
		c-0.93,0.98-1.83,1.98-2.78,2.93c-11.45,4.17-22.97,8.88-32.55,16.6c-0.7-2.47-1.42-4.93-2.15-7.3799
		c-3.29,1.99-6.68,3.89-9.49,6.56c1.57-2.09,2.21-4.96,4.71-6.22C620.38,582.49,626,587.19,630.7,584.72z"/>
	<path fill="#A2A0A2" stroke="#A2A0A2" stroke-width="0.0938" d="M655.44,576.37c0.72-0.16,2.16-0.47,2.88-0.63
		c-0.21,3.57,0.17,7.54-1.99,10.63c-4.05,5.74-9.74,10.16-16.05,13.17c-5.44,2.58-10.47,5.91-15.7,8.86
		c-7.81,4.35-15.19,9.74-23.92,12.16c-0.16-6.3,0.52-12.62,2.44-18.63c2.7-3.28,5.87-6.17,8.15-9.78c2.81-2.67,6.2-4.57,9.49-6.56
		c0.73,2.45,1.45,4.91,2.15,7.3799C632.47,585.25,643.99,580.54,655.44,576.37z"/>
	<path fill="#8F0C90" stroke="#8F0C90" stroke-width="0.0938" d="M644.07,619.58c1.33-1.52,2.67-3.04,3.92-4.62
		c-8.56,21.57-21.32,41.47-37.42,58.19c0.02-2.7401,0.05-5.48,0.1-8.21c-2.28-0.29-4.56-0.6-6.83-0.9
		c2.72-4.31,5.73-8.41,8.85-12.43c3.56-4.58,5.96-9.9,8.35-15.15c-1.77-0.48-3.34-1.48-5.08-1.93c-4.06-0.05-7.56,2.33-10.69,4.65
		c-5.94,4.55-12.26,8.63-18.96,11.98c-4.87,2.44-10.36,2.96-15.7,3.46c-2.52-3.26-5.38-7.15-9.91-7.28
		c-7.67-0.4901-13.37,6.11-20.92,6.62c2.15-6.7401,8.8-9.97,12.91-15.27c2.68-3.38,1.05-7.96,0.38-11.75
		c3.06,4.28,3.05,9.84,3.31,14.9c7.33-2.26,13.89-6.56,21.44-8.16c14.2-3.13,27.35-9.55,40.51-15.53c5.29-2.71,11.36-1.09,17.03-1.7
		C638.66,615.85,641.44,617.93,644.07,619.58z"/>
	<path fill="#F6F2E7" stroke="#F6F2E7" stroke-width="0.0938" d="M608.01,640.03c2.77-2.48,6.33-3.55,9.97-3.85
		c-0.51,2.06-0.52,4.3-1.55,6.22c-5.6,10.22-13.04,19.86-23.22,25.86c-4.71,2.76-9.06,6.53-14.56,7.59
		c-5.25,1.1801-10.64-1.91-13.45-6.25c-1.71-2.5699,0.54-5.3199,2.36-7.06c5.27-5.28,13.05-6.12,19.32-9.7
		C594,648.69,601.65,645.37,608.01,640.03z"/>
	<path fill="#868586" stroke="#868586" stroke-width="0.0938" d="M818.02,740.94c6.95-5.57,14.34-10.55,22.14-14.85
		c-9.64,9.64-21.29,16.81-32.12,24.98c-5.55,3.76-11.35,7.23-16.07,12.07c-4.09,2.82-8.14,5.69-12.2599,8.45
		c-7.26,3.11-13.51,8.0099-20.51,11.62c-5.35,2.86-10.33,6.37-15.8,9.02c-4.04,1.96-8.08,3.93-12.04,6.05
		c-6.66,3.56-13.85,6-20.55,9.47c-6.89,3.58-14.5,5.55-21.27,9.37c9.61,1.87,18.91-1.88,27.97-4.55c8.86-2.49,16.62-7.83,25.7-9.69
		c-7.3,5.47-16.3,7.43-24.41,11.3c-7.19,3.22-15.11,3.66-22.72,5.24c-5.6,1.19-11.35,1.2-17.02,0.64c-0.05-0.72-0.15-2.16-0.2-2.88
		c0.91-0.67,1.82-1.34,2.74-2c-1.17-0.28-2.34-0.55-3.5-0.8c10.04,0.88,19.66-2.58,28.73-6.45c8.56-3.73,16.99-7.76,25.5-11.61
		c11.24-6.77,23.26-12.31,33.69-20.38c8.97-6.91,19.44-11.55,28.26-18.67C801.8,751.26,810.4,746.81,818.02,740.94z"/>
</g>
<g>
	<path fill="#020202" d="M209.0441,655.2606c2.3514,0.2238,4.2691,1.0017,6.3593,1.5605c2.0915,0.4858,3.8438,1.296,5.9123,1.7975
		c4.3341,0.9609,8.4509,2.1526,12.6657,3.1969c2.4111,0.3503,4.6594,0.895,6.8573,1.4609
		c4.4912,1.0251,9.2981,1.7147,13.8579,2.6207c3.34,0.6998,7.244,0.8344,10.3282,1.7338c-1.4858,2.6907-5.2638,5.0807-7.8631,7.6318
		c-3.1577,2.6923-5.9663,5.4439-9.1676,8.1287c-1.5577,1.6125-3.5217,3.1494-5.2864,4.7224
		c-2.2684,2.374-5.3183,4.6097-7.6621,6.9729c-3.2213,2.6794-5.9673,5.4465-9.1738,8.1259
		c-2.2876,2.4026-5.5525,4.6285-7.6685,7.0576c-2.5033,2.1867-4.7976,4.4091-7.1713,6.6199
		c-3.3312,2.8178-6.5818,5.8411-11.706,8.01c-4.3686,1.5349-9.106,2.6696-13.8084,3.2601
		c-5.4342,0.3121-10.7574-0.089-15.0441-1.4627c-2.1795-0.7491-3.4859-2.1824-3.3065-3.7737
		c0.0995-2.779,3.3091-5.5928,7.5226-7.308c5.9537-2.2805,12.9624-3.3636,19.5764-3.4564c4.4379,0.2399,8.9505,0.6733,12.395,1.9467
		c0.6243,0.2247,1.3058,0.4075,2.0347,0.5476c1.874-1.5933,4.0115-3.1328,5.6547-4.779c6.1558-5.2224,12.1105-10.4913,17.9526-15.78
		c2.8458-2.3103,5.0793-4.7479,7.9921-7.0422c2.2068-2.3831,5.3077-4.6034,7.5939-6.9745c0.9366-1.0594,2.6315-1.9928,3.2415-3.0931
		c-3.2475-0.3466-6.1021-1.1177-9.4082-1.424c-3.9009-0.8172-7.9165-1.5372-11.8537-2.3553
		c-2.8038-0.4736-5.2589-1.2981-7.9721-1.8757c-4.6737-0.8452-8.7927-2.3133-13.2728-3.4095
		c-2.7642-0.5121-4.9736-1.6053-7.6216-2.2454c-1.8826,1.7449-4.0648,3.3801-5.847,5.1637
		c-1.8827,1.8704-4.2665,3.556-6.0432,5.4633c-2.3003,1.8945-4.4263,3.856-6.5414,5.8226c-2.6818,2.1431-4.819,4.4893-7.4964,6.6328
		c-1.5016,1.1651-2.5448,2.4946-4.0291,3.6688c-2.8485,2.433-5.4493,4.9623-8.2572,7.4114
		c-2.1432,2.3972-4.922,4.5748-7.4129,6.8503c-2.4857,1.9417-5.0613,3.9421-8.4606,5.2922
		c-6.4179,2.0456-13.9244,3.0197-20.087,1.3281c-2.8789-0.519-5.3455-1.6254-7.365-3.0043
		c-2.1782-1.6815-1.8502-4.3256-0.3917-6.3928c1.4549-2.2871,4.473-4.0177,7.7793-5.019c5.416-1.6129,11.4941-2.0225,17.0824-1.3148
		c3.4159,0.5737,6.6459,1.5086,9.4036,2.8335c1.0021,0.4891,1.9396,1.0411,3.1202,1.3771c0.9167-1.1964,2.2514-2.26,3.5944-3.3008
		c1.8982-1.4372,3.3638-3.0543,5.2116-4.5135c2.2132-1.7044,3.8931-3.6191,6.1358-5.3122c2.1159-1.9682,4.2849-3.9112,6.618-5.7932
		c2.0138-2.2109,4.7937-4.1486,6.9013-6.3326c1.433-1.4719,3.3736-2.75,4.7894-4.2311c2.2057-2.226,4.9529-4.2528,7.0893-6.5007
		c3.1443-2.5677,5.8705-5.2905,8.8248-7.9296C206.5653,656.9202,207.758,656.0626,209.0441,655.2606 M204.8361,662.1161
		c-0.3509,0.4462-0.7352,0.8865-1.0585,1.3405c2.684,0.8044,5.1851,1.8018,8.1017,2.348c3.6931,1.0716,7.3669,2.1524,11.2679,2.9862
		c3.6898,0.6843,6.8716,1.8846,10.7154,2.3709c3.5641,0.7362,7.0994,1.4917,10.6968,2.1558
		c3.3714,0.2466,6.1277,1.1465,9.4624,1.3998c0.2655-0.5054,0.9686-1.0444,0.8344-1.5314
		c-8.1549-0.9913-15.81-2.5908-23.5212-4.1816c-3.2025-0.9861-6.9178-1.4407-10.1428-2.4252
		c-3.0384-0.871-6.2134-1.6121-9.2671-2.4879C209.444,663.556,207.4248,662.5376,204.8361,662.1161z"/>
	<path fill="#020202" d="M-27.8273,371.4174c0.1961,2.3799,0.6766,4.5045,0.7935,6.9654c-0.9358,1.8146-2.112,2.1405-3.1905,3.1734
		c-1.0966,0.9019-2.2226,1.1553-3.3063,2.2639c-1.9252,1.9061-3.9181,2.7613-5.8481,4.6312
		c-2.1028,1.6281-4.2163,3.0333-6.3135,4.7455c-2.7861,2.6459-5.6299,4.2027-8.4325,6.5399
		c-4.5462,3.8376-9.1349,6.7941-13.6741,10.7242c-0.8546,0.858-1.7302,1.2381-2.5941,1.9247
		c-2.7207,2.2627-5.4343,4.9131-8.1834,6.3115c-1.6687,0.7962-3.4296,2.2522-4.9958,1.9091c-1.8994-0.5302-3.6121-1.926-4.9741-4.05
		c-1.7057-2.4759-2.5103-6.8316-2.7459-11.538c-0.223-2.6626-0.0428-6.1209,1.0353-9.2594c0.718-2.4434,1.8314-4.3187,2.8917-5.8861
		c1.2304-1.8713,2.4448-2.0922,3.6297-2.7352c1.5571-0.9679,2.7128,0.2362,3.8708,1.1189
		c3.8211,3.4146,6.2531,12.1591,5.4289,23.1429c1.7249-0.9026,3.4418-2.7058,5.1723-3.775c1.4118-1.3641,2.8389-1.8084,4.254-3.0023
		c2.6828-1.8975,5.3358-4.5137,8.028-6.0844c2.0509-1.5431,4.0891-3.3144,6.1407-4.8486c2.7222-2.2437,5.4631-4.039,8.1869-6.2941
		c1.7554-1.5948,3.5291-3.0034,5.3126-3.9159c0.1202-2.1263-0.2799-3.8254-0.5089-5.6395
		c-0.3552-3.5114-0.6329-7.0827-1.0003-10.5443c-0.1281-2.6144-0.252-5.2201-0.517-7.6756
		c-0.1007-4.7852-0.4345-9.3123-0.3833-14.1907c0.0445-2.6952-0.1646-5.1201,0.0237-7.935
		c0.1086-3.668,0.0369-7.1452,0.3745-10.9964c-1.895,2.0003-3.6705,2.6051-5.5485,4.3484c-1.2185,0.8145-2.511,2.3212-3.7045,2.932
		c-2.4163,1.553-4.891,3.6478-7.3562,5.6481c-4.1985,2.8941-8.4693,6.4061-12.699,9.6354
		c-1.9387,0.9982-4.0711,3.5981-6.0482,4.8759c-2.5457,2.0625-5.0265,3.6648-7.3944,4.5852
		c-2.0311,0.9727-3.2778-1.1242-4.2357-3.3739c-0.6991-1.6499-1.2069-3.7579-1.1608-6.7476
		c0.0264-3.9209,0.4115-8.4009,1.5947-13.6025c0.7516-3.9767,2.54-8.7763,4.3671-11.9516c2.2391-3.835,4.4713-6.4152,5.7753-6.0493
		c2.855,1.4219,3.7268,8.4974,3.0671,18.368c-0.4927,4.5412-0.8869,9.1548-1.9367,14.2067
		c2.4848-1.9469,4.8648-3.1807,7.3913-5.4412c1.1692-1.0997,2.2023-1.24,3.3716-2.3507c0.8216-0.7021,1.5704-0.9016,2.393-1.6206
		c2.8048-2.6412,5.4672-4.1144,8.233-6.4049c1.1815-0.8503,2.3882-1.8998,3.551-2.6078c2.5149-2.4121,4.8892-3.6252,7.3642-5.6928
		c1.0105-1.0056,1.9737-1.5674,2.9277-2.109c0.4526-2.3879,0.3753-4.344,0.6616-6.5975
		c1.2364-15.2093,3.5833-31.3373,7.7502-48.4981c1.1495-5.2051,2.893-10.9511,4.3468-16.3222
		c-2.2007,1.0032-5.1645,4.2639-7.3057,5.1022c-1.3928,1.1304-2.6704,1.9193-4.1702,3.3738
		c-3.9485,2.4895-8.3294,6.2212-12.331,8.9094c-1.1778,1.0441-2.0138,1.1534-3.282,2.4482
		c-1.5231,1.6186-2.6165,2.0424-3.9716,3.1958c-1.3299,0.7517-3.1447,2.7995-4.328,3.1609
		c-1.6233,0.5549-3.8653,2.2373-3.7061-1.0092c0.1803-3.6951,1.2407-8.9317,4.5038-16.8555
		c2.7062-6.4503,6.4155-14.014,11.3561-22.5267c2.9573-4.9822,6.3258-10.325,10.0956-15.8677
		c6.4374-9.1946,12.5796-16.8115,13.8135-17.9048c0.4991-0.4015,2.3326-2.6283,1.0163-0.5428
		c-1.5774,2.528-2.4866,4.2711-4.6931,8.0883c-5.0142,8.6977-10.7568,20.3264-16.1648,32.6954
		c-1.758,3.907-3.4314,7.8104-5.0026,11.6459c-1.9683,4.4577-3.9386,8.9094-5.7346,13.2243
		c2.6476-2.0666,4.8608-3.0126,7.445-4.8938c2.0834-1.868,3.8976-2.9993,5.6352-3.9453c5.0188-4.1189,9.5107-6.7665,14.6342-11.1337
		c1.6172-0.7581,3.4925-2.2211,5.4683-4.0003c1.6995-1.0779,3.5527-2.6006,5.3848-4.0633c0.6461-0.4309,1.3152-0.811,1.0405,0.9609
		c-0.428,1.9038-1.1764,4.2154-1.778,6.3565C-31.5845,294.6068-32.0902,335.8577-27.8273,371.4174 M-34.6369,371.1131
		c-0.1032-2.2553-0.4641-4.2415-0.6017-6.4443c-0.1651-2.5915-0.3298-5.1777-0.4905-7.7502
		c-0.2991-3.0396-0.1916-6.4731-0.4366-9.5303c0.0022-4.7243-0.1823-9.2351-0.0434-14.0289c0.186-3.1754-0.0116-5.948,0.2861-9.2043
		c-0.4026,0.2297-0.806,0.4649-1.2118,0.7171c-0.2985,3.8069-0.2705,7.3239-0.3279,10.936
		c-0.2042,2.9648-0.0056,5.5365,0.0126,8.3037c-0.0955,3.514,0.1368,6.7232,0.2681,10.0479
		c0.0001,3.9876,0.5476,7.4464,0.6268,11.3947c0.561,5.2006,0.8717,10.7142,1.7506,15.6667
		c0.2717-0.1618,0.8127-0.4841,1.0819-0.6398C-33.6663,377.0964-34.492,374.407-34.6369,371.1131 M-34.4786,304.9013
		c0.5405-3.7539,0.7664-7.1707,1.3796-10.946c0.8184-5.2689,1.5028-10.351,2.7144-15.899c0.8248-4.909,2.1621-10.3008,3.3866-15.508
		c0.987-4.2717,2.3943-8.9299,3.6205-13.3503c-0.4018,0.2937-0.7972,0.5461-1.3348,1.3005
		c-1.1065,4.2276-2.4126,8.7272-3.5083,13.0407c-1.1344,5.0523-2.4939,10.3994-3.3704,15.3075
		c-0.6316,3.6079-1.5094,7.4999-1.9407,10.9558c-0.3489,2.8173-1.0284,5.9801-1.2982,8.7538
		c-0.5482,4.8986-1.303,10.0606-1.5347,14.7225c-0.1818,2.5678-0.5946,5.3694-0.576,7.7621
		c0.2594-0.146,0.7759-0.4367,1.0322-0.5759C-35.2574,315.0988-35.0274,310.11-34.4786,304.9013z"/>
	<path fill="#020202" d="M61.2492,496.1321c1.0608,0.8451,2.2347,2.0789,2.2066,3.7363c0.0702,1.3044-0.5859,2.4438-1.0928,3.5469
		c-2.2537,4.3213-5.3692,7.8799-8.22,11.6453c-1.7157,1.7982-3.4322,3.6071-5.2707,5.2332c-1.8929,1.2753-3.7295,2.6735-5.726,3.717
		c-5.7568,3.0214-12.1541,3.8205-18.285,3.1957c-6.5191-0.6428-12.7704-2.8268-18.9413-4.7702
		c-3.8747,3.7154-7.6273,7.6431-11.4437,11.4601c0.9495,2.3979,2.0081,4.7454,2.6359,7.3251
		c1.1689,3.4795,2.1395,7.1326,2.2791,10.9159c0.0006,6.0884-2.1157,11.9861-5.328,16.6572
		c-1.3255,2.097-3.1714,3.6017-4.8383,5.2957c-4.1521,3.3202-9.0113,5.253-13.9234,5.9752
		c-4.1994,0.5577-8.5293,0.2335-12.3979-1.6685c-2.8524-1.2419-5.2736-3.4634-7.5065-5.8809
		c-2.0184,2.0314-4.0276,4.0978-6.2271,5.8006c-1.4351,1.6014-3.2098,2.5146-4.6823,4.0484
		c-1.0783,0.8596-2.1659,1.7037-3.2194,2.6235c-2.3773,1.4801-4.793,3.0543-7.421,3.5229c-4.668,1.264-9.6336,0.0451-13.3696-3.4623
		c-1.9068-2.1304-3.8685-4.3863-4.8574-7.5372c-2.0011-4.8412-2.5463-11.23-0.6171-16.6576
		c1.3847-4.1058,4.0918-7.0983,6.9792-8.7858c2.2552-1.2959,4.9017-1.633,7.0229-0.0567c2.8186,1.9172,5.0398,5.577,5.6518,9.9543
		c0.7506,3.4567,0.2941,7.5649-1.5751,10.3906c-0.9567,1.0731-1.9578,2.1005-3.0144,2.9987
		c-2.4887,1.5344-5.3756,1.3283-7.7685-0.0377c-1.4482-1.0007-3.0255-1.8617-4.0503-3.6309
		c-0.3235,0.2838-0.6477,0.5735-0.9686,0.8698c0.1925,3.8376,1.9482,7.1013,4.046,9.4157c2.9685,3.301,7.1746,4.4528,11.1007,3.4472
		c2.3466-0.4174,4.5014-1.8347,6.6891-2.9901c3.0787-2.2218,6.2741-4.2374,9.0426-7.1137c1.9729-1.441,3.6755-3.3852,5.4921-5.1196
		c-1.0368-1.8169-2.2157-3.5096-3.0584-5.4954c-0.945-2.9044-2.2241-5.6468-2.6862-8.8158
		c-1.346-6.2995-1.4884-13.2547,0.0526-19.8058c2.1736-9.4793,6.8234-17.6808,12.1639-24.2572
		c1.9373-1.9404,3.7962-4.1008,5.9215-5.5746c3.0474-2.1152,6.2429-3.8635,9.5772-4.3713
		c6.1888-0.7888,12.3989-0.0695,18.5257,1.3308c5.7662,1.54,11.4564,3.7219,17.1135,6.234
		c0.5784,0.2569,1.1524,0.5827,1.7807,0.6241c1.6764-0.5688,2.8895-2.3275,4.2234-3.6589c2.0662-2.9135,4.7923-4.7649,7.2506-7.0308
		c6.6279-5.2926,14.4126-8.5468,22.2556-8.1837C51.8237,491.343,56.8528,493.0124,61.2492,496.1321 M53.0473,501.9283
		c-2.8473-0.896-5.7647-1.4889-8.7001-1.5627c-9.2937-0.6302-18.6804,3.0467-26.2636,9.85
		c-0.7967,0.8252,0.0051,2.3718,0.8359,2.5663c3.9951,1.6121,8.1149,2.9562,12.362,3.5862
		c4.6435,0.6391,9.4672,0.6609,14.0486-1.0005c4.0234-1.28,7.6122-4.1058,10.5409-7.5779c0.7309-1.1718,1.8608-2.0204,2.1788-3.4933
		C56.5577,503.0434,54.7708,502.5169,53.0473,501.9283 M-0.2782,520.0203c-5.2646-1.9728-10.3439-4.7274-15.774-5.4485
		c-6.6374-1.134-13.6731,0.4603-19.5908,5.3408c-1.7853,1.6878-3.5616,3.4017-5.2581,5.2707
		c-3.8754,4.8788-7.0874,11.2856-7.856,18.4069c-0.5929,3.9814-0.1178,7.9946,0.6451,11.7556
		c1.2822,4.0278,2.6538,8.0923,4.9423,11.3062c9.0103-9.0333,18.0331-18.039,27.0359-27.0847
		c-3.3041-5.3757-9.5622-6.6978-14.307-3.5496c-1.241,0.9222-2.5933,1.6119-3.6534,2.928
		c-1.7822,2.2654-3.4896,4.8091-4.2355,7.9701c-0.3204,1.0867-0.313,2.4489-1.2078,3.0813
		c-1.1175-2.5438-0.5509-5.6112,0.1071-8.325c1.4338-5.2205,3.7356-10.2792,7.1396-13.6309
		c3.6243-4.0709,8.6569-5.3335,13.0476-3.8278c2.3557,0.8032,4.8296,1.0787,7.1594,2.1092
		c1.6265,0.6857,3.1667,1.6804,4.7984,2.3816c0.8331,0.3672,1.7678,0.251,2.5587-0.3052c1.9723-1.0503,3.5328-2.9769,5.2144-4.6163
		c0.7729-0.7194,1.3539-1.6911,1.9868-2.5902C1.592,520.6704,0.6466,520.381-0.2782,520.0203 M-14.5035,542.2687
		c-8.8928,8.8956-17.7818,17.7973-26.6664,26.6996c3.1822,4.3717,8.3471,6.2228,13.0986,5.0256
		c5.4001-1.3795,10.1816-5.4646,13.6229-10.6594c1.9576-3.3135,3.3092-7.355,3.0238-11.4766
		C-11.6995,548.3762-12.6638,544.9117-14.5035,542.2687z"/>
	<path fill="#020202" d="M315.5896,674.5042c1.2292-1.1895,2.3649-2.4264,4.5062-3.5668c1.5076-0.2268,1.8444,0.4203,1.4781,0.9707
		c-1.1674,1.816-2.4142,3.6468-3.0237,5.3825c-0.4335,2.2975-0.0393,4.4698,2.0047,6.0331c0.6441,1.489,2.8259,2.4488,3.6641,3.8371
		c0.8162,1.218,2.0515,2.2787,2.8996,3.4532c0.7172,1.493,0.9438,3.1545-0.3819,5.156c-2.3456,3.5505-8.4505,7.6661-15.1067,11.5447
		c-4.7118,2.6566-9.4529,5.3916-15.2535,7.7398c-0.0693-0.079-0.2134-0.2353-0.2823-0.3147
		c1.9153-1.0824,4.3394-2.067,6.2645-3.1573c7.1563-3.9561,11.3507-8.1095,12.4644-11.5016
		c0.4099-1.7432,0.4782-3.454-1.4675-4.5493c-1.554-1.629-6.3577-2.128-11.9622-1.4802c-0.2845,0.0936-0.8511,0.2821-1.1334,0.377
		c-2.9215,2.4142-4.6149,4.789-7.1952,7.1974c-3.5769,3.8723-7.5905,7.7683-11.266,11.6472
		c-1.7349,2.0528-3.7039,4.1207-5.5576,6.1825c-2.694,2.6498-5.1735,5.3484-9.4871,7.9755
		c-1.6046,1.0876-3.9772,1.9801-6.2335,2.8327c-3.8925,1.7025-8.434,2.8884-12.7742,3.9219
		c-6.2254,0.9935-12.7973,1.6268-17.2502,0.4924c-2.6774-0.6417-3.0727-2.3772-2.3194-4.0305
		c0.9141-2.4612,4.7619-5.0576,9.5767-6.7902c4.1161-1.5414,8.642-2.8071,13.2139-3.8c7.0721-1.3261,14.2284-1.7153,20.0072-1.2584
		c0.5797,0.0647,1.5053-0.3199,1.8596-0.6094c0.7212-0.5953,1.2872-1.1907,1.8839-1.7852c2.504-2.6466,5.349-5.3058,8.0516-7.9601
		C293.8915,697.1223,304.7052,685.8152,315.5896,674.5042 M311.3488,689.5438c0.3004,0.322,0.7063,0.6151,1.4794,0.7354
		c1.9518,0.4229,3.359,1.082,4.3746,1.8661c1.202,0.9377,2.8832,1.7076,2.9394,2.997c0.0789,0.7114-0.4985,1.6042,0.081,2.1707
		c0.6459-0.4589,1.3854-0.9478,1.5446-1.3575c0.5774-1.2336,0.9905-2.4833-0.14-3.2689c-1.1469-0.8487-2.2568-1.738-3.8611-2.4537
		C315.8811,689.8994,314.2715,689.223,311.3488,689.5438z"/>
	<path fill="#020202" d="M-13.181,426.7666c0.2754,0.9401,0.1781,1.9977-0.4286,2.7286c-2.7154,3.747-5.5795,7.4619-7.4799,12.4343
		c-3.7058,9.9148-5.3159,20.968-8.908,30.7203c-1.4791,3.9685-3.4098,7.6876-5.9578,10.1646
		c-5.5141,5.3055-11.9089,7.2747-18.0145,7.5711c-0.751,0.0371-1.4678-0.2599-2.0898-0.7953
		c1.9825-1.2473,4.0693,0.012,6.0382-1.4702c6.1402-2.6133,11.6552-10.162,14.038-19.5555c0.682-2.6871,0.911-5.5652,0.8435-8.3292
		c-0.2761-2.4366-0.8663-4.6962-1.6689-6.6966c-2.2906,1.9353-4.4338,4.4615-6.6806,6.5916
		c-2.5882,2.2681-4.9308,5.3386-7.5449,7.5215c-1.1185,0.9108-2.0918,2.2916-3.165,3.3583
		c-2.9686,2.8298-5.8522,5.9424-8.6826,9.1869c-2.9088,2.7202-5.8788,5.3427-8.9988,7.0772
		c-2.6177,0.8416-5.1466-0.2786-7.3502-1.8598c-2.7591-1.7386-4.3763-6.0518-5.72-10.2056
		c-0.3709-1.6338-0.5888-3.416-0.7115-5.2275c0.1152-3.7452,1.3437-7.5855,3.0741-10.2532
		c2.3246-3.4807,5.3342-4.9564,7.8722-4.1179c3.5997,1.0653,6.8453,4.3512,8.8367,9.6073
		c1.2476,3.0617,1.7654,6.8755,2.3803,10.5235c4.2002-4.2032,8.5266-7.9645,12.6737-12.3564
		c1.5282-1.6539,3.1733-2.8684,4.6941-4.5454c1.7106-1.9464,3.4919-3.6886,5.3026-5.3054c3.0877-3.2981,6.2123-6.462,9.3701-9.5271
		c1.5369-1.5239,2.9603-3.4375,4.57-4.6972c1.9368-1.76,3.7165-4.0155,5.6554-5.763
		C-18.5996,431.1327-16.1256,427.5223-13.181,426.7666 M-30.8092,454.3748c-0.5705,1.6219-0.4012,3.3704-0.5814,5.0677
		c-0.5246,5.0682-1.4931,10.2013-3.3825,14.6194c-0.4988,1.207-1.3686,2.1408-1.486,3.6198c1.095-0.7,1.8248-2.2509,2.6033-3.5813
		c2.2672-4.6012,3.2836-10.424,3.2482-15.9129C-30.3448,456.8386-30.3829,455.4784-30.8092,454.3748z"/>
	<path fill="#020202" d="M72.1421,565.3124c3.2999-0.5021,6.6692-0.0496,9.9112,0.73c1.4926,0.701,3.0054,1.4188,4.3494,2.3952
		c0.3789,1.029,0.2447,2.2144-0.367,3.1365c-0.8904,1.9259-2.4039,3.459-3.4798,5.2728c-1.3688,1.5862-2.797,3.1329-4.2375,4.665
		c-2.8637,2.5497-6.2489,4.6363-10.0125,5.6638c-5.8946,1.6324-12.0908,1.1812-17.9823,0.2153
		c-1.5937-0.0712-3.1222-0.6991-4.7095-0.6595c-1.5413,1.219-2.8755,2.6697-4.1781,4.1436c-1.2001,1.0422-2.266,2.231-3.4383,3.3023
		c1.7776,2.6978,3.2252,5.6066,4.36,8.6151c1.0597,3.567,0.3903,7.4979-1.4689,10.6767c-1.5458,3.0341-4.0242,5.5743-7.0526,7.2383
		c-5.6347,3.0839-12.7241,4.1018-18.6728,1.4937c-1.197-0.6277-2.333-1.3591-3.4828-2.0495
		c-3.0437,2.6101-5.8668,5.4974-9.1154,7.8509c-2.4622,1.8668-5.3169,3.3639-8.406,3.6045c-2.416,0.1714-5.0092-0.017-7.073-1.4458
		c-1.2161-0.8116-2.5005-1.5373-3.5875-2.5295c-1.4647-1.7993-2.7992-3.8728-3.2216-6.274
		c-0.651-2.8149-0.0675-6.0121,1.6842-8.2493c2.0436-2.3763,5.1627-4.3071,8.1999-3.2416c1.7786,0.8832,3.5788,2.0715,4.5763,3.9666
		c1.1324,2.0835,1.7062,4.7491,0.7223,7.0119c-1.1819,2.542-3.9863,3.8774-6.592,3.6365c-2.1337-0.0054-3.744-1.8707-5.8479-2.0336
		c1.0419,4.7562,5.9061,7.8145,10.396,7.2204c3.859-0.4359,7.1438-2.8016,10.2337-5.0634c2.1781-1.8464,4.4201-3.6502,6.2321-5.8945
		c-1.7542-2.2276-3.6178-4.4155-4.7262-7.1036c-1.9751-4.4674-2.7987-9.6702-1.5427-14.5536c1-3.356,2.0763-6.7886,4.1-9.6019
		c2.0486-2.6688,4.1177-5.4382,6.8502-7.2941c2.0433-1.5333,4.3087-2.7733,6.7573-3.2808
		c7.8985-1.7411,16.1433-0.8947,24.0993,0.8809c1.5872,0.3286,3.1553,0.8318,4.7855,0.92c0.949-0.5151,1.6257-1.3867,2.3421-2.1804
		C57.6805,570.818,64.4375,566.151,72.1421,565.3124 M80.7141,571.5743c-7.2834-1.6473-15.105-0.5819-21.5246,3.1119
		c-2.0775,1.2887-4.3918,2.4843-5.7801,4.5988c0.5872,0.3347,1.1625,0.7545,1.8516,0.8778
		c6.2122,1.2218,12.9318,1.9442,19.0569-0.406c3.5984-1.4185,6.8405-3.9347,8.4614-7.4368
		C82.1036,572.0176,81.4448,571.6863,80.7141,571.5743 M27.236,583.6587c-7.4426,0.1655-14.882,4.3787-18.5725,11.4738
		c-1.2734,1.9189-1.8462,4.2438-2.1935,6.5352c-0.5001,4.0552,0.8193,8.1566,3.0646,11.3821
		c0.9476,1.1314,1.7022,2.5001,3.0173,3.2344c1.2928-1.7435,3.1078-2.9692,4.5002-4.6185c2.6052-2.483,5.0581-5.1293,7.6994-7.5695
		c1.7939-2.072,4.0393-3.6863,5.7058-5.8815c-1.3394-0.8821-2.6752-1.918-4.2982-2.0997
		c-5.8524-1.2827-11.8709,4.0421-12.0276,10.2243c-0.1893-0.1617-0.5658-0.4886-0.7546-0.6508
		c-0.8618-1.9686-0.2191-4.1785,0.1832-6.1868c1.0965-3.1187,2.72-6.2913,5.4433-8.1083c2.3365-1.7747,5.351-2.3423,8.17-1.878
		c2.3657,0.2518,4.7496,0.5021,7.0729,1.1265c1.2056,0.3812,2.606,1.2097,3.7979,0.3183c1.8162-1.3378,3.6449-2.8472,4.6724-4.9388
		C37.5404,585.1563,32.475,583.3668,27.236,583.6587 M31.6325,599.7451c-0.5271,0.7536-1.1211,1.4545-1.7581,2.1172
		c-5.444,5.1876-10.6513,10.6251-16.0704,15.8401c0.4543,0.2897,0.9154,0.5822,1.3868,0.8712
		c2.7297,1.8711,6.3375,1.9684,9.4313,0.9752c2.7888-1.0342,5.2377-2.8511,7.2509-5.0104c1.009-1.4411,1.9241-2.968,2.6304-4.5776
		c0.6375-2.3541,0.551-5.0089-0.6619-7.1827C33.2794,601.6529,32.7044,600.4572,31.6325,599.7451z"/>
	<path fill="#020202" d="M64.1183,669.5497c-1.3954,0.5211-2.8961,0.8099-4.3658,1.1392c-2.6414,0.6448-5.3663,0.1763-8.0218,0.0513
		c-6.3747-0.8185-12.0067-3.9883-16.3495-7.9561c-3.2446-2.7462-4.1916-7.5226-1.9017-11.0728
		c0.9282-1.7591,2.7908-2.8154,4.5702-3.751c2.9017-1.1505,6.1291-0.8691,9.2084-0.7198
		c9.0662,0.8842,17.1889,5.6737,22.8164,11.7573c2.334-1.7731,4.2765-3.8718,6.417-5.8002
		c13.131-12.4827,25.7097-25.353,38.468-38.0992c1.9262-1.9191,3.4777-4.4666,6.6306-5.1064
		c1.3884,1.0081,0.3893,2.5276-0.2792,3.647c-2.1902,2.6157-4.8948,4.9052-7.2743,7.3994
		c-10.4246,10.3986-20.8608,20.7867-31.2854,31.1854c-5.1716,4.8747-9.354,10.44-15.0243,14.9544
		C66.5502,667.9916,65.47,668.9282,64.1183,669.5497 M62.9032,662.326c-0.4708-1.5801-2.0568-2.6386-3.5409-3.553
		c-3.8729-2.2216-8.1949-3.8829-12.7139-4.7443c-2.2901-0.3297-4.6643-0.7664-6.9066,0.0161
		c-0.2412,0.3327-0.4913,0.6605-0.7495,0.9865c0.1537,2.0026,2.0346,3.2434,3.6564,4.3636
		c4.9266,2.8373,10.6969,4.8436,16.763,4.8595C60.8025,664.1075,62.9298,663.8743,62.9032,662.326z"/>
	<path fill="#020202" d="M156.7287,637.248c0.8657-0.3655,1.7772,0.0023,2.633,0.1353c-1.1799,1.39-2.2683,2.819-3.5138,4.1788
		c-2.1457,1.7864-3.9535,3.7553-5.887,5.6566c-9.7957,9.8326-19.5477,19.6851-29.3694,29.5087
		c-4.755,4.7712-8.7099,10.1046-15.0411,13.9542c-2.3807,0.8831-4.9615,1.3882-7.4806,1.94
		c-4.5735,0.6313-9.2097-0.2161-13.0222-1.9112c-2.3838-1.1097-4.6717-2.532-5.8408-4.5233
		c-1.2101-3.5996,1.3999-7.722,5.6713-9.476c2.3958-0.6501,4.8418-1.2887,7.351-1.6115c4.6605-0.088,9.626,0.4094,13.4356,2.5104
		c2.3458,0.9896,4.1649,2.4543,6.142,3.7675c13.8567-13.2601,27.1734-26.8069,40.5138-40.3384
		C153.5889,639.6793,154.6972,638.101,156.7287,637.248z"/>
	<path fill="#020202" d="M426.7229,652.0154c1.9115-0.969,2.0658-0.6119,2.2932-0.5255c-0.4071,1.0378-1.0457,2.1836-1.1242,3.0646
		c1.3651,0.2195,2.3112,0.6361,5.1996-0.1301c2.3763-0.6894,3.4046-0.6489,6.1921-1.7277c3.173-1.0299,7.6338-3.0239,10.5627-4.23
		c3.3804-1.4177,7.1784-3.3053,10.7605-5.2953c4.1454-2.0557,7.3594-3.9839,3.9169-0.8288
		c-6.2865,5.7256-22.0377,18.1124-37.8329,28.9519c-1.1457,0.7421-3.4196,2.1968-4.5371,2.9032
		c0.3513-0.3944,1.3749-1.1538,2.9333-2.2081c5.9628-4.0588,9.4504-6.8598,13.4292-9.9368
		c4.4086-3.3776,7.2132-5.8013,9.9847-8.1946c4.0002-3.4894,3.5876-3.9117-1.3517-1.8455
		c-7.9821,3.7426-20.5392,9.2313-30.3268,12.1624c-2.3244,1.9719-3.5018,3.4549-5.2927,5.2007
		c-5.4424,5.3647-10.6324,10.6207-15.8966,15.9085c-3.0266,3.0818-5.2797,5.8287-9.2068,9.2993
		c-2.3788,2.0584-5.4604,4.5104-11.0975,7.6638c-6.8683,3.8973-14.62,7.955-22.6132,11.1158
		c-5.3658,2.1547-10.73,4.0851-15.4276,5.2819c-3.1888,0.8085-5.9602,1.1068-6.5381,0.4467
		c-2.0725-1.0215,2.0504-4.3101,8.1282-7.3164c5.1624-2.709,11.4512-5.4501,18.0007-8.1478
		c8.7568-3.5536,18.1052-6.924,26.7089-10.1649c11.3131-10.553,20.8347-20.3799,30.9136-30.4337
		c2.3148-2.3404,4.6791-4.7014,6.9417-7.0214C422.688,654.8813,423.3159,653.9191,426.7229,652.0154z"/>
</g>
</svg>
